<?xml version="1.0" encoding="utf-8"?>
<!-- Generator: Adobe Illustrator 16.0.0, SVG Export Plug-In . SVG Version: 6.00 Build 0)  -->
<!DOCTYPE svg PUBLIC "-//W3C//DTD SVG 1.1//EN" "http://www.w3.org/Graphics/SVG/1.1/DTD/svg11.dtd" [
	<!ENTITY ns_extend "http://ns.adobe.com/Extensibility/1.0/">
	<!ENTITY ns_ai "http://ns.adobe.com/AdobeIllustrator/10.0/">
	<!ENTITY ns_graphs "http://ns.adobe.com/Graphs/1.0/">
	<!ENTITY ns_vars "http://ns.adobe.com/Variables/1.0/">
	<!ENTITY ns_imrep "http://ns.adobe.com/ImageReplacement/1.0/">
	<!ENTITY ns_sfw "http://ns.adobe.com/SaveForWeb/1.0/">
	<!ENTITY ns_custom "http://ns.adobe.com/GenericCustomNamespace/1.0/">
	<!ENTITY ns_adobe_xpath "http://ns.adobe.com/XPath/1.0/">
]>
<svg version="1.1" id="Layer_1" xmlns:x="&ns_extend;" xmlns:i="&ns_ai;" xmlns:graph="&ns_graphs;"
	 xmlns="http://www.w3.org/2000/svg" xmlns:xlink="http://www.w3.org/1999/xlink" x="0px" y="0px" width="170px" height="40px"
	 viewBox="0 0 170 40" enable-background="new 0 0 170 40" xml:space="preserve">
<metadata>
	<sfw  xmlns="&ns_sfw;">
		<slices></slices>
		<sliceSourceBounds  height="35.835" width="125.987" y="262.729" x="422.18" bottomLeftOrigin="true"></sliceSourceBounds>
	</sfw>
</metadata>
<g>
	<path fill-rule="evenodd" clip-rule="evenodd" fill="#28255A" d="M54.481,1.937c0,0.235,0.079,0.471,0.079,0.627
		c0,6.664,0,13.328,0,20.384c-4.545-4.469-8.934-8.781-13.479-13.093c-4.388,4.233-8.777,8.545-13.401,13.014
		c0-7.134,0-14.033,0-20.932C36.614,1.937,45.548,1.937,54.481,1.937L54.481,1.937z M29.717,4.132c0,4.626,0,9.094,0,13.876
		c1.254-1.253,2.43-2.273,3.449-3.371c0.391-0.391,0.705-1.097,0.705-1.646c0.078-2.587,0-5.253,0-7.839c0-0.314,0-0.706,0-1.02
		C32.382,4.132,31.128,4.132,29.717,4.132L29.717,4.132z M52.522,18.008c0-4.782,0-9.329,0-13.876c-1.41,0-2.742,0-4.152,0
		c0,3.214,0,6.35,0.079,9.486c0,0.234,0.078,0.47,0.234,0.627C49.858,15.499,51.112,16.675,52.522,18.008L52.522,18.008z
		 M42.1,4.132c0,1.098,0,2.038,0.078,2.979c0,0.313,0,0.784,0.157,1.019c1.254,1.254,2.586,2.509,3.997,3.92
		c0-2.823,0-5.332,0-7.918C44.92,4.132,43.588,4.132,42.1,4.132L42.1,4.132z M35.987,11.893c1.41-1.333,2.664-2.587,3.918-3.763
		c0.078-0.157,0.235-0.314,0.235-0.47c0-1.177,0-2.353,0-3.528c-1.489,0-2.821,0-4.153,0C35.987,6.718,35.987,9.149,35.987,11.893
		L35.987,11.893z"/>
	<path fill-rule="evenodd" clip-rule="evenodd" fill="#28255A" d="M54.403,25.848c-0.314,5.488-5.329,11.604-12.774,11.916
		c-6.975,0.234-13.087-4.938-13.871-11.916C36.614,25.848,45.469,25.848,54.403,25.848L54.403,25.848z M30.345,27.729
		c0.626,4.312,6.034,8.153,11.049,7.997c4.938-0.157,10.11-4.077,10.424-7.997C44.686,27.729,37.476,27.729,30.345,27.729
		L30.345,27.729z"/>
	<polygon fill-rule="evenodd" clip-rule="evenodd" fill="#28255A" points="36.457,19.89 37.084,21.144 38.417,21.379 37.476,22.32 
		37.711,23.652 36.457,23.025 35.282,23.652 35.517,22.32 34.498,21.379 35.909,21.144 36.457,19.89 	"/>
	
		<polygon fill="#28255A" stroke="#FFFFFF" stroke-width="0.0742" stroke-linecap="round" stroke-linejoin="round" stroke-miterlimit="10" points="
		36.457,19.89 37.084,21.144 38.417,21.379 37.476,22.32 37.711,23.652 36.457,23.025 35.282,23.652 35.517,22.32 34.498,21.379 
		35.909,21.144 36.457,19.89 	"/>
	<polygon fill-rule="evenodd" clip-rule="evenodd" fill="#28255A" points="38.651,14.95 39.278,16.205 40.611,16.44 39.67,17.381 
		39.905,18.713 38.651,18.086 37.476,18.713 37.711,17.381 36.771,16.44 38.103,16.205 38.651,14.95 	"/>
	
		<polygon fill="#28255A" stroke="#FFFFFF" stroke-width="0.0742" stroke-linecap="round" stroke-linejoin="round" stroke-miterlimit="10" points="
		38.651,14.95 39.278,16.205 40.611,16.44 39.67,17.381 39.905,18.713 38.651,18.086 37.476,18.713 37.711,17.381 36.771,16.44 
		38.103,16.205 38.651,14.95 	"/>
	<polygon fill-rule="evenodd" clip-rule="evenodd" fill="#28255A" points="43.588,14.95 44.216,16.205 45.548,16.361 44.608,17.302 
		44.843,18.635 43.588,18.008 42.413,18.635 42.648,17.302 41.629,16.361 42.962,16.205 43.588,14.95 	"/>
	
		<polygon fill="#28255A" stroke="#FFFFFF" stroke-width="0.0742" stroke-linecap="round" stroke-linejoin="round" stroke-miterlimit="10" points="
		43.588,14.95 44.216,16.205 45.548,16.361 44.608,17.302 44.843,18.635 43.588,18.008 42.413,18.635 42.648,17.302 41.629,16.361 
		42.962,16.205 43.588,14.95 	"/>
	<polygon fill-rule="evenodd" clip-rule="evenodd" fill="#28255A" points="41.16,19.89 41.708,21.144 43.118,21.379 42.1,22.32 
		42.334,23.652 41.16,23.025 39.905,23.652 40.14,22.32 39.2,21.379 40.532,21.144 41.16,19.89 	"/>
	
		<polygon fill="#28255A" stroke="#FFFFFF" stroke-width="0.0742" stroke-linecap="round" stroke-linejoin="round" stroke-miterlimit="10" points="
		41.16,19.89 41.708,21.144 43.118,21.379 42.1,22.32 42.334,23.652 41.16,23.025 39.905,23.652 40.14,22.32 39.2,21.379 
		40.532,21.144 41.16,19.89 	"/>
	<polygon fill-rule="evenodd" clip-rule="evenodd" fill="#28255A" points="45.704,19.89 46.332,21.144 47.664,21.379 46.723,22.32 
		46.958,23.652 45.704,23.025 44.529,23.652 44.765,22.32 43.745,21.379 45.077,21.144 45.704,19.89 	"/>
	
		<polygon fill="#28255A" stroke="#FFFFFF" stroke-width="0.0742" stroke-linecap="round" stroke-linejoin="round" stroke-miterlimit="10" points="
		45.704,19.89 46.332,21.144 47.664,21.379 46.723,22.32 46.958,23.652 45.704,23.025 44.529,23.652 44.765,22.32 43.745,21.379 
		45.077,21.144 45.704,19.89 	"/>
</g>
<g>
	<path fill="#28255A" d="M62.3,11.91V1.937h7.395v1.688h-5.381v2.211h5.007v1.68h-5.007v2.715h5.571v1.68H62.3z"/>
	<path fill="#28255A" d="M80.586,11.91h-2.19l-0.872-2.265h-3.985l-0.824,2.265H70.58l3.884-9.973h2.129L80.586,11.91z
		 M76.879,7.964l-1.375-3.701l-1.347,3.701H76.879z"/>
	<path fill="#28255A" d="M81.647,1.937h3.681c0.83,0,1.463,0.064,1.898,0.19c0.585,0.172,1.085,0.479,1.503,0.918
		c0.418,0.441,0.735,0.979,0.953,1.615c0.218,0.638,0.326,1.424,0.326,2.358c0,0.821-0.103,1.528-0.306,2.123
		c-0.25,0.725-0.605,1.313-1.068,1.762c-0.35,0.34-0.821,0.605-1.416,0.796c-0.443,0.141-1.037,0.211-1.782,0.211h-3.79V1.937z
		 M83.661,3.624v6.606h1.504c0.561,0,0.967-0.032,1.217-0.096c0.326-0.082,0.597-0.22,0.813-0.415
		c0.215-0.195,0.392-0.517,0.527-0.963c0.137-0.447,0.205-1.056,0.205-1.827c0-0.771-0.068-1.363-0.205-1.775
		c-0.136-0.412-0.326-0.735-0.57-0.966c-0.246-0.232-0.557-0.388-0.934-0.47c-0.281-0.064-0.832-0.095-1.653-0.095H83.661z"/>
</g>
<g>
	<path fill-rule="evenodd" clip-rule="evenodd" fill="#828385" d="M62.3,14.936c1.455,0,2.993,0,4.534,0c0,0.599,0,0.94,0,1.369
		c0,4.279,0.084,8.645,0,12.922c0,3.508,2.052,4.192,5.045,3.594c1.112-0.258,1.798-1.198,1.798-2.824
		c0.084-3.938,0-7.957,0.084-11.893c0-1.026,0-1.97,0-3.082c1.541,0,2.908,0,4.448,0c0,0.341,0,0.684,0,1.026
		c0,4.278,0,8.559,0,12.836c0,0.428,0,0.771,0,1.198c-0.256,4.108-2.395,6.249-6.5,6.419c-1.454,0.083-2.909,0-4.276-0.258
		c-2.91-0.513-4.536-2.311-4.877-5.221c-0.084-0.427-0.172-0.771-0.256-1.198C62.3,24.862,62.3,19.898,62.3,14.936L62.3,14.936z"/>
	<path fill-rule="evenodd" clip-rule="evenodd" fill="#828385" d="M147.156,36.759c-0.34-0.088-0.686-0.174-1.029-0.257
		c-2.99-0.43-5.129-2.056-5.729-5.048c-0.428-1.629-0.51-3.513-0.256-5.224c0.514-3.852,3.424-5.988,7.354-5.818
		c4.623,0.172,6.848,2.998,5.99,7.618c-0.08,0.771-0.342,1.025-1.199,1.025c-2.648-0.085-5.389,0-8.035,0
		c-0.602,2.226,0.938,4.192,3.414,4.192c1.715,0.086,3.426-0.169,5.217-0.258c0.09,0.857,0.174,1.798,0.348,2.911
		c-1.625,0.257-3.168,0.601-4.707,0.857C148.1,36.759,147.582,36.759,147.156,36.759L147.156,36.759z M150.063,26.489
		c-0.086-2.14-1.025-3.079-2.732-3.079c-1.801-0.086-2.996,1.023-3.078,3.079C146.127,26.489,148.1,26.489,150.063,26.489
		L150.063,26.489z"/>
	<path fill-rule="evenodd" clip-rule="evenodd" fill="#828385" d="M123.289,15.022c1.283,0,2.568,0,4.021,0c0,1.968,0,3.937,0,5.905
		c1.367-0.171,2.568-0.429,3.766-0.515c3.764-0.256,6.156,1.542,6.588,5.307c0.168,1.969,0.08,4.021-0.342,5.99
		c-0.602,2.737-2.658,4.363-5.479,4.793c-2.648,0.342-5.303,0-7.869-0.684c-0.34-0.087-0.771-0.602-0.771-0.944
		c-0.082-6.416-0.082-12.92,0-19.425C123.203,15.363,123.203,15.194,123.289,15.022L123.289,15.022z M133.645,28.458
		c-0.086-0.086-0.086-0.086-0.176-0.086c0-0.257,0-0.6,0-0.942c-0.344-3.251-2.049-4.363-5.387-3.423
		c-0.258,0.088-0.686,0.516-0.686,0.855c-0.086,2.483-0.086,4.963,0,7.531c0,0.257,0.172,0.597,0.344,0.686
		c1.623,0.94,4.617-0.174,5.301-1.97C133.297,30.252,133.469,29.313,133.645,28.458L133.645,28.458z"/>
	<path fill-rule="evenodd" clip-rule="evenodd" fill="#828385" d="M95.576,36.158c-1.453,0-2.74,0-4.107,0
		c0-0.427-0.088-0.854-0.088-1.37c0-2.822,0-5.646,0-8.471c0-1.027-0.084-2.139-1.281-2.565c-1.37-0.515-2.824-0.342-4.106,0.343
		c-0.255,0.084-0.255,0.684-0.255,1.024c-0.085,3.253-0.085,6.504-0.085,9.755c0,0.343,0,0.77,0,1.284c-1.37,0-2.653,0-4.022,0
		c-0.083-0.34-0.083-0.686-0.083-0.941c0-4.024,0-8.042,0-12.064c0-0.427,0.252-1.112,0.598-1.198
		c2.993-1.198,6.159-1.97,9.409-1.456c2.311,0.429,3.764,1.714,3.852,4.024c0.254,3.508,0.17,6.932,0.17,10.438
		C95.576,35.304,95.576,35.731,95.576,36.158L95.576,36.158z"/>
	<path fill-rule="evenodd" clip-rule="evenodd" fill="#828385" d="M115.848,20.756c1.455,0,2.738,0,4.107,0
		c0,0.341,0.084,0.686,0.084,1.029c0,4.105-0.084,8.298,0,12.406c0,0.77-0.258,1.197-1.023,1.367
		c-2.824,0.686-5.732,1.285-8.641,0.773c-2.652-0.601-4.193-2.229-4.279-4.878c-0.084-3.513,0-7.021,0-10.612
		c1.369,0,2.74,0,4.193,0c0,1.713,0,3.508,0,5.218c0,1.286,0,2.567,0,3.766c0,2.996,2.307,4.535,5.047,3.254
		c0.26-0.089,0.512-0.686,0.512-1.029c0-3.249,0-6.59,0-9.925C115.848,21.696,115.848,21.267,115.848,20.756L115.848,20.756z"/>
	<path fill-rule="evenodd" clip-rule="evenodd" fill="#828385" d="M98.654,36.158c0-5.135,0-10.184,0-15.316
		c1.369,0,2.652,0,4.107,0c0,5.049,0,10.182,0,15.316C101.479,36.158,100.109,36.158,98.654,36.158L98.654,36.158z"/>
	<path fill-rule="evenodd" clip-rule="evenodd" fill="#828385" d="M98.738,15.022c1.371,0,2.652,0,4.023,0c0,1.026,0,2.056,0,3.082
		c-1.283,0-2.568,0-4.023,0C98.738,17.161,98.738,16.134,98.738,15.022L98.738,15.022z"/>
</g>
</svg>
