<?xml version="1.0" encoding="utf-8"?>
<!-- Generator: Adobe Illustrator 16.0.0, SVG Export Plug-In . SVG Version: 6.00 Build 0)  -->
<!DOCTYPE svg PUBLIC "-//W3C//DTD SVG 1.1//EN" "http://www.w3.org/Graphics/SVG/1.1/DTD/svg11.dtd" [
	<!ENTITY ns_extend "http://ns.adobe.com/Extensibility/1.0/">
	<!ENTITY ns_ai "http://ns.adobe.com/AdobeIllustrator/10.0/">
	<!ENTITY ns_graphs "http://ns.adobe.com/Graphs/1.0/">
	<!ENTITY ns_vars "http://ns.adobe.com/Variables/1.0/">
	<!ENTITY ns_imrep "http://ns.adobe.com/ImageReplacement/1.0/">
	<!ENTITY ns_sfw "http://ns.adobe.com/SaveForWeb/1.0/">
	<!ENTITY ns_custom "http://ns.adobe.com/GenericCustomNamespace/1.0/">
	<!ENTITY ns_adobe_xpath "http://ns.adobe.com/XPath/1.0/">
]>
<svg version="1.1" id="Layer_1" xmlns:x="&ns_extend;" xmlns:i="&ns_ai;" xmlns:graph="&ns_graphs;"
	 xmlns="http://www.w3.org/2000/svg" xmlns:xlink="http://www.w3.org/1999/xlink" x="0px" y="0px" width="170px" height="40px"
	 viewBox="0 0 170 40" enable-background="new 0 0 170 40" xml:space="preserve">
<metadata>
	<sfw  xmlns="&ns_sfw;">
		<slices></slices>
		<sliceSourceBounds  height="33.027" width="140.768" y="264.154" x="406.569" bottomLeftOrigin="true"></sliceSourceBounds>
	</sfw>
</metadata>
<g id="Layer_2">
</g>
<g>
	<polygon fill="#FFDD00" points="72.357,36.171 77.271,36.171 77.271,35.341 73.345,35.341 73.345,28.755 72.357,28.755 	"/>
	<polygon fill="#FFDD00" points="62.683,36.171 63.667,36.171 63.667,29.585 66.141,29.585 66.141,28.755 60.209,28.755 
		60.209,29.585 62.683,29.585 	"/>
	<rect x="58.351" y="28.755" fill="#FFDD00" width="0.985" height="7.416"/>
	<path fill="#FFDD00" d="M56.613,36.171h0.623v-3.905h-3.253v0.83h2.369c0.063,1.35-0.851,2.422-2.378,2.422
		c-1.652,0-2.545-1.414-2.545-2.961c0-1.591,0.749-3.147,2.545-3.147c1.102,0,2.006,0.509,2.203,1.629h0.986
		c-0.281-1.733-1.566-2.46-3.189-2.46c-2.348,0-3.533,1.867-3.533,4.031c0,1.93,1.318,3.736,3.533,3.736
		c0.871,0,1.807-0.32,2.378-1.102L56.613,36.171z"/>
	<rect x="48.537" y="28.755" fill="#FFDD00" width="0.985" height="7.416"/>
	<path fill="#FFDD00" d="M44.108,28.755h-2.544v1.401c0.38,0.703,0.566,1.515,0.566,2.306s-0.187,1.604-0.566,2.308v1.401h2.544
		c2.474,0,3.563-1.401,3.563-3.885C47.67,29.896,46.393,28.755,44.108,28.755z M44.193,35.341h-1.646v-5.756h1.666
		c1.817,0,2.471,1.067,2.471,2.834C46.684,35.152,44.866,35.341,44.193,35.341z"/>
	<path fill="#FFFFFF" d="M36.756,28.577c-2.362,0-3.552,1.866-3.552,3.885c0,2.015,1.19,3.883,3.552,3.883
		c2.357,0,3.549-1.868,3.549-3.883C40.306,30.443,39.114,28.577,36.756,28.577z M36.756,35.518c-1.81,0-2.568-1.56-2.568-3.056
		s0.758-3.054,2.568-3.054c1.807,0,2.566,1.558,2.566,3.054S38.564,35.518,36.756,35.518z"/>
	<path fill="#FFFFFF" d="M32.45,34.124c-0.073-0.728-0.249-1.36-1.11-1.526v-0.021c0.892-0.25,1.287-0.987,1.287-1.883
		c0-1.184-0.861-1.938-2.252-1.938h-3.491v7.416h0.987v-3.168h2.41c0.956,0,1.134,0.611,1.238,1.338
		c0.144,0.729-0.011,1.527,0.269,1.83h1.1C32.47,35.66,32.513,34.852,32.45,34.124z M29.927,32.173H27.87v-2.588h2.452
		c0.924,0,1.321,0.539,1.321,1.269C31.642,31.934,30.851,32.173,29.927,32.173z"/>
	<polygon fill="#FFFFFF" points="26.092,28.755 25.064,28.755 22.925,35.184 22.903,35.184 20.786,28.755 19.715,28.755 
		22.331,36.171 23.455,36.171 	"/>
	<rect x="17.886" y="28.755" fill="#FFFFFF" width="0.987" height="7.416"/>
	<polygon fill="#FFFFFF" points="12.069,36.171 16.981,36.171 16.981,35.341 13.056,35.341 13.056,28.755 12.069,28.755 	"/>
	<path fill="#FFDD00" d="M68.731,28.755h-1.092l-2.897,7.416h1.02l0.831-2.231h0.27c0.241-0.426,0.741-0.72,1.323-0.72
		c0.585,0,1.085,0.294,1.326,0.72h0.218l0.811,2.231h1.09L68.731,28.755z M66.903,33.105l1.257-3.459h0.019l1.239,3.459H66.903z"/>
</g>
<g>
	<path fill="#FFFFFF" d="M18.825,5.127c3,0,5.932,0.596,5.451,4.604c-0.481,3.779-3.504,4.878-6.481,4.878
		c-0.688,0-1.42-0.068-2.039-0.206L15,20.587h-1.97l1.855-15.116C16.191,5.219,17.497,5.127,18.825,5.127z M15.939,12.846
		c0.55,0.114,1.214,0.183,1.924,0.183c1.97,0,4.077-0.619,4.397-3.184c0.344-2.749-1.534-3.161-3.619-3.161
		c-0.641,0-1.328,0.023-1.97,0.16L15.939,12.846z"/>
	<path fill="#FFFFFF" d="M25.172,14.861c0.55-4.443,2.726-6.046,5.817-6.046c3.115,0,4.718,1.558,4.168,6.024
		c-0.549,4.443-2.703,6.069-5.771,6.069C26.02,20.908,24.623,19.328,25.172,14.861z M27.119,14.861
		c-0.412,3.367,0.55,4.489,2.497,4.489c1.672,0,3.184-1.122,3.596-4.489c0.458-3.665-0.641-4.489-2.474-4.489
		C29.112,10.373,27.577,11.197,27.119,14.861z M29.753,7.372l-0.641-1.26l3.894-2.794l0.871,1.672L29.753,7.372z"/>
	<path fill="#FFFFFF" d="M37.085,18.526c0.71,0.321,1.741,0.619,2.84,0.619c1.558,0,2.405-0.802,2.497-1.604
		c0.321-2.725-5.268-1.534-4.787-5.359c0.252-2.061,1.947-3.413,4.375-3.413c1.26,0,2.359,0.344,2.886,0.619l-0.55,1.443
		c-0.458-0.16-1.42-0.389-2.382-0.389c-1.145,0-2.313,0.343-2.474,1.58c-0.298,2.588,5.313,1.489,4.855,5.245
		c-0.229,1.855-1.787,3.618-4.695,3.618c-1.305,0-2.68-0.389-3.275-0.847L37.085,18.526z"/>
	<path fill="#FFFFFF" d="M55.342,15.113h-8.52l0.229-1.809h8.52L55.342,15.113z"/>
	<path fill="#FFFFFF" d="M65.628,9.159c1.054,0,1.901-0.092,3.184-0.298v1.283c-0.985,0.16-1.993,0.343-2.68,0.343
		c0.481,0.665,0.687,1.535,0.573,2.52c-0.344,2.749-2.222,4.008-4.718,4.008c-0.458,0-0.985-0.046-1.351-0.115
		c-0.161,0.252-0.321,0.664-0.367,1.054c-0.046,0.298-0.023,0.618,0.092,0.847h3.229c2.336,0.023,3.458,0.848,3.206,2.748
		c-0.32,2.611-2.588,4.261-6.115,4.261c-2.817,0-4.466-1.146-4.237-3.069c0.183-1.512,1.351-2.405,2.474-3.046
		c-0.252-0.321-0.344-0.802-0.298-1.306c0.092-0.687,0.481-1.443,1.031-1.947c-1.146-0.664-1.581-1.878-1.397-3.481
		c0.298-2.382,1.878-3.939,4.901-3.939C63.957,9.021,64.735,9.159,65.628,9.159z M60.063,20.381
		c-0.962,0.343-1.558,1.122-1.672,2.061c-0.138,1.1,1.076,1.764,2.749,1.764c2.061,0,3.504-0.778,3.71-2.474
		c0.115-0.802-0.252-1.305-1.924-1.328L60.063,20.381z M62.147,15.686c1.901,0,2.703-1.26,2.863-2.68
		c0.206-1.626-0.344-2.588-2.176-2.588c-1.695,0-2.588,1.007-2.794,2.565C59.88,14.266,60.178,15.686,62.147,15.686z"/>
	<path fill="#FFFFFF" d="M75.938,10.785c-0.481-0.114-0.917-0.137-1.191-0.137c-0.939,0-1.924,0.206-2.542,0.687l-1.123,9.252
		h-1.855L70.624,9.09h1.626l0.023,1.1c0.939-0.962,2.084-1.237,3.115-1.237c0.252,0,0.618,0.023,0.985,0.114L75.938,10.785z"/>
	<path fill="#FFFFFF" d="M84.574,20.083c-1.099,0.389-2.977,0.779-4.672,0.779c-2.13,0-4.031-0.779-3.733-3.207
		c0.343-2.771,2.634-3.527,4.787-3.527c0.916,0,1.764,0.138,2.451,0.298l0.16-1.374c0.184-1.604-0.114-2.52-2.038-2.52
		c-0.962,0-2.153,0.252-3.413,0.573L77.955,9.64c1.191-0.481,3.138-0.756,4.054-0.756c2.863,0,3.779,1.283,3.436,4.077
		L84.574,20.083z M83.246,15.686c-0.55-0.137-1.26-0.252-1.97-0.252c-1.489,0-3,0.573-3.184,2.153
		c-0.206,1.535,1.214,1.833,2.474,1.833c0.802,0,1.695-0.161,2.268-0.344L83.246,15.686z"/>
	<path fill="#FFFFFF" d="M93.326,8.815c0.802,0,1.74,0.092,2.542,0.367l0.596-4.901h1.855L96.35,20.29
		c-1.443,0.275-3.001,0.573-4.443,0.573c-2.863,0-5.131-1.123-4.581-5.611C87.783,11.632,89.433,8.815,93.326,8.815z M95.662,10.785
		c-0.778-0.298-1.58-0.412-2.244-0.412c-2.176,0-3.665,1.466-4.077,4.855c-0.366,2.955,0.985,4.146,3.138,4.146
		c0.664,0,1.397-0.115,2.176-0.321L95.662,10.785z"/>
	<path fill="#FFFFFF" d="M108.263,20.061c-1.695,0.596-3.39,0.848-4.81,0.848c-2.222,0-4.169-0.779-3.757-4.123l0.939-7.696h1.878
		l-0.939,7.581c-0.252,2.084,0.848,2.657,2.657,2.657c0.756,0,1.534-0.137,2.29-0.389l1.214-9.849h1.878L108.263,20.061z"/>
	<path fill="#FFFFFF" d="M119.214,20.083c-1.1,0.389-2.978,0.779-4.672,0.779c-2.13,0-4.031-0.779-3.733-3.207
		c0.344-2.771,2.634-3.527,4.787-3.527c0.916,0,1.763,0.138,2.45,0.298l0.16-1.374c0.184-1.604-0.114-2.52-2.038-2.52
		c-0.962,0-2.153,0.252-3.413,0.573l-0.16-1.466c1.191-0.481,3.138-0.756,4.054-0.756c2.863,0,3.779,1.283,3.436,4.077
		L119.214,20.083z M117.886,15.686c-0.55-0.137-1.26-0.252-1.97-0.252c-1.489,0-3,0.573-3.184,2.153
		c-0.206,1.535,1.214,1.833,2.474,1.833c0.802,0,1.694-0.161,2.268-0.344L117.886,15.686z"/>
	<path fill="#FFFFFF" d="M130.371,10.876c-1.031-0.367-1.787-0.413-2.611-0.413c-1.649,0-3.436,1.1-3.848,4.397
		c-0.412,3.321,1.099,4.443,2.908,4.443c0.985,0,1.878-0.183,2.863-0.55l0.092,1.512c-1.168,0.412-2.176,0.642-3.207,0.642
		c-2.908,0-5.199-1.741-4.672-6.047c0.526-4.237,3.366-6.046,6.023-6.046c1.008,0,1.947,0.183,3,0.573L130.371,10.876z
		 M127.05,23.176c-0.138,1.076-0.894,2.198-2.749,3.252l-0.778-1.1c1.168-0.778,1.74-1.488,1.832-2.268
		c0.069-0.435-0.046-0.87-0.252-1.352h1.764C127.05,22.19,127.096,22.672,127.05,23.176z"/>
	<path fill="#FFFFFF" d="M139.947,20.083c-1.1,0.389-2.978,0.779-4.672,0.779c-2.13,0-4.031-0.779-3.733-3.207
		c0.344-2.771,2.634-3.527,4.787-3.527c0.916,0,1.763,0.138,2.45,0.298l0.16-1.374c0.184-1.604-0.114-2.52-2.038-2.52
		c-0.962,0-2.153,0.252-3.413,0.573l-0.16-1.466c1.191-0.481,3.138-0.756,4.054-0.756c2.863,0,3.779,1.283,3.436,4.077
		L139.947,20.083z M138.619,15.686c-0.55-0.137-1.26-0.252-1.97-0.252c-1.489,0-3,0.573-3.184,2.153
		c-0.206,1.535,1.214,1.833,2.474,1.833c0.802,0,1.694-0.161,2.268-0.344L138.619,15.686z M133.878,6.158
		c0.596-0.847,1.558-1.626,2.359-1.626c0.984,0,1.946,0.985,2.862,0.985c0.298,0,0.802-0.39,1.352-0.962l0.87,0.824
		c-0.71,1.031-1.764,1.764-2.588,1.764c-1.008,0-1.878-0.985-2.771-0.985c-0.298,0-0.641,0.252-1.236,0.848L133.878,6.158z"/>
	<path fill="#FFFFFF" d="M142.744,14.861c0.55-4.443,2.726-6.046,5.817-6.046c3.115,0,4.719,1.558,4.169,6.024
		c-0.55,4.443-2.703,6.069-5.771,6.069C143.592,20.908,142.194,19.328,142.744,14.861z M144.691,14.861
		c-0.413,3.367,0.55,4.489,2.496,4.489c1.672,0,3.184-1.122,3.596-4.489c0.458-3.665-0.642-4.489-2.474-4.489
		C146.684,10.373,145.149,11.197,144.691,14.861z"/>
</g>
</svg>
