<?xml version="1.0" encoding="utf-8"?>
<!-- Generator: Adobe Illustrator 16.0.0, SVG Export Plug-In . SVG Version: 6.00 Build 0)  -->
<!DOCTYPE svg PUBLIC "-//W3C//DTD SVG 1.1//EN" "http://www.w3.org/Graphics/SVG/1.1/DTD/svg11.dtd" [
	<!ENTITY ns_extend "http://ns.adobe.com/Extensibility/1.0/">
	<!ENTITY ns_ai "http://ns.adobe.com/AdobeIllustrator/10.0/">
	<!ENTITY ns_graphs "http://ns.adobe.com/Graphs/1.0/">
	<!ENTITY ns_vars "http://ns.adobe.com/Variables/1.0/">
	<!ENTITY ns_imrep "http://ns.adobe.com/ImageReplacement/1.0/">
	<!ENTITY ns_sfw "http://ns.adobe.com/SaveForWeb/1.0/">
	<!ENTITY ns_custom "http://ns.adobe.com/GenericCustomNamespace/1.0/">
	<!ENTITY ns_adobe_xpath "http://ns.adobe.com/XPath/1.0/">
]>
<svg version="1.1" xmlns:x="&ns_extend;" xmlns:i="&ns_ai;" xmlns:graph="&ns_graphs;"
	 xmlns="http://www.w3.org/2000/svg" xmlns:xlink="http://www.w3.org/1999/xlink" x="0px" y="0px" width="1024px" height="800px"
	 viewBox="0 0 1024 800" enable-background="new 0 0 1024 800" xml:space="preserve">
<metadata>
	<sfw  xmlns="&ns_sfw;">
		<slices></slices>
		<sliceSourceBounds  width="968.556" height="737.785" y="-569.666" x="-231.916" bottomLeftOrigin="true"></sliceSourceBounds>
	</sfw>
</metadata>
<g id="background">
</g>
<g id="desenho">
	<g>
		<circle fill="none" stroke="#3C733D" stroke-width="8" stroke-miterlimit="10" cx="366.5" cy="305.728" r="221.239"/>
		<circle fill="none" stroke="#EE3435" stroke-width="8" stroke-miterlimit="10" cx="657.5" cy="305.728" r="221.239"/>
	</g>
	<circle fill="none" stroke="#4D7CBB" stroke-width="8" stroke-miterlimit="10" cx="512" cy="526.728" r="221.239"/>
</g>
<g id="texto">
	<g>
		<g>
			<path fill="#939597" d="M328.692,464.49v-4.621c0-0.299,0.175-0.579,0.525-0.84c0.35-0.26,0.745-0.39,1.185-0.39h10.65
				c0.379,0,0.76,0.13,1.14,0.39c0.38,0.261,0.57,0.541,0.57,0.84v3.421c0,0.521-0.25,1.28-0.75,2.28l-7.59,14.58
				c-0.2,0.379-0.57,0.569-1.11,0.569c-0.64,0-1.21-0.19-1.71-0.569c-0.5-0.381-0.75-0.84-0.75-1.381c0-0.26,0.06-0.49,0.18-0.689
				l7.83-14.04v-1.979h-6.27v2.43c0,0.359-0.2,0.66-0.6,0.899c-0.4,0.24-0.86,0.36-1.38,0.36c-0.54,0-0.995-0.12-1.365-0.36
				C328.877,465.15,328.692,464.85,328.692,464.49z"/>
			<path fill="#939597" d="M344.501,473.88v-8.37c0-2.38,0.635-4.119,1.905-5.22c1.27-1.101,2.975-1.65,5.115-1.65
				s3.85,0.55,5.13,1.65s1.92,2.84,1.92,5.22v8.37c0,2.38-0.641,4.12-1.92,5.22c-1.28,1.101-2.99,1.65-5.13,1.65
				s-3.845-0.55-5.115-1.65C345.136,478,344.501,476.26,344.501,473.88z M348.401,473.88c0,2.3,1.04,3.45,3.12,3.45
				c2.1,0,3.15-1.15,3.15-3.45v-8.37c0-2.3-1.05-3.449-3.15-3.449c-2.08,0-3.12,1.149-3.12,3.449V473.88z M350.532,470.963
				c-0.26-0.285-0.39-0.658-0.39-1.119s0.125-0.828,0.375-1.103c0.25-0.274,0.595-0.411,1.035-0.411c0.42,0,0.754,0.137,1.005,0.411
				c0.25,0.274,0.375,0.642,0.375,1.103s-0.125,0.834-0.375,1.119c-0.25,0.285-0.585,0.427-1.005,0.427
				C351.131,471.39,350.792,471.248,350.532,470.963z"/>
			<path fill="#939597" d="M367.031,473.444c0-0.438,0.109-0.806,0.33-1.101c0.22-0.296,0.51-0.443,0.87-0.443h7.8
				c0.32,0,0.61,0.152,0.87,0.457c0.259,0.305,0.39,0.668,0.39,1.087c0,0.438-0.125,0.801-0.375,1.087
				c-0.25,0.285-0.545,0.429-0.885,0.429h-7.8c-0.36,0-0.65-0.138-0.87-0.415C367.141,474.27,367.031,473.902,367.031,473.444z"/>
			<path fill="#939597" d="M384.881,475.32c0-0.66,0.16-1.12,0.48-1.381c0.32-0.26,0.81-0.39,1.47-0.39
				c0.76,0,1.275,0.13,1.545,0.39c0.27,0.261,0.405,0.631,0.405,1.11c0,0.72,0.29,1.28,0.87,1.681c0.58,0.4,1.32,0.6,2.22,0.6
				c2.12,0,3.18-1.11,3.18-3.33v-0.57c0-1.119-0.275-1.959-0.825-2.52s-1.325-0.84-2.325-0.84h-4.44
				c-0.581,0-0.985-0.129-1.215-0.389c-0.23-0.258-0.345-0.637-0.345-1.133c0-0.08,0.034-0.205,0.103-0.373
				c0.068-0.17,0.103-0.304,0.103-0.403l0.604-7.903c0.06-0.819,0.31-1.229,0.75-1.229h9.24c0.36,0,0.645,0.171,0.855,0.511
				s0.315,0.74,0.315,1.199c0,0.461-0.105,0.86-0.314,1.2c-0.209,0.341-0.493,0.511-0.852,0.511h-6.725l-0.39,4.949h2.31
				c2.14,0,3.85,0.516,5.13,1.545c1.28,1.03,1.92,2.655,1.92,4.875V474c0,2.32-0.64,4.025-1.92,5.115
				c-1.28,1.09-2.97,1.635-5.07,1.635c-2.18,0-3.905-0.535-5.175-1.605C385.516,478.075,384.881,476.801,384.881,475.32z"/>
			<path fill="#939597" d="M400.991,473.88v-8.37c0-2.38,0.635-4.119,1.905-5.22c1.27-1.101,2.975-1.65,5.115-1.65
				s3.85,0.55,5.13,1.65s1.92,2.84,1.92,5.22v8.37c0,2.38-0.641,4.12-1.92,5.22c-1.28,1.101-2.99,1.65-5.13,1.65
				s-3.845-0.55-5.115-1.65C401.625,478,400.991,476.26,400.991,473.88z M404.891,473.88c0,2.3,1.04,3.45,3.12,3.45
				c2.1,0,3.15-1.15,3.15-3.45v-8.37c0-2.3-1.05-3.449-3.15-3.449c-2.08,0-3.12,1.149-3.12,3.449V473.88z M407.021,470.963
				c-0.26-0.285-0.39-0.658-0.39-1.119s0.125-0.828,0.375-1.103c0.25-0.274,0.595-0.411,1.035-0.411c0.42,0,0.754,0.137,1.005,0.411
				c0.25,0.274,0.375,0.642,0.375,1.103s-0.125,0.834-0.375,1.119c-0.25,0.285-0.585,0.427-1.005,0.427
				C407.621,471.39,407.281,471.248,407.021,470.963z"/>
			<path fill="#939597" d="M424.03,470.234c0-0.439,0.11-0.806,0.33-1.102c0.22-0.295,0.51-0.443,0.87-0.443h7.74
				c0.32,0,0.61,0.153,0.87,0.458c0.26,0.306,0.39,0.667,0.39,1.087c0,0.439-0.125,0.801-0.375,1.086
				c-0.25,0.287-0.545,0.43-0.885,0.43h-7.74c-0.36,0-0.65-0.139-0.87-0.414C424.14,471.059,424.03,470.691,424.03,470.234z
				 M424.03,476.324c0-0.438,0.11-0.806,0.33-1.102c0.22-0.295,0.51-0.443,0.87-0.443h7.74c0.32,0,0.61,0.153,0.87,0.458
				c0.26,0.306,0.39,0.667,0.39,1.087c0,0.439-0.125,0.801-0.375,1.087c-0.25,0.286-0.545,0.429-0.885,0.429h-7.74
				c-0.36,0-0.65-0.138-0.87-0.414C424.14,477.148,424.03,476.781,424.03,476.324z"/>
			<path fill="#939597" d="M442.84,479.334v-2.925c0-0.884,0.302-1.759,0.906-2.623s1.336-1.647,2.197-2.352l2.878-2.087
				c0.945-0.705,1.75-1.451,2.413-2.237s0.996-1.572,0.996-2.358c0-0.706-0.237-1.331-0.709-1.875
				c-0.473-0.545-1.171-0.816-2.096-0.816c-0.785,0-1.428,0.227-1.931,0.68c-0.503,0.452-0.754,1.132-0.754,2.037
				c0,0.391-0.183,0.736-0.546,1.035c-0.364,0.299-0.851,0.447-1.461,0.447c-1.162,0-1.742-0.699-1.742-2.1
				c0-1.641,0.635-2.971,1.906-3.99c1.271-1.02,2.771-1.53,4.498-1.53c1.824,0,3.403,0.546,4.736,1.638s2,2.543,2,4.354
				c0,1.209-0.326,2.344-0.978,3.402c-0.652,1.059-1.449,1.955-2.391,2.69c-0.943,0.735-1.88,1.417-2.813,2.042
				c-0.933,0.625-1.726,1.25-2.379,1.875s-0.98,1.219-0.98,1.783v0.727h8.366c0.321,0,0.607,0.164,0.857,0.494
				c0.251,0.33,0.376,0.726,0.376,1.186s-0.123,0.865-0.367,1.215c-0.246,0.35-0.525,0.525-0.838,0.525h-10.468
				c-0.373,0-0.745-0.121-1.117-0.362C443.026,479.967,442.84,479.676,442.84,479.334z"/>
			<path fill="#939597" d="M458.379,473.88v-8.37c0-2.38,0.635-4.119,1.905-5.22c1.27-1.101,2.975-1.65,5.115-1.65
				s3.85,0.55,5.13,1.65s1.92,2.84,1.92,5.22v8.37c0,2.38-0.641,4.12-1.92,5.22c-1.28,1.101-2.99,1.65-5.13,1.65
				s-3.845-0.55-5.115-1.65C459.014,478,458.379,476.26,458.379,473.88z M462.279,473.88c0,2.3,1.04,3.45,3.12,3.45
				c2.1,0,3.15-1.15,3.15-3.45v-8.37c0-2.3-1.05-3.449-3.15-3.449c-2.08,0-3.12,1.149-3.12,3.449V473.88z M464.41,470.963
				c-0.26-0.285-0.39-0.658-0.39-1.119s0.125-0.828,0.375-1.103c0.25-0.274,0.595-0.411,1.035-0.411c0.42,0,0.754,0.137,1.005,0.411
				c0.25,0.274,0.375,0.642,0.375,1.103s-0.125,0.834-0.375,1.119c-0.25,0.285-0.585,0.427-1.005,0.427
				C465.009,471.39,464.669,471.248,464.41,470.963z"/>
		</g>
	</g>
	<g>
		<path fill="#19181C" d="M179.107,254.5c0-0.62,0.25-1.09,0.75-1.41l3.54-2.7c0.24-0.2,0.51-0.3,0.81-0.3
			c0.44,0,0.84,0.12,1.2,0.36c0.36,0.24,0.54,0.54,0.54,0.9v19.5c0,0.38-0.195,0.68-0.585,0.9c-0.39,0.22-0.845,0.33-1.365,0.33
			c-0.54,0-1-0.11-1.38-0.33c-0.38-0.22-0.57-0.52-0.57-0.9v-16.02l-0.96,0.96c-0.2,0.18-0.44,0.27-0.72,0.27
			c-0.36,0-0.66-0.16-0.9-0.48C179.228,255.261,179.107,254.901,179.107,254.5z"/>
		<path fill="#19181C" d="M188.257,266.801c0-0.58,0.14-0.98,0.42-1.2c0.28-0.22,0.76-0.33,1.44-0.33c0.78,0,1.31,0.105,1.59,0.315
			s0.42,0.565,0.42,1.065c0,0.68,0.28,1.215,0.84,1.605c0.56,0.39,1.32,0.585,2.28,0.585c1.12,0,1.935-0.255,2.445-0.765
			c0.51-0.51,0.765-1.335,0.765-2.475v-0.57c0-1.9-1.1-2.85-3.3-2.85c-0.76,0-1.14-0.51-1.14-1.53s0.387-1.53,1.161-1.53
			c0.873,0,1.548-0.194,2.024-0.582c0.477-0.388,0.715-1.169,0.715-2.343c0-1.75-0.88-2.625-2.64-2.625
			c-1.78,0-2.67,0.667-2.67,1.999c0,0.995-0.62,1.492-1.86,1.492c-0.84,0-1.385-0.115-1.635-0.343
			c-0.25-0.229-0.375-0.671-0.375-1.328c0-0.582,0.109-1.159,0.33-1.731c0.22-0.572,0.564-1.129,1.035-1.671
			c0.47-0.542,1.155-0.984,2.055-1.325s1.95-0.512,3.15-0.512c4.24,0,6.36,1.797,6.36,5.389c0,1.195-0.207,2.237-0.621,3.123
			c-0.414,0.887-0.994,1.5-1.741,1.838c2.034,0.8,3.052,2.31,3.052,4.53v0.57c0,2.28-0.666,3.96-1.995,5.04
			c-1.331,1.08-3.065,1.62-5.205,1.62c-2.26,0-3.975-0.56-5.145-1.68C188.842,269.461,188.257,268.201,188.257,266.801z"/>
		<path fill="#19181C" d="M204.667,265.391v-8.37c0-2.38,0.635-4.12,1.905-5.22c1.27-1.1,2.975-1.65,5.115-1.65s3.85,0.55,5.13,1.65
			s1.92,2.84,1.92,5.22v8.37c0,2.38-0.641,4.12-1.92,5.22c-1.28,1.101-2.99,1.65-5.13,1.65s-3.845-0.55-5.115-1.65
			C205.302,269.511,204.667,267.771,204.667,265.391z M208.567,265.391c0,2.3,1.04,3.45,3.12,3.45c2.1,0,3.15-1.149,3.15-3.45v-8.37
			c0-2.3-1.05-3.45-3.15-3.45c-2.08,0-3.12,1.15-3.12,3.45V265.391z M210.697,262.473c-0.26-0.285-0.39-0.658-0.39-1.119
			c0-0.46,0.125-0.828,0.375-1.102c0.25-0.274,0.595-0.412,1.035-0.412c0.42,0,0.754,0.138,1.005,0.412
			c0.25,0.274,0.375,0.642,0.375,1.102c0,0.461-0.125,0.834-0.375,1.119c-0.25,0.285-0.585,0.427-1.005,0.427
			C211.297,262.9,210.957,262.758,210.697,262.473z"/>
		<path fill="#19181C" d="M227.197,264.955c0-0.439,0.109-0.806,0.33-1.101c0.22-0.295,0.51-0.443,0.87-0.443h7.8
			c0.32,0,0.61,0.153,0.87,0.458c0.259,0.305,0.39,0.667,0.39,1.087c0,0.439-0.125,0.801-0.375,1.086
			c-0.25,0.286-0.545,0.429-0.885,0.429h-7.8c-0.36,0-0.65-0.138-0.87-0.415C227.306,265.78,227.197,265.413,227.197,264.955z"/>
		<path fill="#19181C" d="M245.557,270.844v-2.924c0-0.884,0.302-1.759,0.906-2.623s1.336-1.648,2.197-2.352l2.878-2.086
			c0.945-0.706,1.75-1.452,2.413-2.238s0.996-1.572,0.996-2.359c0-0.706-0.237-1.331-0.709-1.875
			c-0.473-0.544-1.171-0.816-2.096-0.816c-0.785,0-1.428,0.227-1.931,0.68c-0.503,0.453-0.754,1.132-0.754,2.038
			c0,0.391-0.183,0.736-0.546,1.034c-0.364,0.299-0.851,0.448-1.461,0.448c-1.162,0-1.742-0.7-1.742-2.1
			c0-1.64,0.635-2.97,1.906-3.99c1.271-1.02,2.771-1.53,4.498-1.53c1.824,0,3.403,0.546,4.736,1.638s2,2.543,2,4.353
			c0,1.21-0.326,2.344-0.978,3.402c-0.652,1.059-1.449,1.955-2.391,2.691c-0.943,0.736-1.88,1.417-2.813,2.042
			c-0.933,0.625-1.726,1.25-2.379,1.875s-0.98,1.22-0.98,1.784v0.726h8.366c0.321,0,0.607,0.165,0.857,0.495
			c0.251,0.33,0.376,0.725,0.376,1.185c0,0.46-0.123,0.866-0.367,1.215c-0.246,0.35-0.525,0.525-0.838,0.525h-10.468
			c-0.373,0-0.745-0.121-1.117-0.362C245.743,271.478,245.557,271.186,245.557,270.844z"/>
		<path fill="#19181C" d="M261.096,265.391v-8.37c0-2.38,0.635-4.12,1.905-5.22c1.27-1.1,2.975-1.65,5.115-1.65s3.85,0.55,5.13,1.65
			s1.92,2.84,1.92,5.22v8.37c0,2.38-0.641,4.12-1.92,5.22c-1.28,1.101-2.99,1.65-5.13,1.65s-3.845-0.55-5.115-1.65
			C261.731,269.511,261.096,267.771,261.096,265.391z M264.996,265.391c0,2.3,1.04,3.45,3.12,3.45c2.1,0,3.15-1.149,3.15-3.45v-8.37
			c0-2.3-1.05-3.45-3.15-3.45c-2.08,0-3.12,1.15-3.12,3.45V265.391z M267.126,262.473c-0.26-0.285-0.39-0.658-0.39-1.119
			c0-0.46,0.125-0.828,0.375-1.102c0.25-0.274,0.595-0.412,1.035-0.412c0.42,0,0.754,0.138,1.005,0.412
			c0.25,0.274,0.375,0.642,0.375,1.102c0,0.461-0.125,0.834-0.375,1.119c-0.25,0.285-0.585,0.427-1.005,0.427
			C267.726,262.9,267.386,262.758,267.126,262.473z"/>
		<path fill="#19181C" d="M283.626,264.955c0-0.439,0.109-0.806,0.33-1.101c0.22-0.295,0.51-0.443,0.87-0.443h7.8
			c0.32,0,0.61,0.153,0.87,0.458c0.259,0.305,0.39,0.667,0.39,1.087c0,0.439-0.125,0.801-0.375,1.086
			c-0.25,0.286-0.545,0.429-0.885,0.429h-7.8c-0.36,0-0.65-0.138-0.87-0.415C283.735,265.78,283.626,265.413,283.626,264.955z"/>
		<path fill="#19181C" d="M301.476,266.831c0-0.66,0.16-1.12,0.48-1.38c0.32-0.26,0.81-0.39,1.47-0.39c0.76,0,1.275,0.13,1.545,0.39
			c0.27,0.26,0.405,0.63,0.405,1.11c0,0.72,0.29,1.28,0.87,1.68c0.58,0.4,1.32,0.6,2.22,0.6c2.12,0,3.18-1.11,3.18-3.33v-0.57
			c0-1.12-0.275-1.959-0.825-2.52c-0.55-0.56-1.325-0.84-2.325-0.84h-4.44c-0.581,0-0.985-0.129-1.215-0.388
			s-0.345-0.637-0.345-1.134c0-0.08,0.034-0.204,0.103-0.373s0.103-0.303,0.103-0.403l0.604-7.903c0.06-0.82,0.31-1.23,0.75-1.23
			h9.24c0.36,0,0.645,0.17,0.855,0.51c0.21,0.34,0.315,0.74,0.315,1.2c0,0.46-0.105,0.86-0.314,1.2
			c-0.209,0.34-0.493,0.51-0.852,0.51h-6.725l-0.39,4.95h2.31c2.14,0,3.85,0.515,5.13,1.545c1.28,1.03,1.92,2.655,1.92,4.875v0.57
			c0,2.32-0.64,4.025-1.92,5.115c-1.28,1.09-2.97,1.635-5.07,1.635c-2.18,0-3.905-0.535-5.175-1.605
			S301.476,268.311,301.476,266.831z"/>
		<path fill="#19181C" d="M317.585,265.391v-8.37c0-2.38,0.635-4.12,1.905-5.22c1.27-1.1,2.975-1.65,5.115-1.65s3.85,0.55,5.13,1.65
			s1.92,2.84,1.92,5.22v8.37c0,2.38-0.641,4.12-1.92,5.22c-1.28,1.101-2.99,1.65-5.13,1.65s-3.845-0.55-5.115-1.65
			C318.22,269.511,317.585,267.771,317.585,265.391z M321.485,265.391c0,2.3,1.04,3.45,3.12,3.45c2.1,0,3.15-1.149,3.15-3.45v-8.37
			c0-2.3-1.05-3.45-3.15-3.45c-2.08,0-3.12,1.15-3.12,3.45V265.391z M323.615,262.473c-0.26-0.285-0.39-0.658-0.39-1.119
			c0-0.46,0.125-0.828,0.375-1.102c0.25-0.274,0.595-0.412,1.035-0.412c0.42,0,0.754,0.138,1.005,0.412
			c0.25,0.274,0.375,0.642,0.375,1.102c0,0.461-0.125,0.834-0.375,1.119c-0.25,0.285-0.585,0.427-1.005,0.427
			C324.215,262.9,323.875,262.758,323.615,262.473z"/>
		<path fill="#19181C" d="M340.115,264.955c0-0.439,0.109-0.806,0.33-1.101c0.22-0.295,0.51-0.443,0.87-0.443h7.8
			c0.32,0,0.61,0.153,0.87,0.458c0.259,0.305,0.39,0.667,0.39,1.087c0,0.439-0.125,0.801-0.375,1.086
			c-0.25,0.286-0.545,0.429-0.885,0.429h-7.8c-0.36,0-0.65-0.138-0.87-0.415C340.224,265.78,340.115,265.413,340.115,264.955z"/>
		<path fill="#19181C" d="M357.815,270.281c0-0.2,0.08-0.44,0.24-0.72l5.19-8.46l-5.01-8.43c-0.18-0.3-0.27-0.58-0.27-0.84
			c0-0.5,0.265-0.93,0.795-1.29c0.53-0.36,1.095-0.54,1.695-0.54c0.56,0,0.99,0.28,1.29,0.84l4.08,7.35l4.08-7.35
			c0.32-0.56,0.76-0.84,1.32-0.84c0.6,0,1.165,0.18,1.695,0.54c0.53,0.36,0.795,0.791,0.795,1.29c0,0.26-0.09,0.54-0.27,0.84
			l-5.01,8.43l5.19,8.46c0.14,0.26,0.21,0.5,0.21,0.72c0,0.52-0.28,0.975-0.84,1.365s-1.13,0.585-1.71,0.585
			c-0.48,0-0.83-0.21-1.05-0.63l-4.41-7.71l-4.38,7.71c-0.24,0.42-0.6,0.63-1.08,0.63c-0.56,0-1.125-0.195-1.695-0.585
			C358.1,271.255,357.815,270.801,357.815,270.281z"/>
		<path fill="#19181C" d="M381.844,261.745c0-0.439,0.11-0.806,0.33-1.101c0.22-0.295,0.51-0.443,0.87-0.443h7.74
			c0.32,0,0.61,0.153,0.87,0.458c0.26,0.305,0.39,0.667,0.39,1.087c0,0.439-0.125,0.801-0.375,1.086
			c-0.25,0.286-0.545,0.429-0.885,0.429h-7.74c-0.36,0-0.65-0.138-0.87-0.415C381.954,262.57,381.844,262.203,381.844,261.745z
			 M381.844,267.835c0-0.438,0.11-0.806,0.33-1.101c0.22-0.295,0.51-0.443,0.87-0.443h7.74c0.32,0,0.61,0.153,0.87,0.458
			c0.26,0.305,0.39,0.667,0.39,1.087c0,0.439-0.125,0.801-0.375,1.087c-0.25,0.286-0.545,0.429-0.885,0.429h-7.74
			c-0.36,0-0.65-0.138-0.87-0.415C381.954,268.66,381.844,268.292,381.844,267.835z"/>
		<path fill="#19181C" d="M180.397,301.391v-8.37c0-2.38,0.655-4.12,1.965-5.22c1.31-1.1,3.064-1.65,5.265-1.65
			c2.22,0,3.915,0.555,5.085,1.665c1.17,1.11,1.755,2.385,1.755,3.825c0,0.6-0.146,1.02-0.435,1.26
			c-0.291,0.24-0.755,0.36-1.395,0.36c-1.36,0-2.04-0.49-2.04-1.47c0-0.68-0.295-1.22-0.885-1.62c-0.59-0.4-1.315-0.6-2.175-0.6
			c-2.18,0-3.27,1.15-3.27,3.45v3.27c0.86-1.02,2.19-1.53,3.99-1.53c1.879,0,3.385,0.48,4.515,1.44s1.695,2.55,1.695,4.77v0.42
			c0,2.38-0.635,4.12-1.905,5.22c-1.27,1.101-2.975,1.65-5.115,1.65c-2.141,0-3.851-0.55-5.13-1.65
			C181.038,305.511,180.397,303.771,180.397,301.391z M184.268,301.693c0,2.338,1.06,3.507,3.18,3.507c2.08,0,3.12-1.169,3.12-3.507
			v-0.396c0-2.317-1.05-3.477-3.15-3.477s-3.15,1.067-3.15,3.202V301.693z"/>
		<path fill="#19181C" d="M196.867,301.391v-8.37c0-2.38,0.635-4.12,1.905-5.22c1.27-1.1,2.975-1.65,5.115-1.65s3.85,0.55,5.13,1.65
			s1.92,2.84,1.92,5.22v8.37c0,2.38-0.641,4.12-1.92,5.22c-1.28,1.101-2.99,1.65-5.13,1.65s-3.845-0.55-5.115-1.65
			C197.502,305.511,196.867,303.771,196.867,301.391z M200.767,301.391c0,2.3,1.04,3.45,3.12,3.45c2.1,0,3.15-1.149,3.15-3.45v-8.37
			c0-2.3-1.05-3.45-3.15-3.45c-2.08,0-3.12,1.15-3.12,3.45V301.391z M202.897,298.473c-0.26-0.285-0.39-0.658-0.39-1.119
			c0-0.46,0.125-0.828,0.375-1.102c0.25-0.274,0.595-0.412,1.035-0.412c0.42,0,0.754,0.138,1.005,0.412
			c0.25,0.274,0.375,0.642,0.375,1.102c0,0.461-0.125,0.834-0.375,1.119c-0.25,0.285-0.585,0.427-1.005,0.427
			C203.497,298.9,203.157,298.758,202.897,298.473z"/>
		<path fill="#19181C" d="M219.397,300.955c0-0.439,0.109-0.806,0.33-1.101c0.22-0.295,0.51-0.443,0.87-0.443h7.8
			c0.32,0,0.61,0.153,0.87,0.458c0.259,0.305,0.39,0.667,0.39,1.087c0,0.439-0.125,0.801-0.375,1.086
			c-0.25,0.286-0.545,0.429-0.885,0.429h-7.8c-0.36,0-0.65-0.138-0.87-0.415C219.506,301.78,219.397,301.413,219.397,300.955z"/>
		<path fill="#19181C" d="M230.768,306.281c0-0.2,0.08-0.44,0.24-0.72l5.19-8.46l-5.01-8.43c-0.18-0.3-0.27-0.58-0.27-0.84
			c0-0.5,0.265-0.93,0.795-1.29c0.53-0.36,1.095-0.54,1.695-0.54c0.56,0,0.99,0.28,1.29,0.84l4.08,7.35l4.08-7.35
			c0.32-0.56,0.76-0.84,1.32-0.84c0.6,0,1.165,0.18,1.695,0.54c0.53,0.36,0.795,0.791,0.795,1.29c0,0.26-0.09,0.54-0.27,0.84
			l-5.01,8.43l5.19,8.46c0.14,0.26,0.21,0.5,0.21,0.72c0,0.52-0.28,0.975-0.84,1.365s-1.13,0.585-1.71,0.585
			c-0.48,0-0.83-0.21-1.05-0.63l-4.41-7.71l-4.38,7.71c-0.24,0.42-0.6,0.63-1.08,0.63c-0.56,0-1.125-0.195-1.695-0.585
			C231.052,307.255,230.768,306.801,230.768,306.281z"/>
	</g>
	<g>
		<path fill="#19181C" d="M629.084,254.5c0-0.62,0.25-1.09,0.75-1.41l3.54-2.7c0.24-0.2,0.511-0.3,0.81-0.3
			c0.44,0,0.84,0.12,1.201,0.36c0.359,0.24,0.539,0.54,0.539,0.9v19.5c0,0.38-0.195,0.68-0.584,0.9
			c-0.391,0.22-0.846,0.33-1.365,0.33c-0.541,0-1.001-0.11-1.381-0.33c-0.38-0.22-0.57-0.52-0.57-0.9v-16.02l-0.959,0.96
			c-0.201,0.18-0.44,0.27-0.721,0.27c-0.359,0-0.66-0.16-0.899-0.48C629.204,255.261,629.084,254.901,629.084,254.5z"/>
		<path fill="#19181C" d="M638.684,270.844v-2.924c0-0.884,0.303-1.759,0.906-2.623s1.336-1.648,2.197-2.352l2.878-2.086
			c0.944-0.706,1.749-1.452,2.413-2.238s0.996-1.572,0.996-2.359c0-0.706-0.237-1.331-0.709-1.875
			c-0.473-0.544-1.172-0.816-2.097-0.816c-0.784,0-1.429,0.227-1.931,0.68c-0.503,0.453-0.754,1.132-0.754,2.038
			c0,0.391-0.183,0.736-0.547,1.034c-0.363,0.299-0.851,0.448-1.461,0.448c-1.162,0-1.742-0.7-1.742-2.1
			c0-1.64,0.635-2.97,1.906-3.99c1.271-1.02,2.771-1.53,4.498-1.53c1.824,0,3.402,0.546,4.736,1.638
			c1.332,1.092,1.999,2.543,1.999,4.353c0,1.21-0.326,2.344-0.978,3.402c-0.652,1.059-1.449,1.955-2.391,2.691
			c-0.943,0.736-1.881,1.417-2.813,2.042c-0.934,0.625-1.727,1.25-2.379,1.875c-0.654,0.625-0.98,1.22-0.98,1.784v0.726h8.366
			c0.321,0,0.606,0.165,0.857,0.495c0.251,0.33,0.376,0.725,0.376,1.185c0,0.46-0.122,0.866-0.367,1.215
			c-0.245,0.35-0.524,0.525-0.838,0.525h-10.469c-0.372,0-0.744-0.121-1.117-0.362C638.87,271.478,638.684,271.186,638.684,270.844z
			"/>
		<path fill="#19181C" d="M654.224,265.391v-8.37c0-2.38,0.635-4.12,1.905-5.22c1.27-1.1,2.975-1.65,5.115-1.65
			c2.14,0,3.85,0.55,5.129,1.65c1.28,1.1,1.921,2.84,1.921,5.22v8.37c0,2.38-0.641,4.12-1.921,5.22
			c-1.279,1.101-2.989,1.65-5.129,1.65c-2.141,0-3.846-0.55-5.115-1.65C654.858,269.511,654.224,267.771,654.224,265.391z
			 M658.123,265.391c0,2.3,1.041,3.45,3.121,3.45c2.1,0,3.149-1.149,3.149-3.45v-8.37c0-2.3-1.05-3.45-3.149-3.45
			c-2.08,0-3.121,1.15-3.121,3.45V265.391z M660.254,262.473c-0.26-0.285-0.391-0.658-0.391-1.119c0-0.46,0.125-0.828,0.375-1.102
			c0.25-0.274,0.596-0.412,1.035-0.412c0.42,0,0.755,0.138,1.006,0.412c0.25,0.274,0.375,0.642,0.375,1.102
			c0,0.461-0.125,0.834-0.375,1.119c-0.251,0.285-0.586,0.427-1.006,0.427S660.514,262.758,660.254,262.473z"/>
		<path fill="#19181C" d="M676.754,264.955c0-0.439,0.109-0.806,0.33-1.101c0.219-0.295,0.51-0.443,0.869-0.443h7.801
			c0.319,0,0.609,0.153,0.869,0.458c0.26,0.305,0.391,0.667,0.391,1.087c0,0.439-0.125,0.801-0.375,1.086
			c-0.25,0.286-0.545,0.429-0.885,0.429h-7.801c-0.359,0-0.65-0.138-0.869-0.415C676.863,265.78,676.754,265.413,676.754,264.955z"
			/>
		<path fill="#19181C" d="M694.604,266.831c0-0.66,0.159-1.12,0.479-1.38c0.319-0.26,0.81-0.39,1.47-0.39
			c0.76,0,1.275,0.13,1.545,0.39c0.271,0.26,0.405,0.63,0.405,1.11c0,0.72,0.29,1.28,0.87,1.68c0.58,0.4,1.32,0.6,2.22,0.6
			c2.12,0,3.181-1.11,3.181-3.33v-0.57c0-1.12-0.275-1.959-0.826-2.52c-0.55-0.56-1.324-0.84-2.324-0.84h-4.439
			c-0.581,0-0.986-0.129-1.216-0.388s-0.345-0.637-0.345-1.134c0-0.08,0.034-0.204,0.103-0.373s0.103-0.303,0.103-0.403l0.605-7.903
			c0.06-0.82,0.309-1.23,0.75-1.23h9.239c0.36,0,0.646,0.17,0.854,0.51c0.211,0.34,0.315,0.74,0.315,1.2
			c0,0.46-0.104,0.86-0.313,1.2c-0.209,0.34-0.494,0.51-0.852,0.51h-6.725l-0.391,4.95h2.311c2.14,0,3.85,0.515,5.13,1.545
			c1.28,1.03,1.92,2.655,1.92,4.875v0.57c0,2.32-0.64,4.025-1.92,5.115c-1.28,1.09-2.97,1.635-5.069,1.635
			c-2.181,0-3.906-0.535-5.176-1.605S694.604,268.311,694.604,266.831z"/>
		<path fill="#19181C" d="M710.713,265.391v-8.37c0-2.38,0.635-4.12,1.904-5.22s2.975-1.65,5.115-1.65s3.85,0.55,5.13,1.65
			s1.921,2.84,1.921,5.22v8.37c0,2.38-0.641,4.12-1.921,5.22c-1.28,1.101-2.989,1.65-5.13,1.65s-3.846-0.55-5.115-1.65
			C711.348,269.511,710.713,267.771,710.713,265.391z M714.612,265.391c0,2.3,1.04,3.45,3.12,3.45c2.1,0,3.15-1.149,3.15-3.45v-8.37
			c0-2.3-1.051-3.45-3.15-3.45c-2.08,0-3.12,1.15-3.12,3.45V265.391z M716.742,262.473c-0.26-0.285-0.39-0.658-0.39-1.119
			c0-0.46,0.124-0.828,0.375-1.102c0.25-0.274,0.595-0.412,1.035-0.412c0.42,0,0.755,0.138,1.005,0.412
			c0.25,0.274,0.375,0.642,0.375,1.102c0,0.461-0.125,0.834-0.375,1.119s-0.585,0.427-1.005,0.427
			C717.342,262.9,717.002,262.758,716.742,262.473z"/>
		<path fill="#19181C" d="M733.242,264.955c0-0.439,0.109-0.806,0.33-1.101c0.22-0.295,0.51-0.443,0.869-0.443h7.801
			c0.32,0,0.609,0.153,0.87,0.458c0.259,0.305,0.39,0.667,0.39,1.087c0,0.439-0.125,0.801-0.375,1.086
			c-0.25,0.286-0.545,0.429-0.885,0.429h-7.801c-0.359,0-0.649-0.138-0.869-0.415C733.352,265.78,733.242,265.413,733.242,264.955z"
			/>
		<path fill="#19181C" d="M751.152,266.801c0-0.58,0.139-0.98,0.42-1.2c0.279-0.22,0.76-0.33,1.439-0.33
			c0.78,0,1.31,0.105,1.59,0.315s0.42,0.565,0.42,1.065c0,0.68,0.28,1.215,0.84,1.605c0.561,0.39,1.32,0.585,2.28,0.585
			c1.12,0,1.935-0.255,2.445-0.765c0.51-0.51,0.765-1.335,0.765-2.475v-0.57c0-1.9-1.1-2.85-3.3-2.85c-0.761,0-1.14-0.51-1.14-1.53
			s0.387-1.53,1.16-1.53c0.873,0,1.549-0.194,2.024-0.582c0.477-0.388,0.715-1.169,0.715-2.343c0-1.75-0.88-2.625-2.64-2.625
			c-1.78,0-2.67,0.667-2.67,1.999c0,0.995-0.62,1.492-1.86,1.492c-0.84,0-1.385-0.115-1.635-0.343
			c-0.251-0.229-0.375-0.671-0.375-1.328c0-0.582,0.109-1.159,0.33-1.731c0.22-0.572,0.564-1.129,1.034-1.671
			c0.471-0.542,1.156-0.984,2.056-1.325s1.95-0.512,3.149-0.512c4.24,0,6.36,1.797,6.36,5.389c0,1.195-0.207,2.237-0.621,3.123
			c-0.413,0.887-0.994,1.5-1.741,1.838c2.035,0.8,3.053,2.31,3.053,4.53v0.57c0,2.28-0.666,3.96-1.995,5.04
			c-1.331,1.08-3.065,1.62-5.205,1.62c-2.261,0-3.976-0.56-5.146-1.68C751.736,269.461,751.152,268.201,751.152,266.801z"/>
		<path fill="#19181C" d="M767.562,265.391v-8.37c0-2.38,0.635-4.12,1.905-5.22c1.27-1.1,2.975-1.65,5.115-1.65
			c2.14,0,3.85,0.55,5.129,1.65c1.28,1.1,1.921,2.84,1.921,5.22v8.37c0,2.38-0.641,4.12-1.921,5.22
			c-1.279,1.101-2.989,1.65-5.129,1.65c-2.141,0-3.846-0.55-5.115-1.65C768.196,269.511,767.562,267.771,767.562,265.391z
			 M771.461,265.391c0,2.3,1.041,3.45,3.121,3.45c2.1,0,3.149-1.149,3.149-3.45v-8.37c0-2.3-1.05-3.45-3.149-3.45
			c-2.08,0-3.121,1.15-3.121,3.45V265.391z M773.592,262.473c-0.26-0.285-0.391-0.658-0.391-1.119c0-0.46,0.125-0.828,0.375-1.102
			c0.25-0.274,0.596-0.412,1.035-0.412c0.42,0,0.755,0.138,1.006,0.412c0.25,0.274,0.375,0.642,0.375,1.102
			c0,0.461-0.125,0.834-0.375,1.119c-0.251,0.285-0.586,0.427-1.006,0.427S773.852,262.758,773.592,262.473z"/>
		<path fill="#19181C" d="M790.092,264.955c0-0.439,0.109-0.806,0.33-1.101c0.219-0.295,0.51-0.443,0.869-0.443h7.801
			c0.319,0,0.609,0.153,0.869,0.458c0.26,0.305,0.391,0.667,0.391,1.087c0,0.439-0.125,0.801-0.375,1.086
			c-0.25,0.286-0.545,0.429-0.885,0.429h-7.801c-0.359,0-0.65-0.138-0.869-0.415C790.201,265.78,790.092,265.413,790.092,264.955z"
			/>
		<path fill="#19181C" d="M807.791,270.281c0-0.2,0.08-0.44,0.24-0.72l5.189-8.46l-5.01-8.43c-0.18-0.3-0.27-0.58-0.27-0.84
			c0-0.5,0.265-0.93,0.795-1.29c0.529-0.36,1.096-0.54,1.695-0.54c0.56,0,0.99,0.28,1.289,0.84l4.08,7.35l4.08-7.35
			c0.32-0.56,0.76-0.84,1.32-0.84c0.6,0,1.165,0.18,1.695,0.54c0.529,0.36,0.795,0.791,0.795,1.29c0,0.26-0.09,0.54-0.27,0.84
			l-5.011,8.43l5.19,8.46c0.14,0.26,0.21,0.5,0.21,0.72c0,0.52-0.28,0.975-0.841,1.365c-0.56,0.39-1.129,0.585-1.709,0.585
			c-0.48,0-0.83-0.21-1.051-0.63l-4.41-7.71l-4.379,7.71c-0.24,0.42-0.601,0.63-1.08,0.63c-0.561,0-1.125-0.195-1.695-0.585
			S807.791,270.801,807.791,270.281z"/>
		<path fill="#19181C" d="M831.82,261.745c0-0.439,0.109-0.806,0.33-1.101c0.22-0.295,0.51-0.443,0.87-0.443h7.739
			c0.32,0,0.61,0.153,0.871,0.458c0.26,0.305,0.39,0.667,0.39,1.087c0,0.439-0.125,0.801-0.375,1.086
			c-0.251,0.286-0.546,0.429-0.886,0.429h-7.739c-0.36,0-0.65-0.138-0.87-0.415C831.93,262.57,831.82,262.203,831.82,261.745z
			 M831.82,267.835c0-0.438,0.109-0.806,0.33-1.101c0.22-0.295,0.51-0.443,0.87-0.443h7.739c0.32,0,0.61,0.153,0.871,0.458
			c0.26,0.305,0.39,0.667,0.39,1.087c0,0.439-0.125,0.801-0.375,1.087c-0.251,0.286-0.546,0.429-0.886,0.429h-7.739
			c-0.36,0-0.65-0.138-0.87-0.415C831.93,268.66,831.82,268.292,831.82,267.835z"/>
		<path fill="#19181C" d="M628.965,301.8c0-0.258,0.069-0.516,0.209-0.773l7.11-13.865c0.319-0.674,0.87-1.012,1.649-1.012
			c0.4,0,0.826,0.146,1.275,0.435c0.45,0.29,0.676,0.645,0.676,1.065c0,0.14-0.051,0.311-0.15,0.51l-5.76,11.52h3.51v-3.301
			c0-0.419,0.189-0.738,0.57-0.959c0.379-0.22,0.84-0.33,1.379-0.33c0.541,0,1,0.11,1.381,0.33c0.379,0.221,0.57,0.54,0.57,0.959
			v3.301h1.409c0.38,0,0.68,0.169,0.9,0.509c0.22,0.339,0.329,0.745,0.329,1.215c0,0.434-0.125,0.824-0.375,1.173
			c-0.25,0.349-0.535,0.522-0.854,0.522h-1.409v3.696c0,0.397-0.191,0.71-0.57,0.939c-0.381,0.23-0.84,0.345-1.381,0.345
			c-0.52,0-0.975-0.115-1.364-0.345c-0.39-0.229-0.585-0.542-0.585-0.939v-3.696h-7.2c-0.38,0-0.695-0.118-0.944-0.354
			C629.089,302.512,628.965,302.196,628.965,301.8z"/>
		<path fill="#19181C" d="M645.434,301.391v-8.37c0-2.38,0.635-4.12,1.906-5.22c1.27-1.1,2.975-1.65,5.114-1.65
			s3.851,0.55,5.13,1.65s1.92,2.84,1.92,5.22v8.37c0,2.38-0.641,4.12-1.92,5.22c-1.279,1.101-2.99,1.65-5.13,1.65
			s-3.845-0.55-5.114-1.65C646.068,305.511,645.434,303.771,645.434,301.391z M649.334,301.391c0,2.3,1.04,3.45,3.12,3.45
			c2.101,0,3.149-1.149,3.149-3.45v-8.37c0-2.3-1.049-3.45-3.149-3.45c-2.08,0-3.12,1.15-3.12,3.45V301.391z M651.465,298.473
			c-0.261-0.285-0.391-0.658-0.391-1.119c0-0.46,0.125-0.828,0.375-1.102c0.25-0.274,0.595-0.412,1.035-0.412
			c0.42,0,0.754,0.138,1.005,0.412c0.25,0.274,0.375,0.642,0.375,1.102c0,0.461-0.125,0.834-0.375,1.119
			c-0.251,0.285-0.585,0.427-1.005,0.427S651.725,298.758,651.465,298.473z"/>
		<path fill="#19181C" d="M667.964,300.955c0-0.439,0.109-0.806,0.33-1.101c0.22-0.295,0.51-0.443,0.87-0.443h7.8
			c0.319,0,0.61,0.153,0.87,0.458c0.26,0.305,0.39,0.667,0.39,1.087c0,0.439-0.125,0.801-0.375,1.086
			c-0.25,0.286-0.545,0.429-0.885,0.429h-7.8c-0.36,0-0.65-0.138-0.87-0.415C668.073,301.78,667.964,301.413,667.964,300.955z"/>
		<path fill="#19181C" d="M685.664,306.281c0-0.2,0.079-0.44,0.239-0.72l5.19-8.46l-5.01-8.43c-0.181-0.3-0.271-0.58-0.271-0.84
			c0-0.5,0.265-0.93,0.795-1.29s1.095-0.54,1.694-0.54c0.561,0,0.99,0.28,1.291,0.84l4.08,7.35l4.08-7.35
			c0.319-0.56,0.76-0.84,1.319-0.84c0.601,0,1.165,0.18,1.695,0.54s0.795,0.791,0.795,1.29c0,0.26-0.09,0.54-0.271,0.84l-5.01,8.43
			l5.19,8.46c0.14,0.26,0.21,0.5,0.21,0.72c0,0.52-0.28,0.975-0.84,1.365c-0.561,0.39-1.131,0.585-1.711,0.585
			c-0.479,0-0.83-0.21-1.049-0.63l-4.41-7.71l-4.381,7.71c-0.24,0.42-0.6,0.63-1.08,0.63c-0.56,0-1.125-0.195-1.694-0.585
			C685.948,307.255,685.664,306.801,685.664,306.281z"/>
	</g>
	<g>
		<path fill="#554F68" d="M498.891,249.282c0-0.2,0.08-0.44,0.24-0.72l5.19-8.46l-5.01-8.43c-0.18-0.3-0.27-0.58-0.27-0.84
			c0-0.5,0.265-0.93,0.795-1.29c0.53-0.36,1.095-0.54,1.695-0.54c0.56,0,0.99,0.28,1.29,0.84l4.08,7.35l4.08-7.35
			c0.32-0.56,0.76-0.84,1.32-0.84c0.6,0,1.165,0.18,1.695,0.54c0.529,0.36,0.795,0.791,0.795,1.29c0,0.26-0.09,0.54-0.27,0.84
			l-5.011,8.43l5.19,8.46c0.14,0.26,0.21,0.5,0.21,0.72c0,0.52-0.28,0.975-0.841,1.365c-0.56,0.39-1.129,0.585-1.709,0.585
			c-0.48,0-0.83-0.21-1.05-0.63l-4.41-7.71l-4.38,7.71c-0.24,0.42-0.6,0.63-1.08,0.63c-0.56,0-1.125-0.195-1.695-0.585
			C499.176,250.256,498.891,249.802,498.891,249.282z"/>
	</g>
	<g>
		<g>
			<path fill="#939597" d="M492.991,384.324c0-0.66,0.16-1.12,0.48-1.38c0.32-0.26,0.81-0.39,1.47-0.39
				c0.76,0,1.275,0.13,1.545,0.39c0.27,0.26,0.405,0.63,0.405,1.11c0,0.72,0.29,1.28,0.87,1.68c0.58,0.4,1.32,0.6,2.22,0.6
				c2.12,0,3.18-1.11,3.18-3.33v-0.57c0-1.12-0.275-1.959-0.825-2.52c-0.55-0.56-1.325-0.84-2.325-0.84h-4.44
				c-0.581,0-0.985-0.129-1.215-0.388s-0.345-0.637-0.345-1.134c0-0.08,0.034-0.204,0.103-0.373s0.103-0.303,0.103-0.403
				l0.604-7.903c0.06-0.82,0.31-1.23,0.75-1.23h9.24c0.36,0,0.645,0.17,0.855,0.51c0.21,0.34,0.315,0.74,0.315,1.2
				c0,0.46-0.105,0.86-0.314,1.2c-0.209,0.34-0.493,0.51-0.852,0.51h-6.725l-0.39,4.95h2.31c2.14,0,3.85,0.515,5.13,1.545
				c1.28,1.03,1.92,2.655,1.92,4.875v0.57c0,2.32-0.64,4.025-1.92,5.115c-1.28,1.09-2.97,1.635-5.07,1.635
				c-2.18,0-3.905-0.535-5.175-1.605S492.991,385.805,492.991,384.324z"/>
			<path fill="#939597" d="M509.101,382.884v-8.37c0-2.38,0.635-4.12,1.905-5.22c1.27-1.1,2.975-1.65,5.115-1.65
				c2.14,0,3.85,0.55,5.129,1.65c1.28,1.1,1.921,2.84,1.921,5.22v8.37c0,2.38-0.641,4.12-1.921,5.22
				c-1.279,1.101-2.989,1.65-5.129,1.65c-2.141,0-3.846-0.55-5.115-1.65C509.735,387.004,509.101,385.265,509.101,382.884z
				 M513,382.884c0,2.3,1.041,3.45,3.121,3.45c2.1,0,3.149-1.149,3.149-3.45v-8.37c0-2.3-1.05-3.45-3.149-3.45
				c-2.08,0-3.121,1.15-3.121,3.45V382.884z M515.131,379.967c-0.26-0.285-0.391-0.658-0.391-1.119c0-0.46,0.125-0.828,0.375-1.102
				c0.25-0.274,0.596-0.412,1.035-0.412c0.42,0,0.755,0.138,1.006,0.412c0.25,0.274,0.375,0.642,0.375,1.102
				c0,0.461-0.125,0.834-0.375,1.119c-0.251,0.285-0.586,0.427-1.006,0.427S515.391,380.252,515.131,379.967z"/>
		</g>
	</g>
	<g>
		<g>
			<path fill="#939597" d="M556.396,474.602v-0.358c0-2.865,1.19-4.735,3.573-5.61c-1.902-0.693-2.854-2.261-2.854-4.705
				c0-1.813,0.567-3.146,1.702-4.003s2.677-1.285,4.628-1.285c1.939,0,3.48,0.429,4.62,1.285s1.71,2.19,1.71,4.003
				c0,2.444-0.96,4.012-2.88,4.705c2.38,0.855,3.569,2.726,3.569,5.61v0.358c0,2.109-0.64,3.662-1.92,4.656
				c-1.279,0.994-2.979,1.492-5.1,1.492c-2.119,0-3.824-0.498-5.115-1.492C557.041,478.264,556.396,476.711,556.396,474.602z
				 M560.295,474.184c0,2.338,1.051,3.506,3.15,3.506c2.08,0,3.12-1.168,3.12-3.506v-0.609c0-2.236-1.04-3.354-3.12-3.354
				c-2.1,0-3.15,1.118-3.15,3.354V474.184z M563.445,461.699c-1.721,0-2.58,0.911-2.58,2.73c0,1.82,0.859,2.73,2.58,2.73
				s2.58-0.91,2.58-2.73C566.025,462.61,565.166,461.699,563.445,461.699z"/>
			<path fill="#939597" d="M572.805,473.88v-8.37c0-2.38,0.635-4.119,1.906-5.22c1.27-1.101,2.975-1.65,5.114-1.65
				s3.851,0.55,5.13,1.65s1.92,2.84,1.92,5.22v8.37c0,2.38-0.641,4.12-1.92,5.22c-1.279,1.101-2.99,1.65-5.13,1.65
				s-3.845-0.55-5.114-1.65C573.439,478,572.805,476.26,572.805,473.88z M576.705,473.88c0,2.3,1.04,3.45,3.12,3.45
				c2.101,0,3.149-1.15,3.149-3.45v-8.37c0-2.3-1.049-3.449-3.149-3.449c-2.08,0-3.12,1.149-3.12,3.449V473.88z M578.836,470.963
				c-0.261-0.285-0.391-0.658-0.391-1.119s0.125-0.828,0.375-1.103s0.595-0.411,1.035-0.411c0.42,0,0.754,0.137,1.005,0.411
				c0.25,0.274,0.375,0.642,0.375,1.103s-0.125,0.834-0.375,1.119c-0.251,0.285-0.585,0.427-1.005,0.427
				S579.096,471.248,578.836,470.963z"/>
			<path fill="#939597" d="M595.335,473.444c0-0.438,0.109-0.806,0.33-1.101c0.22-0.296,0.51-0.443,0.87-0.443h7.8
				c0.319,0,0.61,0.152,0.87,0.457s0.39,0.668,0.39,1.087c0,0.438-0.125,0.801-0.375,1.087c-0.25,0.285-0.545,0.429-0.885,0.429
				h-7.8c-0.36,0-0.65-0.138-0.87-0.415C595.444,474.27,595.335,473.902,595.335,473.444z"/>
			<path fill="#939597" d="M613.185,475.32c0-0.66,0.159-1.12,0.479-1.381c0.32-0.26,0.811-0.39,1.471-0.39
				c0.76,0,1.275,0.13,1.545,0.39c0.27,0.261,0.404,0.631,0.404,1.11c0,0.72,0.29,1.28,0.871,1.681c0.579,0.4,1.319,0.6,2.219,0.6
				c2.121,0,3.181-1.11,3.181-3.33v-0.57c0-1.119-0.274-1.959-0.825-2.52s-1.324-0.84-2.324-0.84h-4.44
				c-0.581,0-0.985-0.129-1.216-0.389c-0.229-0.258-0.344-0.637-0.344-1.133c0-0.08,0.033-0.205,0.102-0.373
				c0.068-0.17,0.104-0.304,0.104-0.403l0.604-7.903c0.06-0.819,0.31-1.229,0.75-1.229h9.239c0.361,0,0.646,0.171,0.855,0.511
				s0.314,0.74,0.314,1.199c0,0.461-0.104,0.86-0.313,1.2c-0.209,0.341-0.493,0.511-0.852,0.511h-6.725l-0.39,4.949h2.311
				c2.139,0,3.85,0.516,5.129,1.545c1.28,1.03,1.92,2.655,1.92,4.875V474c0,2.32-0.64,4.025-1.92,5.115
				c-1.279,1.09-2.969,1.635-5.069,1.635c-2.181,0-3.905-0.535-5.175-1.605C613.819,478.075,613.185,476.801,613.185,475.32z"/>
			<path fill="#939597" d="M629.294,473.88v-8.37c0-2.38,0.635-4.119,1.905-5.22c1.27-1.101,2.975-1.65,5.115-1.65
				c2.14,0,3.85,0.55,5.129,1.65c1.28,1.101,1.921,2.84,1.921,5.22v8.37c0,2.38-0.641,4.12-1.921,5.22
				c-1.279,1.101-2.989,1.65-5.129,1.65c-2.141,0-3.846-0.55-5.115-1.65C629.929,478,629.294,476.26,629.294,473.88z
				 M633.193,473.88c0,2.3,1.041,3.45,3.121,3.45c2.1,0,3.149-1.15,3.149-3.45v-8.37c0-2.3-1.05-3.449-3.149-3.449
				c-2.08,0-3.121,1.149-3.121,3.449V473.88z M635.324,470.963c-0.26-0.285-0.391-0.658-0.391-1.119s0.125-0.828,0.375-1.103
				s0.596-0.411,1.035-0.411c0.42,0,0.755,0.137,1.006,0.411c0.25,0.274,0.375,0.642,0.375,1.103s-0.125,0.834-0.375,1.119
				c-0.251,0.285-0.586,0.427-1.006,0.427S635.584,471.248,635.324,470.963z"/>
			<path fill="#939597" d="M652.334,470.234c0-0.439,0.109-0.806,0.33-1.102c0.219-0.295,0.51-0.443,0.869-0.443h7.74
				c0.32,0,0.609,0.153,0.87,0.458c0.26,0.306,0.39,0.667,0.39,1.087c0,0.439-0.125,0.801-0.375,1.086
				c-0.25,0.287-0.545,0.43-0.885,0.43h-7.74c-0.359,0-0.65-0.139-0.869-0.414C652.443,471.059,652.334,470.691,652.334,470.234z
				 M652.334,476.324c0-0.438,0.109-0.806,0.33-1.102c0.219-0.295,0.51-0.443,0.869-0.443h7.74c0.32,0,0.609,0.153,0.87,0.458
				c0.26,0.306,0.39,0.667,0.39,1.087c0,0.439-0.125,0.801-0.375,1.087s-0.545,0.429-0.885,0.429h-7.74
				c-0.359,0-0.65-0.138-0.869-0.414C652.443,477.148,652.334,476.781,652.334,476.324z"/>
			<path fill="#939597" d="M670.693,475.29c0-0.58,0.14-0.979,0.42-1.2c0.279-0.22,0.76-0.33,1.439-0.33
				c0.781,0,1.311,0.105,1.59,0.314c0.281,0.211,0.421,0.566,0.421,1.065c0,0.681,0.28,1.216,0.84,1.604
				c0.56,0.391,1.319,0.586,2.28,0.586c1.119,0,1.935-0.256,2.445-0.766c0.51-0.51,0.764-1.334,0.764-2.475v-0.57
				c0-1.899-1.1-2.85-3.299-2.85c-0.761,0-1.141-0.51-1.141-1.53s0.387-1.53,1.161-1.53c0.873,0,1.548-0.193,2.024-0.581
				s0.715-1.169,0.715-2.343c0-1.75-0.881-2.625-2.641-2.625c-1.779,0-2.67,0.666-2.67,1.998c0,0.995-0.619,1.492-1.859,1.492
				c-0.84,0-1.385-0.114-1.635-0.343c-0.251-0.229-0.375-0.671-0.375-1.328c0-0.582,0.109-1.159,0.33-1.731
				c0.219-0.572,0.564-1.129,1.034-1.672c0.47-0.541,1.155-0.983,2.056-1.324c0.899-0.342,1.949-0.513,3.149-0.513
				c4.239,0,6.36,1.797,6.36,5.39c0,1.195-0.207,2.236-0.621,3.123s-0.994,1.499-1.741,1.838c2.034,0.8,3.052,2.31,3.052,4.529v0.57
				c0,2.279-0.665,3.96-1.994,5.04c-1.331,1.08-3.066,1.62-5.205,1.62c-2.261,0-3.976-0.561-5.146-1.68
				C671.278,477.95,670.693,476.689,670.693,475.29z"/>
			<path fill="#939597" d="M687.104,473.88v-8.37c0-2.38,0.635-4.119,1.904-5.22s2.975-1.65,5.115-1.65s3.85,0.55,5.13,1.65
				s1.921,2.84,1.921,5.22v8.37c0,2.38-0.641,4.12-1.921,5.22c-1.28,1.101-2.989,1.65-5.13,1.65s-3.846-0.55-5.115-1.65
				C687.738,478,687.104,476.26,687.104,473.88z M691.003,473.88c0,2.3,1.04,3.45,3.12,3.45c2.1,0,3.15-1.15,3.15-3.45v-8.37
				c0-2.3-1.051-3.449-3.15-3.449c-2.08,0-3.12,1.149-3.12,3.449V473.88z M693.133,470.963c-0.26-0.285-0.39-0.658-0.39-1.119
				s0.124-0.828,0.375-1.103c0.25-0.274,0.595-0.411,1.035-0.411c0.42,0,0.755,0.137,1.005,0.411s0.375,0.642,0.375,1.103
				s-0.125,0.834-0.375,1.119s-0.585,0.427-1.005,0.427C693.732,471.39,693.393,471.248,693.133,470.963z"/>
		</g>
	</g>
	<g>
		<path fill="#19181C" d="M378.097,665.324V662.4c0-0.885,0.302-1.759,0.906-2.623s1.336-1.648,2.197-2.352l2.878-2.086
			c0.945-0.706,1.75-1.452,2.413-2.238s0.996-1.572,0.996-2.359c0-0.705-0.237-1.33-0.709-1.875
			c-0.473-0.544-1.171-0.816-2.096-0.816c-0.785,0-1.428,0.227-1.931,0.68c-0.503,0.453-0.754,1.133-0.754,2.039
			c0,0.391-0.183,0.735-0.546,1.033c-0.364,0.299-0.851,0.448-1.461,0.448c-1.162,0-1.742-0.7-1.742-2.101
			c0-1.639,0.635-2.969,1.906-3.989c1.271-1.021,2.771-1.53,4.498-1.53c1.824,0,3.403,0.547,4.736,1.639s2,2.543,2,4.352
			c0,1.211-0.326,2.344-0.978,3.402c-0.652,1.059-1.449,1.955-2.391,2.691c-0.943,0.736-1.88,1.416-2.813,2.041
			c-0.933,0.626-1.726,1.25-2.379,1.875s-0.98,1.221-0.98,1.785v0.725h8.366c0.321,0,0.607,0.166,0.857,0.496
			c0.251,0.329,0.376,0.725,0.376,1.184c0,0.461-0.123,0.866-0.367,1.216c-0.246,0.351-0.525,0.524-0.838,0.524h-10.468
			c-0.373,0-0.745-0.12-1.117-0.361C378.284,665.958,378.097,665.666,378.097,665.324z"/>
		<path fill="#19181C" d="M392.347,648.98c0-0.619,0.25-1.09,0.75-1.41l3.54-2.699c0.24-0.199,0.51-0.301,0.81-0.301
			c0.44,0,0.84,0.121,1.2,0.361c0.36,0.239,0.54,0.539,0.54,0.899v19.5c0,0.38-0.195,0.681-0.585,0.899
			c-0.39,0.221-0.845,0.33-1.365,0.33c-0.54,0-1-0.109-1.38-0.33c-0.38-0.219-0.57-0.52-0.57-0.899v-16.021l-0.96,0.961
			c-0.2,0.18-0.44,0.27-0.72,0.27c-0.36,0-0.66-0.16-0.9-0.48C392.467,649.741,392.347,649.381,392.347,648.98z"/>
		<path fill="#19181C" d="M402.277,659.871v-8.37c0-2.38,0.635-4.12,1.905-5.22c1.27-1.1,2.975-1.65,5.115-1.65
			s3.85,0.551,5.13,1.65s1.92,2.84,1.92,5.22v8.37c0,2.381-0.641,4.12-1.92,5.22c-1.28,1.101-2.99,1.65-5.13,1.65
			s-3.845-0.55-5.115-1.65C402.912,663.991,402.277,662.252,402.277,659.871z M406.177,659.871c0,2.301,1.04,3.449,3.12,3.449
			c2.1,0,3.15-1.148,3.15-3.449v-8.37c0-2.3-1.05-3.45-3.15-3.45c-2.08,0-3.12,1.15-3.12,3.45V659.871z M408.307,656.953
			c-0.26-0.285-0.39-0.658-0.39-1.119c0-0.459,0.125-0.827,0.375-1.102c0.25-0.273,0.595-0.412,1.035-0.412
			c0.42,0,0.754,0.139,1.005,0.412c0.25,0.274,0.375,0.643,0.375,1.102c0,0.461-0.125,0.834-0.375,1.119
			c-0.25,0.285-0.585,0.428-1.005,0.428C408.907,657.381,408.567,657.238,408.307,656.953z"/>
		<path fill="#19181C" d="M424.807,659.436c0-0.439,0.109-0.806,0.33-1.102c0.22-0.295,0.51-0.443,0.87-0.443h7.8
			c0.32,0,0.61,0.153,0.87,0.458c0.259,0.306,0.39,0.667,0.39,1.087c0,0.439-0.125,0.801-0.375,1.086
			c-0.25,0.287-0.545,0.43-0.885,0.43h-7.8c-0.36,0-0.65-0.139-0.87-0.414C424.916,660.26,424.807,659.893,424.807,659.436z"/>
		<path fill="#19181C" d="M443.166,665.324V662.4c0-0.885,0.302-1.759,0.906-2.623s1.336-1.648,2.197-2.352l2.878-2.086
			c0.945-0.706,1.75-1.452,2.413-2.238s0.996-1.572,0.996-2.359c0-0.705-0.237-1.33-0.709-1.875
			c-0.473-0.544-1.171-0.816-2.096-0.816c-0.785,0-1.428,0.227-1.931,0.68c-0.503,0.453-0.754,1.133-0.754,2.039
			c0,0.391-0.183,0.735-0.546,1.033c-0.364,0.299-0.851,0.448-1.461,0.448c-1.162,0-1.742-0.7-1.742-2.101
			c0-1.639,0.635-2.969,1.906-3.989c1.271-1.021,2.771-1.53,4.498-1.53c1.824,0,3.403,0.547,4.736,1.639s2,2.543,2,4.352
			c0,1.211-0.326,2.344-0.978,3.402c-0.652,1.059-1.449,1.955-2.391,2.691c-0.943,0.736-1.88,1.416-2.813,2.041
			c-0.933,0.626-1.726,1.25-2.379,1.875s-0.98,1.221-0.98,1.785v0.725h8.366c0.321,0,0.607,0.166,0.857,0.496
			c0.251,0.329,0.376,0.725,0.376,1.184c0,0.461-0.123,0.866-0.367,1.216c-0.246,0.351-0.525,0.524-0.838,0.524h-10.468
			c-0.373,0-0.745-0.12-1.117-0.361C443.353,665.958,443.166,665.666,443.166,665.324z"/>
		<path fill="#19181C" d="M458.706,659.871v-8.37c0-2.38,0.635-4.12,1.905-5.22c1.27-1.1,2.975-1.65,5.115-1.65
			s3.85,0.551,5.13,1.65s1.92,2.84,1.92,5.22v8.37c0,2.381-0.641,4.12-1.92,5.22c-1.28,1.101-2.99,1.65-5.13,1.65
			s-3.845-0.55-5.115-1.65C459.34,663.991,458.706,662.252,458.706,659.871z M462.605,659.871c0,2.301,1.04,3.449,3.12,3.449
			c2.1,0,3.15-1.148,3.15-3.449v-8.37c0-2.3-1.05-3.45-3.15-3.45c-2.08,0-3.12,1.15-3.12,3.45V659.871z M464.736,656.953
			c-0.26-0.285-0.39-0.658-0.39-1.119c0-0.459,0.125-0.827,0.375-1.102c0.25-0.273,0.595-0.412,1.035-0.412
			c0.42,0,0.754,0.139,1.005,0.412c0.25,0.274,0.375,0.643,0.375,1.102c0,0.461-0.125,0.834-0.375,1.119
			c-0.25,0.285-0.585,0.428-1.005,0.428C465.335,657.381,464.996,657.238,464.736,656.953z"/>
		<path fill="#19181C" d="M481.235,659.436c0-0.439,0.109-0.806,0.33-1.102c0.22-0.295,0.51-0.443,0.87-0.443h7.8
			c0.32,0,0.61,0.153,0.87,0.458c0.259,0.306,0.39,0.667,0.39,1.087c0,0.439-0.125,0.801-0.375,1.086
			c-0.25,0.287-0.545,0.43-0.885,0.43h-7.8c-0.36,0-0.65-0.139-0.87-0.414C481.345,660.26,481.235,659.893,481.235,659.436z"/>
		<path fill="#19181C" d="M499.145,661.281c0-0.58,0.14-0.98,0.42-1.2c0.28-0.22,0.76-0.33,1.44-0.33c0.78,0,1.31,0.104,1.59,0.315
			c0.28,0.209,0.42,0.564,0.42,1.064c0,0.68,0.28,1.215,0.84,1.605c0.56,0.39,1.32,0.584,2.28,0.584c1.12,0,1.935-0.254,2.445-0.764
			c0.51-0.511,0.765-1.336,0.765-2.476v-0.569c0-1.9-1.1-2.851-3.3-2.851c-0.76,0-1.14-0.511-1.14-1.53s0.387-1.529,1.161-1.529
			c0.873,0,1.548-0.194,2.024-0.582c0.477-0.389,0.715-1.169,0.715-2.343c0-1.75-0.88-2.626-2.64-2.626c-1.78,0-2.67,0.667-2.67,2
			c0,0.994-0.62,1.492-1.86,1.492c-0.84,0-1.385-0.115-1.635-0.344c-0.25-0.229-0.375-0.672-0.375-1.328
			c0-0.582,0.109-1.159,0.33-1.731c0.22-0.571,0.564-1.13,1.035-1.671c0.47-0.543,1.155-0.984,2.055-1.326
			c0.9-0.341,1.95-0.512,3.15-0.512c4.24,0,6.36,1.797,6.36,5.389c0,1.195-0.207,2.237-0.621,3.123
			c-0.414,0.887-0.994,1.5-1.741,1.838c2.034,0.801,3.052,2.311,3.052,4.531v0.569c0,2.28-0.666,3.96-1.995,5.04
			c-1.331,1.08-3.065,1.62-5.205,1.62c-2.26,0-3.975-0.56-5.145-1.681C499.73,663.941,499.145,662.682,499.145,661.281z"/>
		<path fill="#19181C" d="M515.555,659.871v-8.37c0-2.38,0.635-4.12,1.905-5.22c1.27-1.1,2.975-1.65,5.114-1.65
			c2.141,0,3.851,0.551,5.131,1.65c1.279,1.1,1.92,2.84,1.92,5.22v8.37c0,2.381-0.641,4.12-1.92,5.22
			c-1.28,1.101-2.99,1.65-5.131,1.65c-2.14,0-3.845-0.55-5.114-1.65C516.189,663.991,515.555,662.252,515.555,659.871z
			 M519.455,659.871c0,2.301,1.039,3.449,3.119,3.449c2.101,0,3.15-1.148,3.15-3.449v-8.37c0-2.3-1.05-3.45-3.15-3.45
			c-2.08,0-3.119,1.15-3.119,3.45V659.871z M521.585,656.953c-0.261-0.285-0.39-0.658-0.39-1.119c0-0.459,0.124-0.827,0.375-1.102
			c0.25-0.273,0.594-0.412,1.035-0.412c0.42,0,0.754,0.139,1.004,0.412c0.25,0.274,0.375,0.643,0.375,1.102
			c0,0.461-0.125,0.834-0.375,1.119s-0.584,0.428-1.004,0.428C522.185,657.381,521.845,657.238,521.585,656.953z"/>
		<path fill="#19181C" d="M538.085,659.436c0-0.439,0.109-0.806,0.33-1.102c0.22-0.295,0.51-0.443,0.87-0.443h7.8
			c0.319,0,0.61,0.153,0.87,0.458c0.26,0.306,0.39,0.667,0.39,1.087c0,0.439-0.125,0.801-0.375,1.086
			c-0.25,0.287-0.545,0.43-0.885,0.43h-7.8c-0.36,0-0.65-0.139-0.87-0.414C538.194,660.26,538.085,659.893,538.085,659.436z"/>
		<path fill="#19181C" d="M555.935,661.311c0-0.66,0.159-1.119,0.479-1.379s0.811-0.391,1.471-0.391c0.76,0,1.275,0.131,1.545,0.391
			s0.404,0.629,0.404,1.109c0,0.721,0.29,1.28,0.871,1.68c0.579,0.4,1.319,0.6,2.219,0.6c2.121,0,3.181-1.109,3.181-3.329v-0.57
			c0-1.12-0.274-1.96-0.825-2.521c-0.551-0.559-1.324-0.84-2.324-0.84h-4.44c-0.581,0-0.985-0.129-1.216-0.387
			c-0.229-0.26-0.344-0.637-0.344-1.135c0-0.079,0.033-0.203,0.102-0.373c0.068-0.168,0.104-0.303,0.104-0.402l0.604-7.902
			c0.06-0.82,0.31-1.23,0.75-1.23h9.239c0.361,0,0.646,0.17,0.855,0.51c0.21,0.341,0.314,0.74,0.314,1.2s-0.104,0.86-0.313,1.2
			s-0.493,0.51-0.852,0.51h-6.725l-0.39,4.95h2.311c2.139,0,3.85,0.515,5.129,1.545c1.28,1.03,1.92,2.655,1.92,4.875v0.57
			c0,2.32-0.64,4.024-1.92,5.114c-1.279,1.091-2.969,1.636-5.069,1.636c-2.181,0-3.905-0.535-5.175-1.604
			C556.569,664.066,555.935,662.791,555.935,661.311z"/>
		<path fill="#19181C" d="M572.044,659.871v-8.37c0-2.38,0.635-4.12,1.905-5.22c1.27-1.1,2.975-1.65,5.115-1.65
			c2.14,0,3.85,0.551,5.129,1.65c1.28,1.1,1.921,2.84,1.921,5.22v8.37c0,2.381-0.641,4.12-1.921,5.22
			c-1.279,1.101-2.989,1.65-5.129,1.65c-2.141,0-3.846-0.55-5.115-1.65C572.679,663.991,572.044,662.252,572.044,659.871z
			 M575.943,659.871c0,2.301,1.041,3.449,3.121,3.449c2.1,0,3.149-1.148,3.149-3.449v-8.37c0-2.3-1.05-3.45-3.149-3.45
			c-2.08,0-3.121,1.15-3.121,3.45V659.871z M578.074,656.953c-0.26-0.285-0.391-0.658-0.391-1.119c0-0.459,0.125-0.827,0.375-1.102
			c0.25-0.273,0.596-0.412,1.035-0.412c0.42,0,0.755,0.139,1.006,0.412c0.25,0.274,0.375,0.643,0.375,1.102
			c0,0.461-0.125,0.834-0.375,1.119c-0.251,0.285-0.586,0.428-1.006,0.428S578.334,657.238,578.074,656.953z"/>
		<path fill="#19181C" d="M595.084,656.226c0-0.438,0.109-0.806,0.33-1.101c0.219-0.296,0.51-0.443,0.869-0.443h7.74
			c0.32,0,0.609,0.152,0.87,0.457c0.26,0.305,0.39,0.668,0.39,1.087c0,0.438-0.125,0.801-0.375,1.087
			c-0.25,0.285-0.545,0.429-0.885,0.429h-7.74c-0.359,0-0.65-0.138-0.869-0.415C595.193,657.051,595.084,656.684,595.084,656.226z
			 M595.084,662.315c0-0.438,0.109-0.806,0.33-1.101c0.219-0.296,0.51-0.443,0.869-0.443h7.74c0.32,0,0.609,0.152,0.87,0.457
			c0.26,0.305,0.39,0.668,0.39,1.087c0,0.438-0.125,0.801-0.375,1.087c-0.25,0.285-0.545,0.429-0.885,0.429h-7.74
			c-0.359,0-0.65-0.138-0.869-0.415C595.193,663.141,595.084,662.773,595.084,662.315z"/>
		<path fill="#19181C" d="M612.934,648.98c0-0.619,0.25-1.09,0.75-1.41l3.539-2.699c0.24-0.199,0.511-0.301,0.811-0.301
			c0.439,0,0.84,0.121,1.2,0.361c0.36,0.239,0.54,0.539,0.54,0.899v19.5c0,0.38-0.195,0.681-0.585,0.899
			c-0.39,0.221-0.845,0.33-1.365,0.33c-0.54,0-1.001-0.109-1.38-0.33c-0.381-0.219-0.57-0.52-0.57-0.899v-16.021l-0.96,0.961
			c-0.2,0.18-0.44,0.27-0.72,0.27c-0.359,0-0.66-0.16-0.9-0.48C613.053,649.741,612.934,649.381,612.934,648.98z"/>
		<path fill="#19181C" d="M621.572,648.98c0-0.619,0.25-1.09,0.75-1.41l3.541-2.699c0.24-0.199,0.51-0.301,0.81-0.301
			c0.44,0,0.84,0.121,1.2,0.361c0.359,0.239,0.54,0.539,0.54,0.899v19.5c0,0.38-0.195,0.681-0.585,0.899
			c-0.391,0.221-0.846,0.33-1.365,0.33c-0.54,0-1-0.109-1.38-0.33c-0.38-0.219-0.57-0.52-0.57-0.899v-16.021l-0.96,0.961
			c-0.2,0.18-0.439,0.27-0.72,0.27c-0.36,0-0.66-0.16-0.899-0.48C621.693,649.741,621.572,649.381,621.572,648.98z"/>
		<path fill="#19181C" d="M631.503,659.871v-8.37c0-2.38,0.635-4.12,1.905-5.22c1.27-1.1,2.975-1.65,5.115-1.65
			c2.14,0,3.85,0.551,5.129,1.65c1.28,1.1,1.921,2.84,1.921,5.22v8.37c0,2.381-0.641,4.12-1.921,5.22
			c-1.279,1.101-2.989,1.65-5.129,1.65c-2.141,0-3.846-0.55-5.115-1.65C632.138,663.991,631.503,662.252,631.503,659.871z
			 M635.402,659.871c0,2.301,1.041,3.449,3.121,3.449c2.1,0,3.149-1.148,3.149-3.449v-8.37c0-2.3-1.05-3.45-3.149-3.45
			c-2.08,0-3.121,1.15-3.121,3.45V659.871z M637.533,656.953c-0.26-0.285-0.391-0.658-0.391-1.119c0-0.459,0.125-0.827,0.375-1.102
			c0.25-0.273,0.596-0.412,1.035-0.412c0.42,0,0.755,0.139,1.006,0.412c0.25,0.274,0.375,0.643,0.375,1.102
			c0,0.461-0.125,0.834-0.375,1.119c-0.251,0.285-0.586,0.428-1.006,0.428S637.793,657.238,637.533,656.953z"/>
	</g>
	<g>
		<path fill="#C0504D" d="M699.17,755.866v-8.37c0-2.359,0.641-4.095,1.92-5.205c1.279-1.109,2.95-1.665,5.01-1.665
			c2.101,0,3.814,0.521,5.146,1.56c1.329,1.041,1.995,2.421,1.995,4.141c0,0.74-0.15,1.245-0.45,1.516
			c-0.3,0.27-0.8,0.404-1.5,0.404c-1.28,0-1.931-0.41-1.95-1.23c-0.02-0.26-0.045-0.484-0.074-0.674
			c-0.031-0.19-0.111-0.44-0.24-0.75c-0.131-0.311-0.295-0.57-0.495-0.781c-0.2-0.209-0.501-0.389-0.9-0.539
			s-0.87-0.225-1.409-0.225c-2.101,0-3.15,1.149-3.15,3.449v8.37c0,2.3,1.069,3.45,3.21,3.45c0.64,0,1.175-0.1,1.604-0.301
			c0.43-0.199,0.74-0.484,0.93-0.854c0.19-0.37,0.32-0.7,0.391-0.989c0.07-0.291,0.115-0.646,0.135-1.066
			c0.061-0.819,0.7-1.229,1.92-1.229c0.7,0,1.205,0.136,1.516,0.405c0.31,0.27,0.465,0.775,0.465,1.516
			c0,1.799-0.666,3.239-1.995,4.319c-1.331,1.08-3.056,1.62-5.175,1.62c-2.061,0-3.726-0.555-4.995-1.665
			C699.805,759.961,699.17,758.227,699.17,755.866z"/>
		<path fill="#C0504D" d="M715.64,755.866v-8.37c0-2.38,0.635-4.119,1.905-5.22c1.27-1.101,2.975-1.65,5.115-1.65
			c2.139,0,3.85,0.55,5.129,1.65c1.28,1.101,1.92,2.84,1.92,5.22v8.37c0,2.38-0.64,4.12-1.92,5.22
			c-1.279,1.101-2.99,1.65-5.129,1.65c-2.141,0-3.846-0.55-5.115-1.65C716.274,759.986,715.64,758.246,715.64,755.866z
			 M719.539,755.866c0,2.3,1.04,3.45,3.121,3.45c2.1,0,3.149-1.15,3.149-3.45v-8.37c0-2.3-1.05-3.449-3.149-3.449
			c-2.081,0-3.121,1.149-3.121,3.449V755.866z"/>
		<path fill="#C0504D" d="M733.039,761.326v-19.5c0-0.4,0.189-0.699,0.57-0.9c0.379-0.199,0.84-0.3,1.38-0.3s1,0.101,1.38,0.3
			c0.38,0.201,0.57,0.5,0.57,0.9v17.311h7.32c0.359,0,0.645,0.17,0.854,0.51s0.315,0.74,0.315,1.199
			c0,0.461-0.105,0.861-0.315,1.201s-0.495,0.51-0.854,0.51h-9.511c-0.46,0-0.86-0.11-1.2-0.33
			C733.209,762.006,733.039,761.707,733.039,761.326z"/>
		<path fill="#C0504D" d="M746.959,755.866v-8.37c0-2.38,0.635-4.119,1.905-5.22s2.975-1.65,5.115-1.65c2.14,0,3.85,0.55,5.13,1.65
			c1.279,1.101,1.92,2.84,1.92,5.22v8.37c0,2.38-0.641,4.12-1.92,5.22c-1.28,1.101-2.99,1.65-5.13,1.65
			c-2.141,0-3.845-0.55-5.115-1.65C747.594,759.986,746.959,758.246,746.959,755.866z M750.859,755.866c0,2.3,1.039,3.45,3.12,3.45
			c2.101,0,3.149-1.15,3.149-3.45v-8.37c0-2.3-1.049-3.449-3.149-3.449c-2.081,0-3.12,1.149-3.12,3.449V755.866z"/>
		<path fill="#C0504D" d="M764.148,755.866v-8.37c0-2.359,0.641-4.095,1.92-5.205c1.28-1.109,2.951-1.665,5.011-1.665
			c2.101,0,3.814,0.521,5.146,1.56c1.329,1.041,1.994,2.421,1.994,4.141c0,0.74-0.15,1.245-0.449,1.516
			c-0.301,0.27-0.801,0.404-1.5,0.404c-1.281,0-1.931-0.41-1.951-1.23c-0.02-0.26-0.045-0.484-0.074-0.674
			c-0.03-0.19-0.11-0.44-0.24-0.75c-0.131-0.311-0.295-0.57-0.494-0.781c-0.201-0.209-0.501-0.389-0.9-0.539
			c-0.4-0.15-0.87-0.225-1.41-0.225c-2.1,0-3.15,1.149-3.15,3.449v8.37c0,2.3,1.07,3.45,3.211,3.45c0.639,0,1.174-0.1,1.604-0.301
			c0.43-0.199,0.739-0.484,0.93-0.854s0.319-0.7,0.39-0.989c0.07-0.291,0.115-0.646,0.135-1.066
			c0.061-0.819,0.701-1.229,1.921-1.229c0.7,0,1.204,0.136,1.515,0.405s0.465,0.775,0.465,1.516c0,1.799-0.665,3.239-1.994,4.319
			c-1.331,1.08-3.056,1.62-5.176,1.62c-2.061,0-3.725-0.555-4.994-1.665C764.783,759.961,764.148,758.227,764.148,755.866z"/>
		<path fill="#C0504D" d="M778.865,760.824c0-0.043,0.021-0.148,0.061-0.32l5.796-18.869c0.12-0.377,0.415-0.67,0.885-0.878
			c0.47-0.207,1.005-0.311,1.604-0.311c0.601,0,1.141,0.115,1.621,0.345c0.479,0.23,0.779,0.555,0.899,0.975l5.79,18.871
			c0.04,0.16,0.061,0.26,0.061,0.299c0,0.441-0.271,0.82-0.811,1.141s-1.09,0.48-1.65,0.48c-0.74,0-1.18-0.26-1.319-0.78l-1.14-3.99
			h-6.428l-1.118,3.992c-0.158,0.519-0.653,0.778-1.487,0.778c-0.653,0-1.277-0.166-1.872-0.498
			C779.162,761.729,778.865,761.316,778.865,760.824z M785.091,754.727h5.188l-2.611-9.211L785.091,754.727z"/>
		<path fill="#C0504D" d="M798.108,761.326v-19.5c0-0.32,0.12-0.6,0.36-0.84s0.54-0.36,0.9-0.36h5.939
			c4.74,0,7.109,2.091,7.109,6.271c0,1.64-0.354,2.96-1.064,3.959c-0.71,1.001-1.665,1.681-2.865,2.041l3.93,7.289
			c0.101,0.121,0.15,0.281,0.15,0.48c0,0.5-0.26,0.965-0.779,1.395c-0.521,0.432-1.07,0.646-1.65,0.646s-1.03-0.31-1.35-0.93
			l-4.26-8.28h-2.521v7.83c0,0.381-0.19,0.68-0.57,0.9c-0.38,0.22-0.84,0.33-1.38,0.33c-0.521,0-0.975-0.11-1.365-0.33
			C798.304,762.006,798.108,761.707,798.108,761.326z M802.009,750.436h3.3c2.14,0,3.21-1.059,3.21-3.18
			c0-2.14-1.07-3.209-3.21-3.209h-3.3V750.436z"/>
		<path fill="#C0504D" d="M820.998,755.866v-8.37c0-2.359,0.641-4.095,1.92-5.205c1.279-1.109,2.95-1.665,5.01-1.665
			c2.101,0,3.814,0.521,5.146,1.56c1.329,1.041,1.995,2.421,1.995,4.141c0,0.74-0.15,1.245-0.45,1.516
			c-0.3,0.27-0.8,0.404-1.5,0.404c-1.28,0-1.931-0.41-1.95-1.23c-0.02-0.26-0.045-0.484-0.074-0.674
			c-0.031-0.19-0.111-0.44-0.24-0.75c-0.131-0.311-0.295-0.57-0.495-0.781c-0.2-0.209-0.501-0.389-0.9-0.539
			s-0.87-0.225-1.409-0.225c-2.101,0-3.15,1.149-3.15,3.449v8.37c0,2.3,1.069,3.45,3.21,3.45c0.64,0,1.175-0.1,1.604-0.301
			c0.43-0.199,0.74-0.484,0.93-0.854c0.19-0.37,0.32-0.7,0.391-0.989c0.07-0.291,0.115-0.646,0.135-1.066
			c0.061-0.819,0.7-1.229,1.92-1.229c0.7,0,1.205,0.136,1.516,0.405c0.31,0.27,0.465,0.775,0.465,1.516
			c0,1.799-0.666,3.239-1.995,4.319c-1.331,1.08-3.056,1.62-5.175,1.62c-2.061,0-3.726-0.555-4.995-1.665
			C821.633,759.961,820.998,758.227,820.998,755.866z"/>
		<path fill="#C0504D" d="M837.469,755.866v-8.37c0-2.38,0.635-4.119,1.904-5.22s2.975-1.65,5.115-1.65c2.14,0,3.85,0.55,5.13,1.65
			s1.92,2.84,1.92,5.22v8.37c0,2.38-0.64,4.12-1.92,5.22c-1.28,1.101-2.99,1.65-5.13,1.65c-2.141,0-3.846-0.55-5.115-1.65
			C838.104,759.986,837.469,758.246,837.469,755.866z M841.368,755.866c0,2.3,1.04,3.45,3.12,3.45c2.1,0,3.15-1.15,3.15-3.45v-8.37
			c0-2.3-1.051-3.449-3.15-3.449c-2.08,0-3.12,1.149-3.12,3.449V755.866z"/>
		<path fill="#C0504D" d="M854.867,761.326v-18.75c0-0.66,0.186-1.15,0.556-1.471c0.37-0.318,0.835-0.479,1.396-0.479
			c0.739,0,1.309,0.13,1.709,0.39c0.4,0.261,0.84,0.82,1.32,1.681l3.69,6.72l3.69-6.72c0.479-0.86,0.924-1.42,1.334-1.681
			c0.41-0.26,0.985-0.39,1.726-0.39c0.56,0,1.024,0.161,1.396,0.479c0.369,0.32,0.555,0.811,0.555,1.471v18.75
			c0,0.381-0.195,0.68-0.586,0.9c-0.39,0.22-0.845,0.33-1.364,0.33c-0.54,0-1.001-0.11-1.38-0.33c-0.381-0.221-0.57-0.52-0.57-0.9
			v-12.9l-3.51,6.24c-0.281,0.521-0.721,0.78-1.32,0.78c-0.58,0-1.01-0.26-1.29-0.78l-3.45-6.48v13.141
			c0,0.381-0.195,0.68-0.584,0.9c-0.391,0.22-0.846,0.33-1.365,0.33c-0.541,0-1.001-0.11-1.381-0.33
			C855.058,762.006,854.867,761.707,854.867,761.326z"/>
		<path fill="#C0504D" d="M875.838,761.355v-19.5c0-0.379,0.17-0.68,0.51-0.899s0.74-0.33,1.199-0.33h5.791
			c4.02,0,6.029,1.761,6.029,5.28c0,2.44-0.85,4.03-2.55,4.77c1.021,0.4,1.79,0.965,2.31,1.695c0.521,0.73,0.781,1.795,0.781,3.195
			v0.63c0,2.22-0.541,3.835-1.621,4.845s-2.539,1.516-4.379,1.516h-6.361c-0.5,0-0.91-0.121-1.229-0.36
			C875.998,761.956,875.838,761.676,875.838,761.355z M879.707,749.146h3.36c0.78,0,1.375-0.23,1.785-0.69
			c0.409-0.46,0.615-1.09,0.615-1.89c0-0.78-0.216-1.395-0.646-1.846c-0.43-0.449-1.025-0.674-1.785-0.674h-3.33V749.146z
			 M879.707,759.137h3.391c1.939,0,2.91-1.09,2.91-3.271v-0.479c0-1.121-0.246-1.93-0.735-2.431c-0.49-0.499-1.215-0.75-2.175-0.75
			h-3.391V759.137z"/>
		<path fill="#C0504D" d="M892.607,755.866v-14.04c0-0.4,0.189-0.699,0.57-0.9c0.379-0.199,0.84-0.3,1.38-0.3s0.999,0.101,1.38,0.3
			c0.38,0.201,0.57,0.5,0.57,0.9v14.04c0,2.3,1.1,3.45,3.3,3.45s3.3-1.15,3.3-3.45v-14.04c0-0.4,0.189-0.699,0.57-0.9
			c0.379-0.199,0.84-0.3,1.38-0.3s0.999,0.101,1.38,0.3c0.38,0.201,0.57,0.5,0.57,0.9v14.04c0,2.36-0.656,4.095-1.965,5.205
			c-1.311,1.11-3.056,1.665-5.235,1.665c-2.181,0-3.925-0.55-5.235-1.65C893.262,759.986,892.607,758.246,892.607,755.866z"/>
		<path fill="#C0504D" d="M909.438,759.105c0-0.459,0.175-0.924,0.525-1.395c0.35-0.469,0.744-0.705,1.185-0.705
			c0.259,0,0.555,0.125,0.885,0.375c0.33,0.248,0.649,0.524,0.96,0.825c0.311,0.302,0.755,0.577,1.335,0.826s1.22,0.374,1.92,0.374
			c0.96,0,1.76-0.22,2.4-0.66c0.64-0.439,0.96-1.09,0.96-1.949c0-0.601-0.176-1.136-0.525-1.605s-0.81-0.859-1.38-1.17
			c-0.569-0.311-1.195-0.61-1.875-0.9c-0.681-0.289-1.364-0.615-2.055-0.975c-0.69-0.36-1.32-0.766-1.89-1.215
			c-0.57-0.451-1.031-1.051-1.381-1.801s-0.525-1.604-0.525-2.564c0-1.076,0.215-2.025,0.646-2.848s1.005-1.461,1.726-1.918
			c0.72-0.457,1.489-0.791,2.31-1.005c0.819-0.213,1.69-0.319,2.61-0.319c0.52,0,1.069,0.035,1.65,0.107
			c0.579,0.072,1.194,0.19,1.844,0.354c0.65,0.165,1.18,0.421,1.59,0.771c0.41,0.349,0.615,0.76,0.615,1.232
			c0,0.445-0.14,0.906-0.42,1.381c-0.279,0.477-0.66,0.714-1.14,0.714c-0.181,0-0.671-0.19-1.47-0.569
			c-0.801-0.381-1.69-0.57-2.67-0.57c-1.08,0-1.916,0.205-2.506,0.615s-0.885,0.975-0.885,1.694c0,0.581,0.24,1.085,0.721,1.515
			c0.479,0.431,1.074,0.78,1.785,1.051c0.709,0.27,1.479,0.609,2.31,1.02c0.829,0.41,1.6,0.855,2.31,1.335s1.305,1.175,1.785,2.085
			s0.721,1.976,0.721,3.195c0,2.051-0.656,3.635-1.965,4.748c-1.311,1.115-3.035,1.672-5.176,1.672c-1.9,0-3.53-0.391-4.891-1.17
			C910.117,760.876,909.438,760.026,909.438,759.105z"/>
		<path fill="#C0504D" d="M924.736,742.322c0-0.449,0.105-0.843,0.315-1.184c0.21-0.342,0.515-0.513,0.915-0.513h12.689
			c0.4,0,0.705,0.171,0.916,0.513c0.209,0.341,0.314,0.734,0.314,1.184c0,0.467-0.109,0.871-0.33,1.213
			c-0.221,0.341-0.52,0.512-0.9,0.512h-4.379v17.273c0,0.382-0.195,0.684-0.586,0.904c-0.39,0.221-0.845,0.332-1.364,0.332
			c-0.54,0-1.001-0.111-1.38-0.332c-0.381-0.221-0.57-0.522-0.57-0.904v-17.273h-4.41c-0.38,0-0.68-0.166-0.9-0.498
			C924.847,743.219,924.736,742.809,924.736,742.322z"/>
		<path fill="#C0504D" d="M941.146,736.756c0-0.439,0.17-0.75,0.51-0.93l3.961-1.92c0.199-0.04,0.33-0.061,0.39-0.061
			c0.319,0,0.601,0.156,0.84,0.465c0.24,0.311,0.36,0.646,0.36,1.006c0,0.439-0.18,0.74-0.54,0.9l-3.9,1.889
			c-0.2,0.081-0.341,0.121-0.42,0.121c-0.319,0-0.601-0.16-0.84-0.48C941.267,737.426,941.146,737.097,941.146,736.756z
			 M942.017,761.326v-19.5c0-0.4,0.19-0.699,0.57-0.9c0.38-0.199,0.84-0.3,1.38-0.3s1,0.101,1.38,0.3c0.38,0.201,0.57,0.5,0.57,0.9
			v19.5c0,0.381-0.195,0.68-0.585,0.9c-0.391,0.22-0.846,0.33-1.365,0.33c-0.54,0-1-0.11-1.38-0.33
			C942.207,762.006,942.017,761.707,942.017,761.326z"/>
		<path fill="#C0504D" d="M947.986,742.246c0-0.46,0.266-0.845,0.795-1.154c0.53-0.311,1.086-0.466,1.666-0.466
			c0.739,0,1.18,0.261,1.319,0.78l4.591,16.26l4.56-16.26c0.14-0.52,0.579-0.78,1.319-0.78c0.561,0,1.11,0.161,1.65,0.479
			c0.54,0.32,0.811,0.701,0.811,1.141c0,0.041-0.021,0.141-0.061,0.301l-5.76,18.869c-0.12,0.42-0.42,0.746-0.9,0.975
			c-0.48,0.23-1.02,0.346-1.619,0.346c-1.381,0-2.221-0.439-2.521-1.32l-5.79-18.869
			C948.006,742.387,947.986,742.287,947.986,742.246z"/>
		<path fill="#C0504D" d="M966.767,761.326v-19.471c0-0.379,0.17-0.68,0.511-0.899c0.34-0.22,0.739-0.33,1.199-0.33h10.68
			c0.4,0,0.705,0.171,0.916,0.511c0.209,0.34,0.314,0.73,0.314,1.17c0,0.479-0.109,0.89-0.33,1.229
			c-0.221,0.341-0.52,0.511-0.9,0.511h-8.489v6h4.56c0.38,0,0.68,0.154,0.9,0.465c0.22,0.31,0.33,0.674,0.33,1.094
			c0,0.381-0.105,0.727-0.315,1.035c-0.21,0.311-0.515,0.465-0.915,0.465h-4.56v6.031h8.489c0.381,0,0.68,0.17,0.9,0.51
			s0.33,0.75,0.33,1.229c0,0.44-0.105,0.831-0.314,1.171c-0.211,0.34-0.516,0.51-0.916,0.51h-10.68c-0.46,0-0.859-0.11-1.199-0.33
			C966.937,762.006,966.767,761.707,966.767,761.326z"/>
		<path fill="#C0504D" d="M982.666,761.326v-19.5c0-0.4,0.19-0.699,0.57-0.9c0.38-0.199,0.84-0.3,1.381-0.3
			c0.539,0,1,0.101,1.379,0.3c0.381,0.201,0.57,0.5,0.57,0.9v17.311h7.32c0.359,0,0.645,0.17,0.855,0.51
			c0.209,0.34,0.314,0.74,0.314,1.199c0,0.461-0.105,0.861-0.314,1.201c-0.211,0.34-0.496,0.51-0.855,0.51h-9.51
			c-0.461,0-0.86-0.11-1.2-0.33C982.836,762.006,982.666,761.707,982.666,761.326z"/>
	</g>
	<g>
		<path fill="#C0504D" d="M31.674,53.901v-8.37c0-2.36,0.64-4.095,1.92-5.205c1.28-1.11,2.95-1.665,5.01-1.665
			c2.1,0,3.814,0.521,5.145,1.56c1.33,1.04,1.995,2.42,1.995,4.14c0,0.74-0.15,1.245-0.45,1.515s-0.8,0.405-1.5,0.405
			c-1.28,0-1.93-0.41-1.95-1.23c-0.02-0.26-0.045-0.485-0.075-0.675c-0.03-0.19-0.11-0.44-0.24-0.75
			c-0.13-0.31-0.295-0.57-0.495-0.78c-0.2-0.21-0.5-0.39-0.9-0.54c-0.4-0.15-0.87-0.225-1.41-0.225c-2.1,0-3.15,1.15-3.15,3.45v8.37
			c0,2.3,1.069,3.45,3.21,3.45c0.64,0,1.174-0.1,1.605-0.3c0.43-0.2,0.74-0.485,0.93-0.855c0.19-0.37,0.32-0.7,0.39-0.99
			c0.07-0.29,0.115-0.645,0.135-1.065c0.06-0.82,0.7-1.23,1.92-1.23c0.7,0,1.205,0.135,1.515,0.405s0.465,0.775,0.465,1.515
			c0,1.8-0.666,3.24-1.995,4.32c-1.331,1.08-3.055,1.62-5.175,1.62c-2.061,0-3.726-0.555-4.995-1.665
			C32.309,57.996,31.674,56.261,31.674,53.901z"/>
		<path fill="#C0504D" d="M48.144,53.901v-8.37c0-2.38,0.635-4.12,1.905-5.22s2.975-1.65,5.115-1.65c2.14,0,3.85,0.55,5.13,1.65
			c1.28,1.1,1.92,2.84,1.92,5.22v8.37c0,2.38-0.64,4.12-1.92,5.22c-1.28,1.101-2.99,1.65-5.13,1.65c-2.141,0-3.845-0.55-5.115-1.65
			C48.779,58.021,48.144,56.281,48.144,53.901z M52.044,53.901c0,2.3,1.04,3.45,3.12,3.45c2.1,0,3.15-1.149,3.15-3.45v-8.37
			c0-2.3-1.05-3.45-3.15-3.45c-2.081,0-3.12,1.15-3.12,3.45V53.901z"/>
		<path fill="#C0504D" d="M65.543,59.361v-18.75c0-0.66,0.185-1.15,0.555-1.47c0.37-0.319,0.835-0.48,1.395-0.48
			c0.74,0,1.31,0.13,1.71,0.39c0.4,0.26,0.84,0.82,1.32,1.68l3.69,6.72l3.69-6.72c0.48-0.86,0.925-1.42,1.335-1.68
			c0.41-0.26,0.985-0.39,1.725-0.39c0.56,0,1.024,0.161,1.395,0.48c0.37,0.32,0.555,0.81,0.555,1.47v18.75
			c0,0.38-0.195,0.68-0.585,0.9c-0.39,0.22-0.845,0.33-1.365,0.33c-0.54,0-1-0.11-1.38-0.33c-0.38-0.22-0.57-0.52-0.57-0.9v-12.9
			l-3.51,6.24c-0.28,0.521-0.72,0.78-1.32,0.78c-0.58,0-1.01-0.26-1.29-0.78l-3.45-6.48v13.14c0,0.38-0.195,0.68-0.585,0.9
			c-0.39,0.22-0.845,0.33-1.365,0.33c-0.54,0-1-0.11-1.38-0.33C65.733,60.041,65.543,59.741,65.543,59.361z"/>
		<path fill="#C0504D" d="M86.513,59.361v-19.5c0-0.32,0.135-0.6,0.405-0.84c0.27-0.24,0.625-0.36,1.065-0.36h6.03
			c2.06,0,3.71,0.545,4.95,1.635c1.24,1.09,1.86,2.795,1.86,5.115v0.18c0,2.34-0.645,4.061-1.935,5.16
			c-1.29,1.1-2.995,1.65-5.115,1.65h-3.36v6.96c0,0.38-0.195,0.68-0.585,0.9c-0.39,0.22-0.845,0.33-1.365,0.33
			c-0.54,0-1-0.11-1.38-0.33C86.703,60.041,86.513,59.741,86.513,59.361z M90.414,49.341h3.36c1,0,1.774-0.29,2.325-0.87
			c0.55-0.58,0.825-1.44,0.825-2.58v-0.36c0-1.14-0.275-2-0.825-2.58c-0.55-0.58-1.325-0.87-2.325-0.87h-3.36V49.341z"/>
		<path fill="#C0504D" d="M103.223,59.361v-19.5c0-0.4,0.19-0.7,0.57-0.9c0.379-0.2,0.84-0.3,1.38-0.3s1,0.101,1.38,0.3
			c0.38,0.2,0.57,0.5,0.57,0.9v17.31h7.32c0.36,0,0.645,0.17,0.855,0.51c0.21,0.34,0.315,0.74,0.315,1.2
			c0,0.46-0.105,0.86-0.315,1.2s-0.495,0.51-0.855,0.51h-9.51c-0.46,0-0.86-0.11-1.2-0.33
			C103.393,60.041,103.223,59.741,103.223,59.361z"/>
		<path fill="#C0504D" d="M117.743,59.361v-19.47c0-0.379,0.17-0.68,0.51-0.9c0.34-0.22,0.74-0.33,1.2-0.33h10.68
			c0.4,0,0.705,0.17,0.915,0.51c0.21,0.34,0.315,0.73,0.315,1.17c0,0.48-0.11,0.89-0.33,1.23c-0.22,0.34-0.52,0.51-0.9,0.51h-8.49v6
			h4.56c0.38,0,0.68,0.155,0.9,0.465c0.22,0.31,0.33,0.675,0.33,1.095c0,0.38-0.105,0.726-0.315,1.035
			c-0.21,0.311-0.515,0.465-0.915,0.465h-4.56v6.03h8.49c0.38,0,0.68,0.17,0.9,0.51c0.22,0.34,0.33,0.75,0.33,1.23
			c0,0.44-0.105,0.831-0.315,1.17s-0.515,0.51-0.915,0.51h-10.68c-0.46,0-0.86-0.11-1.2-0.33
			C117.913,60.041,117.743,59.741,117.743,59.361z"/>
		<path fill="#C0504D" d="M132.203,40.356c0-0.448,0.105-0.842,0.315-1.184s0.515-0.512,0.915-0.512h12.69
			c0.4,0,0.705,0.171,0.915,0.512s0.315,0.735,0.315,1.184c0,0.468-0.11,0.872-0.33,1.213c-0.221,0.341-0.521,0.512-0.9,0.512h-4.38
			v17.273c0,0.382-0.195,0.684-0.585,0.905s-0.845,0.332-1.365,0.332c-0.54,0-1-0.11-1.38-0.332s-0.57-0.522-0.57-0.905V42.081
			h-4.41c-0.38,0-0.68-0.166-0.9-0.497C132.313,41.253,132.203,40.844,132.203,40.356z"/>
		<path fill="#C0504D" d="M145.75,58.859c0-0.043,0.021-0.149,0.06-0.321l5.796-18.869c0.12-0.378,0.415-0.671,0.885-0.878
			c0.47-0.207,1.005-0.311,1.605-0.311s1.14,0.115,1.62,0.345c0.48,0.23,0.78,0.555,0.9,0.975l5.79,18.87
			c0.04,0.16,0.06,0.26,0.06,0.3c0,0.44-0.27,0.82-0.81,1.14c-0.54,0.32-1.09,0.48-1.65,0.48c-0.74,0-1.18-0.26-1.32-0.78
			l-1.14-3.99h-6.428L150,59.813c-0.158,0.519-0.653,0.778-1.487,0.778c-0.654,0-1.278-0.166-1.873-0.497
			C146.047,59.763,145.75,59.351,145.75,58.859z M151.975,52.761h5.188l-2.61-9.21L151.975,52.761z"/>
		<path fill="#C0504D" d="M164.993,59.361v-19.5c0-0.32,0.12-0.6,0.36-0.84c0.24-0.24,0.54-0.36,0.9-0.36h5.94
			c4.74,0,7.11,2.09,7.11,6.27c0,1.64-0.355,2.96-1.065,3.96c-0.71,1-1.665,1.68-2.865,2.04l3.93,7.29c0.1,0.12,0.15,0.28,0.15,0.48
			c0,0.5-0.26,0.965-0.78,1.395c-0.521,0.431-1.07,0.645-1.65,0.645c-0.581,0-1.03-0.31-1.35-0.93l-4.26-8.28h-2.52v7.83
			c0,0.38-0.19,0.68-0.57,0.9c-0.38,0.22-0.84,0.33-1.38,0.33c-0.521,0-0.975-0.11-1.365-0.33
			C165.188,60.041,164.993,59.741,164.993,59.361z M168.893,48.471h3.3c2.14,0,3.21-1.06,3.21-3.18c0-2.14-1.07-3.21-3.21-3.21h-3.3
			V48.471z"/>
		<path fill="#C0504D" d="M187.853,53.901v-8.37c0-2.38,0.635-4.12,1.905-5.22s2.975-1.65,5.115-1.65c2.14,0,3.85,0.55,5.13,1.65
			c1.28,1.1,1.92,2.84,1.92,5.22v8.37c0,2.38-0.64,4.12-1.92,5.22c-1.28,1.101-2.99,1.65-5.13,1.65c-2.141,0-3.845-0.55-5.115-1.65
			C188.487,58.021,187.853,56.281,187.853,53.901z M191.752,53.901c0,2.3,1.04,3.45,3.12,3.45c2.1,0,3.15-1.149,3.15-3.45v-8.37
			c0-2.3-1.05-3.45-3.15-3.45c-2.081,0-3.12,1.15-3.12,3.45V53.901z"/>
		<path fill="#C0504D" d="M211.012,53.901v-8.37c0-2.38,0.635-4.12,1.905-5.22s2.975-1.65,5.115-1.65c2.14,0,3.85,0.55,5.13,1.65
			c1.28,1.1,1.92,2.84,1.92,5.22v8.37c0,2.38-0.64,4.12-1.92,5.22c-1.28,1.101-2.99,1.65-5.13,1.65c-2.141,0-3.845-0.55-5.115-1.65
			C211.647,58.021,211.012,56.281,211.012,53.901z M214.912,53.901c0,2.3,1.04,3.45,3.12,3.45c2.1,0,3.15-1.149,3.15-3.45v-8.37
			c0-2.3-1.05-3.45-3.15-3.45c-2.081,0-3.12,1.15-3.12,3.45V53.901z M216.052,34.791c0-0.44,0.169-0.75,0.51-0.93l3.96-1.92
			c0.2-0.04,0.33-0.06,0.39-0.06c0.32,0,0.6,0.155,0.84,0.465c0.24,0.311,0.36,0.645,0.36,1.005c0,0.44-0.18,0.74-0.54,0.9
			l-3.9,1.89c-0.2,0.081-0.34,0.12-0.42,0.12c-0.32,0-0.6-0.16-0.84-0.48C216.172,35.461,216.052,35.131,216.052,34.791z"/>
		<path fill="#C0504D" d="M228.412,59.361v-19.5c0-0.4,0.19-0.7,0.57-0.9c0.379-0.2,0.84-0.3,1.38-0.3s1,0.101,1.38,0.3
			c0.38,0.2,0.57,0.5,0.57,0.9v17.31h7.32c0.36,0,0.645,0.17,0.855,0.51c0.21,0.34,0.315,0.74,0.315,1.2
			c0,0.46-0.105,0.86-0.315,1.2s-0.495,0.51-0.855,0.51h-9.51c-0.46,0-0.86-0.11-1.2-0.33
			C228.582,60.041,228.412,59.741,228.412,59.361z"/>
		<path fill="#C0504D" d="M242.932,59.361v-19.47c0-0.379,0.17-0.68,0.51-0.9c0.34-0.22,0.74-0.33,1.2-0.33h10.68
			c0.4,0,0.705,0.17,0.915,0.51c0.21,0.34,0.315,0.73,0.315,1.17c0,0.48-0.11,0.89-0.33,1.23c-0.22,0.34-0.52,0.51-0.9,0.51h-8.49v6
			h4.56c0.38,0,0.68,0.155,0.9,0.465c0.22,0.31,0.33,0.675,0.33,1.095c0,0.38-0.105,0.726-0.315,1.035
			c-0.21,0.311-0.515,0.465-0.915,0.465h-4.56v6.03h8.49c0.38,0,0.68,0.17,0.9,0.51c0.22,0.34,0.33,0.75,0.33,1.23
			c0,0.44-0.105,0.831-0.315,1.17s-0.515,0.51-0.915,0.51h-10.68c-0.46,0-0.86-0.11-1.2-0.33
			C243.102,60.041,242.932,59.741,242.932,59.361z"/>
		<path fill="#C0504D" d="M258.352,53.901v-8.37c0-2.38,0.635-4.12,1.905-5.22s2.975-1.65,5.115-1.65c2.14,0,3.85,0.55,5.13,1.65
			c1.28,1.1,1.92,2.84,1.92,5.22v8.37c0,2.38-0.64,4.12-1.92,5.22c-1.28,1.101-2.99,1.65-5.13,1.65c-2.141,0-3.845-0.55-5.115-1.65
			C258.987,58.021,258.352,56.281,258.352,53.901z M262.252,53.901c0,2.3,1.04,3.45,3.12,3.45c2.1,0,3.15-1.149,3.15-3.45v-8.37
			c0-2.3-1.05-3.45-3.15-3.45c-2.081,0-3.12,1.15-3.12,3.45V53.901z"/>
	</g>
	<g>
		<path fill="#C0504D" d="M785.912,53.901v-8.37c0-2.36,0.641-4.095,1.92-5.205c1.279-1.11,2.95-1.665,5.01-1.665
			c2.101,0,3.814,0.521,5.146,1.56c1.329,1.04,1.995,2.42,1.995,4.14c0,0.74-0.15,1.245-0.45,1.515s-0.8,0.405-1.5,0.405
			c-1.28,0-1.931-0.41-1.95-1.23c-0.02-0.26-0.045-0.485-0.074-0.675c-0.031-0.19-0.111-0.44-0.24-0.75
			c-0.131-0.31-0.295-0.57-0.495-0.78s-0.501-0.39-0.9-0.54c-0.399-0.15-0.87-0.225-1.409-0.225c-2.101,0-3.15,1.15-3.15,3.45v8.37
			c0,2.3,1.069,3.45,3.21,3.45c0.64,0,1.175-0.1,1.604-0.3c0.43-0.2,0.74-0.485,0.93-0.855c0.19-0.37,0.32-0.7,0.391-0.99
			s0.115-0.645,0.135-1.065c0.061-0.82,0.7-1.23,1.92-1.23c0.7,0,1.205,0.135,1.516,0.405c0.31,0.27,0.465,0.775,0.465,1.515
			c0,1.8-0.666,3.24-1.995,4.32c-1.331,1.08-3.056,1.62-5.175,1.62c-2.061,0-3.726-0.555-4.995-1.665
			C786.547,57.996,785.912,56.261,785.912,53.901z"/>
		<path fill="#C0504D" d="M800.629,58.859c0-0.043,0.02-0.149,0.06-0.321l5.796-18.869c0.121-0.378,0.415-0.671,0.885-0.878
			c0.471-0.207,1.006-0.311,1.605-0.311s1.141,0.115,1.62,0.345c0.479,0.23,0.78,0.555,0.899,0.975l5.791,18.87
			c0.039,0.16,0.06,0.26,0.06,0.3c0,0.44-0.271,0.82-0.81,1.14c-0.541,0.32-1.091,0.48-1.65,0.48c-0.74,0-1.18-0.26-1.32-0.78
			l-1.14-3.99h-6.428l-1.118,3.992c-0.158,0.519-0.652,0.778-1.486,0.778c-0.654,0-1.277-0.166-1.873-0.497
			C800.926,59.763,800.629,59.351,800.629,58.859z M806.854,52.761h5.188l-2.61-9.21L806.854,52.761z"/>
		<path fill="#C0504D" d="M819.871,59.361v-19.5c0-0.4,0.19-0.7,0.57-0.9c0.38-0.2,0.84-0.3,1.381-0.3c0.539,0,1,0.101,1.379,0.3
			c0.381,0.2,0.57,0.5,0.57,0.9v17.31h7.32c0.359,0,0.645,0.17,0.855,0.51c0.209,0.34,0.314,0.74,0.314,1.2
			c0,0.46-0.105,0.86-0.314,1.2c-0.211,0.34-0.496,0.51-0.855,0.51h-9.51c-0.461,0-0.86-0.11-1.2-0.33
			C820.041,60.041,819.871,59.741,819.871,59.361z"/>
		<path fill="#C0504D" d="M834.392,59.361v-19.5c0-0.4,0.19-0.7,0.57-0.9c0.38-0.2,0.84-0.3,1.38-0.3s1,0.101,1.38,0.3
			c0.38,0.2,0.57,0.5,0.57,0.9v19.5c0,0.38-0.195,0.68-0.585,0.9c-0.391,0.22-0.846,0.33-1.365,0.33c-0.54,0-1-0.11-1.38-0.33
			C834.582,60.041,834.392,59.741,834.392,59.361z"/>
		<path fill="#C0504D" d="M841.892,59.391v-19.5c0-0.379,0.17-0.68,0.511-0.9c0.34-0.22,0.739-0.33,1.199-0.33h5.79
			c4.021,0,6.03,1.76,6.03,5.28c0,2.44-0.851,4.03-2.551,4.77c1.021,0.4,1.791,0.965,2.311,1.695c0.52,0.73,0.78,1.795,0.78,3.195
			v0.63c0,2.22-0.54,3.835-1.62,4.845c-1.08,1.01-2.54,1.515-4.38,1.515h-6.36c-0.5,0-0.91-0.12-1.23-0.36
			C842.052,59.991,841.892,59.711,841.892,59.391z M845.762,47.181h3.359c0.781,0,1.375-0.229,1.785-0.69
			c0.41-0.46,0.615-1.09,0.615-1.89c0-0.78-0.215-1.395-0.645-1.845c-0.431-0.45-1.025-0.675-1.785-0.675h-3.33V47.181z
			 M845.762,57.171h3.391c1.939,0,2.91-1.09,2.91-3.27v-0.48c0-1.12-0.246-1.93-0.736-2.43c-0.49-0.5-1.215-0.75-2.174-0.75h-3.391
			V57.171z"/>
		<path fill="#C0504D" d="M858.752,59.361v-19.5c0-0.32,0.119-0.6,0.359-0.84c0.24-0.24,0.541-0.36,0.9-0.36h5.939
			c4.74,0,7.11,2.09,7.11,6.27c0,1.64-0.354,2.96-1.065,3.96c-0.709,1-1.664,1.68-2.864,2.04l3.93,7.29
			c0.101,0.12,0.149,0.28,0.149,0.48c0,0.5-0.26,0.965-0.779,1.395c-0.521,0.431-1.07,0.645-1.65,0.645s-1.029-0.31-1.35-0.93
			l-4.26-8.28h-2.52v7.83c0,0.38-0.191,0.68-0.57,0.9c-0.381,0.22-0.84,0.33-1.381,0.33c-0.52,0-0.975-0.11-1.365-0.33
			C858.947,60.041,858.752,59.741,858.752,59.361z M862.652,48.471h3.299c2.141,0,3.211-1.06,3.211-3.18
			c0-2.14-1.07-3.21-3.211-3.21h-3.299V48.471z"/>
		<path fill="#C0504D" d="M873.857,58.859c0-0.043,0.021-0.149,0.061-0.321l5.797-18.869c0.119-0.378,0.414-0.671,0.885-0.878
			c0.469-0.207,1.004-0.311,1.604-0.311s1.14,0.115,1.62,0.345c0.48,0.23,0.779,0.555,0.9,0.975l5.789,18.87
			c0.041,0.16,0.061,0.26,0.061,0.3c0,0.44-0.27,0.82-0.811,1.14c-0.539,0.32-1.09,0.48-1.649,0.48c-0.74,0-1.181-0.26-1.319-0.78
			l-1.141-3.99h-6.428l-1.117,3.992c-0.158,0.519-0.654,0.778-1.487,0.778c-0.653,0-1.278-0.166-1.872-0.497
			C874.155,59.763,873.857,59.351,873.857,58.859z M880.084,52.761h5.188l-2.61-9.21L880.084,52.761z"/>
		<path fill="#C0504D" d="M893.102,59.361v-19.5c0-0.32,0.119-0.6,0.359-0.84c0.24-0.24,0.541-0.36,0.9-0.36h5.939
			c4.74,0,7.11,2.09,7.11,6.27c0,1.64-0.354,2.96-1.065,3.96c-0.709,1-1.664,1.68-2.864,2.04l3.93,7.29
			c0.101,0.12,0.149,0.28,0.149,0.48c0,0.5-0.26,0.965-0.779,1.395c-0.521,0.431-1.07,0.645-1.65,0.645s-1.029-0.31-1.35-0.93
			l-4.26-8.28h-2.52v7.83c0,0.38-0.191,0.68-0.57,0.9c-0.381,0.22-0.84,0.33-1.381,0.33c-0.52,0-0.975-0.11-1.365-0.33
			C893.297,60.041,893.102,59.741,893.102,59.361z M897.002,48.471h3.299c2.141,0,3.211-1.06,3.211-3.18
			c0-2.14-1.07-3.21-3.211-3.21h-3.299V48.471z"/>
		<path fill="#C0504D" d="M916.201,59.361v-19.5c0-0.32,0.135-0.6,0.404-0.84c0.271-0.24,0.625-0.36,1.065-0.36h6.03
			c2.06,0,3.709,0.545,4.949,1.635c1.24,1.09,1.86,2.795,1.86,5.115v0.18c0,2.34-0.646,4.061-1.935,5.16
			c-1.291,1.1-2.996,1.65-5.115,1.65h-3.359v6.96c0,0.38-0.195,0.68-0.586,0.9c-0.39,0.22-0.845,0.33-1.365,0.33
			c-0.539,0-1-0.11-1.379-0.33C916.391,60.041,916.201,59.741,916.201,59.361z M920.102,49.341h3.359c1,0,1.774-0.29,2.324-0.87
			c0.551-0.58,0.826-1.44,0.826-2.58v-0.36c0-1.14-0.275-2-0.826-2.58c-0.55-0.58-1.324-0.87-2.324-0.87h-3.359V49.341z"/>
		<path fill="#C0504D" d="M932.91,59.361v-19.47c0-0.399,0.19-0.705,0.57-0.915c0.38-0.21,0.84-0.315,1.381-0.315
			c0.72,0,1.27,0.13,1.649,0.39c0.38,0.26,0.8,0.82,1.261,1.68l5.789,11.19v-12.06c0-0.4,0.189-0.7,0.57-0.9
			c0.38-0.2,0.84-0.3,1.38-0.3s1,0.101,1.38,0.3c0.38,0.2,0.57,0.5,0.57,0.9v19.5c0,0.38-0.195,0.68-0.585,0.9
			c-0.39,0.22-0.845,0.33-1.365,0.33c-1.06,0-1.81-0.41-2.25-1.23l-6.45-12.06v12.06c0,0.38-0.195,0.68-0.584,0.9
			c-0.391,0.22-0.846,0.33-1.365,0.33c-0.541,0-1.001-0.11-1.381-0.33C933.101,60.041,932.91,59.741,932.91,59.361z"/>
		<path fill="#C0504D" d="M951.061,59.361v-19.47c0-0.379,0.17-0.68,0.51-0.9c0.34-0.22,0.74-0.33,1.199-0.33h10.681
			c0.399,0,0.705,0.17,0.915,0.51c0.21,0.34,0.314,0.73,0.314,1.17c0,0.48-0.109,0.89-0.33,1.23c-0.22,0.34-0.52,0.51-0.899,0.51
			h-8.489v6h4.559c0.381,0,0.68,0.155,0.9,0.465s0.33,0.675,0.33,1.095c0,0.38-0.105,0.726-0.314,1.035
			c-0.211,0.311-0.516,0.465-0.916,0.465h-4.559v6.03h8.489c0.38,0,0.68,0.17,0.899,0.51c0.221,0.34,0.33,0.75,0.33,1.23
			c0,0.44-0.104,0.831-0.314,1.17s-0.516,0.51-0.915,0.51H952.77c-0.459,0-0.859-0.11-1.199-0.33
			C951.23,60.041,951.061,59.741,951.061,59.361z"/>
		<path fill="#C0504D" d="M966.871,53.901v-14.04c0-0.4,0.189-0.7,0.569-0.9c0.38-0.2,0.841-0.3,1.38-0.3c0.541,0,1,0.101,1.381,0.3
			c0.379,0.2,0.569,0.5,0.569,0.9v14.04c0,2.3,1.1,3.45,3.3,3.45s3.301-1.149,3.301-3.45v-14.04c0-0.4,0.189-0.7,0.569-0.9
			c0.38-0.2,0.841-0.3,1.38-0.3c0.541,0,1,0.101,1.381,0.3c0.379,0.2,0.569,0.5,0.569,0.9v14.04c0,2.36-0.655,4.095-1.965,5.205
			c-1.31,1.11-3.056,1.665-5.235,1.665s-3.925-0.55-5.234-1.65C967.525,58.021,966.871,56.281,966.871,53.901z"/>
		<path fill="#C0504D" d="M983.701,57.141c0-0.459,0.174-0.925,0.524-1.395c0.35-0.469,0.745-0.705,1.185-0.705
			c0.26,0,0.555,0.125,0.885,0.374c0.33,0.249,0.65,0.525,0.961,0.826c0.31,0.301,0.754,0.577,1.334,0.826
			c0.58,0.249,1.221,0.374,1.92,0.374c0.961,0,1.76-0.22,2.4-0.66c0.641-0.439,0.961-1.09,0.961-1.95c0-0.6-0.176-1.135-0.525-1.605
			c-0.351-0.469-0.811-0.859-1.381-1.17c-0.569-0.31-1.195-0.61-1.875-0.9c-0.68-0.29-1.364-0.615-2.055-0.975
			c-0.689-0.36-1.32-0.765-1.89-1.215s-1.03-1.05-1.38-1.8s-0.525-1.605-0.525-2.565c0-1.076,0.215-2.025,0.645-2.847
			c0.431-0.822,1.006-1.461,1.726-1.918s1.489-0.792,2.31-1.005c0.82-0.213,1.69-0.32,2.61-0.32c0.521,0,1.069,0.036,1.65,0.108
			c0.579,0.072,1.194,0.19,1.845,0.354c0.65,0.165,1.18,0.421,1.59,0.77c0.41,0.349,0.615,0.76,0.615,1.232
			c0,0.445-0.141,0.906-0.42,1.382c-0.28,0.476-0.66,0.713-1.141,0.713c-0.18,0-0.67-0.19-1.469-0.57
			c-0.801-0.38-1.691-0.57-2.671-0.57c-1.079,0-1.915,0.206-2.505,0.615c-0.59,0.41-0.885,0.975-0.885,1.695
			c0,0.581,0.24,1.085,0.72,1.515c0.479,0.43,1.075,0.78,1.785,1.05s1.479,0.61,2.31,1.02c0.83,0.41,1.6,0.855,2.311,1.335
			c0.709,0.48,1.305,1.175,1.785,2.085c0.479,0.911,0.72,1.976,0.72,3.195c0,2.051-0.655,3.634-1.965,4.749
			c-1.311,1.114-3.035,1.671-5.175,1.671c-1.9,0-3.531-0.39-4.891-1.17C984.381,58.911,983.701,58.061,983.701,57.141z"/>
	</g>
</g>
</svg>
