<?xml version="1.0" encoding="utf-8"?>
<!-- Generator: Adobe Illustrator 16.0.0, SVG Export Plug-In . SVG Version: 6.00 Build 0)  -->
<!DOCTYPE svg PUBLIC "-//W3C//DTD SVG 1.1//EN" "http://www.w3.org/Graphics/SVG/1.1/DTD/svg11.dtd" [
	<!ENTITY ns_extend "http://ns.adobe.com/Extensibility/1.0/">
	<!ENTITY ns_ai "http://ns.adobe.com/AdobeIllustrator/10.0/">
	<!ENTITY ns_graphs "http://ns.adobe.com/Graphs/1.0/">
	<!ENTITY ns_vars "http://ns.adobe.com/Variables/1.0/">
	<!ENTITY ns_imrep "http://ns.adobe.com/ImageReplacement/1.0/">
	<!ENTITY ns_sfw "http://ns.adobe.com/SaveForWeb/1.0/">
	<!ENTITY ns_custom "http://ns.adobe.com/GenericCustomNamespace/1.0/">
	<!ENTITY ns_adobe_xpath "http://ns.adobe.com/XPath/1.0/">
]>
<svg version="1.1" xmlns:x="&ns_extend;" xmlns:i="&ns_ai;" xmlns:graph="&ns_graphs;"
	 xmlns="http://www.w3.org/2000/svg" xmlns:xlink="http://www.w3.org/1999/xlink" x="0px" y="0px" width="1024px" height="800px"
	 viewBox="0 0 1024 800" enable-background="new 0 0 1024 800" xml:space="preserve">
<metadata>
	<sfw  xmlns="&ns_sfw;">
		<slices></slices>
		<sliceSourceBounds  width="971" height="407.908" y="-378.908" x="-235.5" bottomLeftOrigin="true"></sliceSourceBounds>
	</sfw>
</metadata>
<g id="background">
</g>
<g id="desenho">
	
		<polyline fill="none" stroke="#19181C" stroke-width="5" stroke-linecap="round" stroke-linejoin="round" stroke-miterlimit="10" points="
		518.5,576.408 518.5,565.908 518.5,282.368 518.5,230.408 	"/>
	<g>
		<path fill="#4D7CBB" d="M982.98,565.91H741.5v-104.5l0.66-0.71c10.93,10.08,22.39,19.74,34.53,28.7
			C862.05,552.38,982.98,565.91,982.98,565.91z"/>
	</g>
	<g>
		
			<polyline fill="none" stroke="#19181C" stroke-width="3" stroke-linecap="round" stroke-linejoin="round" stroke-miterlimit="10" points="
			28,565.91 518.5,565.91 741.5,565.91 982.98,565.91 996,565.91 		"/>
		<path fill="none" stroke="#C0504D" stroke-width="3" stroke-linecap="round" stroke-linejoin="round" stroke-miterlimit="10" d="
			M53.53,562.8c0,0,126.34-12.46,207.05-73.399C364.83,410.7,418.56,282.35,516,282.35c0.84,0,1.67,0.01,2.5,0.02
			c88.62,1.86,141.02,102.11,223.66,178.33c10.93,10.08,22.39,19.74,34.53,28.7c85.359,62.979,206.29,76.51,206.29,76.51"/>
		
			<polyline fill="none" stroke="#19181C" stroke-width="3" stroke-linecap="round" stroke-linejoin="round" stroke-miterlimit="10" points="
			741.5,576.41 741.5,565.91 741.5,461.41 		"/>
	</g>
</g>
<g id="texto">
	<g>
		<path d="M510.476,202.36c0-0.2,0.08-0.44,0.24-0.72l5.19-8.46l-5.01-8.43c-0.18-0.3-0.27-0.58-0.27-0.84
			c0-0.5,0.265-0.93,0.795-1.29c0.53-0.36,1.095-0.54,1.695-0.54c0.561,0,0.99,0.28,1.29,0.84l4.08,7.35l4.08-7.35
			c0.319-0.56,0.76-0.84,1.319-0.84c0.601,0,1.166,0.18,1.695,0.54c0.53,0.36,0.795,0.791,0.795,1.29c0,0.26-0.09,0.54-0.27,0.84
			l-5.01,8.43l5.189,8.46c0.141,0.26,0.211,0.5,0.211,0.72c0,0.52-0.281,0.975-0.841,1.365s-1.13,0.585-1.71,0.585
			c-0.48,0-0.83-0.21-1.05-0.63l-4.41-7.71l-4.38,7.71c-0.24,0.42-0.6,0.63-1.08,0.63c-0.56,0-1.125-0.195-1.695-0.585
			C510.76,203.335,510.476,202.88,510.476,202.36z"/>
	</g>
	
		<line fill="none" stroke="#19181C" stroke-width="3" stroke-linecap="round" stroke-linejoin="round" stroke-miterlimit="10" x1="505" y1="172.5" x2="531" y2="172.5"/>
</g>
</svg>
