<?xml version="1.0" encoding="utf-8"?>
<!-- Generator: Adobe Illustrator 16.0.0, SVG Export Plug-In . SVG Version: 6.00 Build 0)  -->
<!DOCTYPE svg PUBLIC "-//W3C//DTD SVG 1.1//EN" "http://www.w3.org/Graphics/SVG/1.1/DTD/svg11.dtd" [
	<!ENTITY ns_extend "http://ns.adobe.com/Extensibility/1.0/">
	<!ENTITY ns_ai "http://ns.adobe.com/AdobeIllustrator/10.0/">
	<!ENTITY ns_graphs "http://ns.adobe.com/Graphs/1.0/">
	<!ENTITY ns_vars "http://ns.adobe.com/Variables/1.0/">
	<!ENTITY ns_imrep "http://ns.adobe.com/ImageReplacement/1.0/">
	<!ENTITY ns_sfw "http://ns.adobe.com/SaveForWeb/1.0/">
	<!ENTITY ns_custom "http://ns.adobe.com/GenericCustomNamespace/1.0/">
	<!ENTITY ns_adobe_xpath "http://ns.adobe.com/XPath/1.0/">
]>
<svg version="1.1" xmlns:x="&ns_extend;" xmlns:i="&ns_ai;" xmlns:graph="&ns_graphs;"
	 xmlns="http://www.w3.org/2000/svg" xmlns:xlink="http://www.w3.org/1999/xlink" x="0px" y="0px" width="1024px" height="800px"
	 viewBox="0 0 1024 800" enable-background="new 0 0 1024 800" xml:space="preserve">
<metadata>
	<sfw  xmlns="&ns_sfw;">
		<slices></slices>
		<sliceSourceBounds  width="807" height="748" y="-574" x="-154" bottomLeftOrigin="true"></sliceSourceBounds>
	</sfw>
</metadata>
<g id="background">
</g>
<g id="desenho">
	<g opacity="0.5">
		<path fill="#FFFFFF" d="M915,724c0,27.614-22.386,50-50,50H158c-27.614,0-50-22.386-50-50V76c0-27.614,22.386-50,50-50h707
			c27.614,0,50,22.386,50,50V724z"/>
	</g>
	<circle fill="none" stroke="#EE3435" stroke-width="8" stroke-miterlimit="10" cx="423" cy="232.063" r="167.951"/>
	<circle fill="none" stroke="#3C733D" stroke-width="8" stroke-miterlimit="10" cx="601" cy="232.063" r="167.951"/>
	<circle fill="none" stroke="#4D7CBB" stroke-width="8" stroke-miterlimit="10" cx="517" cy="398.063" r="167.951"/>
</g>
<g id="texto">
	<g>
		<path fill="#19181C" d="M146.539,63.623c0-0.46,0.265-0.845,0.795-1.155c0.53-0.31,1.085-0.465,1.665-0.465
			c0.74,0,1.18,0.26,1.32,0.78l4.59,16.26l4.56-16.26c0.14-0.52,0.58-0.78,1.32-0.78c0.56,0,1.11,0.161,1.65,0.48
			c0.54,0.32,0.81,0.701,0.81,1.14c0,0.041-0.02,0.14-0.06,0.3l-5.76,18.87c-0.12,0.42-0.42,0.746-0.9,0.975
			c-0.48,0.229-1.02,0.345-1.62,0.345c-1.38,0-2.22-0.44-2.52-1.32l-5.79-18.87C146.559,63.763,146.539,63.663,146.539,63.623z"/>
		<path fill="#19181C" d="M163.04,78.053v-2.55c0-1.64,0.64-3.049,1.92-4.23c1.28-1.18,2.83-1.77,4.65-1.77
			c1.7,0,3.155,0.538,4.365,1.613c1.21,1.075,1.815,2.426,1.815,4.053c0,0.594-0.075,1.084-0.225,1.47s-0.38,0.659-0.69,0.817
			c-0.31,0.158-0.595,0.258-0.855,0.297c-0.26,0.04-0.6,0.06-1.02,0.06h-6.09v0.45c0,0.86,0.32,1.555,0.96,2.085
			c0.64,0.53,1.49,0.795,2.55,0.795c0.76,0,1.51-0.19,2.25-0.57c0.74-0.38,1.22-0.57,1.44-0.57c0.42,0,0.77,0.195,1.05,0.585
			c0.28,0.39,0.42,0.765,0.42,1.125c0,0.561-0.505,1.115-1.515,1.665c-1.01,0.55-2.265,0.825-3.765,0.825
			c-2.141,0-3.885-0.565-5.235-1.695S163.04,79.893,163.04,78.053z M166.91,75.533h4.38c0.32,0,0.545-0.051,0.675-0.154
			c0.13-0.103,0.195-0.303,0.195-0.603c0-0.653-0.255-1.186-0.765-1.597c-0.51-0.411-1.135-0.617-1.875-0.617
			c-0.7,0-1.31,0.201-1.83,0.603c-0.52,0.402-0.78,0.93-0.78,1.583V75.533z"/>
		<path fill="#19181C" d="M177.2,81.623c0-0.36,0.131-0.735,0.395-1.125s0.567-0.585,0.911-0.585c0.222,0,0.501,0.1,0.835,0.301
			s0.774,0.406,1.32,0.615c0.547,0.209,1.194,0.314,1.943,0.314c1.478,0,2.216-0.418,2.216-1.255c0-0.467-0.246-0.836-0.735-1.109
			c-0.49-0.272-1.08-0.496-1.77-0.671c-0.69-0.175-1.385-0.384-2.085-0.627c-0.7-0.244-1.295-0.652-1.785-1.226
			c-0.491-0.574-0.735-1.308-0.735-2.204c0-1.241,0.43-2.31,1.29-3.205c0.86-0.896,2.22-1.344,4.08-1.344
			c1.24,0,2.345,0.19,3.315,0.57c0.97,0.38,1.455,0.84,1.455,1.38c0,0.34-0.135,0.735-0.405,1.185
			c-0.27,0.45-0.605,0.675-1.005,0.675c-0.16,0-0.595-0.125-1.305-0.375c-0.71-0.25-1.375-0.375-1.995-0.375
			c-0.68,0-1.2,0.137-1.56,0.409c-0.36,0.272-0.54,0.574-0.54,0.905s0.18,0.604,0.54,0.817c0.36,0.214,0.805,0.38,1.335,0.497
			c0.53,0.117,1.099,0.277,1.707,0.481c0.607,0.205,1.171,0.442,1.69,0.715c0.52,0.273,0.956,0.696,1.309,1.27
			c0.352,0.574,0.529,1.269,0.529,2.086c0,1.385-0.485,2.475-1.455,3.269c-0.971,0.794-2.325,1.191-4.065,1.191
			c-1.5,0-2.78-0.26-3.84-0.78C177.729,82.903,177.2,82.303,177.2,81.623z"/>
		<path fill="#19181C" d="M190.489,79.129V64.749c0-0.335,0.2-0.617,0.6-0.845c0.4-0.227,0.84-0.341,1.32-0.341
			c0.52,0,0.975,0.111,1.365,0.332c0.39,0.221,0.585,0.496,0.585,0.823v4.965h3.54c0.3,0,0.54,0.152,0.72,0.456
			c0.18,0.304,0.27,0.662,0.27,1.074c0,0.413-0.09,0.771-0.27,1.075c-0.18,0.304-0.42,0.456-0.72,0.456h-3.54v6.256
			c0,0.552,0.125,0.943,0.375,1.171c0.25,0.229,0.685,0.343,1.305,0.343h1.17c0.52,0,0.925,0.167,1.215,0.502
			s0.435,0.732,0.435,1.192c0,0.481-0.145,0.889-0.435,1.224c-0.29,0.334-0.695,0.502-1.215,0.502h-1.17
			C192.339,83.933,190.489,82.332,190.489,79.129z"/>
		<path fill="#19181C" d="M200.779,78.113v-7.2c0-0.3,0.195-0.58,0.585-0.84c0.39-0.26,0.845-0.39,1.365-0.39
			c0.5,0,0.945,0.13,1.335,0.389c0.39,0.26,0.585,0.539,0.585,0.837v7.181c0,0.698,0.259,1.321,0.78,1.87
			c0.52,0.548,1.14,0.823,1.86,0.823c0.72,0,1.335-0.274,1.845-0.823c0.51-0.548,0.765-1.172,0.765-1.87v-7.211
			c0-0.319,0.195-0.598,0.585-0.838c0.39-0.239,0.845-0.359,1.365-0.359c0.56,0,1.02,0.12,1.38,0.36c0.36,0.24,0.54,0.521,0.54,0.84
			v7.23c0,1.62-0.64,3.04-1.92,4.26c-1.28,1.22-2.8,1.83-4.56,1.83c-1.76,0-3.285-0.61-4.575-1.83
			C201.424,81.153,200.779,79.732,200.779,78.113z"/>
		<path fill="#19181C" d="M215.809,80.089c0-1.575,0.6-2.683,1.8-3.324s2.93-0.962,5.19-0.962h1.23v-0.401
			c0-0.761-0.215-1.424-0.645-1.99s-1.095-0.849-1.995-0.849c-0.9,0-1.67,0.17-2.31,0.51c-0.641,0.34-1.01,0.51-1.11,0.51
			c-0.4,0-0.72-0.206-0.96-0.619c-0.24-0.413-0.36-0.867-0.36-1.363c0-0.563,0.515-1.054,1.545-1.471
			c1.03-0.417,2.115-0.627,3.255-0.627c2.18,0,3.8,0.555,4.86,1.665c1.06,1.11,1.59,2.505,1.59,4.185v7.35
			c0,0.34-0.18,0.63-0.54,0.87c-0.36,0.24-0.81,0.36-1.35,0.36c-0.5,0-0.915-0.128-1.245-0.385c-0.33-0.256-0.495-0.566-0.495-0.93
			v-0.93c-1.38,1.676-2.9,2.515-4.56,2.515c-1.14,0-2.075-0.35-2.805-1.051S215.809,81.43,215.809,80.089z M219.408,65.423
			c0-0.46,0.17-0.77,0.51-0.93l3.96-1.92c0.2-0.04,0.33-0.06,0.39-0.06c0.319,0,0.6,0.155,0.84,0.465
			c0.24,0.311,0.36,0.645,0.36,1.005c0,0.44-0.18,0.74-0.54,0.9l-3.9,1.89c-0.2,0.08-0.34,0.12-0.42,0.12
			c-0.32,0-0.6-0.16-0.84-0.48C219.528,66.093,219.408,65.763,219.408,65.423z M219.678,79.605c0,0.513,0.145,0.897,0.435,1.153
			s0.675,0.384,1.155,0.384c0.64,0,1.26-0.285,1.86-0.854c0.6-0.569,0.9-1.195,0.9-1.879v-0.598h-0.45
			c-1.22,0-2.175,0.119-2.865,0.356S219.678,78.885,219.678,79.605z"/>
		<path fill="#19181C" d="M230.778,82.703v-11.82c0-0.36,0.175-0.65,0.525-0.87c0.35-0.22,0.805-0.33,1.365-0.33
			c0.5,0,0.915,0.111,1.245,0.333c0.33,0.222,0.495,0.515,0.495,0.878v1.242c0.32-0.706,0.82-1.322,1.5-1.846
			c0.68-0.524,1.41-0.787,2.19-0.787h0.93c0.36,0,0.685,0.172,0.975,0.515c0.29,0.343,0.435,0.737,0.435,1.181
			c0,0.464-0.146,0.868-0.435,1.21c-0.29,0.343-0.615,0.515-0.975,0.515h-0.93c-0.92,0-1.725,0.409-2.415,1.227
			c-0.69,0.818-1.035,1.885-1.035,3.201v5.355c0,0.299-0.2,0.579-0.6,0.838c-0.4,0.259-0.86,0.389-1.38,0.389
			c-0.54,0-0.99-0.125-1.35-0.375C230.958,83.308,230.778,83.023,230.778,82.703z"/>
		<path fill="#19181C" d="M241.878,64.792c0-0.471,0.212-0.873,0.638-1.208c0.424-0.334,0.948-0.502,1.57-0.502
			c0.559,0,1.035,0.167,1.43,0.502c0.395,0.335,0.592,0.737,0.592,1.208c0,0.453-0.197,0.851-0.592,1.194
			c-0.395,0.344-0.871,0.516-1.43,0.516c-0.622,0-1.146-0.171-1.57-0.516C242.091,65.644,241.878,65.246,241.878,64.792z
			 M242.238,82.703v-11.82c0-0.36,0.173-0.65,0.519-0.87c0.346-0.22,0.789-0.33,1.327-0.33s0.985,0.11,1.341,0.33
			c0.355,0.22,0.534,0.51,0.534,0.87v11.82c0,0.3-0.188,0.58-0.563,0.84c-0.375,0.26-0.813,0.39-1.312,0.39
			c-0.52,0-0.957-0.125-1.312-0.375C242.416,83.308,242.238,83.023,242.238,82.703z"/>
		<path fill="#19181C" d="M248.418,78.053v-2.46c0-1.64,0.64-3.065,1.92-4.275c1.28-1.209,2.81-1.815,4.59-1.815
			c1.74,0,3.259,0.6,4.56,1.8c1.3,1.2,1.95,2.63,1.95,4.29v2.46c0,1.62-0.65,3.05-1.95,4.29s-2.82,1.86-4.56,1.86
			c-1.74,0-3.26-0.62-4.56-1.86C249.068,81.103,248.418,79.673,248.418,78.053z M252.288,78.044c0,0.714,0.26,1.349,0.78,1.905
			c0.52,0.556,1.14,0.833,1.86,0.833c0.7,0,1.314-0.278,1.845-0.833c0.53-0.556,0.795-1.191,0.795-1.905v-2.442
			c0-0.675-0.265-1.29-0.795-1.846c-0.53-0.556-1.145-0.833-1.845-0.833c-0.72,0-1.34,0.273-1.86,0.819
			c-0.52,0.545-0.78,1.166-0.78,1.86V78.044z"/>
	</g>
	<g>
		<path fill="#19181C" d="M766.066,78.053v-2.4c0-1.84,0.541-3.325,1.621-4.455s2.699-1.695,4.859-1.695c1.359,0,2.5,0.24,3.42,0.72
			s1.38,1.02,1.38,1.62c0,0.42-0.149,0.84-0.45,1.26c-0.3,0.42-0.66,0.63-1.08,0.63c-0.119,0-0.475-0.135-1.064-0.405
			s-1.226-0.405-1.905-0.405c-1.94,0-2.909,0.913-2.909,2.739v2.382c0,1.826,0.979,2.739,2.939,2.739c0.68,0,1.31-0.145,1.891-0.435
			c0.579-0.29,0.949-0.435,1.109-0.435c0.48,0,0.875,0.2,1.186,0.6c0.309,0.4,0.465,0.81,0.465,1.23c0,0.62-0.486,1.185-1.455,1.695
			c-0.971,0.51-2.136,0.765-3.496,0.765c-2.18,0-3.809-0.56-4.889-1.68C766.607,81.403,766.066,79.913,766.066,78.053z"/>
		<path fill="#19181C" d="M779.356,64.792c0-0.471,0.212-0.873,0.638-1.208c0.424-0.334,0.948-0.502,1.57-0.502
			c0.559,0,1.035,0.167,1.43,0.502c0.395,0.335,0.592,0.737,0.592,1.208c0,0.453-0.197,0.851-0.592,1.194
			c-0.395,0.344-0.871,0.516-1.43,0.516c-0.622,0-1.146-0.171-1.57-0.516C779.568,65.644,779.356,65.246,779.356,64.792z
			 M779.717,82.703v-11.82c0-0.36,0.172-0.65,0.519-0.87c0.346-0.22,0.788-0.33,1.327-0.33c0.537,0,0.984,0.11,1.34,0.33
			c0.355,0.22,0.534,0.51,0.534,0.87v11.82c0,0.3-0.188,0.58-0.563,0.84c-0.375,0.26-0.813,0.39-1.312,0.39
			c-0.52,0-0.957-0.125-1.313-0.375C779.895,83.308,779.717,83.023,779.717,82.703z"/>
		<path fill="#19181C" d="M786.436,82.703v-11.82c0-0.36,0.176-0.65,0.525-0.87c0.35-0.22,0.814-0.33,1.395-0.33
			c0.48,0,0.886,0.111,1.215,0.333c0.33,0.222,0.496,0.515,0.496,0.878v0.908c0.319-0.646,0.834-1.19,1.545-1.634
			c0.709-0.444,1.534-0.667,2.475-0.667c1.38,0,2.585,0.6,3.615,1.8c1.029,1.2,1.545,2.63,1.545,4.29v7.11
			c0,0.38-0.195,0.68-0.585,0.9c-0.39,0.22-0.845,0.33-1.365,0.33c-0.5,0-0.944-0.11-1.335-0.329s-0.585-0.519-0.585-0.897v-7.091
			c0-0.698-0.261-1.321-0.78-1.87c-0.52-0.548-1.13-0.822-1.83-0.822c-0.66,0-1.234,0.249-1.725,0.748
			c-0.49,0.499-0.734,1.146-0.734,1.944v7.091c0,0.299-0.195,0.579-0.586,0.838c-0.39,0.259-0.845,0.389-1.365,0.389
			c-0.539,0-0.994-0.125-1.364-0.375C786.621,83.308,786.436,83.023,786.436,82.703z"/>
		<path fill="#19181C" d="M801.586,78.053v-2.55c0-1.64,0.64-3.049,1.92-4.23c1.279-1.18,2.83-1.77,4.65-1.77
			c1.699,0,3.154,0.538,4.365,1.613c1.209,1.075,1.814,2.426,1.814,4.053c0,0.594-0.075,1.084-0.225,1.47
			c-0.15,0.386-0.381,0.659-0.69,0.817c-0.31,0.158-0.595,0.258-0.854,0.297c-0.261,0.04-0.601,0.06-1.021,0.06h-6.09v0.45
			c0,0.86,0.319,1.555,0.96,2.085c0.64,0.53,1.49,0.795,2.55,0.795c0.76,0,1.51-0.19,2.25-0.57c0.739-0.38,1.22-0.57,1.44-0.57
			c0.42,0,0.77,0.195,1.05,0.585c0.28,0.39,0.42,0.765,0.42,1.125c0,0.561-0.505,1.115-1.515,1.665
			c-1.011,0.55-2.266,0.825-3.766,0.825c-2.141,0-3.885-0.565-5.234-1.695C802.261,81.378,801.586,79.893,801.586,78.053z
			 M805.456,75.533h4.38c0.32,0,0.545-0.051,0.675-0.154c0.13-0.103,0.195-0.303,0.195-0.603c0-0.653-0.255-1.186-0.765-1.597
			c-0.51-0.411-1.136-0.617-1.875-0.617c-0.701,0-1.311,0.201-1.83,0.603c-0.521,0.402-0.78,0.93-0.78,1.583V75.533z"/>
		<path fill="#19181C" d="M815.326,71.153c0-0.42,0.295-0.8,0.885-1.14c0.59-0.34,1.155-0.51,1.695-0.51
			c0.58,0,0.96,0.221,1.14,0.66l3.33,8.7l3.33-8.64c0.181-0.48,0.55-0.72,1.11-0.72c0.479,0,1.029,0.175,1.649,0.525
			s0.931,0.735,0.931,1.155c0,0.18-0.041,0.35-0.121,0.51l-5.129,11.88c-0.221,0.459-0.811,0.69-1.771,0.69s-1.54-0.23-1.739-0.69
			l-5.16-11.88C815.375,71.553,815.326,71.373,815.326,71.153z"/>
		<path fill="#19181C" d="M830.476,65.423c0-0.46,0.17-0.77,0.511-0.93l3.959-1.92c0.2-0.04,0.33-0.06,0.391-0.06
			c0.319,0,0.6,0.155,0.84,0.465c0.24,0.311,0.359,0.645,0.359,1.005c0,0.44-0.18,0.74-0.539,0.9l-3.9,1.89
			c-0.2,0.08-0.34,0.12-0.42,0.12c-0.32,0-0.6-0.16-0.84-0.48C830.596,66.093,830.476,65.763,830.476,65.423z M831.076,82.703
			v-11.82c0-0.36,0.18-0.65,0.539-0.87c0.36-0.22,0.82-0.33,1.381-0.33c0.559,0,1.024,0.11,1.395,0.33
			c0.37,0.22,0.555,0.51,0.555,0.87v11.82c0,0.3-0.195,0.58-0.584,0.84c-0.391,0.26-0.846,0.39-1.365,0.39
			c-0.541,0-0.996-0.125-1.365-0.375C831.26,83.308,831.076,83.023,831.076,82.703z"/>
		<path fill="#19181C" d="M837.436,78.053v-2.46c0-1.66,0.525-3.09,1.574-4.29c1.051-1.2,2.305-1.8,3.766-1.8
			c0.88,0,1.654,0.222,2.324,0.667c0.67,0.444,1.186,0.988,1.546,1.634v-9.201c0-0.359,0.185-0.649,0.555-0.869
			c0.37-0.22,0.835-0.33,1.396-0.33c0.559,0,1.02,0.11,1.379,0.329c0.361,0.22,0.541,0.51,0.541,0.869v20.103
			c0,0.32-0.186,0.604-0.555,0.854c-0.371,0.25-0.826,0.375-1.365,0.375c-0.461,0-0.865-0.131-1.215-0.394
			c-0.351-0.263-0.525-0.545-0.525-0.848v-0.878c-0.32,0.646-0.865,1.205-1.635,1.679c-0.771,0.474-1.615,0.711-2.535,0.711
			c-1.381,0-2.601-0.62-3.66-1.86C837.965,81.103,837.436,79.673,837.436,78.053z M841.305,78.044c0,0.694,0.26,1.325,0.781,1.89
			c0.52,0.566,1.129,0.849,1.83,0.849c0.699,0,1.329-0.273,1.889-0.818c0.561-0.546,0.841-1.007,0.841-1.385v-2.978
			c0-0.793-0.275-1.438-0.825-1.935c-0.551-0.496-1.176-0.744-1.875-0.744c-0.721,0-1.34,0.273-1.859,0.819
			c-0.521,0.545-0.781,1.166-0.781,1.86V78.044z"/>
		<path fill="#19181C" d="M853.005,78.053v-2.55c0-1.64,0.64-3.049,1.92-4.23c1.28-1.18,2.83-1.77,4.649-1.77
			c1.7,0,3.155,0.538,4.365,1.613c1.211,1.075,1.815,2.426,1.815,4.053c0,0.594-0.075,1.084-0.226,1.47
			c-0.149,0.386-0.379,0.659-0.689,0.817c-0.311,0.158-0.596,0.258-0.855,0.297c-0.26,0.04-0.6,0.06-1.02,0.06h-6.09v0.45
			c0,0.86,0.32,1.555,0.96,2.085c0.64,0.53,1.489,0.795,2.55,0.795c0.76,0,1.51-0.19,2.25-0.57s1.22-0.57,1.439-0.57
			c0.421,0,0.771,0.195,1.051,0.585c0.279,0.39,0.42,0.765,0.42,1.125c0,0.561-0.506,1.115-1.516,1.665
			c-1.01,0.55-2.264,0.825-3.764,0.825c-2.141,0-3.886-0.565-5.236-1.695C853.68,81.378,853.005,79.893,853.005,78.053z
			 M856.875,75.533h4.38c0.319,0,0.545-0.051,0.675-0.154c0.13-0.103,0.195-0.303,0.195-0.603c0-0.653-0.255-1.186-0.766-1.597
			c-0.51-0.411-1.135-0.617-1.875-0.617c-0.699,0-1.31,0.201-1.83,0.603c-0.52,0.402-0.779,0.93-0.779,1.583V75.533z"/>
		<path fill="#19181C" d="M867.525,78.053v-2.46c0-1.64,0.639-3.065,1.92-4.275c1.279-1.209,2.809-1.815,4.59-1.815
			c1.74,0,3.26,0.6,4.56,1.8c1.3,1.2,1.95,2.63,1.95,4.29v2.46c0,1.62-0.65,3.05-1.95,4.29s-2.819,1.86-4.56,1.86
			s-3.26-0.62-4.561-1.86C868.175,81.103,867.525,79.673,867.525,78.053z M871.395,78.044c0,0.714,0.26,1.349,0.78,1.905
			c0.521,0.556,1.14,0.833,1.86,0.833c0.699,0,1.314-0.278,1.845-0.833c0.53-0.556,0.795-1.191,0.795-1.905v-2.442
			c0-0.675-0.265-1.29-0.795-1.846c-0.53-0.556-1.146-0.833-1.845-0.833c-0.721,0-1.34,0.273-1.86,0.819
			c-0.521,0.545-0.78,1.166-0.78,1.86V78.044z"/>
	</g>
	<g>
		<path fill="#19181C" d="M765.842,727.808v-14.381c0-0.335,0.199-0.617,0.6-0.845c0.4-0.227,0.84-0.342,1.32-0.342
			c0.52,0,0.975,0.111,1.365,0.332c0.39,0.222,0.584,0.496,0.584,0.823v4.966h3.541c0.3,0,0.539,0.152,0.72,0.455
			c0.18,0.305,0.271,0.662,0.271,1.074s-0.091,0.771-0.271,1.074c-0.181,0.305-0.42,0.456-0.72,0.456h-3.541v6.256
			c0,0.552,0.125,0.942,0.375,1.171c0.25,0.229,0.686,0.344,1.306,0.344h1.17c0.521,0,0.925,0.167,1.215,0.502
			c0.29,0.334,0.435,0.732,0.435,1.191c0,0.481-0.145,0.889-0.435,1.225c-0.29,0.334-0.694,0.502-1.215,0.502h-1.17
			C767.691,732.611,765.842,731.01,765.842,727.808z"/>
		<path fill="#19181C" d="M775.592,726.73v-2.459c0-1.641,0.639-3.065,1.92-4.275c1.279-1.21,2.809-1.815,4.59-1.815
			c1.74,0,3.26,0.601,4.56,1.8c1.3,1.2,1.95,2.631,1.95,4.291v2.459c0,1.621-0.65,3.051-1.95,4.291s-2.819,1.859-4.56,1.859
			s-3.26-0.619-4.561-1.859C776.241,729.781,775.592,728.352,775.592,726.73z M779.461,726.723c0,0.714,0.26,1.349,0.78,1.904
			c0.521,0.557,1.14,0.834,1.86,0.834c0.699,0,1.314-0.277,1.845-0.834c0.53-0.556,0.795-1.19,0.795-1.904v-2.442
			c0-0.675-0.265-1.29-0.795-1.846s-1.146-0.833-1.845-0.833c-0.721,0-1.34,0.272-1.86,0.818c-0.521,0.545-0.78,1.166-0.78,1.86
			V726.723z"/>
		<path fill="#19181C" d="M791.041,727.808v-14.381c0-0.335,0.199-0.617,0.6-0.845c0.4-0.227,0.84-0.342,1.32-0.342
			c0.52,0,0.975,0.111,1.365,0.332c0.39,0.222,0.584,0.496,0.584,0.823v4.966h3.541c0.3,0,0.539,0.152,0.72,0.455
			c0.18,0.305,0.271,0.662,0.271,1.074s-0.091,0.771-0.271,1.074c-0.181,0.305-0.42,0.456-0.72,0.456h-3.541v6.256
			c0,0.552,0.125,0.942,0.375,1.171c0.25,0.229,0.686,0.344,1.306,0.344h1.17c0.521,0,0.925,0.167,1.215,0.502
			c0.29,0.334,0.435,0.732,0.435,1.191c0,0.481-0.145,0.889-0.435,1.225c-0.29,0.334-0.694,0.502-1.215,0.502h-1.17
			C792.891,732.611,791.041,731.01,791.041,727.808z"/>
		<path fill="#19181C" d="M800.641,728.768c0-1.574,0.6-2.683,1.8-3.324s2.93-0.963,5.19-0.963h1.229v-0.4
			c0-0.762-0.215-1.424-0.646-1.99c-0.43-0.566-1.094-0.85-1.994-0.85s-1.67,0.171-2.311,0.511c-0.641,0.341-1.01,0.51-1.109,0.51
			c-0.4,0-0.721-0.2-0.961-0.601c-0.239-0.398-0.359-0.84-0.359-1.319c0-0.579,0.515-1.085,1.545-1.515
			c1.029-0.43,2.115-0.646,3.255-0.646c2.18,0,3.8,0.556,4.86,1.665c1.06,1.11,1.59,2.506,1.59,4.186v7.35
			c0,0.34-0.18,0.63-0.54,0.87c-0.36,0.239-0.81,0.36-1.351,0.36c-0.5,0-0.914-0.129-1.244-0.385
			c-0.33-0.257-0.495-0.566-0.495-0.931v-0.93c-1.38,1.677-2.9,2.515-4.56,2.515c-1.141,0-2.076-0.35-2.806-1.051
			S800.641,730.108,800.641,728.768z M804.51,728.283c0,0.514,0.146,0.898,0.436,1.154s0.676,0.383,1.155,0.383
			c0.64,0,1.26-0.284,1.86-0.854c0.6-0.568,0.899-1.195,0.899-1.879v-0.598h-0.45c-1.22,0-2.175,0.119-2.865,0.356
			C804.855,727.084,804.51,727.563,804.51,728.283z"/>
		<path fill="#19181C" d="M815.881,731.381v-20.13c0-0.36,0.174-0.649,0.524-0.87c0.35-0.22,0.815-0.33,1.396-0.33
			c0.539,0,1,0.11,1.379,0.33c0.381,0.221,0.57,0.51,0.57,0.87v20.13c0,0.3-0.195,0.58-0.584,0.84
			c-0.391,0.26-0.846,0.391-1.365,0.391c-0.541,0-0.996-0.125-1.365-0.375C816.064,731.986,815.881,731.701,815.881,731.381z"/>
		<path fill="#19181C" d="M823.109,722.275c0-0.439,0.11-0.806,0.33-1.102c0.221-0.295,0.511-0.443,0.871-0.443h7.739
			c0.319,0,0.61,0.153,0.87,0.458c0.26,0.306,0.391,0.667,0.391,1.087c0,0.439-0.125,0.801-0.375,1.086
			c-0.251,0.287-0.546,0.43-0.886,0.43h-7.739c-0.36,0-0.65-0.139-0.871-0.414C823.22,723.1,823.109,722.732,823.109,722.275z
			 M823.109,728.365c0-0.438,0.11-0.806,0.33-1.102c0.221-0.295,0.511-0.443,0.871-0.443h7.739c0.319,0,0.61,0.153,0.87,0.458
			c0.26,0.306,0.391,0.667,0.391,1.087c0,0.439-0.125,0.801-0.375,1.087c-0.251,0.286-0.546,0.429-0.886,0.429h-7.739
			c-0.36,0-0.65-0.138-0.871-0.414C823.22,729.189,823.109,728.822,823.109,728.365z"/>
		<path fill="#19181C" d="M835.92,731.375v-2.925c0-0.884,0.302-1.759,0.906-2.623c0.604-0.864,1.336-1.647,2.196-2.352l2.878-2.087
			c0.945-0.705,1.75-1.451,2.414-2.237c0.663-0.786,0.995-1.572,0.995-2.358c0-0.706-0.237-1.331-0.709-1.875
			c-0.473-0.545-1.171-0.816-2.097-0.816c-0.784,0-1.428,0.227-1.93,0.68c-0.504,0.452-0.754,1.132-0.754,2.037
			c0,0.391-0.184,0.736-0.547,1.035c-0.364,0.299-0.852,0.447-1.461,0.447c-1.162,0-1.742-0.699-1.742-2.1
			c0-1.641,0.635-2.971,1.906-3.99c1.27-1.02,2.77-1.53,4.498-1.53c1.823,0,3.402,0.546,4.735,1.638s1.999,2.543,1.999,4.354
			c0,1.209-0.326,2.344-0.977,3.402c-0.652,1.059-1.449,1.955-2.392,2.69s-1.88,1.417-2.813,2.042s-1.726,1.25-2.379,1.875
			s-0.979,1.219-0.979,1.783v0.727h8.365c0.321,0,0.607,0.164,0.857,0.494c0.252,0.33,0.377,0.726,0.377,1.186
			s-0.123,0.865-0.367,1.215c-0.246,0.35-0.525,0.525-0.838,0.525h-10.469c-0.373,0-0.745-0.121-1.117-0.362
			C836.105,732.008,835.92,731.717,835.92,731.375z"/>
		<path fill="#19181C" d="M850.619,727.361c0-0.66,0.16-1.12,0.48-1.381c0.319-0.26,0.81-0.39,1.47-0.39
			c0.76,0,1.274,0.13,1.545,0.39c0.271,0.261,0.405,0.631,0.405,1.11c0,0.72,0.289,1.28,0.869,1.681s1.32,0.6,2.221,0.6
			c2.119,0,3.18-1.11,3.18-3.33v-0.57c0-1.119-0.275-1.959-0.825-2.52s-1.325-0.84-2.325-0.84h-4.439
			c-0.58,0-0.985-0.129-1.215-0.389c-0.23-0.258-0.346-0.637-0.346-1.133c0-0.08,0.035-0.205,0.104-0.373
			c0.068-0.17,0.103-0.304,0.103-0.403l0.604-7.903c0.061-0.819,0.31-1.229,0.75-1.229h9.24c0.359,0,0.645,0.171,0.854,0.511
			s0.315,0.74,0.315,1.199c0,0.461-0.105,0.86-0.314,1.2c-0.209,0.341-0.493,0.511-0.852,0.511h-6.725l-0.39,4.949h2.31
			c2.141,0,3.85,0.516,5.131,1.545c1.279,1.03,1.92,2.655,1.92,4.875v0.57c0,2.32-0.641,4.025-1.92,5.115
			c-1.281,1.09-2.971,1.635-5.07,1.635c-2.18,0-3.905-0.535-5.176-1.605C851.254,730.116,850.619,728.842,850.619,727.361z"/>
		<path fill="#19181C" d="M866.729,725.921v-8.37c0-2.38,0.635-4.119,1.905-5.22c1.27-1.101,2.975-1.65,5.114-1.65
			c2.141,0,3.851,0.55,5.131,1.65c1.279,1.101,1.92,2.84,1.92,5.22v8.37c0,2.38-0.641,4.12-1.92,5.22
			c-1.28,1.101-2.99,1.65-5.131,1.65c-2.14,0-3.845-0.55-5.114-1.65C867.363,730.041,866.729,728.301,866.729,725.921z
			 M870.629,725.921c0,2.3,1.039,3.45,3.119,3.45c2.101,0,3.15-1.15,3.15-3.45v-8.37c0-2.3-1.05-3.449-3.15-3.449
			c-2.08,0-3.119,1.149-3.119,3.449V725.921z M872.759,723.004c-0.261-0.285-0.39-0.658-0.39-1.119s0.124-0.828,0.375-1.103
			c0.25-0.274,0.594-0.411,1.035-0.411c0.42,0,0.754,0.137,1.004,0.411s0.375,0.642,0.375,1.103s-0.125,0.834-0.375,1.119
			s-0.584,0.427-1.004,0.427C873.358,723.431,873.019,723.289,872.759,723.004z"/>
	</g>
	<g>
		<path fill="#19181C" d="M456.026,605.586v-2.4c0-1.84,0.54-3.325,1.62-4.455s2.7-1.695,4.86-1.695c1.36,0,2.5,0.24,3.42,0.721
			c0.92,0.479,1.38,1.02,1.38,1.619c0,0.42-0.15,0.84-0.45,1.26c-0.3,0.42-0.66,0.631-1.08,0.631c-0.12,0-0.475-0.135-1.065-0.405
			c-0.59-0.271-1.226-0.405-1.905-0.405c-1.94,0-2.91,0.914-2.91,2.739v2.382c0,1.826,0.979,2.739,2.94,2.739
			c0.68,0,1.31-0.146,1.89-0.435c0.58-0.29,0.95-0.436,1.11-0.436c0.48,0,0.875,0.2,1.185,0.6c0.31,0.4,0.465,0.811,0.465,1.23
			c0,0.62-0.485,1.186-1.455,1.695c-0.97,0.51-2.135,0.765-3.495,0.765c-2.18,0-3.81-0.56-4.89-1.681
			C456.566,608.936,456.026,607.445,456.026,605.586z"/>
		<path fill="#19181C" d="M468.866,605.586v-2.461c0-1.639,0.64-3.064,1.92-4.275c1.28-1.209,2.81-1.814,4.59-1.814
			c1.74,0,3.259,0.6,4.56,1.801c1.3,1.199,1.95,2.629,1.95,4.289v2.461c0,1.619-0.65,3.049-1.95,4.289s-2.82,1.86-4.56,1.86
			c-1.74,0-3.26-0.62-4.56-1.86C469.516,608.635,468.866,607.205,468.866,605.586z M472.736,605.576c0,0.715,0.26,1.35,0.78,1.906
			c0.52,0.555,1.14,0.833,1.86,0.833c0.7,0,1.314-0.278,1.845-0.833c0.53-0.557,0.795-1.191,0.795-1.906v-2.441
			c0-0.675-0.265-1.289-0.795-1.846c-0.53-0.556-1.145-0.834-1.845-0.834c-0.72,0-1.34,0.273-1.86,0.819s-0.78,1.165-0.78,1.86
			V605.576z"/>
		<path fill="#19181C" d="M483.445,609.155c0-0.36,0.131-0.735,0.395-1.125s0.567-0.585,0.911-0.585c0.222,0,0.501,0.1,0.835,0.301
			s0.774,0.406,1.32,0.615c0.547,0.209,1.194,0.314,1.943,0.314c1.478,0,2.216-0.418,2.216-1.256c0-0.467-0.246-0.836-0.735-1.108
			c-0.49-0.272-1.08-0.496-1.77-0.671c-0.69-0.176-1.385-0.385-2.085-0.627c-0.7-0.244-1.295-0.652-1.785-1.227
			c-0.491-0.574-0.735-1.309-0.735-2.203c0-1.242,0.43-2.311,1.29-3.205c0.86-0.896,2.22-1.344,4.08-1.344
			c1.24,0,2.345,0.19,3.315,0.57c0.97,0.38,1.455,0.84,1.455,1.38c0,0.341-0.135,0.735-0.405,1.185
			c-0.27,0.45-0.605,0.676-1.005,0.676c-0.16,0-0.595-0.125-1.305-0.375c-0.71-0.25-1.375-0.375-1.995-0.375
			c-0.68,0-1.2,0.137-1.56,0.408c-0.36,0.272-0.54,0.574-0.54,0.904c0,0.332,0.18,0.604,0.54,0.817s0.805,0.38,1.335,0.497
			c0.53,0.116,1.099,0.276,1.707,0.48c0.607,0.205,1.171,0.443,1.69,0.715c0.52,0.273,0.956,0.697,1.309,1.271
			c0.352,0.573,0.529,1.269,0.529,2.087c0,1.385-0.485,2.475-1.455,3.269c-0.971,0.794-2.325,1.191-4.065,1.191
			c-1.5,0-2.78-0.261-3.84-0.78S483.445,609.836,483.445,609.155z"/>
		<path fill="#19181C" d="M496.765,610.235v-11.819c0-0.361,0.175-0.65,0.525-0.871c0.35-0.219,0.815-0.33,1.395-0.33
			c0.48,0,0.885,0.111,1.215,0.334c0.33,0.223,0.495,0.516,0.495,0.879v0.908c0.86-1.533,2.18-2.301,3.96-2.301
			c0.84,0,1.595,0.277,2.265,0.832c0.67,0.556,1.165,1.287,1.485,2.195c0.5-0.989,1.155-1.74,1.965-2.256
			c0.81-0.514,1.665-0.771,2.565-0.771c1.439,0,2.689,0.551,3.75,1.65c1.06,1.1,1.59,2.58,1.59,4.439v7.11
			c0,0.3-0.195,0.58-0.585,0.84c-0.39,0.261-0.845,0.39-1.365,0.39c-0.5,0-0.944-0.129-1.335-0.389
			c-0.39-0.26-0.585-0.539-0.585-0.838v-7.09c0-0.838-0.239-1.502-0.72-1.99c-0.48-0.488-1.05-0.732-1.71-0.732
			c-0.641,0-1.195,0.244-1.665,0.732c-0.47,0.489-0.705,1.143-0.705,1.96v7.15c0,0.399-0.19,0.698-0.57,0.897
			c-0.38,0.199-0.84,0.299-1.38,0.299c-0.5,0-0.945-0.104-1.335-0.313c-0.39-0.209-0.585-0.503-0.585-0.883v-7.12
			c0-0.799-0.245-1.446-0.735-1.945c-0.49-0.498-1.065-0.748-1.725-0.748c-0.64,0-1.19,0.24-1.65,0.719
			c-0.46,0.479-0.69,1.137-0.69,1.975v7.09c0,0.3-0.195,0.579-0.585,0.838c-0.39,0.26-0.845,0.389-1.365,0.389
			c-0.54,0-0.995-0.124-1.365-0.375C496.949,610.84,496.765,610.556,496.765,610.235z"/>
		<path fill="#19181C" d="M520.314,605.586v-2.551c0-1.64,0.64-3.049,1.92-4.23c1.279-1.18,2.83-1.77,4.65-1.77
			c1.699,0,3.154,0.537,4.365,1.613c1.209,1.074,1.814,2.426,1.814,4.053c0,0.594-0.075,1.084-0.225,1.471
			c-0.15,0.386-0.381,0.658-0.69,0.816s-0.595,0.258-0.854,0.297c-0.261,0.041-0.601,0.061-1.021,0.061h-6.09v0.449
			c0,0.86,0.319,1.556,0.96,2.086c0.64,0.529,1.49,0.795,2.55,0.795c0.76,0,1.51-0.19,2.25-0.57c0.739-0.38,1.22-0.57,1.44-0.57
			c0.42,0,0.77,0.195,1.05,0.585s0.42,0.765,0.42,1.125c0,0.561-0.505,1.115-1.515,1.665c-1.011,0.551-2.266,0.825-3.766,0.825
			c-2.141,0-3.885-0.565-5.234-1.694C520.989,608.91,520.314,607.426,520.314,605.586z M523.885,592.955
			c0-0.459,0.17-0.77,0.51-0.93l3.96-1.92c0.2-0.04,0.33-0.061,0.39-0.061c0.32,0,0.601,0.156,0.84,0.465
			c0.24,0.311,0.36,0.646,0.36,1.006c0,0.439-0.18,0.74-0.54,0.9l-3.9,1.889c-0.199,0.08-0.34,0.121-0.42,0.121
			c-0.32,0-0.6-0.16-0.84-0.48S523.885,593.295,523.885,592.955z M524.185,603.065h4.38c0.32,0,0.545-0.052,0.675-0.154
			s0.195-0.304,0.195-0.603c0-0.653-0.255-1.186-0.765-1.597s-1.136-0.616-1.875-0.616c-0.701,0-1.311,0.201-1.83,0.602
			c-0.521,0.402-0.78,0.93-0.78,1.584V603.065z"/>
		<path fill="#19181C" d="M535.345,606.662v-14.381c0-0.336,0.2-0.617,0.6-0.845s0.841-0.341,1.32-0.341
			c0.52,0,0.976,0.11,1.364,0.332c0.391,0.221,0.586,0.495,0.586,0.822v4.965h3.539c0.301,0,0.541,0.152,0.721,0.457
			c0.18,0.303,0.27,0.662,0.27,1.073c0,0.413-0.09,0.771-0.27,1.075c-0.18,0.303-0.42,0.455-0.721,0.455h-3.539v6.256
			c0,0.553,0.125,0.943,0.375,1.172s0.685,0.342,1.305,0.342h1.17c0.52,0,0.925,0.168,1.215,0.502
			c0.29,0.335,0.436,0.732,0.436,1.193c0,0.48-0.146,0.889-0.436,1.223c-0.29,0.335-0.695,0.502-1.215,0.502h-1.17
			C537.194,611.465,535.345,609.865,535.345,606.662z"/>
		<path fill="#19181C" d="M545.574,592.325c0-0.471,0.213-0.873,0.638-1.208c0.425-0.334,0.948-0.502,1.57-0.502
			c0.559,0,1.035,0.168,1.43,0.502c0.396,0.335,0.593,0.737,0.593,1.208c0,0.453-0.197,0.851-0.593,1.194
			c-0.395,0.344-0.871,0.516-1.43,0.516c-0.622,0-1.146-0.172-1.57-0.516S545.574,592.778,545.574,592.325z M545.934,610.235
			v-11.819c0-0.361,0.174-0.65,0.52-0.871c0.346-0.219,0.789-0.33,1.326-0.33c0.539,0,0.986,0.111,1.342,0.33
			c0.355,0.221,0.533,0.51,0.533,0.871v11.819c0,0.3-0.188,0.58-0.563,0.84c-0.375,0.261-0.813,0.39-1.313,0.39
			c-0.52,0-0.957-0.124-1.312-0.375C546.111,610.84,545.934,610.556,545.934,610.235z"/>
		<path fill="#19181C" d="M552.174,605.586v-2.4c0-1.84,0.54-3.325,1.62-4.455s2.7-1.695,4.86-1.695c1.359,0,2.5,0.24,3.42,0.721
			c0.92,0.479,1.379,1.02,1.379,1.619c0,0.42-0.149,0.84-0.449,1.26c-0.301,0.42-0.66,0.631-1.08,0.631
			c-0.12,0-0.475-0.135-1.064-0.405c-0.591-0.271-1.227-0.405-1.906-0.405c-1.939,0-2.909,0.914-2.909,2.739v2.382
			c0,1.826,0.979,2.739,2.94,2.739c0.68,0,1.309-0.146,1.89-0.435c0.579-0.29,0.95-0.436,1.11-0.436c0.479,0,0.874,0.2,1.185,0.6
			c0.31,0.4,0.465,0.811,0.465,1.23c0,0.62-0.485,1.186-1.455,1.695s-2.136,0.765-3.495,0.765c-2.18,0-3.81-0.56-4.89-1.681
			C552.714,608.936,552.174,607.445,552.174,605.586z"/>
		<path fill="#19181C" d="M565.014,605.586v-2.461c0-1.639,0.64-3.064,1.92-4.275c1.279-1.209,2.81-1.814,4.59-1.814
			c1.74,0,3.26,0.6,4.561,1.801c1.3,1.199,1.949,2.629,1.949,4.289v2.461c0,1.619-0.649,3.049-1.949,4.289
			c-1.301,1.24-2.82,1.86-4.561,1.86s-3.26-0.62-4.56-1.86S565.014,607.205,565.014,605.586z M568.884,605.576
			c0,0.715,0.26,1.35,0.78,1.906c0.52,0.555,1.14,0.833,1.859,0.833c0.7,0,1.314-0.278,1.846-0.833
			c0.529-0.557,0.795-1.191,0.795-1.906v-2.441c0-0.675-0.266-1.289-0.795-1.846c-0.531-0.556-1.146-0.834-1.846-0.834
			c-0.72,0-1.34,0.273-1.859,0.819c-0.521,0.546-0.78,1.165-0.78,1.86V605.576z"/>
	</g>
	<g>
		<path fill="#19181C" d="M260.852,604.563c0-0.66,0.16-1.12,0.48-1.381c0.32-0.26,0.81-0.39,1.47-0.39
			c0.76,0,1.275,0.13,1.545,0.39c0.27,0.261,0.405,0.631,0.405,1.11c0,0.72,0.29,1.28,0.87,1.681c0.58,0.4,1.32,0.6,2.22,0.6
			c2.12,0,3.18-1.11,3.18-3.33v-0.57c0-1.119-0.275-1.959-0.825-2.52s-1.325-0.84-2.325-0.84h-4.44
			c-0.581,0-0.985-0.129-1.215-0.389c-0.23-0.258-0.345-0.637-0.345-1.133c0-0.08,0.034-0.205,0.103-0.373
			c0.068-0.17,0.103-0.304,0.103-0.403l0.604-7.903c0.06-0.819,0.31-1.229,0.75-1.229h9.24c0.36,0,0.645,0.171,0.855,0.511
			s0.315,0.74,0.315,1.199c0,0.461-0.105,0.86-0.314,1.2c-0.209,0.341-0.493,0.511-0.852,0.511h-6.725l-0.39,4.949h2.31
			c2.14,0,3.85,0.516,5.13,1.545c1.28,1.03,1.92,2.655,1.92,4.875v0.57c0,2.32-0.64,4.025-1.92,5.115
			c-1.28,1.09-2.97,1.635-5.07,1.635c-2.18,0-3.905-0.535-5.175-1.605C261.486,607.317,260.852,606.043,260.852,604.563z"/>
		<path fill="#19181C" d="M276.961,603.122v-8.37c0-2.38,0.635-4.119,1.905-5.22c1.27-1.101,2.975-1.65,5.115-1.65
			s3.85,0.55,5.13,1.65s1.92,2.84,1.92,5.22v8.37c0,2.38-0.641,4.12-1.92,5.22c-1.28,1.101-2.99,1.65-5.13,1.65
			s-3.845-0.55-5.115-1.65C277.596,607.242,276.961,605.502,276.961,603.122z M280.861,603.122c0,2.3,1.04,3.45,3.12,3.45
			c2.1,0,3.15-1.15,3.15-3.45v-8.37c0-2.3-1.05-3.449-3.15-3.449c-2.08,0-3.12,1.149-3.12,3.449V603.122z M282.991,600.205
			c-0.26-0.285-0.39-0.658-0.39-1.119s0.125-0.828,0.375-1.103c0.25-0.274,0.595-0.411,1.035-0.411c0.42,0,0.754,0.137,1.005,0.411
			c0.25,0.274,0.375,0.642,0.375,1.103s-0.125,0.834-0.375,1.119c-0.25,0.285-0.585,0.427-1.005,0.427
			C283.591,600.632,283.251,600.49,282.991,600.205z"/>
	</g>
	<g>
		<path fill="#19181C" d="M398.396,363.342c0-0.58,0.14-0.98,0.42-1.2c0.28-0.22,0.76-0.33,1.44-0.33c0.78,0,1.31,0.105,1.59,0.315
			s0.42,0.565,0.42,1.065c0,0.68,0.28,1.215,0.84,1.605c0.56,0.39,1.32,0.585,2.28,0.585c1.12,0,1.935-0.255,2.445-0.765
			c0.51-0.51,0.765-1.335,0.765-2.475v-0.57c0-1.9-1.1-2.85-3.3-2.85c-0.76,0-1.14-0.51-1.14-1.53s0.387-1.53,1.161-1.53
			c0.873,0,1.548-0.194,2.024-0.582c0.477-0.388,0.715-1.169,0.715-2.343c0-1.75-0.88-2.625-2.64-2.625
			c-1.78,0-2.67,0.667-2.67,1.999c0,0.995-0.62,1.492-1.86,1.492c-0.84,0-1.385-0.115-1.635-0.343
			c-0.25-0.229-0.375-0.671-0.375-1.328c0-0.582,0.109-1.159,0.33-1.731c0.22-0.572,0.564-1.129,1.035-1.671
			c0.47-0.542,1.155-0.984,2.055-1.325s1.95-0.512,3.15-0.512c4.24,0,6.36,1.797,6.36,5.389c0,1.195-0.207,2.237-0.621,3.123
			c-0.414,0.887-0.994,1.5-1.741,1.838c2.034,0.8,3.052,2.31,3.052,4.53v0.57c0,2.28-0.666,3.96-1.995,5.04
			c-1.331,1.08-3.065,1.62-5.205,1.62c-2.26,0-3.975-0.56-5.145-1.68C398.981,366.002,398.396,364.742,398.396,363.342z"/>
		<path fill="#19181C" d="M414.806,361.932v-8.37c0-2.38,0.635-4.12,1.905-5.22c1.27-1.1,2.975-1.65,5.115-1.65s3.85,0.55,5.13,1.65
			s1.92,2.84,1.92,5.22v8.37c0,2.38-0.641,4.12-1.92,5.22c-1.28,1.101-2.99,1.65-5.13,1.65s-3.845-0.55-5.115-1.65
			C415.441,366.052,414.806,364.312,414.806,361.932z M418.706,361.932c0,2.3,1.04,3.45,3.12,3.45c2.1,0,3.15-1.149,3.15-3.45v-8.37
			c0-2.3-1.05-3.45-3.15-3.45c-2.08,0-3.12,1.15-3.12,3.45V361.932z M420.836,359.014c-0.26-0.285-0.39-0.658-0.39-1.119
			c0-0.46,0.125-0.828,0.375-1.102c0.25-0.274,0.595-0.412,1.035-0.412c0.42,0,0.754,0.138,1.005,0.412
			c0.25,0.274,0.375,0.642,0.375,1.102c0,0.461-0.125,0.834-0.375,1.119c-0.25,0.285-0.585,0.427-1.005,0.427
			C421.436,359.441,421.096,359.299,420.836,359.014z"/>
	</g>
	<g>
		<path fill="#19181C" d="M339.286,173.468v-8.37c0-2.38,0.655-4.12,1.965-5.22c1.31-1.1,3.064-1.65,5.265-1.65
			c2.22,0,3.915,0.555,5.085,1.665c1.17,1.11,1.755,2.385,1.755,3.825c0,0.6-0.146,1.02-0.435,1.26
			c-0.291,0.24-0.755,0.36-1.395,0.36c-1.36,0-2.04-0.49-2.04-1.47c0-0.68-0.295-1.22-0.885-1.62c-0.59-0.4-1.315-0.6-2.175-0.6
			c-2.18,0-3.27,1.15-3.27,3.45v3.27c0.86-1.02,2.19-1.53,3.99-1.53c1.879,0,3.385,0.48,4.515,1.44s1.695,2.55,1.695,4.77v0.42
			c0,2.38-0.635,4.12-1.905,5.22c-1.27,1.101-2.975,1.65-5.115,1.65c-2.141,0-3.851-0.55-5.13-1.65
			C339.926,177.588,339.286,175.849,339.286,173.468z M343.156,173.771c0,2.338,1.06,3.507,3.18,3.507c2.08,0,3.12-1.169,3.12-3.507
			v-0.396c0-2.317-1.05-3.477-3.15-3.477s-3.15,1.067-3.15,3.202V173.771z"/>
		<path fill="#19181C" d="M355.755,173.468v-8.37c0-2.38,0.635-4.12,1.905-5.22c1.27-1.1,2.975-1.65,5.115-1.65s3.85,0.55,5.13,1.65
			s1.92,2.84,1.92,5.22v8.37c0,2.38-0.641,4.12-1.92,5.22c-1.28,1.101-2.99,1.65-5.13,1.65s-3.845-0.55-5.115-1.65
			C356.39,177.588,355.755,175.849,355.755,173.468z M359.655,173.468c0,2.3,1.04,3.45,3.12,3.45c2.1,0,3.15-1.149,3.15-3.45v-8.37
			c0-2.3-1.05-3.45-3.15-3.45c-2.08,0-3.12,1.15-3.12,3.45V173.468z M361.786,170.551c-0.26-0.285-0.39-0.658-0.39-1.119
			c0-0.46,0.125-0.828,0.375-1.102c0.25-0.274,0.595-0.412,1.035-0.412c0.42,0,0.754,0.138,1.005,0.412
			c0.25,0.274,0.375,0.642,0.375,1.102c0,0.461-0.125,0.834-0.375,1.119c-0.25,0.285-0.585,0.427-1.005,0.427
			C362.385,170.978,362.045,170.836,361.786,170.551z"/>
	</g>
	<g>
		<path fill="#19181C" d="M654.66,173.878c0-0.258,0.07-0.516,0.21-0.773l7.11-13.865c0.319-0.674,0.869-1.012,1.649-1.012
			c0.399,0,0.825,0.146,1.274,0.435c0.451,0.29,0.676,0.645,0.676,1.065c0,0.14-0.051,0.311-0.15,0.51l-5.76,11.52h3.51v-3.301
			c0-0.419,0.189-0.738,0.57-0.959c0.379-0.22,0.84-0.33,1.38-0.33s1,0.11,1.38,0.33c0.38,0.221,0.57,0.54,0.57,0.959v3.301h1.41
			c0.379,0,0.68,0.169,0.9,0.509c0.219,0.339,0.329,0.745,0.329,1.215c0,0.434-0.125,0.824-0.375,1.173
			c-0.25,0.349-0.535,0.522-0.854,0.522h-1.41v3.696c0,0.397-0.19,0.71-0.57,0.939c-0.38,0.23-0.84,0.345-1.38,0.345
			c-0.521,0-0.976-0.115-1.364-0.345c-0.391-0.229-0.586-0.542-0.586-0.939v-3.696h-7.199c-0.381,0-0.695-0.118-0.945-0.354
			C654.785,174.589,654.66,174.273,654.66,173.878z"/>
		<path fill="#19181C" d="M671.13,173.468v-8.37c0-2.38,0.635-4.12,1.905-5.22c1.27-1.1,2.975-1.65,5.115-1.65
			c2.14,0,3.85,0.55,5.129,1.65c1.28,1.1,1.921,2.84,1.921,5.22v8.37c0,2.38-0.641,4.12-1.921,5.22
			c-1.279,1.101-2.989,1.65-5.129,1.65c-2.141,0-3.846-0.55-5.115-1.65C671.765,177.588,671.13,175.849,671.13,173.468z
			 M675.029,173.468c0,2.3,1.041,3.45,3.121,3.45c2.1,0,3.149-1.149,3.149-3.45v-8.37c0-2.3-1.05-3.45-3.149-3.45
			c-2.08,0-3.121,1.15-3.121,3.45V173.468z M677.16,170.551c-0.26-0.285-0.391-0.658-0.391-1.119c0-0.46,0.125-0.828,0.375-1.102
			c0.25-0.274,0.596-0.412,1.035-0.412c0.42,0,0.755,0.138,1.006,0.412c0.25,0.274,0.375,0.642,0.375,1.102
			c0,0.461-0.125,0.834-0.375,1.119c-0.251,0.285-0.586,0.427-1.006,0.427S677.42,170.836,677.16,170.551z"/>
	</g>
	<g>
		<path fill="#19181C" d="M602.924,351.042c0-0.62,0.25-1.09,0.75-1.41l3.539-2.7c0.24-0.2,0.511-0.3,0.811-0.3
			c0.439,0,0.84,0.12,1.2,0.36c0.36,0.24,0.54,0.54,0.54,0.9v19.5c0,0.38-0.195,0.68-0.585,0.9c-0.39,0.22-0.845,0.33-1.365,0.33
			c-0.54,0-1.001-0.11-1.38-0.33c-0.381-0.22-0.57-0.52-0.57-0.9v-16.02l-0.96,0.96c-0.2,0.18-0.44,0.27-0.72,0.27
			c-0.359,0-0.66-0.16-0.9-0.48C603.043,351.802,602.924,351.442,602.924,351.042z"/>
		<path fill="#19181C" d="M612.854,361.932v-8.37c0-2.38,0.635-4.12,1.904-5.22s2.975-1.65,5.115-1.65s3.85,0.55,5.13,1.65
			s1.921,2.84,1.921,5.22v8.37c0,2.38-0.641,4.12-1.921,5.22c-1.28,1.101-2.989,1.65-5.13,1.65s-3.846-0.55-5.115-1.65
			C613.488,366.052,612.854,364.312,612.854,361.932z M616.753,361.932c0,2.3,1.04,3.45,3.12,3.45c2.1,0,3.15-1.149,3.15-3.45v-8.37
			c0-2.3-1.051-3.45-3.15-3.45c-2.08,0-3.12,1.15-3.12,3.45V361.932z M618.883,359.014c-0.26-0.285-0.39-0.658-0.39-1.119
			c0-0.46,0.124-0.828,0.375-1.102c0.25-0.274,0.595-0.412,1.035-0.412c0.42,0,0.755,0.138,1.005,0.412
			c0.25,0.274,0.375,0.642,0.375,1.102c0,0.461-0.125,0.834-0.375,1.119s-0.585,0.427-1.005,0.427
			C619.482,359.441,619.143,359.299,618.883,359.014z"/>
	</g>
	<g>
		<path fill="#19181C" d="M496.095,162.578c0-0.62,0.25-1.09,0.75-1.41l3.54-2.7c0.24-0.2,0.51-0.3,0.81-0.3
			c0.44,0,0.84,0.12,1.2,0.36c0.36,0.24,0.54,0.54,0.54,0.9v19.5c0,0.38-0.195,0.68-0.585,0.9c-0.39,0.22-0.845,0.33-1.365,0.33
			c-0.54,0-1-0.11-1.38-0.33c-0.38-0.22-0.57-0.52-0.57-0.9v-16.02l-0.96,0.96c-0.2,0.18-0.44,0.27-0.72,0.27
			c-0.36,0-0.66-0.16-0.9-0.48C496.215,163.338,496.095,162.979,496.095,162.578z"/>
		<path fill="#19181C" d="M506.025,173.468v-8.37c0-2.38,0.635-4.12,1.905-5.22c1.27-1.1,2.975-1.65,5.115-1.65
			c2.141,0,3.85,0.55,5.13,1.65s1.921,2.84,1.921,5.22v8.37c0,2.38-0.641,4.12-1.921,5.22c-1.28,1.101-2.989,1.65-5.13,1.65
			c-2.14,0-3.845-0.55-5.115-1.65C506.66,177.588,506.025,175.849,506.025,173.468z M509.925,173.468c0,2.3,1.04,3.45,3.12,3.45
			c2.1,0,3.15-1.149,3.15-3.45v-8.37c0-2.3-1.051-3.45-3.15-3.45c-2.08,0-3.12,1.15-3.12,3.45V173.468z M512.055,170.551
			c-0.26-0.285-0.39-0.658-0.39-1.119c0-0.46,0.125-0.828,0.375-1.102c0.25-0.274,0.595-0.412,1.035-0.412
			c0.42,0,0.755,0.138,1.005,0.412c0.25,0.274,0.375,0.642,0.375,1.102c0,0.461-0.125,0.834-0.375,1.119s-0.585,0.427-1.005,0.427
			C512.655,170.978,512.315,170.836,512.055,170.551z"/>
	</g>
	<g>
		<path fill="#19181C" d="M493.771,300.205v-2.924c0-0.884,0.302-1.759,0.906-2.623s1.336-1.648,2.197-2.352l2.878-2.086
			c0.945-0.706,1.75-1.452,2.413-2.238s0.996-1.572,0.996-2.359c0-0.706-0.237-1.331-0.709-1.875
			c-0.473-0.544-1.171-0.816-2.096-0.816c-0.785,0-1.428,0.227-1.931,0.68c-0.503,0.453-0.754,1.132-0.754,2.038
			c0,0.391-0.183,0.736-0.546,1.034c-0.364,0.299-0.851,0.448-1.461,0.448c-1.162,0-1.742-0.7-1.742-2.1
			c0-1.64,0.635-2.97,1.906-3.99c1.271-1.02,2.771-1.53,4.498-1.53c1.824,0,3.403,0.546,4.736,1.638s2,2.543,2,4.353
			c0,1.21-0.326,2.344-0.978,3.402c-0.652,1.059-1.449,1.955-2.391,2.691c-0.943,0.736-1.88,1.417-2.813,2.042
			c-0.933,0.625-1.726,1.25-2.379,1.875s-0.98,1.22-0.98,1.784v0.726h8.366c0.321,0,0.607,0.165,0.857,0.495
			c0.251,0.33,0.376,0.725,0.376,1.185c0,0.46-0.123,0.866-0.367,1.215c-0.246,0.35-0.525,0.525-0.838,0.525h-10.468
			c-0.373,0-0.745-0.121-1.117-0.362C493.957,300.838,493.771,300.546,493.771,300.205z"/>
		<path fill="#19181C" d="M509.31,294.751v-8.37c0-2.38,0.635-4.12,1.905-5.22c1.27-1.1,2.974-1.65,5.115-1.65s3.85,0.55,5.13,1.65
			s1.921,2.84,1.921,5.22v8.37c0,2.38-0.641,4.12-1.921,5.22c-1.28,1.101-2.989,1.65-5.13,1.65s-3.845-0.55-5.115-1.65
			C509.945,298.871,509.31,297.131,509.31,294.751z M513.21,294.751c0,2.3,1.04,3.45,3.12,3.45c2.1,0,3.15-1.149,3.15-3.45v-8.37
			c0-2.3-1.051-3.45-3.15-3.45c-2.08,0-3.12,1.15-3.12,3.45V294.751z M515.34,291.833c-0.26-0.285-0.39-0.658-0.39-1.119
			c0-0.46,0.124-0.828,0.375-1.102c0.25-0.274,0.595-0.412,1.035-0.412c0.42,0,0.755,0.138,1.005,0.412
			c0.25,0.274,0.375,0.642,0.375,1.102c0,0.461-0.125,0.834-0.375,1.119s-0.585,0.427-1.005,0.427
			C515.939,292.261,515.6,292.119,515.34,291.833z"/>
	</g>
	<g>
		<path fill="#19181C" d="M499.461,473.541c0-0.483,0.116-0.816,0.35-1c0.233-0.184,0.633-0.275,1.2-0.275
			c0.65,0,1.092,0.088,1.325,0.263s0.35,0.472,0.35,0.888c0,0.566,0.233,1.012,0.7,1.338c0.467,0.324,1.1,0.486,1.9,0.486
			c0.933,0,1.612-0.212,2.037-0.637c0.425-0.426,0.638-1.113,0.638-2.063v-0.475c0-1.584-0.917-2.375-2.75-2.375
			c-0.634,0-0.95-0.426-0.95-1.275s0.322-1.275,0.968-1.275c0.728,0,1.29-0.161,1.687-0.484c0.397-0.324,0.596-0.975,0.596-1.952
			c0-1.458-0.733-2.188-2.2-2.188c-1.484,0-2.225,0.556-2.225,1.666c0,0.829-0.517,1.244-1.55,1.244c-0.7,0-1.154-0.096-1.363-0.287
			c-0.208-0.189-0.313-0.559-0.313-1.105c0-0.486,0.091-0.967,0.275-1.443s0.471-0.941,0.863-1.393
			c0.391-0.452,0.962-0.82,1.712-1.105c0.75-0.283,1.625-0.426,2.625-0.426c3.533,0,5.3,1.497,5.3,4.49
			c0,0.996-0.172,1.864-0.518,2.604c-0.345,0.738-0.828,1.249-1.451,1.531c1.695,0.666,2.543,1.925,2.543,3.775v0.475
			c0,1.9-0.554,3.3-1.663,4.199c-1.108,0.9-2.554,1.351-4.337,1.351c-1.884,0-3.313-0.466-4.288-1.399
			S499.461,474.707,499.461,473.541z"/>
		<path fill="#19181C" d="M513.137,472.365v-6.975c0-1.982,0.528-3.434,1.587-4.35s2.479-1.375,4.263-1.375s3.208,0.459,4.275,1.375
			c1.066,0.916,1.6,2.367,1.6,4.35v6.975c0,1.984-0.533,3.434-1.6,4.351c-1.067,0.917-2.492,1.375-4.275,1.375
			s-3.204-0.458-4.263-1.375S513.137,474.35,513.137,472.365z M516.387,472.365c0,1.918,0.866,2.875,2.6,2.875
			c1.75,0,2.625-0.957,2.625-2.875v-6.975c0-1.916-0.875-2.875-2.625-2.875c-1.733,0-2.6,0.959-2.6,2.875V472.365z M518.161,469.935
			c-0.217-0.237-0.325-0.548-0.325-0.933c0-0.383,0.104-0.689,0.313-0.918c0.209-0.229,0.496-0.344,0.863-0.344
			c0.35,0,0.629,0.115,0.837,0.344s0.313,0.535,0.313,0.918c0,0.385-0.104,0.695-0.313,0.933s-0.487,0.356-0.837,0.356
			C518.661,470.291,518.378,470.172,518.161,469.935z"/>
	</g>
</g>
</svg>
