<?xml version="1.0" encoding="utf-8"?>
<!-- Generator: Adobe Illustrator 16.0.0, SVG Export Plug-In . SVG Version: 6.00 Build 0)  -->
<!DOCTYPE svg PUBLIC "-//W3C//DTD SVG 1.1//EN" "http://www.w3.org/Graphics/SVG/1.1/DTD/svg11.dtd" [
	<!ENTITY ns_extend "http://ns.adobe.com/Extensibility/1.0/">
	<!ENTITY ns_ai "http://ns.adobe.com/AdobeIllustrator/10.0/">
	<!ENTITY ns_graphs "http://ns.adobe.com/Graphs/1.0/">
	<!ENTITY ns_vars "http://ns.adobe.com/Variables/1.0/">
	<!ENTITY ns_imrep "http://ns.adobe.com/ImageReplacement/1.0/">
	<!ENTITY ns_sfw "http://ns.adobe.com/SaveForWeb/1.0/">
	<!ENTITY ns_custom "http://ns.adobe.com/GenericCustomNamespace/1.0/">
	<!ENTITY ns_adobe_xpath "http://ns.adobe.com/XPath/1.0/">
]>
<svg version="1.1" xmlns:x="&ns_extend;" xmlns:i="&ns_ai;" xmlns:graph="&ns_graphs;"
	 xmlns="http://www.w3.org/2000/svg" xmlns:xlink="http://www.w3.org/1999/xlink" x="0px" y="0px" width="1024px" height="800px"
	 viewBox="0 0 1024 800" enable-background="new 0 0 1024 800" xml:space="preserve">
<metadata>
	<sfw  xmlns="&ns_sfw;">
		<slices></slices>
		<sliceSourceBounds  width="964.46" height="180.749" y="-295.315" x="-232.229" bottomLeftOrigin="true"></sliceSourceBounds>
	</sfw>
</metadata>
<g id="background">
</g>
<g id="desenho">
	<circle fill="#C0504D" cx="99.615" cy="363.716" r="49.149"/>
	<circle fill="#C0504D" cx="378.077" cy="363.716" r="49.149"/>
	<circle fill="#C0504D" cx="654.04" cy="363.716" r="49.149"/>
	<circle fill="#C0504D" cx="930.004" cy="363.716" r="49.149"/>
</g>
<g id="TEXTO">
	<g>
		<path fill="#FFFFFF" d="M88.772,377.64v-23.413c0-0.824,0.231-1.436,0.693-1.835c0.461-0.399,1.042-0.6,1.742-0.6
			c0.924,0,1.635,0.163,2.135,0.487c0.5,0.325,1.049,1.024,1.648,2.098l4.607,8.391l4.608-8.391c0.6-1.073,1.155-1.773,1.667-2.098
			c0.512-0.324,1.23-0.487,2.154-0.487c0.699,0,1.279,0.2,1.742,0.6c0.462,0.4,0.693,1.011,0.693,1.835v23.413
			c0,0.475-0.243,0.85-0.73,1.124c-0.487,0.275-1.055,0.412-1.704,0.412c-0.674,0-1.25-0.137-1.724-0.412
			c-0.475-0.274-0.711-0.649-0.711-1.124v-16.108l-4.383,7.792c-0.35,0.649-0.899,0.974-1.648,0.974
			c-0.725,0-1.262-0.324-1.611-0.974l-4.308-8.092v16.408c0,0.475-0.244,0.85-0.73,1.124c-0.487,0.275-1.056,0.412-1.705,0.412
			c-0.674,0-1.249-0.137-1.723-0.412C89.009,378.489,88.772,378.115,88.772,377.64z"/>
	</g>
	<g>
		<path fill="#19181C" d="M30.22,439.609c0-0.56,0.131-1.052,0.393-1.479c0.262-0.426,0.643-0.639,1.143-0.639h15.846
			c0.499,0,0.88,0.213,1.143,0.639c0.262,0.427,0.393,0.919,0.393,1.479c0,0.584-0.137,1.088-0.412,1.515
			c-0.275,0.426-0.65,0.639-1.124,0.639h-5.469v21.569c0,0.478-0.244,0.854-0.73,1.13c-0.487,0.276-1.056,0.414-1.705,0.414
			c-0.674,0-1.249-0.138-1.723-0.414c-0.475-0.276-0.712-0.652-0.712-1.13v-21.569h-5.507c-0.475,0-0.849-0.207-1.124-0.621
			C30.357,440.729,30.22,440.218,30.22,439.609z"/>
		<path fill="#19181C" d="M74.012,451.97c0-0.548,0.137-1.006,0.412-1.375c0.274-0.368,0.637-0.554,1.086-0.554h9.665
			c0.399,0,0.761,0.191,1.086,0.571c0.324,0.382,0.487,0.834,0.487,1.357c0,0.548-0.156,1-0.468,1.357
			c-0.313,0.356-0.681,0.535-1.105,0.535H75.51c-0.45,0-0.812-0.172-1.086-0.518C74.149,453,74.012,452.541,74.012,451.97z
			 M74.012,459.574c0-0.548,0.137-1.006,0.412-1.375c0.274-0.368,0.637-0.554,1.086-0.554h9.665c0.399,0,0.761,0.191,1.086,0.571
			c0.324,0.382,0.487,0.834,0.487,1.357c0,0.548-0.156,1-0.468,1.357c-0.313,0.356-0.681,0.535-1.105,0.535H75.51
			c-0.45,0-0.812-0.172-1.086-0.518C74.149,460.604,74.012,460.146,74.012,459.574z"/>
		<path fill="#19181C" d="M90.045,455.979c0-0.548,0.137-1.006,0.412-1.375c0.274-0.369,0.637-0.554,1.086-0.554h9.74
			c0.399,0,0.762,0.19,1.086,0.571c0.324,0.381,0.487,0.833,0.487,1.357c0,0.548-0.156,1-0.468,1.356
			c-0.313,0.357-0.681,0.536-1.105,0.536h-9.74c-0.45,0-0.812-0.173-1.086-0.518C90.182,457.008,90.045,456.55,90.045,455.979z"/>
		<path fill="#19181C" d="M104.28,442.924c0-0.773,0.312-1.361,0.937-1.761l4.42-3.371c0.3-0.25,0.637-0.375,1.012-0.375
			c0.549,0,1.049,0.149,1.498,0.449c0.45,0.3,0.674,0.675,0.674,1.124v24.35c0,0.475-0.243,0.85-0.73,1.124
			c-0.487,0.275-1.055,0.412-1.704,0.412c-0.674,0-1.25-0.137-1.724-0.412c-0.475-0.274-0.711-0.649-0.711-1.124v-20.004
			l-1.199,1.198c-0.25,0.226-0.55,0.338-0.899,0.338c-0.449,0-0.824-0.2-1.124-0.6S104.28,443.424,104.28,442.924z"/>
		<path fill="#19181C" d="M116.679,456.522V446.07c0-2.972,0.792-5.145,2.379-6.519c1.585-1.373,3.714-2.06,6.387-2.06
			c2.672,0,4.807,0.687,6.406,2.06c1.598,1.374,2.397,3.547,2.397,6.519v10.452c0,2.972-0.799,5.145-2.397,6.518
			c-1.599,1.374-3.734,2.061-6.406,2.061c-2.673,0-4.802-0.687-6.387-2.061C117.472,461.667,116.679,459.494,116.679,456.522z
			 M121.549,456.522c0,2.872,1.298,4.308,3.896,4.308c2.622,0,3.933-1.436,3.933-4.308V446.07c0-2.871-1.311-4.308-3.933-4.308
			c-2.598,0-3.896,1.437-3.896,4.308V456.522z M124.209,452.879c-0.325-0.355-0.487-0.821-0.487-1.397
			c0-0.574,0.155-1.033,0.468-1.376c0.312-0.342,0.743-0.514,1.292-0.514c0.525,0,0.942,0.172,1.255,0.514
			c0.312,0.343,0.468,0.802,0.468,1.376c0,0.576-0.156,1.042-0.468,1.397c-0.313,0.356-0.73,0.534-1.255,0.534
			C124.958,453.413,124.533,453.235,124.209,452.879z"/>
		<path fill="#19181C" d="M136.982,443.561V441.5c0-1.373,0.512-2.565,1.537-3.577s2.279-1.518,3.765-1.518
			c1.485,0,2.746,0.5,3.783,1.499c1.036,0.999,1.555,2.197,1.555,3.596v2.061c0,1.349-0.534,2.542-1.602,3.577
			c-1.067,1.037-2.313,1.555-3.737,1.555c-1.399,0-2.632-0.518-3.7-1.555C137.516,446.103,136.982,444.909,136.982,443.561z
			 M140.092,443.561c0,0.6,0.214,1.13,0.642,1.592c0.429,0.463,0.945,0.693,1.549,0.693s1.127-0.23,1.568-0.693
			c0.44-0.462,0.661-0.992,0.661-1.592V441.5c0-0.6-0.221-1.124-0.661-1.573c-0.441-0.449-0.963-0.674-1.568-0.674
			s-1.121,0.225-1.549,0.674c-0.428,0.449-0.642,0.974-0.642,1.573V443.561z"/>
		<path fill="#19181C" d="M150.843,456.522V446.07c0-2.946,0.799-5.113,2.397-6.499c1.598-1.387,3.684-2.079,6.256-2.079
			c2.622,0,4.763,0.649,6.424,1.947c1.661,1.299,2.491,3.022,2.491,5.17c0,0.925-0.188,1.555-0.562,1.892
			c-0.375,0.338-0.999,0.506-1.873,0.506c-1.599,0-2.41-0.512-2.435-1.536c-0.025-0.324-0.056-0.604-0.093-0.843
			c-0.038-0.236-0.138-0.549-0.3-0.937c-0.163-0.387-0.369-0.712-0.618-0.974c-0.25-0.263-0.625-0.487-1.124-0.675
			c-0.5-0.187-1.086-0.28-1.761-0.28c-2.622,0-3.933,1.437-3.933,4.308v10.452c0,2.872,1.335,4.308,4.008,4.308
			c0.799,0,1.467-0.125,2.004-0.375c0.537-0.249,0.924-0.604,1.162-1.067c0.237-0.462,0.399-0.874,0.487-1.236
			c0.087-0.361,0.144-0.805,0.168-1.329c0.075-1.024,0.874-1.536,2.398-1.536c0.874,0,1.504,0.168,1.892,0.506
			c0.387,0.337,0.581,0.968,0.581,1.892c0,2.247-0.831,4.046-2.491,5.395c-1.661,1.349-3.815,2.022-6.462,2.022
			c-2.573,0-4.652-0.693-6.237-2.079C151.636,461.636,150.843,459.47,150.843,456.522z"/>
	</g>
	<g>
		<path fill="#19181C" d="M49.111,484.901v-23.413c0-0.824,0.231-1.436,0.693-1.836c0.461-0.398,1.042-0.599,1.742-0.599
			c0.924,0,1.635,0.162,2.135,0.486c0.5,0.325,1.049,1.024,1.648,2.099l4.607,8.391l4.608-8.391c0.6-1.074,1.155-1.773,1.667-2.099
			c0.512-0.324,1.23-0.486,2.154-0.486c0.699,0,1.279,0.2,1.742,0.599c0.462,0.4,0.693,1.012,0.693,1.836v23.413
			c0,0.475-0.243,0.85-0.73,1.124c-0.487,0.275-1.055,0.412-1.704,0.412c-0.674,0-1.25-0.137-1.724-0.412
			c-0.475-0.274-0.711-0.649-0.711-1.124v-16.108l-4.383,7.792c-0.35,0.65-0.899,0.975-1.648,0.975
			c-0.725,0-1.262-0.324-1.611-0.975l-4.308-8.092v16.408c0,0.475-0.244,0.85-0.73,1.124c-0.487,0.275-1.056,0.412-1.705,0.412
			c-0.674,0-1.249-0.137-1.723-0.412C49.349,485.751,49.111,485.376,49.111,484.901z"/>
	</g>
	<g>
		<path fill="#19181C" d="M304.58,439.609c0-0.56,0.131-1.052,0.393-1.479c0.262-0.426,0.643-0.639,1.143-0.639h15.846
			c0.499,0,0.88,0.213,1.143,0.639c0.262,0.427,0.393,0.919,0.393,1.479c0,0.584-0.137,1.088-0.412,1.515
			c-0.275,0.426-0.65,0.639-1.124,0.639h-5.469v21.569c0,0.478-0.244,0.854-0.73,1.13c-0.487,0.276-1.056,0.414-1.705,0.414
			c-0.674,0-1.249-0.138-1.723-0.414c-0.475-0.276-0.712-0.652-0.712-1.13v-21.569h-5.507c-0.475,0-0.849-0.207-1.124-0.621
			C304.716,440.729,304.58,440.218,304.58,439.609z"/>
		<path fill="#19181C" d="M348.371,451.97c0-0.548,0.137-1.006,0.412-1.375c0.274-0.368,0.637-0.554,1.086-0.554h9.665
			c0.399,0,0.761,0.191,1.086,0.571c0.324,0.382,0.487,0.834,0.487,1.357c0,0.548-0.156,1-0.468,1.357
			c-0.313,0.356-0.681,0.535-1.105,0.535h-9.665c-0.45,0-0.812-0.172-1.086-0.518C348.508,453,348.371,452.541,348.371,451.97z
			 M348.371,459.574c0-0.548,0.137-1.006,0.412-1.375c0.274-0.368,0.637-0.554,1.086-0.554h9.665c0.399,0,0.761,0.191,1.086,0.571
			c0.324,0.382,0.487,0.834,0.487,1.357c0,0.548-0.156,1-0.468,1.357c-0.313,0.356-0.681,0.535-1.105,0.535h-9.665
			c-0.45,0-0.812-0.172-1.086-0.518C348.508,460.604,348.371,460.146,348.371,459.574z"/>
		<path fill="#19181C" d="M364.404,455.979c0-0.548,0.137-1.006,0.412-1.375c0.274-0.369,0.637-0.554,1.086-0.554h9.74
			c0.399,0,0.762,0.19,1.086,0.571c0.324,0.381,0.487,0.833,0.487,1.357c0,0.548-0.156,1-0.468,1.356
			c-0.313,0.357-0.681,0.536-1.105,0.536h-9.74c-0.45,0-0.812-0.173-1.086-0.518C364.541,457.008,364.404,456.55,364.404,455.979z"
			/>
		<path fill="#19181C" d="M379.838,463.332v-3.651c0-1.104,0.377-2.196,1.131-3.275c0.754-1.079,1.668-2.059,2.743-2.937
			l3.594-2.605c1.18-0.881,2.185-1.813,3.014-2.795c0.829-0.981,1.243-1.963,1.243-2.945c0-0.881-0.296-1.661-0.886-2.341
			s-1.463-1.02-2.618-1.02c-0.979,0-1.783,0.283-2.41,0.849c-0.628,0.565-0.942,1.414-0.942,2.545c0,0.488-0.228,0.919-0.682,1.292
			s-1.063,0.559-1.825,0.559c-1.451,0-2.176-0.874-2.176-2.622c0-2.048,0.793-3.709,2.38-4.982c1.587-1.273,3.459-1.91,5.617-1.91
			c2.278,0,4.249,0.682,5.914,2.045c1.665,1.363,2.497,3.176,2.497,5.436c0,1.511-0.407,2.927-1.221,4.248
			c-0.814,1.321-1.81,2.441-2.986,3.36c-1.177,0.919-2.348,1.769-3.512,2.549c-1.165,0.781-2.154,1.562-2.97,2.342
			s-1.224,1.522-1.224,2.228v0.906h10.447c0.4,0,0.757,0.206,1.07,0.618c0.313,0.412,0.47,0.905,0.47,1.479
			c0,0.575-0.153,1.081-0.459,1.518c-0.306,0.437-0.655,0.655-1.046,0.655h-13.072c-0.465,0-0.931-0.15-1.396-0.452
			C380.07,464.123,379.838,463.759,379.838,463.332z"/>
		<path fill="#19181C" d="M399.242,456.522V446.07c0-2.972,0.792-5.145,2.379-6.519c1.585-1.373,3.714-2.06,6.387-2.06
			c2.672,0,4.807,0.687,6.406,2.06c1.598,1.374,2.397,3.547,2.397,6.519v10.452c0,2.972-0.799,5.145-2.397,6.518
			c-1.599,1.374-3.734,2.061-6.406,2.061c-2.673,0-4.802-0.687-6.387-2.061C400.035,461.667,399.242,459.494,399.242,456.522z
			 M404.112,456.522c0,2.872,1.298,4.308,3.896,4.308c2.622,0,3.933-1.436,3.933-4.308V446.07c0-2.871-1.311-4.308-3.933-4.308
			c-2.598,0-3.896,1.437-3.896,4.308V456.522z M406.772,452.879c-0.325-0.355-0.487-0.821-0.487-1.397
			c0-0.574,0.155-1.033,0.468-1.376c0.312-0.342,0.743-0.514,1.292-0.514c0.525,0,0.942,0.172,1.255,0.514
			c0.312,0.343,0.468,0.802,0.468,1.376c0,0.576-0.156,1.042-0.468,1.397c-0.313,0.356-0.73,0.534-1.255,0.534
			C407.521,453.413,407.096,453.235,406.772,452.879z"/>
		<path fill="#19181C" d="M419.546,443.561V441.5c0-1.373,0.512-2.565,1.537-3.577s2.279-1.518,3.765-1.518
			c1.485,0,2.746,0.5,3.783,1.499c1.036,0.999,1.555,2.197,1.555,3.596v2.061c0,1.349-0.534,2.542-1.602,3.577
			c-1.067,1.037-2.313,1.555-3.737,1.555c-1.399,0-2.632-0.518-3.7-1.555C420.08,446.103,419.546,444.909,419.546,443.561z
			 M422.655,443.561c0,0.6,0.214,1.13,0.642,1.592c0.429,0.463,0.945,0.693,1.549,0.693s1.127-0.23,1.568-0.693
			c0.44-0.462,0.661-0.992,0.661-1.592V441.5c0-0.6-0.221-1.124-0.661-1.573c-0.441-0.449-0.963-0.674-1.568-0.674
			s-1.121,0.225-1.549,0.674c-0.428,0.449-0.642,0.974-0.642,1.573V443.561z"/>
		<path fill="#19181C" d="M433.406,456.522V446.07c0-2.946,0.799-5.113,2.397-6.499c1.598-1.387,3.684-2.079,6.256-2.079
			c2.622,0,4.763,0.649,6.424,1.947c1.661,1.299,2.491,3.022,2.491,5.17c0,0.925-0.188,1.555-0.562,1.892
			c-0.375,0.338-0.999,0.506-1.873,0.506c-1.599,0-2.41-0.512-2.435-1.536c-0.025-0.324-0.056-0.604-0.093-0.843
			c-0.038-0.236-0.138-0.549-0.3-0.937c-0.163-0.387-0.369-0.712-0.618-0.974c-0.25-0.263-0.625-0.487-1.124-0.675
			c-0.5-0.187-1.086-0.28-1.761-0.28c-2.622,0-3.933,1.437-3.933,4.308v10.452c0,2.872,1.335,4.308,4.008,4.308
			c0.799,0,1.467-0.125,2.004-0.375c0.537-0.249,0.924-0.604,1.162-1.067c0.237-0.462,0.399-0.874,0.487-1.236
			c0.087-0.361,0.144-0.805,0.168-1.329c0.075-1.024,0.874-1.536,2.398-1.536c0.874,0,1.504,0.168,1.892,0.506
			c0.387,0.337,0.581,0.968,0.581,1.892c0,2.247-0.831,4.046-2.491,5.395c-1.661,1.349-3.815,2.022-6.462,2.022
			c-2.573,0-4.652-0.693-6.237-2.079C434.199,461.636,433.406,459.47,433.406,456.522z"/>
	</g>
	<g>
		<path fill="#19181C" d="M323.284,484.901v-24.313c0-0.499,0.237-0.88,0.712-1.143c0.474-0.262,1.049-0.393,1.723-0.393
			c0.899,0,1.585,0.162,2.061,0.486c0.474,0.325,0.999,1.024,1.573,2.099l7.23,13.973v-15.06c0-0.499,0.237-0.874,0.712-1.124
			c0.474-0.249,1.049-0.374,1.723-0.374s1.249,0.125,1.723,0.374c0.474,0.25,0.712,0.625,0.712,1.124v24.35
			c0,0.475-0.244,0.85-0.73,1.124c-0.487,0.275-1.056,0.412-1.705,0.412c-1.324,0-2.261-0.512-2.81-1.536l-8.054-15.06v15.06
			c0,0.475-0.244,0.85-0.73,1.124c-0.487,0.275-1.056,0.412-1.705,0.412c-0.674,0-1.249-0.137-1.723-0.412
			C323.521,485.751,323.284,485.376,323.284,484.901z"/>
	</g>
	<g>
		<path fill="#19181C" d="M597.046,439.609c0-0.56,0.132-1.052,0.394-1.479c0.263-0.426,0.643-0.639,1.143-0.639h15.846
			c0.5,0,0.881,0.213,1.143,0.639c0.263,0.427,0.394,0.919,0.394,1.479c0,0.584-0.138,1.088-0.412,1.515
			c-0.274,0.426-0.649,0.639-1.124,0.639h-5.469v21.569c0,0.478-0.243,0.854-0.73,1.13s-1.056,0.414-1.705,0.414
			c-0.674,0-1.249-0.138-1.723-0.414c-0.475-0.276-0.712-0.652-0.712-1.13v-21.569h-5.507c-0.475,0-0.85-0.207-1.124-0.621
			C597.184,440.729,597.046,440.218,597.046,439.609z"/>
		<path fill="#19181C" d="M640.838,451.97c0-0.548,0.137-1.006,0.412-1.375c0.274-0.368,0.637-0.554,1.086-0.554h9.665
			c0.399,0,0.762,0.191,1.087,0.571c0.324,0.382,0.487,0.834,0.487,1.357c0,0.548-0.156,1-0.469,1.357
			c-0.313,0.356-0.681,0.535-1.105,0.535h-9.665c-0.449,0-0.812-0.172-1.086-0.518C640.975,453,640.838,452.541,640.838,451.97z
			 M640.838,459.574c0-0.548,0.137-1.006,0.412-1.375c0.274-0.368,0.637-0.554,1.086-0.554h9.665c0.399,0,0.762,0.191,1.087,0.571
			c0.324,0.382,0.487,0.834,0.487,1.357c0,0.548-0.156,1-0.469,1.357c-0.313,0.356-0.681,0.535-1.105,0.535h-9.665
			c-0.449,0-0.812-0.172-1.086-0.518C640.975,460.604,640.838,460.146,640.838,459.574z"/>
		<path fill="#19181C" d="M656.871,455.979c0-0.548,0.137-1.006,0.412-1.375c0.274-0.369,0.637-0.554,1.086-0.554h9.74
			c0.399,0,0.762,0.19,1.086,0.571c0.325,0.381,0.487,0.833,0.487,1.357c0,0.548-0.156,1-0.468,1.356
			c-0.313,0.357-0.681,0.536-1.105,0.536h-9.74c-0.449,0-0.812-0.173-1.086-0.518C657.008,457.008,656.871,456.55,656.871,455.979z"
			/>
		<path fill="#19181C" d="M671.105,442.924c0-0.773,0.313-1.361,0.937-1.761l4.421-3.371c0.299-0.25,0.637-0.375,1.011-0.375
			c0.55,0,1.049,0.149,1.499,0.449c0.449,0.3,0.674,0.675,0.674,1.124v24.35c0,0.475-0.243,0.85-0.73,1.124
			c-0.486,0.275-1.055,0.412-1.704,0.412c-0.675,0-1.249-0.137-1.724-0.412c-0.475-0.274-0.712-0.649-0.712-1.124v-20.004
			l-1.198,1.198c-0.25,0.226-0.55,0.338-0.899,0.338c-0.449,0-0.824-0.2-1.124-0.6C671.256,443.873,671.105,443.424,671.105,442.924
			z"/>
		<path fill="#19181C" d="M683.506,456.522V446.07c0-2.972,0.792-5.145,2.378-6.519c1.586-1.373,3.715-2.06,6.388-2.06
			c2.672,0,4.808,0.687,6.405,2.06c1.599,1.374,2.398,3.547,2.398,6.519v10.452c0,2.972-0.8,5.145-2.398,6.518
			c-1.598,1.374-3.733,2.061-6.405,2.061c-2.673,0-4.802-0.687-6.388-2.061C684.298,461.667,683.506,459.494,683.506,456.522z
			 M688.375,456.522c0,2.872,1.299,4.308,3.896,4.308c2.622,0,3.934-1.436,3.934-4.308V446.07c0-2.871-1.312-4.308-3.934-4.308
			c-2.598,0-3.896,1.437-3.896,4.308V456.522z M691.035,452.879c-0.325-0.355-0.487-0.821-0.487-1.397
			c0-0.574,0.156-1.033,0.469-1.376c0.312-0.342,0.742-0.514,1.292-0.514c0.524,0,0.942,0.172,1.255,0.514
			c0.313,0.343,0.469,0.802,0.469,1.376c0,0.576-0.156,1.042-0.469,1.397c-0.313,0.356-0.73,0.534-1.255,0.534
			S691.359,453.235,691.035,452.879z"/>
		<path fill="#19181C" d="M703.81,443.561V441.5c0-1.373,0.512-2.565,1.536-3.577s2.279-1.518,3.765-1.518
			c1.486,0,2.747,0.5,3.783,1.499s1.555,2.197,1.555,3.596v2.061c0,1.349-0.534,2.542-1.602,3.577
			c-1.067,1.037-2.313,1.555-3.736,1.555c-1.399,0-2.633-0.518-3.7-1.555C704.343,446.103,703.81,444.909,703.81,443.561z
			 M706.919,443.561c0,0.6,0.213,1.13,0.642,1.592c0.429,0.463,0.945,0.693,1.55,0.693c0.604,0,1.126-0.23,1.567-0.693
			c0.44-0.462,0.661-0.992,0.661-1.592V441.5c0-0.6-0.221-1.124-0.661-1.573c-0.441-0.449-0.964-0.674-1.567-0.674
			c-0.604,0-1.121,0.225-1.55,0.674s-0.642,0.974-0.642,1.573V443.561z"/>
		<path fill="#19181C" d="M717.669,456.522V446.07c0-2.946,0.799-5.113,2.397-6.499c1.598-1.387,3.684-2.079,6.256-2.079
			c2.623,0,4.764,0.649,6.425,1.947c1.661,1.299,2.491,3.022,2.491,5.17c0,0.925-0.188,1.555-0.562,1.892
			c-0.375,0.338-1,0.506-1.873,0.506c-1.599,0-2.411-0.512-2.436-1.536c-0.025-0.324-0.056-0.604-0.094-0.843
			c-0.037-0.236-0.138-0.549-0.3-0.937c-0.162-0.387-0.368-0.712-0.618-0.974c-0.249-0.263-0.624-0.487-1.123-0.675
			c-0.5-0.187-1.087-0.28-1.761-0.28c-2.622,0-3.934,1.437-3.934,4.308v10.452c0,2.872,1.336,4.308,4.008,4.308
			c0.8,0,1.468-0.125,2.005-0.375c0.536-0.249,0.924-0.604,1.161-1.067c0.237-0.462,0.399-0.874,0.487-1.236
			c0.087-0.361,0.143-0.805,0.168-1.329c0.075-1.024,0.874-1.536,2.397-1.536c0.874,0,1.505,0.168,1.892,0.506
			c0.388,0.337,0.581,0.968,0.581,1.892c0,2.247-0.83,4.046-2.491,5.395s-3.815,2.022-6.462,2.022c-2.572,0-4.651-0.693-6.237-2.079
			S717.669,459.47,717.669,456.522z"/>
	</g>
	<g>
		<path fill="#19181C" d="M616.329,484.901v-24.35c0-0.399,0.168-0.749,0.505-1.049c0.338-0.3,0.78-0.449,1.33-0.449h7.53
			c2.571,0,4.632,0.681,6.181,2.041c1.548,1.361,2.322,3.49,2.322,6.388v0.225c0,2.922-0.805,5.07-2.416,6.443
			c-1.61,1.374-3.74,2.061-6.387,2.061h-4.196v8.69c0,0.475-0.243,0.85-0.73,1.124c-0.486,0.275-1.055,0.412-1.704,0.412
			c-0.674,0-1.249-0.137-1.724-0.412C616.565,485.751,616.329,485.376,616.329,484.901z M621.198,472.39h4.196
			c1.248,0,2.216-0.361,2.903-1.087c0.687-0.724,1.03-1.798,1.03-3.222v-0.449c0-1.424-0.344-2.497-1.03-3.222
			c-0.688-0.724-1.655-1.086-2.903-1.086h-4.196V472.39z"/>
	</g>
	<g>
		<path fill="#19181C" d="M866.228,439.609c0-0.56,0.132-1.052,0.394-1.479c0.263-0.426,0.643-0.639,1.143-0.639h15.846
			c0.5,0,0.881,0.213,1.143,0.639c0.263,0.427,0.394,0.919,0.394,1.479c0,0.584-0.138,1.088-0.412,1.515
			c-0.274,0.426-0.649,0.639-1.124,0.639h-5.469v21.569c0,0.478-0.243,0.854-0.73,1.13s-1.056,0.414-1.705,0.414
			c-0.674,0-1.249-0.138-1.723-0.414c-0.475-0.276-0.712-0.652-0.712-1.13v-21.569h-5.507c-0.475,0-0.85-0.207-1.124-0.621
			C866.365,440.729,866.228,440.218,866.228,439.609z"/>
		<path fill="#19181C" d="M910.02,451.97c0-0.548,0.137-1.006,0.412-1.375c0.274-0.368,0.637-0.554,1.086-0.554h9.665
			c0.399,0,0.762,0.191,1.087,0.571c0.324,0.382,0.487,0.834,0.487,1.357c0,0.548-0.156,1-0.469,1.357
			c-0.313,0.356-0.681,0.535-1.105,0.535h-9.665c-0.449,0-0.812-0.172-1.086-0.518C910.156,453,910.02,452.541,910.02,451.97z
			 M910.02,459.574c0-0.548,0.137-1.006,0.412-1.375c0.274-0.368,0.637-0.554,1.086-0.554h9.665c0.399,0,0.762,0.191,1.087,0.571
			c0.324,0.382,0.487,0.834,0.487,1.357c0,0.548-0.156,1-0.469,1.357c-0.313,0.356-0.681,0.535-1.105,0.535h-9.665
			c-0.449,0-0.812-0.172-1.086-0.518C910.156,460.604,910.02,460.146,910.02,459.574z"/>
		<path fill="#19181C" d="M926.053,455.979c0-0.548,0.137-1.006,0.412-1.375c0.274-0.369,0.637-0.554,1.086-0.554h9.74
			c0.399,0,0.762,0.19,1.086,0.571c0.325,0.381,0.487,0.833,0.487,1.357c0,0.548-0.156,1-0.468,1.356
			c-0.313,0.357-0.681,0.536-1.105,0.536h-9.74c-0.449,0-0.812-0.173-1.086-0.518C926.189,457.008,926.053,456.55,926.053,455.979z"
			/>
		<path fill="#19181C" d="M941.898,456.522V446.07c0-2.972,0.817-5.145,2.453-6.519c1.636-1.373,3.827-2.06,6.574-2.06
			c2.772,0,4.889,0.692,6.35,2.079c1.461,1.386,2.192,2.978,2.192,4.776c0,0.749-0.182,1.273-0.544,1.573s-0.942,0.449-1.741,0.449
			c-1.699,0-2.548-0.611-2.548-1.836c0-0.849-0.369-1.522-1.105-2.022c-0.736-0.499-1.642-0.749-2.716-0.749
			c-2.722,0-4.083,1.437-4.083,4.308v4.083c1.073-1.273,2.734-1.91,4.982-1.91c2.347,0,4.227,0.6,5.638,1.798
			c1.411,1.199,2.117,3.185,2.117,5.957v0.524c0,2.972-0.794,5.145-2.379,6.518c-1.587,1.374-3.716,2.061-6.388,2.061
			c-2.673,0-4.808-0.687-6.405-2.061C942.697,461.667,941.898,459.494,941.898,456.522z M946.73,456.9
			c0,2.92,1.323,4.379,3.971,4.379c2.598,0,3.896-1.459,3.896-4.379v-0.495c0-2.894-1.312-4.341-3.934-4.341
			s-3.934,1.333-3.934,3.998V456.9z"/>
		<path fill="#19181C" d="M961.753,443.561V441.5c0-1.373,0.512-2.565,1.536-3.577s2.279-1.518,3.765-1.518
			c1.486,0,2.747,0.5,3.783,1.499s1.555,2.197,1.555,3.596v2.061c0,1.349-0.534,2.542-1.602,3.577
			c-1.067,1.037-2.313,1.555-3.736,1.555c-1.399,0-2.633-0.518-3.7-1.555C962.286,446.103,961.753,444.909,961.753,443.561z
			 M964.862,443.561c0,0.6,0.213,1.13,0.642,1.592c0.429,0.463,0.945,0.693,1.55,0.693c0.604,0,1.126-0.23,1.567-0.693
			c0.44-0.462,0.661-0.992,0.661-1.592V441.5c0-0.6-0.221-1.124-0.661-1.573c-0.441-0.449-0.964-0.674-1.567-0.674
			c-0.604,0-1.121,0.225-1.55,0.674s-0.642,0.974-0.642,1.573V443.561z"/>
		<path fill="#19181C" d="M975.613,456.522V446.07c0-2.946,0.799-5.113,2.397-6.499c1.598-1.387,3.684-2.079,6.256-2.079
			c2.623,0,4.764,0.649,6.425,1.947c1.661,1.299,2.491,3.022,2.491,5.17c0,0.925-0.188,1.555-0.562,1.892
			c-0.375,0.338-1,0.506-1.873,0.506c-1.599,0-2.411-0.512-2.436-1.536c-0.025-0.324-0.056-0.604-0.094-0.843
			c-0.037-0.236-0.138-0.549-0.3-0.937c-0.162-0.387-0.368-0.712-0.618-0.974c-0.249-0.263-0.624-0.487-1.123-0.675
			c-0.5-0.187-1.087-0.28-1.761-0.28c-2.622,0-3.934,1.437-3.934,4.308v10.452c0,2.872,1.336,4.308,4.008,4.308
			c0.8,0,1.468-0.125,2.005-0.375c0.536-0.249,0.924-0.604,1.161-1.067c0.237-0.462,0.399-0.874,0.487-1.236
			c0.087-0.361,0.143-0.805,0.168-1.329c0.075-1.024,0.874-1.536,2.397-1.536c0.874,0,1.505,0.168,1.892,0.506
			c0.388,0.337,0.581,0.968,0.581,1.892c0,2.247-0.83,4.046-2.491,5.395s-3.815,2.022-6.462,2.022c-2.572,0-4.651-0.693-6.237-2.079
			S975.613,459.47,975.613,456.522z"/>
	</g>
	<g>
		<path fill="#19181C" d="M886.867,478.084v-10.452c0-2.972,0.792-5.145,2.379-6.519c1.585-1.373,3.714-2.06,6.387-2.06
			c2.672,0,4.808,0.687,6.406,2.06c1.598,1.374,2.397,3.547,2.397,6.519v10.452c0,2.647-0.65,4.658-1.948,6.031
			c-1.299,1.373-3.072,2.186-5.319,2.435v2.435c0,0.475-0.15,0.85-0.45,1.124c-0.299,0.274-0.661,0.412-1.086,0.412
			s-0.793-0.138-1.105-0.412s-0.468-0.649-0.468-1.124v-2.435C889.265,486.025,886.867,483.203,886.867,478.084z M891.737,478.084
			c0,2.173,0.773,3.509,2.322,4.008v-1.985c0-0.499,0.155-0.874,0.468-1.124c0.313-0.249,0.681-0.374,1.105-0.374
			s0.787,0.125,1.086,0.374c0.3,0.25,0.45,0.625,0.45,1.124v1.985c1.598-0.524,2.397-1.86,2.397-4.008v-10.452
			c0-1.424-0.344-2.497-1.03-3.222c-0.688-0.724-1.655-1.086-2.903-1.086c-2.598,0-3.896,1.437-3.896,4.308V478.084z"/>
	</g>
	<g>
		<path fill="#FFFFFF" d="M368.992,377.64v-24.312c0-0.5,0.237-0.88,0.712-1.143c0.474-0.262,1.049-0.394,1.723-0.394
			c0.899,0,1.585,0.163,2.061,0.487c0.474,0.325,0.999,1.024,1.573,2.098l7.23,13.973v-15.06c0-0.499,0.237-0.874,0.712-1.124
			c0.474-0.25,1.049-0.375,1.723-0.375s1.249,0.125,1.723,0.375c0.474,0.25,0.712,0.625,0.712,1.124v24.35
			c0,0.475-0.244,0.85-0.73,1.124c-0.487,0.275-1.056,0.412-1.705,0.412c-1.324,0-2.261-0.512-2.81-1.536l-8.054-15.059v15.059
			c0,0.475-0.244,0.85-0.73,1.124c-0.487,0.275-1.056,0.412-1.705,0.412c-0.674,0-1.249-0.137-1.723-0.412
			C369.229,378.489,368.992,378.115,368.992,377.64z"/>
	</g>
	<g>
		<path fill="#FFFFFF" d="M645.856,377.64v-24.35c0-0.399,0.168-0.749,0.505-1.049c0.338-0.3,0.78-0.45,1.33-0.45h7.53
			c2.571,0,4.632,0.681,6.181,2.042c1.548,1.361,2.322,3.49,2.322,6.387v0.225c0,2.922-0.805,5.07-2.416,6.443
			c-1.61,1.374-3.74,2.06-6.387,2.06h-4.196v8.691c0,0.475-0.243,0.85-0.73,1.124c-0.486,0.275-1.055,0.412-1.704,0.412
			c-0.674,0-1.249-0.137-1.724-0.412C646.093,378.489,645.856,378.115,645.856,377.64z M650.726,365.128h4.196
			c1.248,0,2.216-0.362,2.903-1.086c0.687-0.724,1.03-1.798,1.03-3.222v-0.45c0-1.423-0.344-2.497-1.03-3.222
			c-0.688-0.724-1.655-1.086-2.903-1.086h-4.196V365.128z"/>
	</g>
	<g>
		<path fill="#FFFFFF" d="M921.238,370.822V360.37c0-2.972,0.792-5.145,2.379-6.518c1.585-1.373,3.714-2.061,6.387-2.061
			c2.672,0,4.808,0.688,6.406,2.061c1.598,1.374,2.397,3.546,2.397,6.518v10.452c0,2.647-0.65,4.658-1.948,6.031
			c-1.299,1.374-3.072,2.186-5.319,2.435v2.435c0,0.474-0.15,0.849-0.45,1.124c-0.299,0.274-0.661,0.412-1.086,0.412
			s-0.793-0.138-1.105-0.412c-0.313-0.275-0.468-0.65-0.468-1.124v-2.435C923.636,378.764,921.238,375.942,921.238,370.822z
			 M926.108,370.822c0,2.173,0.773,3.509,2.322,4.008v-1.985c0-0.499,0.155-0.874,0.468-1.124c0.313-0.25,0.681-0.375,1.105-0.375
			s0.787,0.125,1.086,0.375c0.3,0.25,0.45,0.625,0.45,1.124v1.985c1.598-0.524,2.397-1.86,2.397-4.008V360.37
			c0-1.423-0.344-2.497-1.03-3.222c-0.688-0.724-1.655-1.086-2.903-1.086c-2.598,0-3.896,1.436-3.896,4.308V370.822z"/>
	</g>
</g>
</svg>
