<?xml version="1.0" encoding="utf-8"?>
<!-- Generator: Adobe Illustrator 16.0.0, SVG Export Plug-In . SVG Version: 6.00 Build 0)  -->
<!DOCTYPE svg PUBLIC "-//W3C//DTD SVG 1.1//EN" "http://www.w3.org/Graphics/SVG/1.1/DTD/svg11.dtd" [
	<!ENTITY ns_extend "http://ns.adobe.com/Extensibility/1.0/">
	<!ENTITY ns_ai "http://ns.adobe.com/AdobeIllustrator/10.0/">
	<!ENTITY ns_graphs "http://ns.adobe.com/Graphs/1.0/">
	<!ENTITY ns_vars "http://ns.adobe.com/Variables/1.0/">
	<!ENTITY ns_imrep "http://ns.adobe.com/ImageReplacement/1.0/">
	<!ENTITY ns_sfw "http://ns.adobe.com/SaveForWeb/1.0/">
	<!ENTITY ns_custom "http://ns.adobe.com/GenericCustomNamespace/1.0/">
	<!ENTITY ns_adobe_xpath "http://ns.adobe.com/XPath/1.0/">
]>
<svg version="1.1" xmlns:x="&ns_extend;" xmlns:i="&ns_ai;" xmlns:graph="&ns_graphs;"
	 xmlns="http://www.w3.org/2000/svg" xmlns:xlink="http://www.w3.org/1999/xlink" x="0px" y="0px" width="1024px" height="800px"
	 viewBox="0 0 1024 800" enable-background="new 0 0 1024 800" xml:space="preserve">
<metadata>
	<sfw  xmlns="&ns_sfw;">
		<slices></slices>
		<sliceSourceBounds  width="971" height="456.697" y="-427.697" x="-235.5" bottomLeftOrigin="true"></sliceSourceBounds>
	</sfw>
</metadata>
<g id="background">
</g>
<g id="desenho">
	
		<polyline fill="none" stroke="#19181C" stroke-width="5" stroke-linecap="round" stroke-linejoin="round" stroke-miterlimit="10" points="
		518.5,576.408 518.5,565.908 518.5,282.368 518.5,230.408 	"/>
	<g>
		<path fill="#4D7CBB" d="M982.98,565.91H741.5v-104.5l0.66-0.71c10.93,10.08,22.39,19.74,34.53,28.7
			C862.05,552.38,982.98,565.91,982.98,565.91z"/>
	</g>
	<g>
		
			<polyline fill="none" stroke="#19181C" stroke-width="3" stroke-linecap="round" stroke-linejoin="round" stroke-miterlimit="10" points="
			28,565.91 518.5,565.91 741.5,565.91 982.98,565.91 996,565.91 		"/>
		<path fill="none" stroke="#C0504D" stroke-width="4" stroke-linecap="round" stroke-linejoin="round" stroke-miterlimit="10" d="
			M53.53,562.8c0,0,126.34-12.46,207.05-73.399C364.83,410.7,418.56,282.35,516,282.35c0.84,0,1.67,0.01,2.5,0.02
			c88.62,1.86,141.02,102.11,223.66,178.33c10.93,10.08,22.39,19.74,34.53,28.7c85.359,62.979,206.29,76.51,206.29,76.51"/>
		
			<polyline fill="none" stroke="#19181C" stroke-width="3" stroke-linecap="round" stroke-linejoin="round" stroke-miterlimit="10" points="
			741.5,576.41 741.5,565.91 741.5,461.41 		"/>
	</g>
</g>
<g id="texto">
	<g>
		<path d="M511.466,614.619v-0.357c0-2.865,1.191-4.736,3.573-5.611c-1.902-0.692-2.853-2.26-2.853-4.705
			c0-1.812,0.567-3.146,1.702-4.002c1.135-0.857,2.677-1.285,4.628-1.285c1.939,0,3.48,0.428,4.62,1.285
			c1.14,0.855,1.71,2.19,1.71,4.002c0,2.445-0.96,4.013-2.88,4.705c2.38,0.855,3.569,2.727,3.569,5.611v0.357
			c0,2.109-0.64,3.662-1.92,4.656c-1.279,0.995-2.979,1.492-5.1,1.492c-2.119,0-3.824-0.497-5.115-1.492
			C512.111,618.281,511.466,616.729,511.466,614.619z M515.365,614.201c0,2.338,1.051,3.507,3.15,3.507
			c2.08,0,3.12-1.169,3.12-3.507v-0.609c0-2.236-1.04-3.354-3.12-3.354c-2.1,0-3.15,1.117-3.15,3.354V614.201z M518.516,601.718
			c-1.721,0-2.58,0.911-2.58,2.729c0,1.82,0.859,2.73,2.58,2.73s2.58-0.91,2.58-2.73
			C521.096,602.629,520.236,601.718,518.516,601.718z"/>
	</g>
	<g>
		<path d="M510.476,202.36c0-0.2,0.08-0.44,0.24-0.72l5.19-8.46l-5.01-8.43c-0.18-0.3-0.27-0.58-0.27-0.84
			c0-0.5,0.265-0.93,0.795-1.29c0.53-0.36,1.095-0.54,1.695-0.54c0.561,0,0.99,0.28,1.29,0.84l4.08,7.35l4.08-7.35
			c0.319-0.56,0.76-0.84,1.319-0.84c0.601,0,1.166,0.18,1.695,0.54c0.53,0.36,0.795,0.791,0.795,1.29c0,0.26-0.09,0.54-0.27,0.84
			l-5.01,8.43l5.189,8.46c0.141,0.26,0.211,0.5,0.211,0.72c0,0.52-0.281,0.975-0.841,1.365s-1.13,0.585-1.71,0.585
			c-0.48,0-0.83-0.21-1.05-0.63l-4.41-7.71l-4.38,7.71c-0.24,0.42-0.6,0.63-1.08,0.63c-0.56,0-1.125-0.195-1.695-0.585
			C510.76,203.335,510.476,202.88,510.476,202.36z"/>
	</g>
	<g>
		<path d="M729.516,603.008c0-0.619,0.25-1.09,0.75-1.41l3.54-2.699c0.24-0.2,0.511-0.301,0.81-0.301c0.44,0,0.84,0.12,1.201,0.36
			c0.359,0.239,0.539,0.54,0.539,0.899v19.5c0,0.381-0.195,0.681-0.584,0.9c-0.391,0.221-0.846,0.33-1.365,0.33
			c-0.541,0-1.001-0.109-1.381-0.33c-0.38-0.22-0.57-0.52-0.57-0.9v-16.02l-0.959,0.96c-0.201,0.181-0.44,0.271-0.721,0.271
			c-0.359,0-0.66-0.16-0.899-0.48C729.636,603.768,729.516,603.408,729.516,603.008z"/>
		<path d="M739.445,613.898v-8.371c0-2.379,0.635-4.119,1.905-5.219c1.27-1.101,2.975-1.65,5.114-1.65
			c2.141,0,3.851,0.55,5.131,1.65c1.279,1.1,1.92,2.84,1.92,5.219v8.371c0,2.38-0.641,4.119-1.92,5.219
			c-1.28,1.102-2.99,1.65-5.131,1.65c-2.14,0-3.845-0.549-5.114-1.65C740.08,618.018,739.445,616.278,739.445,613.898z
			 M743.346,613.898c0,2.3,1.039,3.449,3.119,3.449c2.101,0,3.15-1.149,3.15-3.449v-8.371c0-2.299-1.05-3.449-3.15-3.449
			c-2.08,0-3.119,1.15-3.119,3.449V613.898z M745.476,610.98c-0.261-0.285-0.39-0.658-0.39-1.119c0-0.46,0.124-0.828,0.375-1.102
			c0.25-0.274,0.594-0.412,1.035-0.412c0.42,0,0.754,0.138,1.004,0.412c0.25,0.273,0.375,0.642,0.375,1.102
			c0,0.461-0.125,0.834-0.375,1.119s-0.584,0.428-1.004,0.428C746.075,611.408,745.735,611.266,745.476,610.98z"/>
	</g>
	
		<line fill="none" stroke="#19181C" stroke-width="3" stroke-linecap="round" stroke-linejoin="round" stroke-miterlimit="10" x1="505" y1="172.5" x2="531" y2="172.5"/>
</g>
</svg>
