<?xml version="1.0" encoding="utf-8"?>
<!-- Generator: Adobe Illustrator 16.0.0, SVG Export Plug-In . SVG Version: 6.00 Build 0)  -->
<!DOCTYPE svg PUBLIC "-//W3C//DTD SVG 1.1//EN" "http://www.w3.org/Graphics/SVG/1.1/DTD/svg11.dtd" [
	<!ENTITY ns_extend "http://ns.adobe.com/Extensibility/1.0/">
	<!ENTITY ns_ai "http://ns.adobe.com/AdobeIllustrator/10.0/">
	<!ENTITY ns_graphs "http://ns.adobe.com/Graphs/1.0/">
	<!ENTITY ns_vars "http://ns.adobe.com/Variables/1.0/">
	<!ENTITY ns_imrep "http://ns.adobe.com/ImageReplacement/1.0/">
	<!ENTITY ns_sfw "http://ns.adobe.com/SaveForWeb/1.0/">
	<!ENTITY ns_custom "http://ns.adobe.com/GenericCustomNamespace/1.0/">
	<!ENTITY ns_adobe_xpath "http://ns.adobe.com/XPath/1.0/">
]>
<svg version="1.1" xmlns:x="&ns_extend;" xmlns:i="&ns_ai;" xmlns:graph="&ns_graphs;"
	 xmlns="http://www.w3.org/2000/svg" xmlns:xlink="http://www.w3.org/1999/xlink" x="0px" y="0px" width="1024px" height="800px"
	 viewBox="0 0 1024 800" enable-background="new 0 0 1024 800" xml:space="preserve">
<metadata>
	<sfw  xmlns="&ns_sfw;">
		<slices></slices>
		<sliceSourceBounds  width="807" height="748" y="-571" x="-154" bottomLeftOrigin="true"></sliceSourceBounds>
	</sfw>
</metadata>
<g id="background">
</g>
<g id="Layer_2">
	<g opacity="0.5">
		<path fill="#FFFFFF" d="M915,721c0,27.614-22.386,50-50,50H158c-27.614,0-50-22.386-50-50V73c0-27.614,22.386-50,50-50h707
			c27.614,0,50,22.386,50,50V721z"/>
	</g>
	<circle fill="none" stroke="#EE3435" stroke-width="8" stroke-miterlimit="10" cx="423" cy="228.563" r="167.951"/>
	<circle fill="none" stroke="#3C733D" stroke-width="8" stroke-miterlimit="10" cx="601" cy="228.563" r="167.951"/>
	<circle fill="none" stroke="#4D7CBB" stroke-width="8" stroke-miterlimit="10" cx="517" cy="394.563" r="167.951"/>
</g>
<g id="texto">
	<g>
		<path fill="#19181C" d="M146.539,60.123c0-0.46,0.265-0.845,0.795-1.155c0.53-0.31,1.085-0.465,1.665-0.465
			c0.74,0,1.18,0.26,1.32,0.78l4.59,16.26l4.56-16.26c0.14-0.52,0.58-0.78,1.32-0.78c0.56,0,1.11,0.161,1.65,0.48
			c0.54,0.32,0.81,0.701,0.81,1.14c0,0.041-0.02,0.14-0.06,0.3l-5.76,18.87c-0.12,0.42-0.42,0.746-0.9,0.975
			c-0.48,0.229-1.02,0.345-1.62,0.345c-1.38,0-2.22-0.44-2.52-1.32l-5.79-18.87C146.559,60.263,146.539,60.163,146.539,60.123z"/>
		<path fill="#19181C" d="M163.04,74.553v-2.55c0-1.64,0.64-3.049,1.92-4.23c1.28-1.18,2.83-1.77,4.65-1.77
			c1.7,0,3.155,0.538,4.365,1.613c1.21,1.075,1.815,2.426,1.815,4.053c0,0.594-0.075,1.084-0.225,1.47s-0.38,0.659-0.69,0.817
			c-0.31,0.158-0.595,0.258-0.855,0.297c-0.26,0.04-0.6,0.06-1.02,0.06h-6.09v0.45c0,0.86,0.32,1.555,0.96,2.085
			c0.64,0.53,1.49,0.795,2.55,0.795c0.76,0,1.51-0.19,2.25-0.57c0.74-0.38,1.22-0.57,1.44-0.57c0.42,0,0.77,0.195,1.05,0.585
			c0.28,0.39,0.42,0.765,0.42,1.125c0,0.561-0.505,1.115-1.515,1.665c-1.01,0.55-2.265,0.825-3.765,0.825
			c-2.141,0-3.885-0.565-5.235-1.695S163.04,76.393,163.04,74.553z M166.91,72.033h4.38c0.32,0,0.545-0.051,0.675-0.154
			c0.13-0.103,0.195-0.303,0.195-0.603c0-0.653-0.255-1.186-0.765-1.597c-0.51-0.411-1.135-0.617-1.875-0.617
			c-0.7,0-1.31,0.201-1.83,0.603c-0.52,0.402-0.78,0.93-0.78,1.583V72.033z"/>
		<path fill="#19181C" d="M177.2,78.123c0-0.36,0.131-0.735,0.395-1.125s0.567-0.585,0.911-0.585c0.222,0,0.501,0.1,0.835,0.301
			s0.774,0.406,1.32,0.615c0.547,0.209,1.194,0.314,1.943,0.314c1.478,0,2.216-0.418,2.216-1.255c0-0.467-0.246-0.836-0.735-1.109
			c-0.49-0.272-1.08-0.496-1.77-0.671c-0.69-0.175-1.385-0.384-2.085-0.627c-0.7-0.244-1.295-0.652-1.785-1.226
			c-0.491-0.574-0.735-1.308-0.735-2.204c0-1.241,0.43-2.31,1.29-3.205c0.86-0.896,2.22-1.344,4.08-1.344
			c1.24,0,2.345,0.19,3.315,0.57c0.97,0.38,1.455,0.84,1.455,1.38c0,0.34-0.135,0.735-0.405,1.185
			c-0.27,0.45-0.605,0.675-1.005,0.675c-0.16,0-0.595-0.125-1.305-0.375c-0.71-0.25-1.375-0.375-1.995-0.375
			c-0.68,0-1.2,0.137-1.56,0.409c-0.36,0.272-0.54,0.574-0.54,0.905s0.18,0.604,0.54,0.817c0.36,0.214,0.805,0.38,1.335,0.497
			c0.53,0.117,1.099,0.277,1.707,0.481c0.607,0.205,1.171,0.442,1.69,0.715c0.52,0.273,0.956,0.696,1.309,1.27
			c0.352,0.574,0.529,1.269,0.529,2.086c0,1.385-0.485,2.475-1.455,3.269c-0.971,0.794-2.325,1.191-4.065,1.191
			c-1.5,0-2.78-0.26-3.84-0.78C177.729,79.403,177.2,78.803,177.2,78.123z"/>
		<path fill="#19181C" d="M190.489,75.629V61.249c0-0.335,0.2-0.617,0.6-0.845c0.4-0.227,0.84-0.341,1.32-0.341
			c0.52,0,0.975,0.111,1.365,0.332c0.39,0.221,0.585,0.496,0.585,0.823v4.965h3.54c0.3,0,0.54,0.152,0.72,0.456
			c0.18,0.304,0.27,0.662,0.27,1.074c0,0.413-0.09,0.771-0.27,1.075c-0.18,0.304-0.42,0.456-0.72,0.456h-3.54v6.256
			c0,0.552,0.125,0.943,0.375,1.171c0.25,0.229,0.685,0.343,1.305,0.343h1.17c0.52,0,0.925,0.167,1.215,0.502
			s0.435,0.732,0.435,1.192c0,0.481-0.145,0.889-0.435,1.224c-0.29,0.334-0.695,0.502-1.215,0.502h-1.17
			C192.339,80.433,190.489,78.832,190.489,75.629z"/>
		<path fill="#19181C" d="M200.779,74.613v-7.2c0-0.3,0.195-0.58,0.585-0.84c0.39-0.26,0.845-0.39,1.365-0.39
			c0.5,0,0.945,0.13,1.335,0.389c0.39,0.26,0.585,0.539,0.585,0.837v7.181c0,0.698,0.259,1.321,0.78,1.87
			c0.52,0.548,1.14,0.823,1.86,0.823c0.72,0,1.335-0.274,1.845-0.823c0.51-0.548,0.765-1.172,0.765-1.87v-7.211
			c0-0.319,0.195-0.598,0.585-0.838c0.39-0.239,0.845-0.359,1.365-0.359c0.56,0,1.02,0.12,1.38,0.36c0.36,0.24,0.54,0.521,0.54,0.84
			v7.23c0,1.62-0.64,3.04-1.92,4.26c-1.28,1.22-2.8,1.83-4.56,1.83c-1.76,0-3.285-0.61-4.575-1.83
			C201.424,77.653,200.779,76.232,200.779,74.613z"/>
		<path fill="#19181C" d="M215.809,76.589c0-1.575,0.6-2.683,1.8-3.324s2.93-0.962,5.19-0.962h1.23v-0.401
			c0-0.761-0.215-1.424-0.645-1.99s-1.095-0.849-1.995-0.849c-0.9,0-1.67,0.17-2.31,0.51c-0.641,0.34-1.01,0.51-1.11,0.51
			c-0.4,0-0.72-0.206-0.96-0.619c-0.24-0.413-0.36-0.867-0.36-1.363c0-0.563,0.515-1.054,1.545-1.471
			c1.03-0.417,2.115-0.627,3.255-0.627c2.18,0,3.8,0.555,4.86,1.665c1.06,1.11,1.59,2.505,1.59,4.185v7.35
			c0,0.34-0.18,0.63-0.54,0.87c-0.36,0.24-0.81,0.36-1.35,0.36c-0.5,0-0.915-0.128-1.245-0.385c-0.33-0.256-0.495-0.566-0.495-0.93
			v-0.93c-1.38,1.676-2.9,2.515-4.56,2.515c-1.14,0-2.075-0.35-2.805-1.051S215.809,77.93,215.809,76.589z M219.408,61.923
			c0-0.46,0.17-0.77,0.51-0.93l3.96-1.92c0.2-0.04,0.33-0.06,0.39-0.06c0.319,0,0.6,0.155,0.84,0.465
			c0.24,0.311,0.36,0.645,0.36,1.005c0,0.44-0.18,0.74-0.54,0.9l-3.9,1.89c-0.2,0.08-0.34,0.12-0.42,0.12
			c-0.32,0-0.6-0.16-0.84-0.48C219.528,62.593,219.408,62.263,219.408,61.923z M219.678,76.105c0,0.513,0.145,0.897,0.435,1.153
			s0.675,0.384,1.155,0.384c0.64,0,1.26-0.285,1.86-0.854c0.6-0.569,0.9-1.195,0.9-1.879v-0.598h-0.45
			c-1.22,0-2.175,0.119-2.865,0.356S219.678,75.385,219.678,76.105z"/>
		<path fill="#19181C" d="M230.778,79.203v-11.82c0-0.36,0.175-0.65,0.525-0.87c0.35-0.22,0.805-0.33,1.365-0.33
			c0.5,0,0.915,0.111,1.245,0.333c0.33,0.222,0.495,0.515,0.495,0.878v1.242c0.32-0.706,0.82-1.322,1.5-1.846
			c0.68-0.524,1.41-0.787,2.19-0.787h0.93c0.36,0,0.685,0.172,0.975,0.515c0.29,0.343,0.435,0.737,0.435,1.181
			c0,0.464-0.146,0.868-0.435,1.21c-0.29,0.343-0.615,0.515-0.975,0.515h-0.93c-0.92,0-1.725,0.409-2.415,1.227
			c-0.69,0.818-1.035,1.885-1.035,3.201v5.355c0,0.299-0.2,0.579-0.6,0.838c-0.4,0.259-0.86,0.389-1.38,0.389
			c-0.54,0-0.99-0.125-1.35-0.375C230.958,79.808,230.778,79.523,230.778,79.203z"/>
		<path fill="#19181C" d="M241.878,61.292c0-0.471,0.212-0.873,0.638-1.208c0.424-0.334,0.948-0.502,1.57-0.502
			c0.559,0,1.035,0.167,1.43,0.502c0.395,0.335,0.592,0.737,0.592,1.208c0,0.453-0.197,0.851-0.592,1.194
			c-0.395,0.344-0.871,0.516-1.43,0.516c-0.622,0-1.146-0.171-1.57-0.516C242.091,62.144,241.878,61.746,241.878,61.292z
			 M242.238,79.203v-11.82c0-0.36,0.173-0.65,0.519-0.87c0.346-0.22,0.789-0.33,1.327-0.33s0.985,0.11,1.341,0.33
			c0.355,0.22,0.534,0.51,0.534,0.87v11.82c0,0.3-0.188,0.58-0.563,0.84c-0.375,0.26-0.813,0.39-1.312,0.39
			c-0.52,0-0.957-0.125-1.312-0.375C242.416,79.808,242.238,79.523,242.238,79.203z"/>
		<path fill="#19181C" d="M248.418,74.553v-2.46c0-1.64,0.64-3.065,1.92-4.275c1.28-1.209,2.81-1.815,4.59-1.815
			c1.74,0,3.259,0.6,4.56,1.8c1.3,1.2,1.95,2.63,1.95,4.29v2.46c0,1.62-0.65,3.05-1.95,4.29s-2.82,1.86-4.56,1.86
			c-1.74,0-3.26-0.62-4.56-1.86C249.068,77.603,248.418,76.173,248.418,74.553z M252.288,74.544c0,0.714,0.26,1.349,0.78,1.905
			c0.52,0.556,1.14,0.833,1.86,0.833c0.7,0,1.314-0.278,1.845-0.833c0.53-0.556,0.795-1.191,0.795-1.905v-2.442
			c0-0.675-0.265-1.29-0.795-1.846c-0.53-0.556-1.145-0.833-1.845-0.833c-0.72,0-1.34,0.273-1.86,0.819
			c-0.52,0.545-0.78,1.166-0.78,1.86V74.544z"/>
	</g>
	<g>
		<path fill="#19181C" d="M766.066,74.553v-2.4c0-1.84,0.541-3.325,1.621-4.455s2.699-1.695,4.859-1.695c1.359,0,2.5,0.24,3.42,0.72
			s1.38,1.02,1.38,1.62c0,0.42-0.149,0.84-0.45,1.26c-0.3,0.42-0.66,0.63-1.08,0.63c-0.119,0-0.475-0.135-1.064-0.405
			s-1.226-0.405-1.905-0.405c-1.94,0-2.909,0.913-2.909,2.739v2.382c0,1.826,0.979,2.739,2.939,2.739c0.68,0,1.31-0.145,1.891-0.435
			c0.579-0.29,0.949-0.435,1.109-0.435c0.48,0,0.875,0.2,1.186,0.6c0.309,0.4,0.465,0.81,0.465,1.23c0,0.62-0.486,1.185-1.455,1.695
			c-0.971,0.51-2.136,0.765-3.496,0.765c-2.18,0-3.809-0.56-4.889-1.68C766.607,77.903,766.066,76.413,766.066,74.553z"/>
		<path fill="#19181C" d="M779.356,61.292c0-0.471,0.212-0.873,0.638-1.208c0.424-0.334,0.948-0.502,1.57-0.502
			c0.559,0,1.035,0.167,1.43,0.502c0.395,0.335,0.592,0.737,0.592,1.208c0,0.453-0.197,0.851-0.592,1.194
			c-0.395,0.344-0.871,0.516-1.43,0.516c-0.622,0-1.146-0.171-1.57-0.516C779.568,62.144,779.356,61.746,779.356,61.292z
			 M779.717,79.203v-11.82c0-0.36,0.172-0.65,0.519-0.87c0.346-0.22,0.788-0.33,1.327-0.33c0.537,0,0.984,0.11,1.34,0.33
			c0.355,0.22,0.534,0.51,0.534,0.87v11.82c0,0.3-0.188,0.58-0.563,0.84c-0.375,0.26-0.813,0.39-1.312,0.39
			c-0.52,0-0.957-0.125-1.313-0.375C779.895,79.808,779.717,79.523,779.717,79.203z"/>
		<path fill="#19181C" d="M786.436,79.203v-11.82c0-0.36,0.176-0.65,0.525-0.87c0.35-0.22,0.814-0.33,1.395-0.33
			c0.48,0,0.886,0.111,1.215,0.333c0.33,0.222,0.496,0.515,0.496,0.878v0.908c0.319-0.646,0.834-1.19,1.545-1.634
			c0.709-0.444,1.534-0.667,2.475-0.667c1.38,0,2.585,0.6,3.615,1.8c1.029,1.2,1.545,2.63,1.545,4.29v7.11
			c0,0.38-0.195,0.68-0.585,0.9c-0.39,0.22-0.845,0.33-1.365,0.33c-0.5,0-0.944-0.11-1.335-0.329s-0.585-0.519-0.585-0.897v-7.091
			c0-0.698-0.261-1.321-0.78-1.87c-0.52-0.548-1.13-0.822-1.83-0.822c-0.66,0-1.234,0.249-1.725,0.748
			c-0.49,0.499-0.734,1.146-0.734,1.944v7.091c0,0.299-0.195,0.579-0.586,0.838c-0.39,0.259-0.845,0.389-1.365,0.389
			c-0.539,0-0.994-0.125-1.364-0.375C786.621,79.808,786.436,79.523,786.436,79.203z"/>
		<path fill="#19181C" d="M801.586,74.553v-2.55c0-1.64,0.64-3.049,1.92-4.23c1.279-1.18,2.83-1.77,4.65-1.77
			c1.699,0,3.154,0.538,4.365,1.613c1.209,1.075,1.814,2.426,1.814,4.053c0,0.594-0.075,1.084-0.225,1.47
			c-0.15,0.386-0.381,0.659-0.69,0.817c-0.31,0.158-0.595,0.258-0.854,0.297c-0.261,0.04-0.601,0.06-1.021,0.06h-6.09v0.45
			c0,0.86,0.319,1.555,0.96,2.085c0.64,0.53,1.49,0.795,2.55,0.795c0.76,0,1.51-0.19,2.25-0.57c0.739-0.38,1.22-0.57,1.44-0.57
			c0.42,0,0.77,0.195,1.05,0.585c0.28,0.39,0.42,0.765,0.42,1.125c0,0.561-0.505,1.115-1.515,1.665
			c-1.011,0.55-2.266,0.825-3.766,0.825c-2.141,0-3.885-0.565-5.234-1.695C802.261,77.878,801.586,76.393,801.586,74.553z
			 M805.456,72.033h4.38c0.32,0,0.545-0.051,0.675-0.154c0.13-0.103,0.195-0.303,0.195-0.603c0-0.653-0.255-1.186-0.765-1.597
			c-0.51-0.411-1.136-0.617-1.875-0.617c-0.701,0-1.311,0.201-1.83,0.603c-0.521,0.402-0.78,0.93-0.78,1.583V72.033z"/>
		<path fill="#19181C" d="M815.326,67.653c0-0.42,0.295-0.8,0.885-1.14c0.59-0.34,1.155-0.51,1.695-0.51
			c0.58,0,0.96,0.221,1.14,0.66l3.33,8.7l3.33-8.64c0.181-0.48,0.55-0.72,1.11-0.72c0.479,0,1.029,0.175,1.649,0.525
			s0.931,0.735,0.931,1.155c0,0.18-0.041,0.35-0.121,0.51l-5.129,11.88c-0.221,0.459-0.811,0.69-1.771,0.69s-1.54-0.23-1.739-0.69
			l-5.16-11.88C815.375,68.053,815.326,67.873,815.326,67.653z"/>
		<path fill="#19181C" d="M830.476,61.923c0-0.46,0.17-0.77,0.511-0.93l3.959-1.92c0.2-0.04,0.33-0.06,0.391-0.06
			c0.319,0,0.6,0.155,0.84,0.465c0.24,0.311,0.359,0.645,0.359,1.005c0,0.44-0.18,0.74-0.539,0.9l-3.9,1.89
			c-0.2,0.08-0.34,0.12-0.42,0.12c-0.32,0-0.6-0.16-0.84-0.48C830.596,62.593,830.476,62.263,830.476,61.923z M831.076,79.203
			v-11.82c0-0.36,0.18-0.65,0.539-0.87c0.36-0.22,0.82-0.33,1.381-0.33c0.559,0,1.024,0.11,1.395,0.33
			c0.37,0.22,0.555,0.51,0.555,0.87v11.82c0,0.3-0.195,0.58-0.584,0.84c-0.391,0.26-0.846,0.39-1.365,0.39
			c-0.541,0-0.996-0.125-1.365-0.375C831.26,79.808,831.076,79.523,831.076,79.203z"/>
		<path fill="#19181C" d="M837.436,74.553v-2.46c0-1.66,0.525-3.09,1.574-4.29c1.051-1.2,2.305-1.8,3.766-1.8
			c0.88,0,1.654,0.222,2.324,0.667c0.67,0.444,1.186,0.988,1.546,1.634v-9.201c0-0.359,0.185-0.649,0.555-0.869
			c0.37-0.22,0.835-0.33,1.396-0.33c0.559,0,1.02,0.11,1.379,0.329c0.361,0.22,0.541,0.51,0.541,0.869v20.103
			c0,0.32-0.186,0.604-0.555,0.854c-0.371,0.25-0.826,0.375-1.365,0.375c-0.461,0-0.865-0.131-1.215-0.394
			c-0.351-0.263-0.525-0.545-0.525-0.848v-0.878c-0.32,0.646-0.865,1.205-1.635,1.679c-0.771,0.474-1.615,0.711-2.535,0.711
			c-1.381,0-2.601-0.62-3.66-1.86C837.965,77.603,837.436,76.173,837.436,74.553z M841.305,74.544c0,0.694,0.26,1.325,0.781,1.89
			c0.52,0.566,1.129,0.849,1.83,0.849c0.699,0,1.329-0.273,1.889-0.818c0.561-0.546,0.841-1.007,0.841-1.385v-2.978
			c0-0.793-0.275-1.438-0.825-1.935c-0.551-0.496-1.176-0.744-1.875-0.744c-0.721,0-1.34,0.273-1.859,0.819
			c-0.521,0.545-0.781,1.166-0.781,1.86V74.544z"/>
		<path fill="#19181C" d="M853.005,74.553v-2.55c0-1.64,0.64-3.049,1.92-4.23c1.28-1.18,2.83-1.77,4.649-1.77
			c1.7,0,3.155,0.538,4.365,1.613c1.211,1.075,1.815,2.426,1.815,4.053c0,0.594-0.075,1.084-0.226,1.47
			c-0.149,0.386-0.379,0.659-0.689,0.817c-0.311,0.158-0.596,0.258-0.855,0.297c-0.26,0.04-0.6,0.06-1.02,0.06h-6.09v0.45
			c0,0.86,0.32,1.555,0.96,2.085c0.64,0.53,1.489,0.795,2.55,0.795c0.76,0,1.51-0.19,2.25-0.57s1.22-0.57,1.439-0.57
			c0.421,0,0.771,0.195,1.051,0.585c0.279,0.39,0.42,0.765,0.42,1.125c0,0.561-0.506,1.115-1.516,1.665
			c-1.01,0.55-2.264,0.825-3.764,0.825c-2.141,0-3.886-0.565-5.236-1.695C853.68,77.878,853.005,76.393,853.005,74.553z
			 M856.875,72.033h4.38c0.319,0,0.545-0.051,0.675-0.154c0.13-0.103,0.195-0.303,0.195-0.603c0-0.653-0.255-1.186-0.766-1.597
			c-0.51-0.411-1.135-0.617-1.875-0.617c-0.699,0-1.31,0.201-1.83,0.603c-0.52,0.402-0.779,0.93-0.779,1.583V72.033z"/>
		<path fill="#19181C" d="M867.525,74.553v-2.46c0-1.64,0.639-3.065,1.92-4.275c1.279-1.209,2.809-1.815,4.59-1.815
			c1.74,0,3.26,0.6,4.56,1.8c1.3,1.2,1.95,2.63,1.95,4.29v2.46c0,1.62-0.65,3.05-1.95,4.29s-2.819,1.86-4.56,1.86
			s-3.26-0.62-4.561-1.86C868.175,77.603,867.525,76.173,867.525,74.553z M871.395,74.544c0,0.714,0.26,1.349,0.78,1.905
			c0.521,0.556,1.14,0.833,1.86,0.833c0.699,0,1.314-0.278,1.845-0.833c0.53-0.556,0.795-1.191,0.795-1.905v-2.442
			c0-0.675-0.265-1.29-0.795-1.846c-0.53-0.556-1.146-0.833-1.845-0.833c-0.721,0-1.34,0.273-1.86,0.819
			c-0.521,0.545-0.78,1.166-0.78,1.86V74.544z"/>
	</g>
	<g>
		<path fill="#19181C" d="M765.842,724.308v-14.381c0-0.335,0.199-0.617,0.6-0.845c0.4-0.227,0.84-0.342,1.32-0.342
			c0.52,0,0.975,0.111,1.365,0.332c0.39,0.222,0.584,0.496,0.584,0.823v4.966h3.541c0.3,0,0.539,0.152,0.72,0.455
			c0.18,0.305,0.271,0.662,0.271,1.074s-0.091,0.771-0.271,1.074c-0.181,0.305-0.42,0.456-0.72,0.456h-3.541v6.256
			c0,0.552,0.125,0.942,0.375,1.171c0.25,0.229,0.686,0.344,1.306,0.344h1.17c0.521,0,0.925,0.167,1.215,0.502
			c0.29,0.334,0.435,0.732,0.435,1.191c0,0.481-0.145,0.889-0.435,1.225c-0.29,0.334-0.694,0.502-1.215,0.502h-1.17
			C767.691,729.111,765.842,727.51,765.842,724.308z"/>
		<path fill="#19181C" d="M775.592,723.23v-2.459c0-1.641,0.639-3.065,1.92-4.275c1.279-1.21,2.809-1.815,4.59-1.815
			c1.74,0,3.26,0.601,4.56,1.8c1.3,1.2,1.95,2.631,1.95,4.291v2.459c0,1.621-0.65,3.051-1.95,4.291s-2.819,1.859-4.56,1.859
			s-3.26-0.619-4.561-1.859C776.241,726.281,775.592,724.852,775.592,723.23z M779.461,723.223c0,0.714,0.26,1.349,0.78,1.904
			c0.521,0.557,1.14,0.834,1.86,0.834c0.699,0,1.314-0.277,1.845-0.834c0.53-0.556,0.795-1.19,0.795-1.904v-2.442
			c0-0.675-0.265-1.29-0.795-1.846s-1.146-0.833-1.845-0.833c-0.721,0-1.34,0.272-1.86,0.818c-0.521,0.545-0.78,1.166-0.78,1.86
			V723.223z"/>
		<path fill="#19181C" d="M791.041,724.308v-14.381c0-0.335,0.199-0.617,0.6-0.845c0.4-0.227,0.84-0.342,1.32-0.342
			c0.52,0,0.975,0.111,1.365,0.332c0.39,0.222,0.584,0.496,0.584,0.823v4.966h3.541c0.3,0,0.539,0.152,0.72,0.455
			c0.18,0.305,0.271,0.662,0.271,1.074s-0.091,0.771-0.271,1.074c-0.181,0.305-0.42,0.456-0.72,0.456h-3.541v6.256
			c0,0.552,0.125,0.942,0.375,1.171c0.25,0.229,0.686,0.344,1.306,0.344h1.17c0.521,0,0.925,0.167,1.215,0.502
			c0.29,0.334,0.435,0.732,0.435,1.191c0,0.481-0.145,0.889-0.435,1.225c-0.29,0.334-0.694,0.502-1.215,0.502h-1.17
			C792.891,729.111,791.041,727.51,791.041,724.308z"/>
		<path fill="#19181C" d="M800.641,725.268c0-1.574,0.6-2.683,1.8-3.324s2.93-0.963,5.19-0.963h1.229v-0.4
			c0-0.762-0.215-1.424-0.646-1.99c-0.43-0.566-1.094-0.85-1.994-0.85s-1.67,0.171-2.311,0.511c-0.641,0.341-1.01,0.51-1.109,0.51
			c-0.4,0-0.721-0.2-0.961-0.601c-0.239-0.398-0.359-0.84-0.359-1.319c0-0.579,0.515-1.085,1.545-1.515
			c1.029-0.43,2.115-0.646,3.255-0.646c2.18,0,3.8,0.556,4.86,1.665c1.06,1.11,1.59,2.506,1.59,4.186v7.35
			c0,0.34-0.18,0.63-0.54,0.87c-0.36,0.239-0.81,0.36-1.351,0.36c-0.5,0-0.914-0.129-1.244-0.385
			c-0.33-0.257-0.495-0.566-0.495-0.931v-0.93c-1.38,1.677-2.9,2.515-4.56,2.515c-1.141,0-2.076-0.35-2.806-1.051
			S800.641,726.608,800.641,725.268z M804.51,724.783c0,0.514,0.146,0.898,0.436,1.154s0.676,0.383,1.155,0.383
			c0.64,0,1.26-0.284,1.86-0.854c0.6-0.568,0.899-1.195,0.899-1.879v-0.598h-0.45c-1.22,0-2.175,0.119-2.865,0.356
			C804.855,723.584,804.51,724.063,804.51,724.783z"/>
		<path fill="#19181C" d="M815.881,727.881v-20.13c0-0.36,0.174-0.649,0.524-0.87c0.35-0.22,0.815-0.33,1.396-0.33
			c0.539,0,1,0.11,1.379,0.33c0.381,0.221,0.57,0.51,0.57,0.87v20.13c0,0.3-0.195,0.58-0.584,0.84
			c-0.391,0.26-0.846,0.391-1.365,0.391c-0.541,0-0.996-0.125-1.365-0.375C816.064,728.486,815.881,728.201,815.881,727.881z"/>
		<path fill="#19181C" d="M823.109,718.775c0-0.439,0.11-0.806,0.33-1.102c0.221-0.295,0.511-0.443,0.871-0.443h7.739
			c0.319,0,0.61,0.153,0.87,0.458c0.26,0.306,0.391,0.667,0.391,1.087c0,0.439-0.125,0.801-0.375,1.086
			c-0.251,0.287-0.546,0.43-0.886,0.43h-7.739c-0.36,0-0.65-0.139-0.871-0.414C823.22,719.6,823.109,719.232,823.109,718.775z
			 M823.109,724.865c0-0.438,0.11-0.806,0.33-1.102c0.221-0.295,0.511-0.443,0.871-0.443h7.739c0.319,0,0.61,0.153,0.87,0.458
			c0.26,0.306,0.391,0.667,0.391,1.087c0,0.439-0.125,0.801-0.375,1.087c-0.251,0.286-0.546,0.429-0.886,0.429h-7.739
			c-0.36,0-0.65-0.138-0.871-0.414C823.22,725.689,823.109,725.322,823.109,724.865z"/>
		<path fill="#19181C" d="M835.92,727.875v-2.925c0-0.884,0.302-1.759,0.906-2.623c0.604-0.864,1.336-1.647,2.196-2.352l2.878-2.087
			c0.945-0.705,1.75-1.451,2.414-2.237c0.663-0.786,0.995-1.572,0.995-2.358c0-0.706-0.237-1.331-0.709-1.875
			c-0.473-0.545-1.171-0.816-2.097-0.816c-0.784,0-1.428,0.227-1.93,0.68c-0.504,0.452-0.754,1.132-0.754,2.037
			c0,0.391-0.184,0.736-0.547,1.035c-0.364,0.299-0.852,0.447-1.461,0.447c-1.162,0-1.742-0.699-1.742-2.1
			c0-1.641,0.635-2.971,1.906-3.99c1.27-1.02,2.77-1.53,4.498-1.53c1.823,0,3.402,0.546,4.735,1.638s1.999,2.543,1.999,4.354
			c0,1.209-0.326,2.344-0.977,3.402c-0.652,1.059-1.449,1.955-2.392,2.69s-1.88,1.417-2.813,2.042s-1.726,1.25-2.379,1.875
			s-0.979,1.219-0.979,1.783v0.727h8.365c0.321,0,0.607,0.164,0.857,0.494c0.252,0.33,0.377,0.726,0.377,1.186
			s-0.123,0.865-0.367,1.215c-0.246,0.35-0.525,0.525-0.838,0.525h-10.469c-0.373,0-0.745-0.121-1.117-0.362
			C836.105,728.508,835.92,728.217,835.92,727.875z"/>
		<path fill="#19181C" d="M850.619,723.861c0-0.66,0.16-1.12,0.48-1.381c0.319-0.26,0.81-0.39,1.47-0.39
			c0.76,0,1.274,0.13,1.545,0.39c0.271,0.261,0.405,0.631,0.405,1.11c0,0.72,0.289,1.28,0.869,1.681s1.32,0.6,2.221,0.6
			c2.119,0,3.18-1.11,3.18-3.33v-0.57c0-1.119-0.275-1.959-0.825-2.52s-1.325-0.84-2.325-0.84h-4.439
			c-0.58,0-0.985-0.129-1.215-0.389c-0.23-0.258-0.346-0.637-0.346-1.133c0-0.08,0.035-0.205,0.104-0.373
			c0.068-0.17,0.103-0.304,0.103-0.403l0.604-7.903c0.061-0.819,0.31-1.229,0.75-1.229h9.24c0.359,0,0.645,0.171,0.854,0.511
			s0.315,0.74,0.315,1.199c0,0.461-0.105,0.86-0.314,1.2c-0.209,0.341-0.493,0.511-0.852,0.511h-6.725l-0.39,4.949h2.31
			c2.141,0,3.85,0.516,5.131,1.545c1.279,1.03,1.92,2.655,1.92,4.875v0.57c0,2.32-0.641,4.025-1.92,5.115
			c-1.281,1.09-2.971,1.635-5.07,1.635c-2.18,0-3.905-0.535-5.176-1.605C851.254,726.616,850.619,725.342,850.619,723.861z"/>
		<path fill="#19181C" d="M866.729,722.421v-8.37c0-2.38,0.635-4.119,1.905-5.22c1.27-1.101,2.975-1.65,5.114-1.65
			c2.141,0,3.851,0.55,5.131,1.65c1.279,1.101,1.92,2.84,1.92,5.22v8.37c0,2.38-0.641,4.12-1.92,5.22
			c-1.28,1.101-2.99,1.65-5.131,1.65c-2.14,0-3.845-0.55-5.114-1.65C867.363,726.541,866.729,724.801,866.729,722.421z
			 M870.629,722.421c0,2.3,1.039,3.45,3.119,3.45c2.101,0,3.15-1.15,3.15-3.45v-8.37c0-2.3-1.05-3.449-3.15-3.449
			c-2.08,0-3.119,1.149-3.119,3.449V722.421z M872.759,719.504c-0.261-0.285-0.39-0.658-0.39-1.119s0.124-0.828,0.375-1.103
			c0.25-0.274,0.594-0.411,1.035-0.411c0.42,0,0.754,0.137,1.004,0.411s0.375,0.642,0.375,1.103s-0.125,0.834-0.375,1.119
			s-0.584,0.427-1.004,0.427C873.358,719.931,873.019,719.789,872.759,719.504z"/>
	</g>
	<g>
		<path fill="#19181C" d="M456.026,602.086v-2.4c0-1.84,0.54-3.325,1.62-4.455s2.7-1.695,4.86-1.695c1.36,0,2.5,0.24,3.42,0.721
			c0.92,0.479,1.38,1.02,1.38,1.619c0,0.42-0.15,0.84-0.45,1.26c-0.3,0.42-0.66,0.631-1.08,0.631c-0.12,0-0.475-0.135-1.065-0.405
			c-0.59-0.271-1.226-0.405-1.905-0.405c-1.94,0-2.91,0.914-2.91,2.739v2.382c0,1.826,0.979,2.739,2.94,2.739
			c0.68,0,1.31-0.146,1.89-0.435c0.58-0.29,0.95-0.436,1.11-0.436c0.48,0,0.875,0.2,1.185,0.6c0.31,0.4,0.465,0.811,0.465,1.23
			c0,0.62-0.485,1.186-1.455,1.695c-0.97,0.51-2.135,0.765-3.495,0.765c-2.18,0-3.81-0.56-4.89-1.681
			C456.566,605.436,456.026,603.945,456.026,602.086z"/>
		<path fill="#19181C" d="M468.866,602.086v-2.461c0-1.639,0.64-3.064,1.92-4.275c1.28-1.209,2.81-1.814,4.59-1.814
			c1.74,0,3.259,0.6,4.56,1.801c1.3,1.199,1.95,2.629,1.95,4.289v2.461c0,1.619-0.65,3.049-1.95,4.289s-2.82,1.86-4.56,1.86
			c-1.74,0-3.26-0.62-4.56-1.86C469.516,605.135,468.866,603.705,468.866,602.086z M472.736,602.076c0,0.715,0.26,1.35,0.78,1.906
			c0.52,0.555,1.14,0.833,1.86,0.833c0.7,0,1.314-0.278,1.845-0.833c0.53-0.557,0.795-1.191,0.795-1.906v-2.441
			c0-0.675-0.265-1.289-0.795-1.846c-0.53-0.556-1.145-0.834-1.845-0.834c-0.72,0-1.34,0.273-1.86,0.819s-0.78,1.165-0.78,1.86
			V602.076z"/>
		<path fill="#19181C" d="M483.445,605.655c0-0.36,0.131-0.735,0.395-1.125s0.567-0.585,0.911-0.585c0.222,0,0.501,0.1,0.835,0.301
			s0.774,0.406,1.32,0.615c0.547,0.209,1.194,0.314,1.943,0.314c1.478,0,2.216-0.418,2.216-1.256c0-0.467-0.246-0.836-0.735-1.108
			c-0.49-0.272-1.08-0.496-1.77-0.671c-0.69-0.176-1.385-0.385-2.085-0.627c-0.7-0.244-1.295-0.652-1.785-1.227
			c-0.491-0.574-0.735-1.309-0.735-2.203c0-1.242,0.43-2.311,1.29-3.205c0.86-0.896,2.22-1.344,4.08-1.344
			c1.24,0,2.345,0.19,3.315,0.57c0.97,0.38,1.455,0.84,1.455,1.38c0,0.341-0.135,0.735-0.405,1.185
			c-0.27,0.45-0.605,0.676-1.005,0.676c-0.16,0-0.595-0.125-1.305-0.375c-0.71-0.25-1.375-0.375-1.995-0.375
			c-0.68,0-1.2,0.137-1.56,0.408c-0.36,0.272-0.54,0.574-0.54,0.904c0,0.332,0.18,0.604,0.54,0.817s0.805,0.38,1.335,0.497
			c0.53,0.116,1.099,0.276,1.707,0.48c0.607,0.205,1.171,0.443,1.69,0.715c0.52,0.273,0.956,0.697,1.309,1.271
			c0.352,0.573,0.529,1.269,0.529,2.087c0,1.385-0.485,2.475-1.455,3.269c-0.971,0.794-2.325,1.191-4.065,1.191
			c-1.5,0-2.78-0.261-3.84-0.78S483.445,606.336,483.445,605.655z"/>
		<path fill="#19181C" d="M496.765,606.735v-11.819c0-0.361,0.175-0.65,0.525-0.871c0.35-0.219,0.815-0.33,1.395-0.33
			c0.48,0,0.885,0.111,1.215,0.334c0.33,0.223,0.495,0.516,0.495,0.879v0.908c0.86-1.533,2.18-2.301,3.96-2.301
			c0.84,0,1.595,0.277,2.265,0.832c0.67,0.556,1.165,1.287,1.485,2.195c0.5-0.989,1.155-1.74,1.965-2.256
			c0.81-0.514,1.665-0.771,2.565-0.771c1.439,0,2.689,0.551,3.75,1.65c1.06,1.1,1.59,2.58,1.59,4.439v7.11
			c0,0.3-0.195,0.58-0.585,0.84c-0.39,0.261-0.845,0.39-1.365,0.39c-0.5,0-0.944-0.129-1.335-0.389
			c-0.39-0.26-0.585-0.539-0.585-0.838v-7.09c0-0.838-0.239-1.502-0.72-1.99c-0.48-0.488-1.05-0.732-1.71-0.732
			c-0.641,0-1.195,0.244-1.665,0.732c-0.47,0.489-0.705,1.143-0.705,1.96v7.15c0,0.399-0.19,0.698-0.57,0.897
			c-0.38,0.199-0.84,0.299-1.38,0.299c-0.5,0-0.945-0.104-1.335-0.313c-0.39-0.209-0.585-0.503-0.585-0.883v-7.12
			c0-0.799-0.245-1.446-0.735-1.945c-0.49-0.498-1.065-0.748-1.725-0.748c-0.64,0-1.19,0.24-1.65,0.719
			c-0.46,0.479-0.69,1.137-0.69,1.975v7.09c0,0.3-0.195,0.579-0.585,0.838c-0.39,0.26-0.845,0.389-1.365,0.389
			c-0.54,0-0.995-0.124-1.365-0.375C496.949,607.34,496.765,607.056,496.765,606.735z"/>
		<path fill="#19181C" d="M520.314,602.086v-2.551c0-1.64,0.64-3.049,1.92-4.23c1.279-1.18,2.83-1.77,4.65-1.77
			c1.699,0,3.154,0.537,4.365,1.613c1.209,1.074,1.814,2.426,1.814,4.053c0,0.594-0.075,1.084-0.225,1.471
			c-0.15,0.386-0.381,0.658-0.69,0.816s-0.595,0.258-0.854,0.297c-0.261,0.041-0.601,0.061-1.021,0.061h-6.09v0.449
			c0,0.86,0.319,1.556,0.96,2.086c0.64,0.529,1.49,0.795,2.55,0.795c0.76,0,1.51-0.19,2.25-0.57c0.739-0.38,1.22-0.57,1.44-0.57
			c0.42,0,0.77,0.195,1.05,0.585s0.42,0.765,0.42,1.125c0,0.561-0.505,1.115-1.515,1.665c-1.011,0.551-2.266,0.825-3.766,0.825
			c-2.141,0-3.885-0.565-5.234-1.694C520.989,605.41,520.314,603.926,520.314,602.086z M523.885,589.455
			c0-0.459,0.17-0.77,0.51-0.93l3.96-1.92c0.2-0.04,0.33-0.061,0.39-0.061c0.32,0,0.601,0.156,0.84,0.465
			c0.24,0.311,0.36,0.646,0.36,1.006c0,0.439-0.18,0.74-0.54,0.9l-3.9,1.889c-0.199,0.08-0.34,0.121-0.42,0.121
			c-0.32,0-0.6-0.16-0.84-0.48S523.885,589.795,523.885,589.455z M524.185,599.565h4.38c0.32,0,0.545-0.052,0.675-0.154
			s0.195-0.304,0.195-0.603c0-0.653-0.255-1.186-0.765-1.597s-1.136-0.616-1.875-0.616c-0.701,0-1.311,0.201-1.83,0.602
			c-0.521,0.402-0.78,0.93-0.78,1.584V599.565z"/>
		<path fill="#19181C" d="M535.345,603.162v-14.381c0-0.336,0.2-0.617,0.6-0.845s0.841-0.341,1.32-0.341
			c0.52,0,0.976,0.11,1.364,0.332c0.391,0.221,0.586,0.495,0.586,0.822v4.965h3.539c0.301,0,0.541,0.152,0.721,0.457
			c0.18,0.303,0.27,0.662,0.27,1.073c0,0.413-0.09,0.771-0.27,1.075c-0.18,0.303-0.42,0.455-0.721,0.455h-3.539v6.256
			c0,0.553,0.125,0.943,0.375,1.172s0.685,0.342,1.305,0.342h1.17c0.52,0,0.925,0.168,1.215,0.502
			c0.29,0.335,0.436,0.732,0.436,1.193c0,0.48-0.146,0.889-0.436,1.223c-0.29,0.335-0.695,0.502-1.215,0.502h-1.17
			C537.194,607.965,535.345,606.365,535.345,603.162z"/>
		<path fill="#19181C" d="M545.574,588.825c0-0.471,0.213-0.873,0.638-1.208c0.425-0.334,0.948-0.502,1.57-0.502
			c0.559,0,1.035,0.168,1.43,0.502c0.396,0.335,0.593,0.737,0.593,1.208c0,0.453-0.197,0.851-0.593,1.194
			c-0.395,0.344-0.871,0.516-1.43,0.516c-0.622,0-1.146-0.172-1.57-0.516S545.574,589.278,545.574,588.825z M545.934,606.735
			v-11.819c0-0.361,0.174-0.65,0.52-0.871c0.346-0.219,0.789-0.33,1.326-0.33c0.539,0,0.986,0.111,1.342,0.33
			c0.355,0.221,0.533,0.51,0.533,0.871v11.819c0,0.3-0.188,0.58-0.563,0.84c-0.375,0.261-0.813,0.39-1.313,0.39
			c-0.52,0-0.957-0.124-1.312-0.375C546.111,607.34,545.934,607.056,545.934,606.735z"/>
		<path fill="#19181C" d="M552.174,602.086v-2.4c0-1.84,0.54-3.325,1.62-4.455s2.7-1.695,4.86-1.695c1.359,0,2.5,0.24,3.42,0.721
			c0.92,0.479,1.379,1.02,1.379,1.619c0,0.42-0.149,0.84-0.449,1.26c-0.301,0.42-0.66,0.631-1.08,0.631
			c-0.12,0-0.475-0.135-1.064-0.405c-0.591-0.271-1.227-0.405-1.906-0.405c-1.939,0-2.909,0.914-2.909,2.739v2.382
			c0,1.826,0.979,2.739,2.94,2.739c0.68,0,1.309-0.146,1.89-0.435c0.579-0.29,0.95-0.436,1.11-0.436c0.479,0,0.874,0.2,1.185,0.6
			c0.31,0.4,0.465,0.811,0.465,1.23c0,0.62-0.485,1.186-1.455,1.695s-2.136,0.765-3.495,0.765c-2.18,0-3.81-0.56-4.89-1.681
			C552.714,605.436,552.174,603.945,552.174,602.086z"/>
		<path fill="#19181C" d="M565.014,602.086v-2.461c0-1.639,0.64-3.064,1.92-4.275c1.279-1.209,2.81-1.814,4.59-1.814
			c1.74,0,3.26,0.6,4.561,1.801c1.3,1.199,1.949,2.629,1.949,4.289v2.461c0,1.619-0.649,3.049-1.949,4.289
			c-1.301,1.24-2.82,1.86-4.561,1.86s-3.26-0.62-4.56-1.86S565.014,603.705,565.014,602.086z M568.884,602.076
			c0,0.715,0.26,1.35,0.78,1.906c0.52,0.555,1.14,0.833,1.859,0.833c0.7,0,1.314-0.278,1.846-0.833
			c0.529-0.557,0.795-1.191,0.795-1.906v-2.441c0-0.675-0.266-1.289-0.795-1.846c-0.531-0.556-1.146-0.834-1.846-0.834
			c-0.72,0-1.34,0.273-1.859,0.819c-0.521,0.546-0.78,1.165-0.78,1.86V602.076z"/>
	</g>
	<g>
		<path fill="#19181C" d="M260.852,601.063c0-0.66,0.16-1.12,0.48-1.381c0.32-0.26,0.81-0.39,1.47-0.39
			c0.76,0,1.275,0.13,1.545,0.39c0.27,0.261,0.405,0.631,0.405,1.11c0,0.72,0.29,1.28,0.87,1.681c0.58,0.4,1.32,0.6,2.22,0.6
			c2.12,0,3.18-1.11,3.18-3.33v-0.57c0-1.119-0.275-1.959-0.825-2.52s-1.325-0.84-2.325-0.84h-4.44
			c-0.581,0-0.985-0.129-1.215-0.389c-0.23-0.258-0.345-0.637-0.345-1.133c0-0.08,0.034-0.205,0.103-0.373
			c0.068-0.17,0.103-0.304,0.103-0.403l0.604-7.903c0.06-0.819,0.31-1.229,0.75-1.229h9.24c0.36,0,0.645,0.171,0.855,0.511
			s0.315,0.74,0.315,1.199c0,0.461-0.105,0.86-0.314,1.2c-0.209,0.341-0.493,0.511-0.852,0.511h-6.725l-0.39,4.949h2.31
			c2.14,0,3.85,0.516,5.13,1.545c1.28,1.03,1.92,2.655,1.92,4.875v0.57c0,2.32-0.64,4.025-1.92,5.115
			c-1.28,1.09-2.97,1.635-5.07,1.635c-2.18,0-3.905-0.535-5.175-1.605C261.486,603.817,260.852,602.543,260.852,601.063z"/>
		<path fill="#19181C" d="M276.961,599.622v-8.37c0-2.38,0.635-4.119,1.905-5.22c1.27-1.101,2.975-1.65,5.115-1.65
			s3.85,0.55,5.13,1.65s1.92,2.84,1.92,5.22v8.37c0,2.38-0.641,4.12-1.92,5.22c-1.28,1.101-2.99,1.65-5.13,1.65
			s-3.845-0.55-5.115-1.65C277.596,603.742,276.961,602.002,276.961,599.622z M280.861,599.622c0,2.3,1.04,3.45,3.12,3.45
			c2.1,0,3.15-1.15,3.15-3.45v-8.37c0-2.3-1.05-3.449-3.15-3.449c-2.08,0-3.12,1.149-3.12,3.449V599.622z M282.991,596.705
			c-0.26-0.285-0.39-0.658-0.39-1.119s0.125-0.828,0.375-1.103c0.25-0.274,0.595-0.411,1.035-0.411c0.42,0,0.754,0.137,1.005,0.411
			c0.25,0.274,0.375,0.642,0.375,1.103s-0.125,0.834-0.375,1.119c-0.25,0.285-0.585,0.427-1.005,0.427
			C283.591,597.132,283.251,596.99,282.991,596.705z"/>
	</g>
	<g>
		<path fill="#19181C" d="M377.907,359.872c0-0.66,0.16-1.12,0.48-1.38c0.32-0.26,0.81-0.39,1.47-0.39c0.76,0,1.275,0.13,1.545,0.39
			c0.27,0.26,0.405,0.63,0.405,1.11c0,0.72,0.29,1.28,0.87,1.68c0.58,0.4,1.32,0.6,2.22,0.6c2.12,0,3.18-1.11,3.18-3.33v-0.57
			c0-1.12-0.275-1.959-0.825-2.52c-0.55-0.56-1.325-0.84-2.325-0.84h-4.44c-0.581,0-0.985-0.129-1.215-0.388
			s-0.345-0.637-0.345-1.134c0-0.08,0.034-0.204,0.103-0.373s0.103-0.303,0.103-0.403l0.604-7.903c0.06-0.82,0.31-1.23,0.75-1.23
			h9.24c0.36,0,0.645,0.17,0.855,0.51c0.21,0.34,0.315,0.74,0.315,1.2c0,0.46-0.105,0.86-0.314,1.2
			c-0.209,0.34-0.493,0.51-0.852,0.51h-6.725l-0.39,4.95h2.31c2.14,0,3.85,0.515,5.13,1.545c1.28,1.03,1.92,2.655,1.92,4.875v0.57
			c0,2.32-0.64,4.025-1.92,5.115c-1.28,1.09-2.97,1.635-5.07,1.635c-2.18,0-3.905-0.535-5.175-1.605
			S377.907,361.352,377.907,359.872z"/>
		<path fill="#19181C" d="M394.017,358.432v-8.37c0-2.38,0.635-4.12,1.905-5.22c1.27-1.1,2.975-1.65,5.115-1.65s3.85,0.55,5.13,1.65
			s1.92,2.84,1.92,5.22v8.37c0,2.38-0.641,4.12-1.92,5.22c-1.28,1.101-2.99,1.65-5.13,1.65s-3.845-0.55-5.115-1.65
			C394.651,362.552,394.017,360.812,394.017,358.432z M397.917,358.432c0,2.3,1.04,3.45,3.12,3.45c2.1,0,3.15-1.149,3.15-3.45v-8.37
			c0-2.3-1.05-3.45-3.15-3.45c-2.08,0-3.12,1.15-3.12,3.45V358.432z M400.047,355.514c-0.26-0.285-0.39-0.658-0.39-1.119
			c0-0.46,0.125-0.828,0.375-1.102c0.25-0.274,0.595-0.412,1.035-0.412c0.42,0,0.754,0.138,1.005,0.412
			c0.25,0.274,0.375,0.642,0.375,1.102c0,0.461-0.125,0.834-0.375,1.119c-0.25,0.285-0.585,0.427-1.005,0.427
			C400.646,355.941,400.307,355.799,400.047,355.514z"/>
		<path fill="#19181C" d="M416.546,357.996c0-0.439,0.109-0.806,0.33-1.101c0.22-0.295,0.51-0.443,0.87-0.443h7.8
			c0.32,0,0.61,0.153,0.87,0.458c0.259,0.305,0.39,0.667,0.39,1.087c0,0.439-0.125,0.801-0.375,1.086
			c-0.25,0.286-0.545,0.429-0.885,0.429h-7.8c-0.36,0-0.65-0.138-0.87-0.415C416.656,358.821,416.546,358.454,416.546,357.996z"/>
		<path fill="#19181C" d="M434.246,363.322c0-0.2,0.08-0.44,0.24-0.72l5.19-8.46l-5.01-8.43c-0.18-0.3-0.27-0.58-0.27-0.84
			c0-0.5,0.265-0.93,0.795-1.29c0.53-0.36,1.095-0.54,1.695-0.54c0.56,0,0.99,0.28,1.29,0.84l4.08,7.35l4.08-7.35
			c0.32-0.56,0.76-0.84,1.32-0.84c0.6,0,1.165,0.18,1.695,0.54c0.53,0.36,0.795,0.791,0.795,1.29c0,0.26-0.09,0.54-0.27,0.84
			l-5.01,8.43l5.19,8.46c0.14,0.26,0.21,0.5,0.21,0.72c0,0.52-0.28,0.975-0.84,1.365s-1.13,0.585-1.71,0.585
			c-0.48,0-0.83-0.21-1.05-0.63l-4.41-7.71l-4.38,7.71c-0.24,0.42-0.6,0.63-1.08,0.63c-0.56,0-1.125-0.195-1.695-0.585
			C434.531,364.296,434.246,363.842,434.246,363.322z"/>
	</g>
	<g>
		<path fill="#19181C" d="M281.387,165.823c0-0.62,0.25-1.09,0.75-1.41l3.54-2.7c0.24-0.2,0.51-0.3,0.81-0.3
			c0.44,0,0.84,0.12,1.2,0.36c0.36,0.24,0.54,0.54,0.54,0.9v19.5c0,0.38-0.195,0.68-0.585,0.9c-0.39,0.22-0.845,0.33-1.365,0.33
			c-0.54,0-1-0.11-1.38-0.33c-0.38-0.22-0.57-0.52-0.57-0.9v-16.02l-0.96,0.96c-0.2,0.18-0.44,0.27-0.72,0.27
			c-0.36,0-0.66-0.16-0.9-0.48C281.507,166.583,281.387,166.224,281.387,165.823z"/>
		<path fill="#19181C" d="M290.986,182.167v-2.924c0-0.884,0.302-1.759,0.906-2.623s1.336-1.648,2.197-2.352l2.878-2.086
			c0.945-0.706,1.75-1.452,2.413-2.238s0.996-1.572,0.996-2.359c0-0.706-0.237-1.331-0.709-1.875
			c-0.473-0.544-1.171-0.816-2.096-0.816c-0.785,0-1.428,0.227-1.931,0.68c-0.503,0.453-0.754,1.132-0.754,2.038
			c0,0.391-0.183,0.736-0.546,1.034c-0.364,0.299-0.851,0.448-1.461,0.448c-1.162,0-1.742-0.7-1.742-2.1
			c0-1.64,0.635-2.97,1.906-3.99c1.271-1.02,2.771-1.53,4.498-1.53c1.824,0,3.403,0.546,4.736,1.638s2,2.543,2,4.353
			c0,1.21-0.326,2.344-0.978,3.402c-0.652,1.059-1.449,1.955-2.391,2.691c-0.943,0.736-1.88,1.417-2.813,2.042
			c-0.933,0.625-1.726,1.25-2.379,1.875s-0.98,1.22-0.98,1.784v0.726h8.366c0.321,0,0.607,0.165,0.857,0.495
			c0.251,0.33,0.376,0.725,0.376,1.185c0,0.46-0.123,0.866-0.367,1.215c-0.246,0.35-0.525,0.525-0.838,0.525h-10.468
			c-0.373,0-0.745-0.121-1.117-0.362C291.173,182.8,290.986,182.509,290.986,182.167z"/>
		<path fill="#19181C" d="M306.526,176.713v-8.37c0-2.38,0.635-4.12,1.905-5.22c1.27-1.1,2.975-1.65,5.115-1.65s3.85,0.55,5.13,1.65
			s1.92,2.84,1.92,5.22v8.37c0,2.38-0.641,4.12-1.92,5.22c-1.28,1.101-2.99,1.65-5.13,1.65s-3.845-0.55-5.115-1.65
			C307.161,180.833,306.526,179.094,306.526,176.713z M310.426,176.713c0,2.3,1.04,3.45,3.12,3.45c2.1,0,3.15-1.149,3.15-3.45v-8.37
			c0-2.3-1.05-3.45-3.15-3.45c-2.08,0-3.12,1.15-3.12,3.45V176.713z M312.556,173.796c-0.26-0.285-0.39-0.658-0.39-1.119
			c0-0.46,0.125-0.828,0.375-1.102c0.25-0.274,0.595-0.412,1.035-0.412c0.42,0,0.754,0.138,1.005,0.412
			c0.25,0.274,0.375,0.642,0.375,1.102c0,0.461-0.125,0.834-0.375,1.119c-0.25,0.285-0.585,0.427-1.005,0.427
			C313.156,174.223,312.816,174.081,312.556,173.796z"/>
		<path fill="#19181C" d="M329.056,176.278c0-0.439,0.109-0.806,0.33-1.101c0.22-0.295,0.51-0.443,0.87-0.443h7.8
			c0.32,0,0.61,0.153,0.87,0.458c0.259,0.305,0.39,0.667,0.39,1.087c0,0.439-0.125,0.801-0.375,1.086
			c-0.25,0.286-0.545,0.429-0.885,0.429h-7.8c-0.36,0-0.65-0.138-0.87-0.415C329.165,177.103,329.056,176.735,329.056,176.278z"/>
		<path fill="#19181C" d="M347.805,178.417v-12.076c0-1.722,0.66-3.154,1.98-4.295c1.32-1.142,2.79-1.712,4.41-1.712
			c1.28,0,1.92,0.565,1.92,1.695c0,0.504-0.115,0.918-0.345,1.241c-0.23,0.323-0.525,0.484-0.885,0.484
			c-0.96,0-1.735,0.265-2.325,0.793c-0.59,0.529-0.885,1.133-0.885,1.812v12.039c0,1.458,1.07,2.187,3.21,2.187
			c0.82,0,1.23,0.575,1.23,1.725c0,0.565-0.14,0.989-0.42,1.271c-0.28,0.282-0.81,0.424-1.59,0.424c-1.68,0-3.15-0.476-4.41-1.427
			C348.435,181.625,347.805,180.239,347.805,178.417z"/>
		<path fill="#19181C" d="M357.135,178.153c0-0.66,0.16-1.12,0.48-1.38c0.32-0.26,0.81-0.39,1.47-0.39c0.76,0,1.275,0.13,1.545,0.39
			c0.27,0.26,0.405,0.63,0.405,1.11c0,0.72,0.29,1.28,0.87,1.68c0.58,0.4,1.32,0.6,2.22,0.6c2.12,0,3.18-1.11,3.18-3.33v-0.57
			c0-1.12-0.275-1.959-0.825-2.52c-0.55-0.56-1.325-0.84-2.325-0.84h-4.44c-0.581,0-0.985-0.129-1.215-0.388
			s-0.345-0.637-0.345-1.134c0-0.08,0.034-0.204,0.103-0.373s0.103-0.303,0.103-0.403l0.604-7.903c0.06-0.82,0.31-1.23,0.75-1.23
			h9.24c0.36,0,0.645,0.17,0.855,0.51c0.21,0.34,0.315,0.74,0.315,1.2c0,0.46-0.105,0.86-0.314,1.2
			c-0.209,0.34-0.493,0.51-0.852,0.51h-6.725l-0.39,4.95h2.31c2.14,0,3.85,0.515,5.13,1.545c1.28,1.03,1.92,2.655,1.92,4.875v0.57
			c0,2.32-0.64,4.025-1.92,5.115c-1.28,1.09-2.97,1.635-5.07,1.635c-2.18,0-3.905-0.535-5.175-1.605
			S357.135,179.634,357.135,178.153z"/>
		<path fill="#19181C" d="M373.244,176.713v-8.37c0-2.38,0.635-4.12,1.905-5.22c1.27-1.1,2.975-1.65,5.115-1.65s3.85,0.55,5.13,1.65
			s1.92,2.84,1.92,5.22v8.37c0,2.38-0.641,4.12-1.92,5.22c-1.28,1.101-2.99,1.65-5.13,1.65s-3.845-0.55-5.115-1.65
			C373.879,180.833,373.244,179.094,373.244,176.713z M377.144,176.713c0,2.3,1.04,3.45,3.12,3.45c2.1,0,3.15-1.149,3.15-3.45v-8.37
			c0-2.3-1.05-3.45-3.15-3.45c-2.08,0-3.12,1.15-3.12,3.45V176.713z M379.274,173.796c-0.26-0.285-0.39-0.658-0.39-1.119
			c0-0.46,0.125-0.828,0.375-1.102c0.25-0.274,0.595-0.412,1.035-0.412c0.42,0,0.754,0.138,1.005,0.412
			c0.25,0.274,0.375,0.642,0.375,1.102c0,0.461-0.125,0.834-0.375,1.119c-0.25,0.285-0.585,0.427-1.005,0.427
			C379.874,174.223,379.534,174.081,379.274,173.796z"/>
		<path fill="#19181C" d="M389.774,176.278c0-0.439,0.109-0.806,0.33-1.101c0.22-0.295,0.51-0.443,0.87-0.443h7.8
			c0.32,0,0.61,0.153,0.87,0.458c0.259,0.305,0.39,0.667,0.39,1.087c0,0.439-0.125,0.801-0.375,1.086
			c-0.25,0.286-0.545,0.429-0.885,0.429h-7.8c-0.36,0-0.65-0.138-0.87-0.415C389.883,177.103,389.774,176.735,389.774,176.278z"/>
		<path fill="#19181C" d="M401.144,181.604c0-0.2,0.08-0.44,0.24-0.72l5.19-8.46l-5.01-8.43c-0.18-0.3-0.27-0.58-0.27-0.84
			c0-0.5,0.265-0.93,0.795-1.29c0.53-0.36,1.095-0.54,1.695-0.54c0.56,0,0.99,0.28,1.29,0.84l4.08,7.35l4.08-7.35
			c0.32-0.56,0.76-0.84,1.32-0.84c0.6,0,1.165,0.18,1.695,0.54c0.53,0.36,0.795,0.791,0.795,1.29c0,0.26-0.09,0.54-0.27,0.84
			l-5.01,8.43l5.19,8.46c0.14,0.26,0.21,0.5,0.21,0.72c0,0.52-0.28,0.975-0.84,1.365s-1.13,0.585-1.71,0.585
			c-0.48,0-0.83-0.21-1.05-0.63l-4.41-7.71l-4.38,7.71c-0.24,0.42-0.6,0.63-1.08,0.63c-0.56,0-1.125-0.195-1.695-0.585
			C401.429,182.578,401.144,182.124,401.144,181.604z"/>
		<path fill="#19181C" d="M418.063,182.308c0-1.149,0.41-1.725,1.23-1.725c2.12,0,3.18-0.729,3.18-2.187v-12.039
			c0-0.679-0.291-1.282-0.87-1.812c-0.581-0.529-1.35-0.793-2.31-0.793c-0.36,0-0.655-0.161-0.885-0.484
			c-0.23-0.322-0.345-0.736-0.345-1.241c0-1.13,0.64-1.695,1.92-1.695c1.62,0,3.09,0.571,4.41,1.712
			c1.32,1.141,1.98,2.573,1.98,4.295v12.076c0,1.822-0.63,3.209-1.89,4.16c-1.26,0.951-2.73,1.427-4.41,1.427
			c-0.78,0-1.311-0.142-1.59-0.424C418.203,183.297,418.063,182.874,418.063,182.308z"/>
		<path fill="#19181C" d="M284.492,212.278c0-0.439,0.109-0.806,0.33-1.101c0.22-0.295,0.51-0.443,0.87-0.443h7.8
			c0.32,0,0.61,0.153,0.87,0.458c0.259,0.305,0.39,0.667,0.39,1.087c0,0.439-0.125,0.801-0.375,1.086
			c-0.25,0.286-0.545,0.429-0.885,0.429h-7.8c-0.36,0-0.65-0.138-0.87-0.415C284.602,213.103,284.492,212.735,284.492,212.278z"/>
		<path fill="#19181C" d="M297.242,214.417v-12.076c0-1.722,0.66-3.154,1.98-4.295c1.32-1.142,2.79-1.712,4.41-1.712
			c1.28,0,1.92,0.565,1.92,1.695c0,0.504-0.115,0.918-0.345,1.241c-0.23,0.323-0.525,0.484-0.885,0.484
			c-0.96,0-1.735,0.265-2.325,0.793c-0.59,0.529-0.885,1.133-0.885,1.812v12.039c0,1.458,1.07,2.187,3.21,2.187
			c0.82,0,1.23,0.575,1.23,1.725c0,0.565-0.14,0.989-0.42,1.271c-0.28,0.282-0.81,0.424-1.59,0.424c-1.68,0-3.15-0.476-4.41-1.427
			C297.872,217.625,297.242,216.239,297.242,214.417z"/>
		<path fill="#19181C" d="M306.631,214.124c0-0.58,0.14-0.98,0.42-1.2c0.28-0.22,0.76-0.33,1.44-0.33c0.78,0,1.31,0.105,1.59,0.315
			s0.42,0.565,0.42,1.065c0,0.68,0.28,1.215,0.84,1.605c0.56,0.39,1.32,0.585,2.28,0.585c1.12,0,1.935-0.255,2.445-0.765
			c0.51-0.51,0.765-1.335,0.765-2.475v-0.57c0-1.9-1.1-2.85-3.3-2.85c-0.76,0-1.14-0.51-1.14-1.53s0.387-1.53,1.161-1.53
			c0.873,0,1.548-0.194,2.024-0.582c0.477-0.388,0.715-1.169,0.715-2.343c0-1.75-0.88-2.625-2.64-2.625
			c-1.78,0-2.67,0.667-2.67,1.999c0,0.995-0.62,1.492-1.86,1.492c-0.84,0-1.385-0.115-1.635-0.343
			c-0.25-0.229-0.375-0.671-0.375-1.328c0-0.582,0.109-1.159,0.33-1.731c0.22-0.572,0.564-1.129,1.035-1.671
			c0.47-0.542,1.155-0.984,2.055-1.325s1.95-0.512,3.15-0.512c4.24,0,6.36,1.797,6.36,5.389c0,1.195-0.207,2.237-0.621,3.123
			c-0.414,0.887-0.994,1.5-1.741,1.838c2.034,0.8,3.052,2.31,3.052,4.53v0.57c0,2.28-0.666,3.96-1.995,5.04
			c-1.331,1.08-3.065,1.62-5.205,1.62c-2.26,0-3.975-0.56-5.145-1.68C307.216,216.784,306.631,215.523,306.631,214.124z"/>
		<path fill="#19181C" d="M323.041,212.713v-8.37c0-2.38,0.635-4.12,1.905-5.22c1.27-1.1,2.975-1.65,5.115-1.65s3.85,0.55,5.13,1.65
			s1.92,2.84,1.92,5.22v8.37c0,2.38-0.641,4.12-1.92,5.22c-1.28,1.101-2.99,1.65-5.13,1.65s-3.845-0.55-5.115-1.65
			C323.676,216.833,323.041,215.094,323.041,212.713z M326.941,212.713c0,2.3,1.04,3.45,3.12,3.45c2.1,0,3.15-1.149,3.15-3.45v-8.37
			c0-2.3-1.05-3.45-3.15-3.45c-2.08,0-3.12,1.15-3.12,3.45V212.713z M329.071,209.796c-0.26-0.285-0.39-0.658-0.39-1.119
			c0-0.46,0.125-0.828,0.375-1.102c0.25-0.274,0.595-0.412,1.035-0.412c0.42,0,0.754,0.138,1.005,0.412
			c0.25,0.274,0.375,0.642,0.375,1.102c0,0.461-0.125,0.834-0.375,1.119c-0.25,0.285-0.585,0.427-1.005,0.427
			C329.671,210.223,329.331,210.081,329.071,209.796z"/>
		<path fill="#19181C" d="M345.571,212.278c0-0.439,0.109-0.806,0.33-1.101c0.22-0.295,0.51-0.443,0.87-0.443h7.8
			c0.32,0,0.61,0.153,0.87,0.458c0.259,0.305,0.39,0.667,0.39,1.087c0,0.439-0.125,0.801-0.375,1.086
			c-0.25,0.286-0.545,0.429-0.885,0.429h-7.8c-0.36,0-0.65-0.138-0.87-0.415C345.68,213.103,345.571,212.735,345.571,212.278z"/>
		<path fill="#19181C" d="M363.51,217.753c0-0.24,0.08-0.46,0.24-0.66l3.54-4.95l-3.3-4.59c-0.16-0.22-0.24-0.43-0.24-0.63
			c0-0.44,0.3-0.875,0.9-1.305c0.6-0.43,1.16-0.645,1.68-0.645c0.399,0,0.69,0.14,0.87,0.42l2.73,4.38l2.76-4.35
			c0.2-0.3,0.5-0.45,0.9-0.45c0.5,0,1.05,0.215,1.65,0.645c0.6,0.431,0.9,0.865,0.9,1.305c0,0.16-0.08,0.37-0.24,0.63l-3.33,4.62
			l3.57,4.92c0.16,0.16,0.24,0.38,0.24,0.66c0,0.42-0.29,0.845-0.87,1.275s-1.13,0.645-1.65,0.645c-0.4,0-0.7-0.14-0.9-0.42
			l-3.03-4.56l-3,4.56c-0.2,0.28-0.52,0.42-0.96,0.42s-0.96-0.215-1.56-0.645C363.811,218.599,363.51,218.173,363.51,217.753z"/>
		<path fill="#19181C" d="M377.46,218.308c0-1.149,0.41-1.725,1.23-1.725c2.12,0,3.18-0.729,3.18-2.187v-12.039
			c0-0.679-0.291-1.282-0.87-1.812c-0.581-0.529-1.35-0.793-2.31-0.793c-0.36,0-0.655-0.161-0.885-0.484
			c-0.23-0.322-0.345-0.736-0.345-1.241c0-1.13,0.64-1.695,1.92-1.695c1.62,0,3.09,0.571,4.41,1.712
			c1.32,1.141,1.98,2.573,1.98,4.295v12.076c0,1.822-0.63,3.209-1.89,4.16c-1.26,0.951-2.73,1.427-4.41,1.427
			c-0.78,0-1.311-0.142-1.59-0.424C377.6,219.297,377.46,218.874,377.46,218.308z"/>
		<path fill="#19181C" d="M394.29,212.278c0-0.439,0.109-0.806,0.33-1.101c0.22-0.295,0.51-0.443,0.87-0.443h7.8
			c0.32,0,0.61,0.153,0.87,0.458c0.259,0.305,0.39,0.667,0.39,1.087c0,0.439-0.125,0.801-0.375,1.086
			c-0.25,0.286-0.545,0.429-0.885,0.429h-7.8c-0.36,0-0.65-0.138-0.87-0.415C394.399,213.103,394.29,212.735,394.29,212.278z"/>
		<path fill="#19181C" d="M412.229,217.753c0-0.24,0.08-0.46,0.24-0.66l3.54-4.95l-3.3-4.59c-0.16-0.22-0.24-0.43-0.24-0.63
			c0-0.44,0.3-0.875,0.9-1.305c0.6-0.43,1.16-0.645,1.68-0.645c0.399,0,0.69,0.14,0.87,0.42l2.73,4.38l2.76-4.35
			c0.2-0.3,0.5-0.45,0.9-0.45c0.5,0,1.05,0.215,1.65,0.645c0.6,0.431,0.9,0.865,0.9,1.305c0,0.16-0.08,0.37-0.24,0.63l-3.33,4.62
			l3.57,4.92c0.16,0.16,0.24,0.38,0.24,0.66c0,0.42-0.29,0.845-0.87,1.275s-1.13,0.645-1.65,0.645c-0.4,0-0.7-0.14-0.9-0.42
			l-3.03-4.56l-3,4.56c-0.2,0.28-0.52,0.42-0.96,0.42s-0.96-0.215-1.56-0.645C412.529,218.599,412.229,218.173,412.229,217.753z"/>
	</g>
	<g>
		<path fill="#19181C" d="M602.086,177.435v-0.358c0-2.865,1.191-4.735,3.573-5.611c-1.902-0.692-2.853-2.26-2.853-4.705
			c0-1.812,0.566-3.146,1.701-4.003s2.678-1.285,4.628-1.285c1.94,0,3.48,0.429,4.62,1.285c1.141,0.856,1.71,2.191,1.71,4.003
			c0,2.444-0.96,4.012-2.88,4.705c2.38,0.856,3.57,2.726,3.57,5.611v0.358c0,2.109-0.641,3.662-1.92,4.657
			c-1.28,0.995-2.98,1.492-5.101,1.492s-3.825-0.498-5.114-1.492C602.73,181.097,602.086,179.544,602.086,177.435z M605.986,177.017
			c0,2.337,1.05,3.506,3.149,3.506c2.08,0,3.12-1.169,3.12-3.506v-0.61c0-2.236-1.04-3.354-3.12-3.354
			c-2.1,0-3.149,1.118-3.149,3.354V177.017z M609.136,164.533c-1.72,0-2.579,0.911-2.579,2.73c0,1.82,0.859,2.73,2.579,2.73
			s2.58-0.91,2.58-2.73C611.716,165.444,610.855,164.533,609.136,164.533z"/>
		<path fill="#19181C" d="M618.496,176.713v-8.37c0-2.38,0.635-4.12,1.904-5.22s2.975-1.65,5.115-1.65s3.85,0.55,5.13,1.65
			s1.921,2.84,1.921,5.22v8.37c0,2.38-0.641,4.12-1.921,5.22c-1.28,1.101-2.989,1.65-5.13,1.65s-3.846-0.55-5.115-1.65
			C619.131,180.833,618.496,179.094,618.496,176.713z M622.396,176.713c0,2.3,1.04,3.45,3.12,3.45c2.1,0,3.15-1.149,3.15-3.45v-8.37
			c0-2.3-1.051-3.45-3.15-3.45c-2.08,0-3.12,1.15-3.12,3.45V176.713z M624.525,173.796c-0.26-0.285-0.39-0.658-0.39-1.119
			c0-0.46,0.124-0.828,0.375-1.102c0.25-0.274,0.595-0.412,1.035-0.412c0.42,0,0.755,0.138,1.005,0.412
			c0.25,0.274,0.375,0.642,0.375,1.102c0,0.461-0.125,0.834-0.375,1.119s-0.585,0.427-1.005,0.427
			C625.125,174.223,624.785,174.081,624.525,173.796z"/>
		<path fill="#19181C" d="M641.025,176.278c0-0.439,0.109-0.806,0.33-1.101c0.22-0.295,0.51-0.443,0.869-0.443h7.801
			c0.32,0,0.609,0.153,0.87,0.458c0.259,0.305,0.39,0.667,0.39,1.087c0,0.439-0.125,0.801-0.375,1.086
			c-0.25,0.286-0.545,0.429-0.885,0.429h-7.801c-0.359,0-0.649-0.138-0.869-0.415C641.135,177.103,641.025,176.735,641.025,176.278z
			"/>
		<path fill="#19181C" d="M659.775,178.417v-12.076c0-1.722,0.66-3.154,1.979-4.295c1.32-1.142,2.79-1.712,4.41-1.712
			c1.28,0,1.92,0.565,1.92,1.695c0,0.504-0.115,0.918-0.345,1.241c-0.23,0.323-0.525,0.484-0.885,0.484
			c-0.961,0-1.736,0.265-2.326,0.793c-0.59,0.529-0.885,1.133-0.885,1.812v12.039c0,1.458,1.07,2.187,3.211,2.187
			c0.819,0,1.229,0.575,1.229,1.725c0,0.565-0.14,0.989-0.42,1.271s-0.81,0.424-1.59,0.424c-1.681,0-3.15-0.476-4.41-1.427
			C660.404,181.625,659.775,180.239,659.775,178.417z"/>
		<path fill="#19181C" d="M669.164,178.124c0-0.58,0.141-0.98,0.42-1.2c0.28-0.22,0.76-0.33,1.44-0.33c0.78,0,1.31,0.105,1.59,0.315
			s0.421,0.565,0.421,1.065c0,0.68,0.279,1.215,0.84,1.605c0.559,0.39,1.319,0.585,2.279,0.585c1.12,0,1.936-0.255,2.445-0.765
			c0.51-0.51,0.765-1.335,0.765-2.475v-0.57c0-1.9-1.101-2.85-3.3-2.85c-0.76,0-1.141-0.51-1.141-1.53s0.387-1.53,1.162-1.53
			c0.873,0,1.547-0.194,2.023-0.582c0.477-0.388,0.715-1.169,0.715-2.343c0-1.75-0.88-2.625-2.64-2.625
			c-1.78,0-2.67,0.667-2.67,1.999c0,0.995-0.62,1.492-1.86,1.492c-0.84,0-1.385-0.115-1.635-0.343
			c-0.25-0.229-0.375-0.671-0.375-1.328c0-0.582,0.109-1.159,0.33-1.731c0.22-0.572,0.564-1.129,1.035-1.671
			c0.469-0.542,1.154-0.984,2.055-1.325s1.95-0.512,3.15-0.512c4.239,0,6.359,1.797,6.359,5.389c0,1.195-0.207,2.237-0.621,3.123
			c-0.414,0.887-0.994,1.5-1.74,1.838c2.033,0.8,3.052,2.31,3.052,4.53v0.57c0,2.28-0.665,3.96-1.995,5.04s-3.065,1.62-5.205,1.62
			c-2.26,0-3.975-0.56-5.145-1.68C669.75,180.784,669.164,179.523,669.164,178.124z"/>
		<path fill="#19181C" d="M685.574,176.713v-8.37c0-2.38,0.635-4.12,1.905-5.22c1.27-1.1,2.975-1.65,5.114-1.65
			c2.141,0,3.851,0.55,5.131,1.65c1.279,1.1,1.92,2.84,1.92,5.22v8.37c0,2.38-0.641,4.12-1.92,5.22
			c-1.28,1.101-2.99,1.65-5.131,1.65c-2.14,0-3.845-0.55-5.114-1.65C686.209,180.833,685.574,179.094,685.574,176.713z
			 M689.475,176.713c0,2.3,1.039,3.45,3.119,3.45c2.101,0,3.15-1.149,3.15-3.45v-8.37c0-2.3-1.05-3.45-3.15-3.45
			c-2.08,0-3.119,1.15-3.119,3.45V176.713z M691.604,173.796c-0.261-0.285-0.39-0.658-0.39-1.119c0-0.46,0.124-0.828,0.375-1.102
			c0.25-0.274,0.594-0.412,1.035-0.412c0.42,0,0.754,0.138,1.004,0.412c0.25,0.274,0.375,0.642,0.375,1.102
			c0,0.461-0.125,0.834-0.375,1.119s-0.584,0.427-1.004,0.427C692.204,174.223,691.864,174.081,691.604,173.796z"/>
		<path fill="#19181C" d="M702.104,176.278c0-0.439,0.109-0.806,0.33-1.101s0.51-0.443,0.87-0.443h7.8
			c0.32,0,0.61,0.153,0.871,0.458c0.259,0.305,0.389,0.667,0.389,1.087c0,0.439-0.125,0.801-0.375,1.086
			c-0.25,0.286-0.545,0.429-0.885,0.429h-7.8c-0.36,0-0.649-0.138-0.87-0.415S702.104,176.735,702.104,176.278z"/>
		<path fill="#19181C" d="M713.475,181.604c0-0.2,0.079-0.44,0.239-0.72l5.19-8.46l-5.01-8.43c-0.181-0.3-0.271-0.58-0.271-0.84
			c0-0.5,0.265-0.93,0.795-1.29s1.095-0.54,1.694-0.54c0.561,0,0.99,0.28,1.291,0.84l4.08,7.35l4.08-7.35
			c0.319-0.56,0.76-0.84,1.319-0.84c0.601,0,1.165,0.18,1.695,0.54s0.795,0.791,0.795,1.29c0,0.26-0.09,0.54-0.271,0.84l-5.01,8.43
			l5.19,8.46c0.14,0.26,0.21,0.5,0.21,0.72c0,0.52-0.28,0.975-0.84,1.365c-0.561,0.39-1.131,0.585-1.711,0.585
			c-0.479,0-0.83-0.21-1.049-0.63l-4.41-7.71l-4.381,7.71c-0.24,0.42-0.6,0.63-1.08,0.63c-0.56,0-1.125-0.195-1.694-0.585
			C713.759,182.578,713.475,182.124,713.475,181.604z"/>
		<path fill="#19181C" d="M730.394,182.308c0-1.149,0.409-1.725,1.229-1.725c2.12,0,3.181-0.729,3.181-2.187v-12.039
			c0-0.679-0.29-1.282-0.87-1.812c-0.58-0.529-1.35-0.793-2.311-0.793c-0.359,0-0.654-0.161-0.885-0.484
			c-0.23-0.322-0.345-0.736-0.345-1.241c0-1.13,0.64-1.695,1.92-1.695c1.62,0,3.091,0.571,4.41,1.712
			c1.319,1.141,1.979,2.573,1.979,4.295v12.076c0,1.822-0.629,3.209-1.89,4.16c-1.26,0.951-2.729,1.427-4.409,1.427
			c-0.781,0-1.311-0.142-1.591-0.424S730.394,182.874,730.394,182.308z"/>
		<path fill="#19181C" d="M600.571,212.278c0-0.439,0.109-0.806,0.33-1.101c0.22-0.295,0.51-0.443,0.87-0.443h7.8
			c0.319,0,0.61,0.153,0.87,0.458c0.26,0.305,0.39,0.667,0.39,1.087c0,0.439-0.125,0.801-0.375,1.086
			c-0.25,0.286-0.545,0.429-0.885,0.429h-7.8c-0.36,0-0.65-0.138-0.87-0.415C600.681,213.103,600.571,212.735,600.571,212.278z"/>
		<path fill="#19181C" d="M613.32,214.417v-12.076c0-1.722,0.66-3.154,1.98-4.295c1.32-1.142,2.79-1.712,4.41-1.712
			c1.279,0,1.92,0.565,1.92,1.695c0,0.504-0.115,0.918-0.346,1.241c-0.229,0.323-0.524,0.484-0.885,0.484
			c-0.959,0-1.734,0.265-2.324,0.793c-0.59,0.529-0.885,1.133-0.885,1.812v12.039c0,1.458,1.069,2.187,3.209,2.187
			c0.82,0,1.23,0.575,1.23,1.725c0,0.565-0.141,0.989-0.42,1.271c-0.28,0.282-0.811,0.424-1.59,0.424c-1.68,0-3.15-0.476-4.41-1.427
			C613.951,217.625,613.32,216.239,613.32,214.417z"/>
		<path fill="#19181C" d="M622.711,214.124c0-0.58,0.139-0.98,0.42-1.2c0.279-0.22,0.76-0.33,1.439-0.33
			c0.78,0,1.31,0.105,1.59,0.315s0.42,0.565,0.42,1.065c0,0.68,0.28,1.215,0.84,1.605c0.561,0.39,1.32,0.585,2.28,0.585
			c1.12,0,1.935-0.255,2.445-0.765c0.51-0.51,0.765-1.335,0.765-2.475v-0.57c0-1.9-1.1-2.85-3.3-2.85c-0.761,0-1.14-0.51-1.14-1.53
			s0.387-1.53,1.16-1.53c0.873,0,1.549-0.194,2.024-0.582c0.477-0.388,0.715-1.169,0.715-2.343c0-1.75-0.88-2.625-2.64-2.625
			c-1.78,0-2.67,0.667-2.67,1.999c0,0.995-0.62,1.492-1.86,1.492c-0.84,0-1.385-0.115-1.635-0.343
			c-0.251-0.229-0.375-0.671-0.375-1.328c0-0.582,0.109-1.159,0.33-1.731c0.22-0.572,0.564-1.129,1.034-1.671
			c0.471-0.542,1.156-0.984,2.056-1.325s1.95-0.512,3.149-0.512c4.24,0,6.36,1.797,6.36,5.389c0,1.195-0.207,2.237-0.621,3.123
			c-0.413,0.887-0.994,1.5-1.741,1.838c2.035,0.8,3.053,2.31,3.053,4.53v0.57c0,2.28-0.666,3.96-1.995,5.04
			c-1.331,1.08-3.065,1.62-5.205,1.62c-2.261,0-3.976-0.56-5.146-1.68C623.295,216.784,622.711,215.523,622.711,214.124z"/>
		<path fill="#19181C" d="M639.12,212.713v-8.37c0-2.38,0.635-4.12,1.905-5.22c1.27-1.1,2.975-1.65,5.115-1.65
			c2.14,0,3.85,0.55,5.129,1.65c1.28,1.1,1.921,2.84,1.921,5.22v8.37c0,2.38-0.641,4.12-1.921,5.22
			c-1.279,1.101-2.989,1.65-5.129,1.65c-2.141,0-3.846-0.55-5.115-1.65C639.755,216.833,639.12,215.094,639.12,212.713z
			 M643.02,212.713c0,2.3,1.041,3.45,3.121,3.45c2.1,0,3.149-1.149,3.149-3.45v-8.37c0-2.3-1.05-3.45-3.149-3.45
			c-2.08,0-3.121,1.15-3.121,3.45V212.713z M645.15,209.796c-0.26-0.285-0.391-0.658-0.391-1.119c0-0.46,0.125-0.828,0.375-1.102
			c0.25-0.274,0.596-0.412,1.035-0.412c0.42,0,0.755,0.138,1.006,0.412c0.25,0.274,0.375,0.642,0.375,1.102
			c0,0.461-0.125,0.834-0.375,1.119c-0.251,0.285-0.586,0.427-1.006,0.427S645.41,210.081,645.15,209.796z"/>
		<path fill="#19181C" d="M661.65,212.278c0-0.439,0.109-0.806,0.33-1.101c0.219-0.295,0.51-0.443,0.869-0.443h7.801
			c0.319,0,0.609,0.153,0.869,0.458c0.26,0.305,0.391,0.667,0.391,1.087c0,0.439-0.125,0.801-0.375,1.086
			c-0.25,0.286-0.545,0.429-0.885,0.429h-7.801c-0.359,0-0.65-0.138-0.869-0.415C661.76,213.103,661.65,212.735,661.65,212.278z"/>
		<path fill="#19181C" d="M679.59,217.753c0-0.24,0.079-0.46,0.24-0.66l3.539-4.95l-3.3-4.59c-0.16-0.22-0.239-0.43-0.239-0.63
			c0-0.44,0.299-0.875,0.899-1.305c0.601-0.43,1.159-0.645,1.681-0.645c0.398,0,0.689,0.14,0.869,0.42l2.73,4.38l2.76-4.35
			c0.199-0.3,0.5-0.45,0.9-0.45c0.499,0,1.049,0.215,1.649,0.645c0.601,0.431,0.899,0.865,0.899,1.305c0,0.16-0.08,0.37-0.239,0.63
			l-3.33,4.62l3.569,4.92c0.16,0.16,0.24,0.38,0.24,0.66c0,0.42-0.289,0.845-0.869,1.275s-1.131,0.645-1.65,0.645
			c-0.4,0-0.7-0.14-0.9-0.42l-3.029-4.56l-3,4.56c-0.201,0.28-0.521,0.42-0.961,0.42c-0.439,0-0.959-0.215-1.56-0.645
			C679.89,218.599,679.59,218.173,679.59,217.753z"/>
		<path fill="#19181C" d="M693.539,218.308c0-1.149,0.41-1.725,1.23-1.725c2.119,0,3.18-0.729,3.18-2.187v-12.039
			c0-0.679-0.291-1.282-0.87-1.812c-0.581-0.529-1.351-0.793-2.31-0.793c-0.36,0-0.656-0.161-0.885-0.484
			c-0.23-0.322-0.346-0.736-0.346-1.241c0-1.13,0.64-1.695,1.92-1.695c1.62,0,3.09,0.571,4.41,1.712
			c1.32,1.141,1.98,2.573,1.98,4.295v12.076c0,1.822-0.631,3.209-1.891,4.16c-1.26,0.951-2.73,1.427-4.41,1.427
			c-0.779,0-1.311-0.142-1.59-0.424C693.679,219.297,693.539,218.874,693.539,218.308z"/>
		<path fill="#19181C" d="M710.369,212.278c0-0.439,0.109-0.806,0.33-1.101c0.219-0.295,0.51-0.443,0.869-0.443h7.801
			c0.319,0,0.609,0.153,0.869,0.458c0.26,0.305,0.391,0.667,0.391,1.087c0,0.439-0.125,0.801-0.375,1.086
			c-0.25,0.286-0.545,0.429-0.885,0.429h-7.801c-0.359,0-0.65-0.138-0.869-0.415C710.479,213.103,710.369,212.735,710.369,212.278z"
			/>
		<path fill="#19181C" d="M728.309,217.753c0-0.24,0.079-0.46,0.24-0.66l3.539-4.95l-3.3-4.59c-0.16-0.22-0.239-0.43-0.239-0.63
			c0-0.44,0.299-0.875,0.899-1.305c0.601-0.43,1.159-0.645,1.681-0.645c0.398,0,0.689,0.14,0.869,0.42l2.73,4.38l2.76-4.35
			c0.199-0.3,0.5-0.45,0.9-0.45c0.499,0,1.049,0.215,1.649,0.645c0.601,0.431,0.899,0.865,0.899,1.305c0,0.16-0.08,0.37-0.239,0.63
			l-3.33,4.62l3.569,4.92c0.16,0.16,0.24,0.38,0.24,0.66c0,0.42-0.289,0.845-0.869,1.275s-1.131,0.645-1.65,0.645
			c-0.4,0-0.7-0.14-0.9-0.42l-3.029-4.56l-3,4.56c-0.201,0.28-0.521,0.42-0.961,0.42c-0.439,0-0.959-0.215-1.56-0.645
			C728.608,218.599,728.309,218.173,728.309,217.753z"/>
	</g>
	<g>
		<path fill="#19181C" d="M579.329,359.842c0-0.58,0.14-0.98,0.42-1.2c0.28-0.22,0.76-0.33,1.44-0.33
			c0.779,0,1.309,0.105,1.59,0.315c0.279,0.21,0.42,0.565,0.42,1.065c0,0.68,0.279,1.215,0.84,1.605
			c0.56,0.39,1.32,0.585,2.279,0.585c1.121,0,1.936-0.255,2.445-0.765c0.51-0.51,0.766-1.335,0.766-2.475v-0.57
			c0-1.9-1.101-2.85-3.301-2.85c-0.76,0-1.14-0.51-1.14-1.53s0.387-1.53,1.161-1.53c0.873,0,1.548-0.194,2.023-0.582
			c0.477-0.388,0.715-1.169,0.715-2.343c0-1.75-0.879-2.625-2.639-2.625c-1.781,0-2.67,0.667-2.67,1.999
			c0,0.995-0.621,1.492-1.861,1.492c-0.84,0-1.385-0.115-1.635-0.343c-0.25-0.229-0.375-0.671-0.375-1.328
			c0-0.582,0.109-1.159,0.33-1.731c0.221-0.572,0.564-1.129,1.035-1.671c0.47-0.542,1.155-0.984,2.055-1.325
			c0.9-0.341,1.951-0.512,3.15-0.512c4.24,0,6.359,1.797,6.359,5.389c0,1.195-0.207,2.237-0.621,3.123
			c-0.413,0.887-0.994,1.5-1.74,1.838c2.034,0.8,3.053,2.31,3.053,4.53v0.57c0,2.28-0.666,3.96-1.996,5.04s-3.064,1.62-5.205,1.62
			c-2.26,0-3.975-0.56-5.145-1.68C579.914,362.502,579.329,361.242,579.329,359.842z"/>
		<path fill="#19181C" d="M595.738,358.432v-8.37c0-2.38,0.635-4.12,1.906-5.22c1.27-1.1,2.975-1.65,5.114-1.65
			s3.851,0.55,5.13,1.65s1.92,2.84,1.92,5.22v8.37c0,2.38-0.641,4.12-1.92,5.22c-1.279,1.101-2.99,1.65-5.13,1.65
			s-3.845-0.55-5.114-1.65C596.373,362.552,595.738,360.812,595.738,358.432z M599.639,358.432c0,2.3,1.04,3.45,3.12,3.45
			c2.101,0,3.149-1.149,3.149-3.45v-8.37c0-2.3-1.049-3.45-3.149-3.45c-2.08,0-3.12,1.15-3.12,3.45V358.432z M601.77,355.514
			c-0.261-0.285-0.391-0.658-0.391-1.119c0-0.46,0.125-0.828,0.375-1.102c0.25-0.274,0.595-0.412,1.035-0.412
			c0.42,0,0.754,0.138,1.005,0.412c0.25,0.274,0.375,0.642,0.375,1.102c0,0.461-0.125,0.834-0.375,1.119
			c-0.251,0.285-0.585,0.427-1.005,0.427S602.029,355.799,601.77,355.514z"/>
		<path fill="#19181C" d="M618.269,357.996c0-0.439,0.109-0.806,0.33-1.101c0.22-0.295,0.51-0.443,0.87-0.443h7.8
			c0.319,0,0.61,0.153,0.87,0.458c0.26,0.305,0.39,0.667,0.39,1.087c0,0.439-0.125,0.801-0.375,1.086
			c-0.25,0.286-0.545,0.429-0.885,0.429h-7.8c-0.36,0-0.65-0.138-0.87-0.415C618.378,358.821,618.269,358.454,618.269,357.996z"/>
		<path fill="#19181C" d="M635.969,363.322c0-0.2,0.079-0.44,0.239-0.72l5.19-8.46l-5.01-8.43c-0.181-0.3-0.271-0.58-0.271-0.84
			c0-0.5,0.265-0.93,0.795-1.29s1.095-0.54,1.694-0.54c0.561,0,0.99,0.28,1.291,0.84l4.08,7.35l4.08-7.35
			c0.319-0.56,0.76-0.84,1.319-0.84c0.601,0,1.165,0.18,1.695,0.54s0.795,0.791,0.795,1.29c0,0.26-0.09,0.54-0.271,0.84l-5.01,8.43
			l5.19,8.46c0.14,0.26,0.21,0.5,0.21,0.72c0,0.52-0.28,0.975-0.84,1.365c-0.561,0.39-1.131,0.585-1.711,0.585
			c-0.479,0-0.83-0.21-1.049-0.63l-4.41-7.71l-4.381,7.71c-0.24,0.42-0.6,0.63-1.08,0.63c-0.56,0-1.125-0.195-1.694-0.585
			C636.253,364.296,635.969,363.842,635.969,363.322z"/>
	</g>
	<g>
		<path fill="#19181C" d="M472.501,184.731c0-0.58,0.14-0.98,0.42-1.2c0.28-0.22,0.76-0.33,1.44-0.33c0.78,0,1.31,0.105,1.59,0.315
			s0.42,0.565,0.42,1.065c0,0.68,0.28,1.215,0.84,1.605c0.56,0.39,1.32,0.585,2.28,0.585c1.12,0,1.935-0.255,2.445-0.765
			c0.51-0.51,0.765-1.335,0.765-2.475v-0.57c0-1.9-1.1-2.85-3.3-2.85c-0.76,0-1.14-0.51-1.14-1.53s0.387-1.53,1.161-1.53
			c0.873,0,1.548-0.194,2.024-0.582c0.477-0.388,0.715-1.169,0.715-2.343c0-1.75-0.88-2.625-2.64-2.625
			c-1.78,0-2.67,0.667-2.67,1.999c0,0.995-0.62,1.492-1.86,1.492c-0.84,0-1.385-0.115-1.635-0.343
			c-0.25-0.229-0.375-0.671-0.375-1.328c0-0.582,0.109-1.159,0.33-1.731c0.22-0.572,0.564-1.129,1.035-1.671
			c0.47-0.542,1.155-0.984,2.055-1.325s1.95-0.512,3.15-0.512c4.24,0,6.36,1.797,6.36,5.389c0,1.195-0.207,2.237-0.621,3.123
			c-0.414,0.887-0.994,1.5-1.741,1.838c2.034,0.8,3.052,2.31,3.052,4.53v0.57c0,2.28-0.666,3.96-1.995,5.04
			c-1.331,1.08-3.065,1.62-5.205,1.62c-2.26,0-3.975-0.56-5.145-1.68C473.086,187.392,472.501,186.131,472.501,184.731z"/>
		<path fill="#19181C" d="M488.911,183.321v-8.37c0-2.38,0.635-4.12,1.905-5.22c1.27-1.1,2.975-1.65,5.115-1.65s3.85,0.55,5.13,1.65
			s1.92,2.84,1.92,5.22v8.37c0,2.38-0.641,4.12-1.92,5.22c-1.28,1.101-2.99,1.65-5.13,1.65s-3.845-0.55-5.115-1.65
			C489.545,187.441,488.911,185.702,488.911,183.321z M492.811,183.321c0,2.3,1.04,3.45,3.12,3.45c2.1,0,3.15-1.149,3.15-3.45v-8.37
			c0-2.3-1.05-3.45-3.15-3.45c-2.08,0-3.12,1.15-3.12,3.45V183.321z M494.941,180.404c-0.26-0.285-0.39-0.658-0.39-1.119
			c0-0.46,0.125-0.828,0.375-1.102c0.25-0.274,0.595-0.412,1.035-0.412c0.42,0,0.754,0.138,1.005,0.412
			c0.25,0.274,0.375,0.642,0.375,1.102c0,0.461-0.125,0.834-0.375,1.119c-0.25,0.285-0.585,0.427-1.005,0.427
			C495.541,180.831,495.201,180.689,494.941,180.404z"/>
		<path fill="#19181C" d="M511.44,182.886c0-0.439,0.109-0.806,0.33-1.101c0.22-0.295,0.51-0.443,0.87-0.443h7.8
			c0.319,0,0.61,0.153,0.87,0.458c0.26,0.305,0.39,0.667,0.39,1.087c0,0.439-0.125,0.801-0.375,1.086
			c-0.25,0.286-0.545,0.429-0.885,0.429h-7.8c-0.36,0-0.65-0.138-0.87-0.415C511.55,183.71,511.44,183.343,511.44,182.886z"/>
		<path fill="#19181C" d="M529.141,188.211c0-0.2,0.079-0.44,0.239-0.72l5.19-8.46l-5.01-8.43c-0.181-0.3-0.271-0.58-0.271-0.84
			c0-0.5,0.265-0.93,0.795-1.29s1.095-0.54,1.694-0.54c0.561,0,0.99,0.28,1.291,0.84l4.08,7.35l4.08-7.35
			c0.319-0.56,0.76-0.84,1.319-0.84c0.601,0,1.165,0.18,1.695,0.54s0.795,0.791,0.795,1.29c0,0.26-0.09,0.54-0.271,0.84l-5.01,8.43
			l5.19,8.46c0.14,0.26,0.21,0.5,0.21,0.72c0,0.52-0.28,0.975-0.84,1.365c-0.561,0.39-1.131,0.585-1.711,0.585
			c-0.479,0-0.83-0.21-1.049-0.63l-4.41-7.71l-4.381,7.71c-0.24,0.42-0.6,0.63-1.08,0.63c-0.56,0-1.125-0.195-1.694-0.585
			C529.425,189.186,529.141,188.731,529.141,188.211z"/>
	</g>
	<g>
		<path fill="#19181C" d="M500.715,296.141c0-0.2,0.08-0.44,0.24-0.72l5.19-8.46l-5.01-8.43c-0.18-0.3-0.27-0.58-0.27-0.84
			c0-0.5,0.265-0.93,0.795-1.29c0.53-0.36,1.095-0.54,1.695-0.54c0.56,0,0.99,0.28,1.29,0.84l4.08,7.35l4.08-7.35
			c0.32-0.56,0.759-0.84,1.32-0.84c0.6,0,1.165,0.18,1.695,0.54c0.529,0.36,0.795,0.791,0.795,1.29c0,0.26-0.09,0.54-0.27,0.84
			l-5.011,8.43l5.19,8.46c0.14,0.26,0.21,0.5,0.21,0.72c0,0.52-0.28,0.975-0.841,1.365c-0.56,0.39-1.129,0.585-1.709,0.585
			c-0.48,0-0.83-0.21-1.051-0.63l-4.41-7.71l-4.38,7.71c-0.24,0.42-0.6,0.63-1.08,0.63c-0.56,0-1.125-0.195-1.695-0.585
			C501,297.116,500.715,296.661,500.715,296.141z"/>
	</g>
	<g>
		<path fill="#19181C" d="M418.927,503.869c0-0.5,0.121-0.851,0.362-1.051c0.242-0.199,0.629-0.3,1.163-0.3
			c1.133,0,1.7,0.409,1.7,1.226c0,0.566,0.246,1.016,0.737,1.35c0.491,0.334,1.104,0.5,1.837,0.5c1.8,0,2.7-0.959,2.7-2.875v-2.725
			c-0.717,0.85-1.825,1.274-3.325,1.274c-1.567,0-2.821-0.399-3.762-1.2c-0.942-0.8-1.413-2.125-1.413-3.975v-0.35
			c0-1.984,0.533-3.434,1.6-4.351c1.066-0.917,2.483-1.375,4.25-1.375c1.783,0,3.212,0.462,4.287,1.388
			c1.075,0.925,1.613,2.371,1.613,4.338v6.975c0,1.983-0.55,3.434-1.65,4.35c-1.1,0.917-2.567,1.375-4.4,1.375
			s-3.242-0.467-4.225-1.4C419.418,506.11,418.927,505.053,418.927,503.869z M422.177,495.821c0,1.932,0.875,2.897,2.625,2.897
			s2.625-0.89,2.625-2.668v-0.56c0-1.948-0.884-2.923-2.65-2.923c-1.734,0-2.6,0.975-2.6,2.923V495.821z"/>
		<path fill="#19181C" d="M432.976,502.719v-6.975c0-1.984,0.529-3.434,1.587-4.351s2.479-1.375,4.263-1.375
			c1.783,0,3.208,0.458,4.275,1.375c1.066,0.917,1.6,2.366,1.6,4.351v6.975c0,1.983-0.534,3.434-1.6,4.35
			c-1.067,0.917-2.492,1.375-4.275,1.375c-1.784,0-3.204-0.458-4.263-1.375C433.505,506.152,432.976,504.702,432.976,502.719z
			 M436.226,502.719c0,1.916,0.867,2.875,2.6,2.875c1.75,0,2.625-0.959,2.625-2.875v-6.975c0-1.917-0.875-2.875-2.625-2.875
			c-1.733,0-2.6,0.958-2.6,2.875V502.719z M438.001,500.287c-0.217-0.237-0.325-0.549-0.325-0.932c0-0.385,0.104-0.69,0.313-0.919
			c0.208-0.229,0.496-0.343,0.862-0.343c0.35,0,0.629,0.114,0.837,0.343s0.313,0.534,0.313,0.919c0,0.383-0.104,0.694-0.313,0.932
			c-0.208,0.238-0.487,0.356-0.837,0.356S438.218,500.525,438.001,500.287z"/>
		<path fill="#19181C" d="M446.751,502.355c0-0.365,0.091-0.672,0.275-0.918s0.425-0.369,0.725-0.369h6.5
			c0.267,0,0.508,0.127,0.725,0.381c0.216,0.255,0.325,0.557,0.325,0.906c0,0.365-0.104,0.668-0.313,0.906
			c-0.209,0.238-0.455,0.357-0.738,0.357h-6.5c-0.3,0-0.542-0.115-0.725-0.346S446.751,502.736,446.751,502.355z"/>
		<path fill="#19181C" d="M457.376,504.138v-10.063c0-1.435,0.55-2.627,1.65-3.578s2.325-1.428,3.675-1.428
			c1.066,0,1.6,0.471,1.6,1.412c0,0.421-0.096,0.766-0.288,1.035c-0.192,0.269-0.438,0.402-0.737,0.402
			c-0.8,0-1.446,0.221-1.938,0.662c-0.492,0.441-0.738,0.943-0.738,1.51v10.031c0,1.215,0.892,1.822,2.675,1.822
			c0.683,0,1.025,0.479,1.025,1.438c0,0.471-0.117,0.824-0.35,1.06s-0.675,0.353-1.325,0.353c-1.4,0-2.625-0.396-3.675-1.188
			C457.901,506.813,457.376,505.656,457.376,504.138z"/>
		<path fill="#19181C" d="M465.151,503.918c0-0.549,0.133-0.933,0.4-1.149c0.266-0.216,0.675-0.325,1.225-0.325
			c0.633,0,1.063,0.109,1.287,0.325c0.225,0.217,0.338,0.524,0.338,0.925c0,0.6,0.241,1.066,0.725,1.4s1.1,0.5,1.85,0.5
			c1.767,0,2.65-0.926,2.65-2.775v-0.475c0-0.934-0.229-1.633-0.688-2.1s-1.104-0.701-1.938-0.701h-3.7
			c-0.484,0-0.821-0.107-1.013-0.322c-0.192-0.216-0.288-0.531-0.288-0.945c0-0.066,0.029-0.17,0.086-0.311
			c0.057-0.141,0.086-0.253,0.086-0.336l0.503-6.586c0.05-0.683,0.258-1.024,0.625-1.024h7.7c0.3,0,0.538,0.142,0.713,0.425
			c0.175,0.283,0.262,0.617,0.262,1c0,0.384-0.087,0.717-0.262,1s-0.411,0.426-0.709,0.426H469.4l-0.325,4.125H471
			c1.783,0,3.208,0.429,4.275,1.287c1.066,0.858,1.6,2.213,1.6,4.063v0.475c0,1.934-0.533,3.354-1.6,4.263
			c-1.067,0.909-2.475,1.362-4.225,1.362c-1.817,0-3.254-0.445-4.313-1.338C465.68,506.215,465.151,505.152,465.151,503.918z"/>
		<path fill="#19181C" d="M478.325,502.355c0-0.365,0.091-0.672,0.275-0.918s0.425-0.369,0.725-0.369h6.5
			c0.267,0,0.508,0.127,0.725,0.381c0.216,0.255,0.325,0.557,0.325,0.906c0,0.365-0.104,0.668-0.313,0.906
			c-0.209,0.238-0.455,0.357-0.738,0.357h-6.5c-0.3,0-0.542-0.115-0.725-0.346S478.325,502.736,478.325,502.355z"/>
		<path fill="#19181C" d="M487.801,506.793c0-0.166,0.066-0.365,0.2-0.6l4.325-7.05l-4.175-7.024
			c-0.15-0.25-0.225-0.484-0.225-0.701c0-0.416,0.221-0.774,0.662-1.074c0.441-0.301,0.913-0.45,1.413-0.45
			c0.466,0,0.825,0.233,1.075,0.7l3.4,6.125l3.4-6.125c0.267-0.467,0.633-0.7,1.1-0.7c0.5,0,0.971,0.149,1.413,0.45
			c0.441,0.3,0.663,0.658,0.663,1.074c0,0.217-0.075,0.451-0.225,0.701l-4.175,7.024l4.325,7.05c0.116,0.217,0.175,0.417,0.175,0.6
			c0,0.434-0.233,0.813-0.7,1.139c-0.467,0.324-0.942,0.486-1.425,0.486c-0.4,0-0.691-0.174-0.875-0.524l-3.675-6.425l-3.65,6.425
			c-0.2,0.351-0.5,0.524-0.9,0.524c-0.467,0-0.938-0.162-1.413-0.486C488.038,507.605,487.801,507.227,487.801,506.793z"/>
		<path fill="#19181C" d="M501.9,507.381c0-0.958,0.341-1.438,1.025-1.438c1.767,0,2.65-0.607,2.65-1.822V494.09
			c0-0.566-0.242-1.068-0.725-1.51c-0.484-0.441-1.125-0.662-1.925-0.662c-0.3,0-0.546-0.134-0.737-0.402
			c-0.192-0.27-0.288-0.614-0.288-1.035c0-0.941,0.533-1.412,1.6-1.412c1.35,0,2.575,0.477,3.675,1.428
			c1.1,0.951,1.65,2.144,1.65,3.578v10.063c0,1.519-0.525,2.675-1.575,3.467s-2.275,1.188-3.675,1.188
			c-0.65,0-1.092-0.117-1.325-0.353S501.9,507.852,501.9,507.381z"/>
		<path fill="#19181C" d="M510.925,502.355c0-0.365,0.091-0.672,0.275-0.918s0.425-0.369,0.725-0.369h6.5
			c0.266,0,0.508,0.127,0.725,0.381c0.217,0.255,0.325,0.557,0.325,0.906c0,0.365-0.104,0.668-0.313,0.906
			c-0.209,0.238-0.454,0.357-0.737,0.357h-6.5c-0.3,0-0.542-0.115-0.725-0.346S510.925,502.736,510.925,502.355z"/>
		<path fill="#19181C" d="M521.55,504.138v-10.063c0-1.435,0.55-2.627,1.649-3.578c1.101-0.951,2.325-1.428,3.676-1.428
			c1.066,0,1.6,0.471,1.6,1.412c0,0.421-0.096,0.766-0.287,1.035c-0.192,0.269-0.438,0.402-0.738,0.402
			c-0.8,0-1.445,0.221-1.938,0.662c-0.491,0.441-0.737,0.943-0.737,1.51v10.031c0,1.215,0.892,1.822,2.675,1.822
			c0.684,0,1.025,0.479,1.025,1.438c0,0.471-0.117,0.824-0.35,1.06c-0.234,0.235-0.676,0.353-1.325,0.353
			c-1.4,0-2.625-0.396-3.675-1.188C522.074,506.813,521.55,505.656,521.55,504.138z"/>
		<path fill="#19181C" d="M529.375,503.894c0-0.483,0.116-0.816,0.35-1c0.233-0.183,0.634-0.274,1.2-0.274
			c0.65,0,1.092,0.087,1.325,0.262c0.233,0.176,0.35,0.471,0.35,0.888c0,0.567,0.233,1.013,0.7,1.337
			c0.467,0.326,1.101,0.488,1.9,0.488c0.933,0,1.612-0.213,2.037-0.638s0.638-1.112,0.638-2.063v-0.476
			c0-1.582-0.917-2.375-2.75-2.375c-0.634,0-0.95-0.424-0.95-1.274s0.322-1.274,0.968-1.274c0.728,0,1.29-0.162,1.687-0.485
			c0.397-0.323,0.596-0.974,0.596-1.952c0-1.459-0.733-2.188-2.2-2.188c-1.483,0-2.225,0.555-2.225,1.666
			c0,0.828-0.517,1.242-1.55,1.242c-0.7,0-1.154-0.095-1.362-0.285c-0.209-0.191-0.313-0.56-0.313-1.107
			c0-0.484,0.091-0.965,0.274-1.442c0.184-0.477,0.471-0.94,0.862-1.394c0.392-0.451,0.963-0.819,1.713-1.104
			c0.75-0.285,1.625-0.427,2.625-0.427c3.533,0,5.3,1.497,5.3,4.491c0,0.996-0.173,1.863-0.518,2.602
			c-0.345,0.74-0.828,1.25-1.45,1.532c1.695,0.667,2.543,1.925,2.543,3.774v0.476c0,1.899-0.555,3.3-1.662,4.2
			c-1.109,0.9-2.555,1.35-4.338,1.35c-1.884,0-3.313-0.467-4.287-1.4C529.862,506.11,529.375,505.061,529.375,503.894z"/>
		<path fill="#19181C" d="M543.049,502.719v-6.975c0-1.984,0.529-3.434,1.588-4.351s2.479-1.375,4.263-1.375
			c1.783,0,3.208,0.458,4.274,1.375s1.601,2.366,1.601,4.351v6.975c0,1.983-0.534,3.434-1.601,4.35
			c-1.066,0.917-2.491,1.375-4.274,1.375c-1.784,0-3.204-0.458-4.263-1.375C543.578,506.152,543.049,504.702,543.049,502.719z
			 M546.299,502.719c0,1.916,0.867,2.875,2.601,2.875c1.75,0,2.625-0.959,2.625-2.875v-6.975c0-1.917-0.875-2.875-2.625-2.875
			c-1.733,0-2.601,0.958-2.601,2.875V502.719z M548.074,500.287c-0.217-0.237-0.324-0.549-0.324-0.932
			c0-0.385,0.104-0.69,0.313-0.919c0.207-0.229,0.495-0.343,0.861-0.343c0.351,0,0.629,0.114,0.838,0.343s0.313,0.534,0.313,0.919
			c0,0.383-0.104,0.694-0.313,0.932c-0.209,0.238-0.487,0.356-0.838,0.356C548.574,500.644,548.291,500.525,548.074,500.287z"/>
		<path fill="#19181C" d="M556.824,502.355c0-0.365,0.092-0.672,0.275-0.918s0.426-0.369,0.725-0.369h6.5
			c0.268,0,0.509,0.127,0.726,0.381c0.216,0.255,0.325,0.557,0.325,0.906c0,0.365-0.104,0.668-0.313,0.906
			c-0.209,0.238-0.455,0.357-0.738,0.357h-6.5c-0.299,0-0.541-0.115-0.725-0.346S556.824,502.736,556.824,502.355z"/>
		<path fill="#19181C" d="M566.199,506.918c0-0.199,0.066-0.383,0.2-0.549l2.95-4.125l-2.75-3.826c-0.134-0.183-0.2-0.357-0.2-0.524
			c0-0.366,0.25-0.729,0.75-1.087c0.5-0.359,0.966-0.538,1.399-0.538c0.334,0,0.576,0.116,0.726,0.351l2.274,3.649l2.301-3.625
			c0.166-0.25,0.416-0.375,0.75-0.375c0.416,0,0.875,0.179,1.375,0.538c0.5,0.357,0.75,0.721,0.75,1.087
			c0,0.134-0.066,0.309-0.2,0.524l-2.774,3.851l2.975,4.101c0.133,0.133,0.199,0.316,0.199,0.549c0,0.351-0.241,0.705-0.725,1.063
			c-0.483,0.359-0.941,0.538-1.375,0.538c-0.334,0-0.584-0.116-0.75-0.351l-2.525-3.799l-2.5,3.799
			c-0.166,0.234-0.434,0.351-0.799,0.351c-0.367,0-0.801-0.179-1.301-0.538C566.449,507.623,566.199,507.269,566.199,506.918z"/>
		<path fill="#19181C" d="M577.824,507.381c0-0.958,0.341-1.438,1.024-1.438c1.767,0,2.65-0.607,2.65-1.822V494.09
			c0-0.566-0.242-1.068-0.726-1.51s-1.125-0.662-1.925-0.662c-0.3,0-0.546-0.134-0.737-0.402c-0.191-0.27-0.287-0.614-0.287-1.035
			c0-0.941,0.533-1.412,1.6-1.412c1.35,0,2.575,0.477,3.675,1.428c1.101,0.951,1.65,2.144,1.65,3.578v10.063
			c0,1.519-0.525,2.675-1.575,3.467s-2.275,1.188-3.675,1.188c-0.65,0-1.092-0.117-1.325-0.353S577.824,507.852,577.824,507.381z"/>
		<path fill="#19181C" d="M591.773,500.793c0-0.832,0.342-1.566,1.025-2.199s1.482-0.95,2.4-0.95c0.899,0,1.691,0.317,2.375,0.95
			c0.683,0.633,1.024,1.367,1.024,2.199c0,0.851-0.337,1.592-1.013,2.226c-0.674,0.634-1.471,0.95-2.387,0.95
			c-0.918,0-1.717-0.316-2.4-0.95S591.773,501.644,591.773,500.793z"/>
		<path fill="#19181C" d="M604.699,506.918c0-0.199,0.066-0.383,0.199-0.549l2.95-4.125l-2.75-3.826
			c-0.134-0.183-0.2-0.357-0.2-0.524c0-0.366,0.25-0.729,0.75-1.087c0.5-0.359,0.967-0.538,1.4-0.538
			c0.333,0,0.575,0.116,0.725,0.351l2.275,3.649l2.3-3.625c0.167-0.25,0.417-0.375,0.75-0.375c0.417,0,0.875,0.179,1.375,0.538
			c0.5,0.357,0.75,0.721,0.75,1.087c0,0.134-0.066,0.309-0.2,0.524l-2.774,3.851l2.975,4.101c0.134,0.133,0.2,0.316,0.2,0.549
			c0,0.351-0.242,0.705-0.725,1.063c-0.484,0.359-0.942,0.538-1.375,0.538c-0.334,0-0.584-0.116-0.75-0.351l-2.525-3.799l-2.5,3.799
			c-0.167,0.234-0.434,0.351-0.8,0.351c-0.367,0-0.8-0.179-1.3-0.538C604.949,507.623,604.699,507.269,604.699,506.918z"/>
	</g>
</g>
</svg>
