<?xml version="1.0" encoding="utf-8"?>
<!-- Generator: Adobe Illustrator 16.0.0, SVG Export Plug-In . SVG Version: 6.00 Build 0)  -->
<!DOCTYPE svg PUBLIC "-//W3C//DTD SVG 1.1//EN" "http://www.w3.org/Graphics/SVG/1.1/DTD/svg11.dtd" [
	<!ENTITY ns_extend "http://ns.adobe.com/Extensibility/1.0/">
	<!ENTITY ns_ai "http://ns.adobe.com/AdobeIllustrator/10.0/">
	<!ENTITY ns_graphs "http://ns.adobe.com/Graphs/1.0/">
	<!ENTITY ns_vars "http://ns.adobe.com/Variables/1.0/">
	<!ENTITY ns_imrep "http://ns.adobe.com/ImageReplacement/1.0/">
	<!ENTITY ns_sfw "http://ns.adobe.com/SaveForWeb/1.0/">
	<!ENTITY ns_custom "http://ns.adobe.com/GenericCustomNamespace/1.0/">
	<!ENTITY ns_adobe_xpath "http://ns.adobe.com/XPath/1.0/">
]>
<svg version="1.1" xmlns:x="&ns_extend;" xmlns:i="&ns_ai;" xmlns:graph="&ns_graphs;"
	 xmlns="http://www.w3.org/2000/svg" xmlns:xlink="http://www.w3.org/1999/xlink" x="0px" y="0px" width="1024px" height="800px"
	 viewBox="0 0 1024 800" enable-background="new 0 0 1024 800" xml:space="preserve">
<metadata>
	<sfw  xmlns="&ns_sfw;">
		<slices></slices>
		<sliceSourceBounds  width="1024" height="800" y="-600" x="-262" bottomLeftOrigin="true"></sliceSourceBounds>
	</sfw>
</metadata>
<g id="background">
	<rect fill="#FEFEED" width="1024" height="800"/>
</g>
<g id="desenho">
	<g>
		<rect x="238" y="251" fill="#4D7CBB" width="140" height="443"/>
		<rect x="359" y="251" fill="#416996" width="19" height="443"/>
	</g>
	<g>
		<rect x="388" y="210" fill="#F6F44E" width="140" height="484"/>
		<rect x="509" y="210" fill="#DDD54A" width="19" height="484"/>
	</g>
	<g>
		<rect x="538" y="573" fill="#554F68" width="140" height="121"/>
		<rect x="658" y="573" fill="#413E4F" width="20" height="121"/>
	</g>
	<g>
		<rect x="687" y="652" fill="#546855" width="140" height="42"/>
		<rect x="808" y="652" fill="#425142" width="19" height="42"/>
	</g>
	<g>
		<rect x="837" y="652" fill="#3C733D" width="140" height="42"/>
		<rect x="957" y="652" fill="#346334" width="20" height="42"/>
	</g>
	<g>
		<rect x="91" y="211" fill="#EE3435" width="140" height="484"/>
		<rect x="213" y="211" fill="#C92B32" width="18" height="484"/>
	</g>
	
		<line fill="none" stroke="#000000" stroke-width="3" stroke-linecap="round" stroke-linejoin="round" stroke-miterlimit="10" x1="86" y1="48.5" x2="95" y2="48.5"/>
	
		<line fill="none" stroke="#000000" stroke-width="3" stroke-linecap="round" stroke-linejoin="round" stroke-miterlimit="10" x1="86" y1="128.5" x2="95" y2="128.5"/>
	
		<line fill="none" stroke="#000000" stroke-width="3" stroke-linecap="round" stroke-linejoin="round" stroke-miterlimit="10" x1="86" y1="209.5" x2="95" y2="209.5"/>
	
		<line fill="none" stroke="#000000" stroke-width="3" stroke-linecap="round" stroke-linejoin="round" stroke-miterlimit="10" x1="86" y1="289.5" x2="95" y2="289.5"/>
	
		<line fill="none" stroke="#000000" stroke-width="3" stroke-linecap="round" stroke-linejoin="round" stroke-miterlimit="10" x1="86" y1="369.5" x2="95" y2="369.5"/>
	
		<line fill="none" stroke="#000000" stroke-width="3" stroke-linecap="round" stroke-linejoin="round" stroke-miterlimit="10" x1="86" y1="449.5" x2="95" y2="449.5"/>
	
		<line fill="none" stroke="#000000" stroke-width="3" stroke-linecap="round" stroke-linejoin="round" stroke-miterlimit="10" x1="86" y1="530.5" x2="95" y2="530.5"/>
	
		<line fill="none" stroke="#000000" stroke-width="3" stroke-linecap="round" stroke-linejoin="round" stroke-miterlimit="10" x1="86" y1="610.5" x2="95" y2="610.5"/>
	
		<polyline fill="none" stroke="#000000" stroke-width="3" stroke-linecap="round" stroke-linejoin="round" stroke-miterlimit="10" points="
		85.5,48 85.5,693.5 984,693.5 	"/>
</g>
<g id="texto">
	<g>
		<path d="M51.832,40.156c0-0.62,0.25-1.09,0.75-1.41l3.54-2.7c0.24-0.2,0.51-0.3,0.81-0.3c0.44,0,0.84,0.12,1.2,0.36
			c0.36,0.24,0.54,0.54,0.54,0.9v19.5c0,0.38-0.195,0.68-0.585,0.9c-0.39,0.22-0.845,0.33-1.365,0.33c-0.54,0-1-0.11-1.38-0.33
			c-0.38-0.22-0.57-0.52-0.57-0.9v-16.02l-0.96,0.96c-0.2,0.18-0.44,0.27-0.72,0.27c-0.36,0-0.66-0.16-0.9-0.48
			C51.952,40.917,51.832,40.557,51.832,40.156z"/>
		<path d="M61.761,51.046v-8.37c0-2.38,0.655-4.12,1.965-5.22c1.31-1.1,3.064-1.65,5.265-1.65c2.22,0,3.915,0.555,5.085,1.665
			c1.17,1.11,1.755,2.385,1.755,3.825c0,0.6-0.146,1.02-0.435,1.26c-0.291,0.24-0.755,0.36-1.395,0.36c-1.36,0-2.04-0.49-2.04-1.47
			c0-0.68-0.295-1.22-0.885-1.62c-0.59-0.4-1.315-0.6-2.175-0.6c-2.18,0-3.27,1.15-3.27,3.45v3.27c0.86-1.02,2.19-1.53,3.99-1.53
			c1.879,0,3.385,0.48,4.515,1.44s1.695,2.55,1.695,4.77v0.42c0,2.38-0.635,4.12-1.905,5.22c-1.27,1.101-2.975,1.65-5.115,1.65
			c-2.141,0-3.851-0.55-5.13-1.65C62.401,55.167,61.761,53.427,61.761,51.046z M65.631,51.349c0,2.338,1.06,3.507,3.18,3.507
			c2.08,0,3.12-1.169,3.12-3.507v-0.396c0-2.317-1.05-3.477-3.15-3.477s-3.15,1.067-3.15,3.202V51.349z"/>
	</g>
	<g>
		<path d="M52.536,122.638c0-0.62,0.25-1.09,0.75-1.41l3.54-2.7c0.24-0.2,0.51-0.3,0.81-0.3c0.44,0,0.84,0.12,1.2,0.36
			c0.36,0.24,0.54,0.54,0.54,0.9v19.5c0,0.38-0.195,0.68-0.585,0.9c-0.39,0.22-0.845,0.33-1.365,0.33c-0.54,0-1-0.11-1.38-0.33
			c-0.38-0.22-0.57-0.52-0.57-0.9v-16.02l-0.96,0.96c-0.2,0.18-0.44,0.27-0.72,0.27c-0.36,0-0.66-0.16-0.9-0.48
			C52.656,123.398,52.536,123.038,52.536,122.638z"/>
		<path d="M61.056,133.938c0-0.258,0.07-0.516,0.21-0.773l7.11-13.865c0.32-0.674,0.87-1.012,1.65-1.012
			c0.4,0,0.825,0.146,1.275,0.435c0.45,0.29,0.675,0.645,0.675,1.065c0,0.14-0.05,0.311-0.15,0.51l-5.76,11.52h3.51v-3.301
			c0-0.419,0.189-0.738,0.57-0.959c0.379-0.22,0.84-0.33,1.38-0.33s1,0.11,1.38,0.33c0.38,0.221,0.57,0.54,0.57,0.959v3.301h1.41
			c0.38,0,0.68,0.169,0.9,0.509c0.22,0.339,0.33,0.745,0.33,1.215c0,0.434-0.125,0.824-0.375,1.173
			c-0.25,0.349-0.535,0.522-0.855,0.522h-1.41v3.696c0,0.397-0.19,0.71-0.57,0.939c-0.38,0.23-0.84,0.345-1.38,0.345
			c-0.52,0-0.975-0.115-1.365-0.345c-0.39-0.229-0.585-0.542-0.585-0.939v-3.696h-7.2c-0.38,0-0.695-0.118-0.945-0.354
			C61.181,134.649,61.056,134.333,61.056,133.938z"/>
	</g>
	<g>
		<path d="M52.461,199.331c0-0.62,0.25-1.09,0.75-1.41l3.54-2.7c0.24-0.2,0.51-0.3,0.81-0.3c0.44,0,0.84,0.12,1.2,0.36
			c0.36,0.24,0.54,0.54,0.54,0.9v19.5c0,0.38-0.195,0.68-0.585,0.9c-0.39,0.22-0.845,0.33-1.365,0.33c-0.54,0-1-0.11-1.38-0.33
			c-0.38-0.22-0.57-0.52-0.57-0.9v-16.02l-0.96,0.96c-0.2,0.18-0.44,0.27-0.72,0.27c-0.36,0-0.66-0.16-0.9-0.48
			C52.582,200.091,52.461,199.731,52.461,199.331z"/>
		<path d="M62.061,215.674v-2.924c0-0.884,0.302-1.759,0.906-2.623s1.336-1.648,2.197-2.352l2.878-2.086
			c0.945-0.706,1.75-1.452,2.413-2.238s0.996-1.572,0.996-2.359c0-0.706-0.237-1.331-0.709-1.875
			c-0.473-0.544-1.171-0.816-2.096-0.816c-0.785,0-1.428,0.227-1.931,0.68c-0.503,0.453-0.754,1.132-0.754,2.038
			c0,0.391-0.183,0.736-0.546,1.034c-0.364,0.299-0.851,0.448-1.461,0.448c-1.162,0-1.742-0.7-1.742-2.1
			c0-1.64,0.635-2.97,1.906-3.99c1.271-1.02,2.771-1.53,4.498-1.53c1.824,0,3.403,0.546,4.736,1.638s2,2.543,2,4.353
			c0,1.21-0.326,2.344-0.978,3.402c-0.652,1.059-1.449,1.955-2.391,2.691c-0.943,0.736-1.88,1.417-2.813,2.042
			c-0.933,0.625-1.726,1.25-2.379,1.875s-0.98,1.22-0.98,1.784v0.726h8.366c0.321,0,0.607,0.165,0.857,0.495
			c0.251,0.33,0.376,0.725,0.376,1.185c0,0.46-0.123,0.866-0.367,1.215c-0.246,0.35-0.525,0.525-0.838,0.525H63.737
			c-0.373,0-0.745-0.121-1.117-0.362C62.248,216.308,62.061,216.016,62.061,215.674z"/>
	</g>
	<g>
		<path d="M51.651,281.33c0-0.62,0.25-1.09,0.75-1.41l3.54-2.7c0.24-0.2,0.51-0.3,0.81-0.3c0.44,0,0.84,0.12,1.2,0.36
			c0.36,0.24,0.54,0.54,0.54,0.9v19.5c0,0.38-0.195,0.68-0.585,0.9c-0.39,0.22-0.845,0.33-1.365,0.33c-0.54,0-1-0.11-1.38-0.33
			c-0.38-0.22-0.57-0.52-0.57-0.9v-16.02l-0.96,0.96c-0.2,0.18-0.44,0.27-0.72,0.27c-0.36,0-0.66-0.16-0.9-0.48
			C51.771,282.09,51.651,281.73,51.651,281.33z"/>
		<path d="M61.581,292.22v-8.37c0-2.38,0.635-4.12,1.905-5.22c1.27-1.1,2.975-1.65,5.115-1.65s3.85,0.55,5.13,1.65
			s1.92,2.84,1.92,5.22v8.37c0,2.38-0.641,4.12-1.92,5.22c-1.28,1.101-2.99,1.65-5.13,1.65s-3.845-0.55-5.115-1.65
			C62.216,296.34,61.581,294.6,61.581,292.22z M65.481,292.22c0,2.3,1.04,3.45,3.12,3.45c2.1,0,3.15-1.149,3.15-3.45v-8.37
			c0-2.3-1.05-3.45-3.15-3.45c-2.08,0-3.12,1.15-3.12,3.45V292.22z M67.611,289.302c-0.26-0.285-0.39-0.658-0.39-1.119
			c0-0.46,0.125-0.828,0.375-1.102c0.25-0.274,0.595-0.412,1.035-0.412c0.42,0,0.754,0.138,1.005,0.412
			c0.25,0.274,0.375,0.642,0.375,1.102c0,0.461-0.125,0.834-0.375,1.119c-0.25,0.285-0.585,0.427-1.005,0.427
			C68.211,289.729,67.871,289.587,67.611,289.302z"/>
	</g>
	<g>
		<path d="M57.262,368.187v-0.358c0-2.865,1.191-4.735,3.573-5.611c-1.902-0.692-2.853-2.26-2.853-4.705
			c0-1.812,0.567-3.146,1.702-4.003s2.677-1.285,4.628-1.285c1.94,0,3.48,0.429,4.62,1.285c1.14,0.856,1.71,2.191,1.71,4.003
			c0,2.444-0.96,4.012-2.88,4.705c2.38,0.856,3.57,2.726,3.57,5.611v0.358c0,2.109-0.64,3.662-1.92,4.657s-2.98,1.492-5.1,1.492
			c-2.12,0-3.825-0.498-5.115-1.492S57.262,370.296,57.262,368.187z M61.162,367.77c0,2.337,1.05,3.506,3.15,3.506
			c2.08,0,3.12-1.169,3.12-3.506v-0.61c0-2.236-1.04-3.354-3.12-3.354c-2.1,0-3.15,1.118-3.15,3.354V367.77z M64.312,355.286
			c-1.72,0-2.58,0.911-2.58,2.73c0,1.82,0.859,2.73,2.58,2.73s2.58-0.91,2.58-2.73C66.892,356.196,66.032,355.286,64.312,355.286z"
			/>
	</g>
	<g>
		<path d="M57.441,452.046v-8.37c0-2.38,0.655-4.119,1.965-5.22c1.31-1.101,3.064-1.65,5.265-1.65c2.22,0,3.915,0.556,5.085,1.665
			c1.17,1.11,1.755,2.385,1.755,3.825c0,0.601-0.146,1.021-0.435,1.26c-0.291,0.24-0.755,0.36-1.395,0.36
			c-1.36,0-2.04-0.49-2.04-1.471c0-0.68-0.295-1.219-0.885-1.619s-1.315-0.6-2.175-0.6c-2.18,0-3.27,1.149-3.27,3.449v3.27
			c0.86-1.02,2.19-1.529,3.99-1.529c1.879,0,3.385,0.48,4.515,1.439c1.13,0.961,1.695,2.551,1.695,4.771v0.42
			c0,2.38-0.635,4.12-1.905,5.22c-1.27,1.101-2.975,1.65-5.115,1.65c-2.141,0-3.851-0.55-5.13-1.65
			C58.082,456.166,57.441,454.426,57.441,452.046z M61.312,452.349c0,2.339,1.06,3.507,3.18,3.507c2.08,0,3.12-1.168,3.12-3.507
			v-0.396c0-2.318-1.05-3.477-3.15-3.477s-3.15,1.066-3.15,3.201V452.349z"/>
	</g>
	<g>
		<path d="M56.737,532.043c0-0.258,0.07-0.516,0.21-0.773l7.11-13.865c0.32-0.674,0.87-1.012,1.65-1.012
			c0.4,0,0.825,0.146,1.275,0.436c0.45,0.289,0.675,0.645,0.675,1.064c0,0.141-0.05,0.311-0.15,0.51l-5.76,11.521h3.51v-3.302
			c0-0.418,0.189-0.738,0.57-0.959c0.379-0.219,0.84-0.33,1.38-0.33s1,0.111,1.38,0.33c0.38,0.221,0.57,0.541,0.57,0.959v3.302h1.41
			c0.38,0,0.68,0.169,0.9,0.509c0.22,0.34,0.33,0.744,0.33,1.215c0,0.434-0.125,0.824-0.375,1.174
			c-0.25,0.349-0.535,0.522-0.855,0.522h-1.41v3.696c0,0.396-0.19,0.709-0.57,0.939c-0.38,0.229-0.84,0.344-1.38,0.344
			c-0.52,0-0.975-0.114-1.365-0.344c-0.39-0.23-0.585-0.543-0.585-0.939v-3.696h-7.2c-0.38,0-0.695-0.118-0.945-0.354
			C56.861,532.754,56.737,532.438,56.737,532.043z"/>
	</g>
	<g>
		<path d="M57.741,617.156v-2.925c0-0.884,0.302-1.759,0.906-2.623s1.336-1.647,2.197-2.352l2.878-2.087
			c0.945-0.705,1.75-1.451,2.413-2.237s0.996-1.572,0.996-2.358c0-0.706-0.237-1.331-0.709-1.875
			c-0.473-0.545-1.171-0.816-2.096-0.816c-0.785,0-1.428,0.227-1.931,0.68c-0.503,0.452-0.754,1.132-0.754,2.037
			c0,0.391-0.183,0.736-0.546,1.035c-0.364,0.299-0.851,0.447-1.461,0.447c-1.162,0-1.742-0.699-1.742-2.1
			c0-1.641,0.635-2.971,1.906-3.99c1.271-1.02,2.771-1.53,4.498-1.53c1.824,0,3.403,0.546,4.736,1.638s2,2.543,2,4.354
			c0,1.209-0.326,2.344-0.978,3.402c-0.652,1.059-1.449,1.955-2.391,2.69c-0.943,0.735-1.88,1.417-2.813,2.042
			c-0.933,0.625-1.726,1.25-2.379,1.875s-0.98,1.219-0.98,1.783v0.727h8.366c0.321,0,0.607,0.164,0.857,0.494
			c0.251,0.33,0.376,0.726,0.376,1.186s-0.123,0.865-0.367,1.215c-0.246,0.35-0.525,0.525-0.838,0.525H59.417
			c-0.373,0-0.745-0.121-1.117-0.362C57.928,617.789,57.741,617.498,57.741,617.156z"/>
	</g>
	<g>
		<path d="M57.261,691.772v-8.37c0-2.38,0.635-4.119,1.905-5.22c1.27-1.101,2.975-1.65,5.115-1.65s3.85,0.55,5.13,1.65
			s1.92,2.84,1.92,5.22v8.37c0,2.38-0.641,4.12-1.92,5.22c-1.28,1.101-2.99,1.65-5.13,1.65s-3.845-0.55-5.115-1.65
			C57.896,695.893,57.261,694.152,57.261,691.772z M61.161,691.772c0,2.3,1.04,3.45,3.12,3.45c2.1,0,3.15-1.15,3.15-3.45v-8.37
			c0-2.3-1.05-3.449-3.15-3.449c-2.08,0-3.12,1.149-3.12,3.449V691.772z M63.292,688.855c-0.26-0.285-0.39-0.658-0.39-1.119
			s0.125-0.828,0.375-1.103c0.25-0.274,0.595-0.411,1.035-0.411c0.42,0,0.754,0.137,1.005,0.411c0.25,0.274,0.375,0.642,0.375,1.103
			s-0.125,0.834-0.375,1.119c-0.25,0.285-0.585,0.427-1.005,0.427C63.891,689.282,63.551,689.141,63.292,688.855z"/>
	</g>
	<g>
		<path d="M81.77,713.346c0-0.62,0.25-1.09,0.75-1.41l3.54-2.7c0.24-0.2,0.51-0.3,0.81-0.3c0.44,0,0.84,0.119,1.2,0.359
			c0.36,0.24,0.54,0.541,0.54,0.9v19.5c0,0.381-0.195,0.68-0.585,0.9c-0.39,0.22-0.845,0.33-1.365,0.33c-0.54,0-1-0.11-1.38-0.33
			c-0.38-0.221-0.57-0.52-0.57-0.9v-16.02l-0.96,0.959c-0.2,0.181-0.44,0.271-0.72,0.271c-0.36,0-0.66-0.159-0.9-0.479
			C81.89,714.105,81.77,713.746,81.77,713.346z"/>
	</g>
	<g>
		<path d="M222.74,713.346c0-0.62,0.25-1.09,0.75-1.41l3.54-2.7c0.24-0.2,0.51-0.3,0.81-0.3c0.44,0,0.84,0.119,1.2,0.359
			c0.36,0.24,0.54,0.541,0.54,0.9v19.5c0,0.381-0.195,0.68-0.585,0.9c-0.39,0.22-0.845,0.33-1.365,0.33c-0.54,0-1-0.11-1.38-0.33
			c-0.38-0.221-0.57-0.52-0.57-0.9v-16.02l-0.96,0.959c-0.2,0.181-0.44,0.271-0.72,0.271c-0.36,0-0.66-0.159-0.9-0.479
			C222.86,714.105,222.74,713.746,222.74,713.346z"/>
		<path d="M231.26,724.645c0-0.258,0.07-0.516,0.21-0.773l7.11-13.864c0.32-0.674,0.87-1.012,1.65-1.012
			c0.4,0,0.825,0.146,1.275,0.435c0.45,0.291,0.675,0.646,0.675,1.065c0,0.14-0.05,0.311-0.15,0.511l-5.76,11.52h3.51v-3.301
			c0-0.42,0.189-0.738,0.57-0.959c0.379-0.221,0.84-0.33,1.38-0.33s1,0.109,1.38,0.33s0.57,0.539,0.57,0.959v3.301h1.41
			c0.38,0,0.68,0.17,0.9,0.509c0.22,0.339,0.33,0.745,0.33,1.216c0,0.434-0.125,0.824-0.375,1.173s-0.535,0.522-0.855,0.522h-1.41
			v3.695c0,0.397-0.19,0.711-0.57,0.939c-0.38,0.23-0.84,0.346-1.38,0.346c-0.52,0-0.975-0.115-1.365-0.346
			c-0.39-0.229-0.585-0.542-0.585-0.939v-3.695h-7.2c-0.38,0-0.695-0.117-0.945-0.354
			C231.384,725.356,231.26,725.041,231.26,724.645z"/>
	</g>
	<g>
		<path d="M372.388,729.689v-2.925c0-0.884,0.302-1.759,0.906-2.623s1.336-1.647,2.197-2.352l2.878-2.087
			c0.945-0.705,1.75-1.451,2.413-2.237s0.996-1.572,0.996-2.358c0-0.706-0.237-1.331-0.709-1.875
			c-0.473-0.545-1.171-0.816-2.096-0.816c-0.785,0-1.428,0.227-1.931,0.68c-0.503,0.452-0.754,1.132-0.754,2.037
			c0,0.391-0.183,0.736-0.546,1.035c-0.364,0.299-0.851,0.447-1.461,0.447c-1.162,0-1.742-0.699-1.742-2.1
			c0-1.641,0.635-2.971,1.906-3.99c1.271-1.02,2.771-1.53,4.498-1.53c1.824,0,3.403,0.546,4.736,1.638s2,2.543,2,4.354
			c0,1.209-0.326,2.344-0.978,3.402c-0.652,1.059-1.449,1.955-2.391,2.69c-0.943,0.735-1.88,1.417-2.813,2.042
			c-0.933,0.625-1.726,1.25-2.379,1.875s-0.98,1.219-0.98,1.783v0.727h8.366c0.321,0,0.607,0.164,0.857,0.494
			c0.251,0.33,0.376,0.726,0.376,1.186s-0.123,0.865-0.367,1.215c-0.246,0.35-0.525,0.525-0.838,0.525h-10.468
			c-0.373,0-0.745-0.121-1.117-0.362C372.574,730.322,372.388,730.031,372.388,729.689z"/>
		<path d="M387.057,714.846v-4.621c0-0.299,0.175-0.579,0.525-0.84c0.35-0.26,0.745-0.39,1.185-0.39h10.65
			c0.379,0,0.76,0.13,1.14,0.39c0.38,0.261,0.57,0.541,0.57,0.84v3.421c0,0.521-0.25,1.28-0.75,2.28l-7.59,14.58
			c-0.2,0.379-0.57,0.569-1.11,0.569c-0.64,0-1.21-0.19-1.71-0.569c-0.5-0.381-0.75-0.84-0.75-1.381c0-0.26,0.06-0.49,0.18-0.689
			l7.83-14.04v-1.979h-6.27v2.43c0,0.359-0.2,0.66-0.6,0.899c-0.4,0.24-0.86,0.36-1.38,0.36c-0.54,0-0.995-0.12-1.365-0.36
			C387.242,715.506,387.057,715.205,387.057,714.846z"/>
	</g>
	<g>
		<path d="M438.606,756.827v-19.5c0-0.319,0.135-0.601,0.405-0.84c0.27-0.24,0.625-0.36,1.065-0.36h6.03
			c2.06,0,3.71,0.545,4.95,1.635c1.24,1.091,1.86,2.795,1.86,5.115v0.18c0,2.34-0.645,4.061-1.935,5.16
			c-1.29,1.101-2.995,1.65-5.115,1.65h-3.36v6.96c0,0.38-0.195,0.681-0.585,0.899c-0.39,0.221-0.845,0.33-1.365,0.33
			c-0.54,0-1-0.109-1.38-0.33C438.796,757.508,438.606,757.207,438.606,756.827z M442.506,746.807h3.36c1,0,1.774-0.289,2.325-0.869
			s0.825-1.44,0.825-2.58v-0.36c0-1.14-0.275-1.999-0.825-2.58c-0.55-0.579-1.325-0.87-2.325-0.87h-3.36V746.807z"/>
		<path d="M453.786,752.178v-2.551c0-1.64,0.64-3.049,1.92-4.23c1.28-1.18,2.83-1.77,4.65-1.77c1.7,0,3.155,0.537,4.365,1.613
			c1.21,1.074,1.815,2.426,1.815,4.053c0,0.594-0.075,1.084-0.225,1.471c-0.15,0.386-0.38,0.658-0.69,0.816
			s-0.595,0.258-0.855,0.297c-0.26,0.041-0.6,0.061-1.02,0.061h-6.09v0.449c0,0.86,0.32,1.556,0.96,2.086
			c0.64,0.529,1.49,0.795,2.55,0.795c0.76,0,1.51-0.19,2.25-0.57c0.74-0.38,1.22-0.57,1.44-0.57c0.42,0,0.77,0.195,1.05,0.585
			c0.28,0.39,0.42,0.765,0.42,1.125c0,0.561-0.505,1.115-1.515,1.665c-1.01,0.551-2.265,0.825-3.765,0.825
			c-2.141,0-3.885-0.565-5.235-1.694C454.461,755.502,453.786,754.018,453.786,752.178z M457.656,749.657h4.38
			c0.32,0,0.545-0.052,0.675-0.154s0.195-0.304,0.195-0.603c0-0.653-0.255-1.186-0.765-1.597c-0.51-0.411-1.135-0.616-1.875-0.616
			c-0.7,0-1.31,0.201-1.83,0.602c-0.52,0.402-0.78,0.93-0.78,1.584V749.657z"/>
		<path d="M468.846,756.827v-11.819c0-0.361,0.175-0.65,0.525-0.871c0.35-0.219,0.805-0.33,1.365-0.33
			c0.5,0,0.915,0.111,1.245,0.334c0.33,0.223,0.495,0.515,0.495,0.878v1.241c0.32-0.705,0.82-1.321,1.5-1.846
			c0.68-0.524,1.41-0.787,2.19-0.787h0.93c0.36,0,0.685,0.172,0.975,0.515c0.29,0.343,0.435,0.737,0.435,1.181
			c0,0.464-0.146,0.867-0.435,1.211c-0.29,0.343-0.615,0.514-0.975,0.514h-0.93c-0.92,0-1.725,0.41-2.415,1.227
			c-0.69,0.818-1.035,1.885-1.035,3.201v5.355c0,0.3-0.2,0.579-0.6,0.838c-0.4,0.26-0.86,0.389-1.38,0.389
			c-0.54,0-0.99-0.124-1.35-0.375C469.026,757.432,468.846,757.147,468.846,756.827z"/>
		<path d="M479.376,752.178v-2.4c0-1.84,0.54-3.325,1.62-4.455s2.7-1.695,4.86-1.695c1.36,0,2.5,0.24,3.42,0.721
			c0.92,0.479,1.38,1.02,1.38,1.619c0,0.42-0.15,0.84-0.45,1.26c-0.3,0.42-0.66,0.631-1.08,0.631c-0.12,0-0.475-0.135-1.065-0.405
			c-0.59-0.271-1.226-0.405-1.905-0.405c-1.94,0-2.91,0.914-2.91,2.739v2.382c0,1.826,0.979,2.739,2.94,2.739
			c0.68,0,1.31-0.146,1.89-0.435c0.58-0.29,0.95-0.436,1.11-0.436c0.48,0,0.875,0.2,1.185,0.6c0.31,0.4,0.465,0.811,0.465,1.23
			c0,0.62-0.485,1.186-1.455,1.695c-0.97,0.51-2.135,0.765-3.495,0.765c-2.18,0-3.81-0.56-4.89-1.681
			C479.917,755.527,479.376,754.037,479.376,752.178z"/>
		<path d="M492.216,752.178v-2.551c0-1.64,0.64-3.049,1.92-4.23c1.28-1.18,2.83-1.77,4.65-1.77c1.7,0,3.155,0.537,4.365,1.613
			c1.21,1.074,1.815,2.426,1.815,4.053c0,0.594-0.075,1.084-0.225,1.471c-0.15,0.386-0.38,0.658-0.69,0.816
			s-0.595,0.258-0.855,0.297c-0.26,0.041-0.6,0.061-1.02,0.061h-6.09v0.449c0,0.86,0.32,1.556,0.96,2.086
			c0.64,0.529,1.49,0.795,2.55,0.795c0.76,0,1.51-0.19,2.25-0.57c0.74-0.38,1.22-0.57,1.44-0.57c0.42,0,0.77,0.195,1.05,0.585
			c0.28,0.39,0.42,0.765,0.42,1.125c0,0.561-0.505,1.115-1.515,1.665c-1.01,0.551-2.265,0.825-3.765,0.825
			c-2.141,0-3.885-0.565-5.235-1.694C492.891,755.502,492.216,754.018,492.216,752.178z M496.086,749.657h4.38
			c0.32,0,0.545-0.052,0.675-0.154s0.195-0.304,0.195-0.603c0-0.653-0.255-1.186-0.765-1.597c-0.51-0.411-1.135-0.616-1.875-0.616
			c-0.7,0-1.31,0.201-1.83,0.602c-0.52,0.402-0.78,0.93-0.78,1.584V749.657z"/>
		<path d="M507.276,756.827v-11.819c0-0.361,0.175-0.65,0.525-0.871c0.35-0.219,0.815-0.33,1.395-0.33
			c0.48,0,0.885,0.111,1.215,0.334c0.33,0.223,0.495,0.516,0.495,0.879v0.908c0.32-0.646,0.835-1.19,1.545-1.635
			c0.71-0.443,1.535-0.666,2.475-0.666c1.381,0,2.586,0.6,3.615,1.801c1.03,1.199,1.545,2.629,1.545,4.289v7.11
			c0,0.38-0.194,0.681-0.584,0.899c-0.391,0.221-0.846,0.33-1.365,0.33c-0.5,0-0.945-0.109-1.336-0.328
			c-0.39-0.22-0.584-0.52-0.584-0.898v-7.09c0-0.699-0.261-1.322-0.78-1.871c-0.521-0.548-1.13-0.822-1.83-0.822
			c-0.66,0-1.235,0.25-1.725,0.748c-0.49,0.499-0.735,1.146-0.735,1.945v7.09c0,0.3-0.195,0.579-0.585,0.838
			c-0.39,0.26-0.845,0.389-1.365,0.389c-0.54,0-0.995-0.124-1.365-0.375C507.461,757.432,507.276,757.147,507.276,756.827z"/>
		<path d="M522.936,753.254v-14.381c0-0.336,0.2-0.617,0.6-0.845c0.4-0.228,0.841-0.341,1.32-0.341c0.52,0,0.976,0.11,1.365,0.332
			c0.391,0.221,0.585,0.495,0.585,0.822v4.965h3.54c0.301,0,0.54,0.152,0.721,0.457c0.18,0.303,0.27,0.662,0.27,1.073
			c0,0.413-0.09,0.771-0.27,1.075c-0.181,0.303-0.42,0.455-0.721,0.455h-3.54v6.256c0,0.553,0.125,0.943,0.375,1.172
			s0.685,0.342,1.306,0.342h1.17c0.52,0,0.924,0.168,1.215,0.502c0.289,0.335,0.435,0.732,0.435,1.193
			c0,0.48-0.146,0.889-0.435,1.223c-0.291,0.335-0.695,0.502-1.215,0.502h-1.17C524.785,758.057,522.936,756.457,522.936,753.254z"
			/>
		<path d="M533.227,752.237v-7.2c0-0.3,0.194-0.58,0.584-0.84c0.391-0.26,0.846-0.391,1.365-0.391c0.5,0,0.945,0.131,1.335,0.39
			c0.39,0.26,0.585,0.538,0.585,0.837v7.182c0,0.697,0.26,1.321,0.78,1.869c0.521,0.549,1.14,0.823,1.86,0.823
			c0.72,0,1.334-0.274,1.845-0.823c0.51-0.548,0.765-1.172,0.765-1.869v-7.211c0-0.318,0.195-0.598,0.586-0.838
			c0.389-0.238,0.844-0.359,1.364-0.359c0.56,0,1.021,0.121,1.38,0.36c0.36,0.24,0.54,0.521,0.54,0.841v7.229
			c0,1.62-0.64,3.04-1.92,4.26s-2.8,1.83-4.56,1.83c-1.761,0-3.285-0.61-4.575-1.83S533.227,753.857,533.227,752.237z"/>
		<path d="M548.256,754.214c0-1.575,0.6-2.683,1.8-3.324s2.93-0.962,5.19-0.962h1.229v-0.402c0-0.76-0.215-1.424-0.646-1.989
			c-0.43-0.565-1.094-0.849-1.994-0.849s-1.67,0.17-2.311,0.51s-1.01,0.51-1.109,0.51c-0.4,0-0.721-0.199-0.961-0.6
			c-0.239-0.4-0.359-0.84-0.359-1.32c0-0.58,0.515-1.084,1.545-1.516c1.029-0.43,2.115-0.645,3.255-0.645
			c2.18,0,3.8,0.555,4.86,1.665c1.06,1.11,1.59,2.505,1.59,4.185v7.351c0,0.341-0.18,0.63-0.54,0.87s-0.81,0.359-1.351,0.359
			c-0.5,0-0.914-0.127-1.244-0.385c-0.33-0.256-0.495-0.566-0.495-0.93v-0.93c-1.38,1.676-2.9,2.515-4.56,2.515
			c-1.141,0-2.076-0.351-2.806-1.052S548.256,755.555,548.256,754.214z M552.125,753.73c0,0.512,0.146,0.896,0.436,1.152
			s0.676,0.385,1.155,0.385c0.64,0,1.26-0.285,1.86-0.854c0.6-0.57,0.899-1.195,0.899-1.879v-0.598h-0.45
			c-1.22,0-2.175,0.118-2.865,0.355C552.471,752.53,552.125,753.01,552.125,753.73z"/>
		<path d="M563.496,756.827v-20.13c0-0.36,0.174-0.65,0.524-0.87c0.35-0.22,0.815-0.33,1.396-0.33c0.539,0,1,0.11,1.379,0.33
			c0.381,0.22,0.57,0.51,0.57,0.87v20.13c0,0.3-0.195,0.58-0.584,0.84c-0.391,0.261-0.846,0.39-1.365,0.39
			c-0.541,0-0.996-0.124-1.365-0.375C563.68,757.432,563.496,757.147,563.496,756.827z"/>
		<path d="M576.125,752.178v-2.461c0-1.66,0.525-3.09,1.574-4.289c1.051-1.201,2.305-1.801,3.766-1.801
			c0.88,0,1.654,0.223,2.324,0.666c0.67,0.444,1.186,0.988,1.546,1.635v-9.201c0-0.359,0.185-0.649,0.555-0.869
			c0.37-0.221,0.835-0.33,1.396-0.33c0.559,0,1.02,0.109,1.379,0.329c0.361,0.22,0.541,0.51,0.541,0.869v20.103
			c0,0.32-0.186,0.605-0.555,0.854c-0.371,0.25-0.826,0.374-1.365,0.374c-0.461,0-0.865-0.131-1.215-0.393
			c-0.351-0.264-0.525-0.546-0.525-0.849v-0.878c-0.32,0.645-0.865,1.205-1.635,1.679c-0.771,0.474-1.615,0.711-2.535,0.711
			c-1.381,0-2.601-0.62-3.66-1.86C576.654,755.227,576.125,753.797,576.125,752.178z M579.994,752.168
			c0,0.695,0.26,1.325,0.781,1.891c0.52,0.566,1.129,0.849,1.83,0.849c0.699,0,1.329-0.272,1.889-0.818
			c0.561-0.546,0.841-1.007,0.841-1.385v-2.978c0-0.793-0.275-1.438-0.825-1.936c-0.551-0.496-1.176-0.744-1.875-0.744
			c-0.721,0-1.34,0.273-1.859,0.819c-0.521,0.546-0.781,1.165-0.781,1.86V752.168z"/>
		<path d="M591.694,752.178v-2.551c0-1.64,0.64-3.049,1.92-4.23c1.28-1.18,2.83-1.77,4.649-1.77c1.7,0,3.155,0.537,4.365,1.613
			c1.211,1.074,1.815,2.426,1.815,4.053c0,0.594-0.075,1.084-0.226,1.471c-0.149,0.386-0.379,0.658-0.689,0.816
			s-0.596,0.258-0.855,0.297c-0.26,0.041-0.6,0.061-1.02,0.061h-6.09v0.449c0,0.86,0.32,1.556,0.96,2.086
			c0.64,0.529,1.489,0.795,2.55,0.795c0.76,0,1.51-0.19,2.25-0.57s1.22-0.57,1.439-0.57c0.421,0,0.771,0.195,1.051,0.585
			c0.279,0.39,0.42,0.765,0.42,1.125c0,0.561-0.506,1.115-1.516,1.665c-1.01,0.551-2.264,0.825-3.764,0.825
			c-2.141,0-3.886-0.565-5.236-1.694C592.369,755.502,591.694,754.018,591.694,752.178z M595.564,749.657h4.38
			c0.319,0,0.545-0.052,0.675-0.154s0.195-0.304,0.195-0.603c0-0.653-0.255-1.186-0.766-1.597c-0.51-0.411-1.135-0.616-1.875-0.616
			c-0.699,0-1.31,0.201-1.83,0.602c-0.52,0.402-0.779,0.93-0.779,1.584V749.657z"/>
		<path d="M612.755,756.827v-11.819c0-0.361,0.175-0.65,0.524-0.871c0.35-0.219,0.806-0.33,1.365-0.33
			c0.5,0,0.916,0.111,1.245,0.334c0.33,0.223,0.495,0.515,0.495,0.878v1.241c0.32-0.705,0.82-1.321,1.5-1.846
			s1.41-0.787,2.189-0.787h0.931c0.36,0,0.685,0.172,0.976,0.515c0.289,0.343,0.435,0.737,0.435,1.181
			c0,0.464-0.146,0.867-0.435,1.211c-0.291,0.343-0.615,0.514-0.976,0.514h-0.931c-0.92,0-1.725,0.41-2.414,1.227
			c-0.69,0.818-1.035,1.885-1.035,3.201v5.355c0,0.3-0.2,0.579-0.6,0.838c-0.4,0.26-0.861,0.389-1.381,0.389
			c-0.539,0-0.99-0.124-1.35-0.375C612.936,757.432,612.755,757.147,612.755,756.827z"/>
		<path d="M623.225,752.178v-2.551c0-1.64,0.64-3.049,1.92-4.23c1.279-1.18,2.83-1.77,4.65-1.77c1.699,0,3.154,0.537,4.365,1.613
			c1.209,1.074,1.814,2.426,1.814,4.053c0,0.594-0.075,1.084-0.225,1.471c-0.15,0.386-0.381,0.658-0.69,0.816
			s-0.595,0.258-0.854,0.297c-0.261,0.041-0.601,0.061-1.021,0.061h-6.09v0.449c0,0.86,0.319,1.556,0.96,2.086
			c0.64,0.529,1.49,0.795,2.55,0.795c0.76,0,1.51-0.19,2.25-0.57c0.739-0.38,1.22-0.57,1.44-0.57c0.42,0,0.77,0.195,1.05,0.585
			s0.42,0.765,0.42,1.125c0,0.561-0.505,1.115-1.515,1.665c-1.011,0.551-2.266,0.825-3.766,0.825c-2.141,0-3.885-0.565-5.234-1.694
			C623.899,755.502,623.225,754.018,623.225,752.178z M627.095,749.657h4.38c0.32,0,0.545-0.052,0.675-0.154
			s0.195-0.304,0.195-0.603c0-0.653-0.255-1.186-0.765-1.597s-1.136-0.616-1.875-0.616c-0.701,0-1.311,0.201-1.83,0.602
			c-0.521,0.402-0.78,0.93-0.78,1.584V749.657z"/>
		<path d="M637.775,752.178v-2.461c0-1.66,0.524-3.09,1.574-4.289c1.051-1.201,2.305-1.801,3.766-1.801
			c0.879,0,1.654,0.223,2.324,0.666c0.67,0.444,1.186,0.988,1.545,1.635v-9.201c0-0.359,0.186-0.649,0.555-0.869
			c0.371-0.221,0.836-0.33,1.396-0.33s1.021,0.109,1.38,0.329c0.36,0.22,0.54,0.51,0.54,0.869v20.103
			c0,0.32-0.185,0.605-0.555,0.854c-0.37,0.25-0.825,0.374-1.365,0.374c-0.46,0-0.865-0.131-1.215-0.393
			c-0.351-0.264-0.524-0.546-0.524-0.849v-0.878c-0.32,0.645-0.865,1.205-1.636,1.679s-1.615,0.711-2.534,0.711
			c-1.381,0-2.602-0.62-3.66-1.86C638.305,755.227,637.775,753.797,637.775,752.178z M641.645,752.168
			c0,0.695,0.26,1.325,0.78,1.891c0.52,0.566,1.13,0.849,1.83,0.849s1.329-0.272,1.89-0.818s0.84-1.007,0.84-1.385v-2.978
			c0-0.793-0.275-1.438-0.824-1.936c-0.551-0.496-1.176-0.744-1.875-0.744c-0.721,0-1.341,0.273-1.86,0.819
			c-0.521,0.546-0.78,1.165-0.78,1.86V752.168z"/>
		<path d="M653.734,752.237v-7.2c0-0.3,0.195-0.58,0.585-0.84s0.845-0.391,1.364-0.391c0.5,0,0.945,0.131,1.336,0.39
			c0.39,0.26,0.585,0.538,0.585,0.837v7.182c0,0.697,0.259,1.321,0.78,1.869c0.52,0.549,1.14,0.823,1.859,0.823
			c0.721,0,1.335-0.274,1.846-0.823c0.51-0.548,0.765-1.172,0.765-1.869v-7.211c0-0.318,0.194-0.598,0.585-0.838
			c0.39-0.238,0.845-0.359,1.365-0.359c0.559,0,1.02,0.121,1.379,0.36c0.361,0.24,0.541,0.521,0.541,0.841v7.229
			c0,1.62-0.641,3.04-1.92,4.26c-1.281,1.22-2.801,1.83-4.561,1.83s-3.285-0.61-4.574-1.83
			C654.379,755.277,653.734,753.857,653.734,752.237z"/>
		<path d="M669.124,752.178v-2.4c0-1.84,0.54-3.325,1.62-4.455s2.699-1.695,4.859-1.695c1.36,0,2.5,0.24,3.42,0.721
			c0.92,0.479,1.381,1.02,1.381,1.619c0,0.42-0.15,0.84-0.45,1.26s-0.66,0.631-1.08,0.631c-0.12,0-0.476-0.135-1.065-0.405
			s-1.225-0.405-1.904-0.405c-1.94,0-2.91,0.917-2.91,2.75v2.391c0,1.833,0.979,2.75,2.939,2.75c0.68,0,1.311-0.15,1.891-0.45
			s0.949-0.45,1.109-0.45c0.48,0,0.875,0.2,1.186,0.6c0.31,0.4,0.465,0.811,0.465,1.23c0,0.561-0.404,1.08-1.215,1.561
			c-0.811,0.479-1.814,0.77-3.016,0.869l-0.39,1.29c0.979,0.04,1.72,0.274,2.22,0.705s0.75,0.965,0.75,1.604
			c0,0.66-0.254,1.266-0.765,1.815c-0.51,0.55-1.306,0.825-2.385,0.825c-0.601,0-1.175-0.075-1.726-0.225
			c-0.55-0.15-0.824-0.365-0.824-0.646c0-0.18,0.064-0.41,0.195-0.69c0.129-0.279,0.294-0.42,0.494-0.42
			c0.061,0,0.27,0.07,0.631,0.211c0.359,0.139,0.729,0.209,1.109,0.209c0.939,0,1.41-0.33,1.41-0.989c0-0.66-0.48-1.03-1.44-1.11
			l-1.649-0.15l0.689-2.459c-1.84-0.16-3.225-0.785-4.154-1.875C669.589,755.303,669.124,753.897,669.124,752.178z"/>
		<path d="M681.783,754.214c0-1.575,0.6-2.683,1.801-3.324c1.199-0.642,2.93-0.962,5.189-0.962h1.23v-0.402
			c0-0.76-0.215-1.424-0.646-1.989s-1.095-0.849-1.995-0.849s-1.67,0.17-2.31,0.51c-0.641,0.34-1.011,0.51-1.11,0.51
			c-0.4,0-0.72-0.206-0.96-0.619c-0.239-0.413-0.36-0.867-0.36-1.363c0-0.563,0.516-1.053,1.545-1.471
			c1.03-0.418,2.115-0.627,3.256-0.627c2.18,0,3.799,0.555,4.859,1.665s1.59,2.505,1.59,4.185v7.351c0,0.341-0.18,0.63-0.539,0.87
			c-0.36,0.24-0.811,0.359-1.351,0.359c-0.5,0-0.915-0.127-1.245-0.385c-0.33-0.256-0.494-0.566-0.494-0.93v-0.93
			c-1.381,1.676-2.9,2.515-4.561,2.515c-1.141,0-2.075-0.351-2.805-1.052C682.148,756.574,681.783,755.555,681.783,754.214z
			 M682.804,739.008c0-0.553,0.18-0.99,0.54-1.316c0.359-0.324,0.705-0.521,1.035-0.591s0.664-0.113,1.004-0.134
			c0.601,0,1.33,0.146,2.191,0.436c0.859,0.29,1.549,0.435,2.069,0.435c0.479,0,0.965-0.12,1.455-0.36
			c0.489-0.239,0.814-0.359,0.976-0.359c0.34,0,0.589,0.15,0.75,0.449c0.159,0.301,0.239,0.57,0.239,0.811
			c0,0.44-0.095,0.806-0.285,1.096c-0.19,0.289-0.44,0.5-0.75,0.629c-0.31,0.131-0.585,0.216-0.825,0.256s-0.47,0.06-0.689,0.06
			c-0.701,0-1.471-0.145-2.311-0.435s-1.49-0.436-1.949-0.436c-0.48,0-0.971,0.12-1.471,0.36c-0.5,0.239-0.83,0.36-0.99,0.36
			c-0.34,0-0.59-0.15-0.75-0.451C682.883,739.518,682.804,739.247,682.804,739.008z M685.653,753.73
			c0,0.512,0.146,0.896,0.435,1.152c0.291,0.256,0.676,0.385,1.156,0.385c0.639,0,1.26-0.285,1.859-0.854
			c0.6-0.57,0.9-1.195,0.9-1.879v-0.598h-0.45c-1.22,0-2.175,0.118-2.865,0.355S685.653,753.01,685.653,753.73z"/>
		<path d="M696.213,752.178v-2.461c0-1.639,0.641-3.064,1.92-4.275c1.28-1.209,2.811-1.814,4.591-1.814
			c1.739,0,3.259,0.6,4.56,1.801c1.301,1.199,1.95,2.629,1.95,4.289v2.461c0,1.619-0.649,3.049-1.95,4.289s-2.82,1.86-4.56,1.86
			c-1.74,0-3.261-0.62-4.56-1.86C696.863,755.227,696.213,753.797,696.213,752.178z M700.084,752.168c0,0.715,0.26,1.35,0.779,1.906
			c0.52,0.555,1.141,0.833,1.86,0.833c0.7,0,1.314-0.278,1.845-0.833c0.529-0.557,0.795-1.191,0.795-1.906v-2.441
			c0-0.675-0.266-1.289-0.795-1.846c-0.53-0.556-1.145-0.834-1.845-0.834c-0.72,0-1.341,0.273-1.86,0.819s-0.779,1.165-0.779,1.86
			V752.168z"/>
	</g>
	<g>
		<path d="M38.151,408.51h-19.47c-0.379,0-0.68-0.17-0.9-0.51c-0.22-0.34-0.33-0.74-0.33-1.199V396.33c0-0.4,0.165-0.7,0.495-0.9
			c0.33-0.2,0.725-0.3,1.185-0.3c0.48,0,0.89,0.105,1.23,0.315c0.34,0.21,0.51,0.505,0.51,0.885v8.279h6v-4.589
			c0-0.38,0.15-0.675,0.45-0.885c0.3-0.21,0.67-0.315,1.11-0.315c0.4,0,0.75,0.105,1.05,0.315c0.3,0.21,0.45,0.505,0.45,0.885v4.589
			h8.22c0.38,0,0.68,0.195,0.9,0.586c0.22,0.39,0.33,0.845,0.33,1.365c0,0.539-0.11,1-0.33,1.379
			C38.831,408.32,38.531,408.51,38.151,408.51z"/>
		<path d="M38.151,396.18h-11.82c-0.36,0-0.65-0.175-0.87-0.525c-0.22-0.35-0.33-0.805-0.33-1.365c0-0.5,0.111-0.915,0.333-1.245
			c0.222-0.33,0.515-0.495,0.878-0.495h1.242c-0.706-0.32-1.322-0.82-1.846-1.5c-0.524-0.68-0.787-1.41-0.787-2.19v-0.93
			c0-0.36,0.172-0.685,0.515-0.975c0.343-0.29,0.737-0.435,1.181-0.435c0.464,0,0.868,0.146,1.21,0.435
			c0.343,0.29,0.515,0.615,0.515,0.975v0.93c0,0.92,0.409,1.725,1.227,2.415c0.818,0.69,1.885,1.035,3.201,1.035h5.355
			c0.299,0,0.579,0.2,0.838,0.6c0.259,0.4,0.389,0.86,0.389,1.38c0,0.54-0.125,0.99-0.375,1.35
			C38.756,396,38.471,396.18,38.151,396.18z"/>
		<path d="M33.501,385.71h-2.55c-1.64,0-3.049-0.64-4.23-1.92c-1.18-1.28-1.77-2.83-1.77-4.65c0-1.7,0.538-3.155,1.613-4.365
			c1.075-1.21,2.426-1.815,4.053-1.815c0.594,0,1.084,0.075,1.47,0.225s0.659,0.38,0.817,0.69c0.158,0.31,0.258,0.595,0.297,0.855
			c0.04,0.26,0.06,0.6,0.06,1.02v6.09h0.45c0.86,0,1.555-0.32,2.085-0.96c0.53-0.64,0.795-1.49,0.795-2.55
			c0-0.76-0.19-1.51-0.57-2.25c-0.38-0.74-0.57-1.22-0.57-1.44c0-0.42,0.195-0.77,0.585-1.05c0.39-0.28,0.765-0.42,1.125-0.42
			c0.561,0,1.115,0.505,1.665,1.515c0.55,1.01,0.825,2.265,0.825,3.765c0,2.141-0.565,3.885-1.695,5.235
			S35.341,385.71,33.501,385.71z M30.981,381.84v-4.38c0-0.32-0.051-0.545-0.154-0.675c-0.103-0.13-0.303-0.195-0.603-0.195
			c-0.653,0-1.186,0.255-1.597,0.765c-0.411,0.51-0.617,1.135-0.617,1.875c0,0.7,0.201,1.31,0.603,1.83
			c0.402,0.52,0.93,0.78,1.583,0.78H30.981z"/>
		<path d="M33.501,371.16h-2.46c-1.68,0-3.115-0.525-4.305-1.575c-1.189-1.05-1.785-2.325-1.785-3.825
			c0-0.9,0.222-1.705,0.667-2.415c0.444-0.709,0.988-1.245,1.634-1.605h-0.908c-0.363,0-0.656-0.169-0.878-0.51
			c-0.222-0.34-0.333-0.77-0.333-1.29c0-0.52,0.11-0.96,0.33-1.32c0.22-0.36,0.51-0.54,0.87-0.54h18.45
			c0.32,0,0.605,0.185,0.855,0.555c0.25,0.371,0.375,0.825,0.375,1.365s-0.125,1-0.376,1.38c-0.25,0.38-0.536,0.57-0.857,0.57H37.26
			c0.666,0.32,1.231,0.845,1.695,1.575c0.464,0.73,0.696,1.525,0.696,2.385c0,1.38-0.62,2.601-1.86,3.66
			C36.551,370.63,35.121,371.16,33.501,371.16z M33.492,367.29c0.694,0,1.325-0.27,1.89-0.81c0.566-0.54,0.849-1.16,0.849-1.86
			s-0.268-1.32-0.804-1.86c-0.536-0.54-1.002-0.81-1.399-0.81H31.05c-0.793,0-1.438,0.266-1.935,0.795
			c-0.496,0.53-0.744,1.135-0.744,1.815c0,0.74,0.273,1.38,0.819,1.92c0.545,0.54,1.166,0.81,1.86,0.81H33.492z"/>
		<path d="M33.561,355.2h-7.2c-0.3,0-0.58-0.195-0.84-0.585c-0.26-0.39-0.39-0.845-0.39-1.365c0-0.5,0.13-0.945,0.389-1.335
			c0.26-0.39,0.539-0.585,0.837-0.585h7.181c0.698,0,1.321-0.259,1.87-0.78c0.548-0.52,0.823-1.14,0.823-1.86
			c0-0.72-0.274-1.335-0.823-1.845c-0.548-0.51-1.172-0.765-1.87-0.765h-7.211c-0.319,0-0.598-0.195-0.838-0.585
			c-0.239-0.39-0.359-0.845-0.359-1.365c0-0.56,0.12-1.02,0.36-1.38c0.24-0.36,0.521-0.54,0.84-0.54h7.23
			c1.62,0,3.04,0.64,4.26,1.92c1.22,1.28,1.83,2.8,1.83,4.56c0,1.76-0.61,3.285-1.83,4.575
			C36.601,354.555,35.181,355.2,33.561,355.2z"/>
		<path d="M20.901,337.65c-0.52,0-0.89-0.22-1.11-0.66l-1.68-3.12c-0.1-0.16-0.15-0.33-0.15-0.51c0-0.14,0.05-0.31,0.15-0.51
			l1.65-3.12c0.26-0.42,0.65-0.63,1.17-0.63c0.3,0,0.57,0.08,0.81,0.24c0.24,0.161,0.36,0.36,0.36,0.6c0,0.101-0.03,0.2-0.09,0.3
			l-1.68,3.12l1.68,3.12c0.06,0.12,0.09,0.23,0.09,0.33c0,0.24-0.12,0.44-0.36,0.6C21.501,337.571,21.221,337.65,20.901,337.65z
			 M33.501,339.871h-2.55c-1.64,0-3.049-0.64-4.23-1.92c-1.18-1.28-1.77-2.83-1.77-4.65c0-1.7,0.538-3.155,1.613-4.365
			c1.075-1.21,2.426-1.815,4.053-1.815c0.594,0,1.084,0.075,1.47,0.225s0.659,0.38,0.817,0.69c0.158,0.31,0.258,0.595,0.297,0.855
			c0.04,0.26,0.06,0.6,0.06,1.02V336h0.45c0.86,0,1.555-0.32,2.085-0.96c0.53-0.64,0.795-1.49,0.795-2.55
			c0-0.76-0.19-1.51-0.57-2.25c-0.38-0.74-0.57-1.22-0.57-1.44c0-0.42,0.195-0.77,0.585-1.05c0.39-0.28,0.765-0.42,1.125-0.42
			c0.561,0,1.115,0.505,1.665,1.515c0.55,1.01,0.825,2.265,0.825,3.765c0,2.141-0.565,3.885-1.695,5.235
			S35.341,339.871,33.501,339.871z M30.981,336v-4.38c0-0.32-0.051-0.545-0.154-0.675c-0.103-0.13-0.303-0.195-0.603-0.195
			c-0.653,0-1.186,0.255-1.597,0.765c-0.411,0.51-0.617,1.135-0.617,1.875c0,0.7,0.201,1.31,0.603,1.83
			c0.402,0.52,0.93,0.78,1.583,0.78H30.981z"/>
		<path d="M38.151,324.811h-11.82c-0.36,0-0.65-0.175-0.87-0.525c-0.22-0.35-0.33-0.815-0.33-1.395c0-0.48,0.111-0.885,0.333-1.215
			c0.222-0.33,0.515-0.495,0.878-0.495h0.908c-0.646-0.32-1.19-0.835-1.634-1.545c-0.444-0.71-0.667-1.535-0.667-2.475
			c0-1.38,0.6-2.585,1.8-3.615c1.2-1.03,2.63-1.545,4.29-1.545h7.11c0.38,0,0.68,0.195,0.9,0.585c0.22,0.39,0.33,0.845,0.33,1.365
			c0,0.5-0.11,0.945-0.329,1.335s-0.519,0.585-0.897,0.585h-7.091c-0.698,0-1.321,0.26-1.87,0.78
			c-0.548,0.521-0.822,1.13-0.822,1.83c0,0.66,0.249,1.235,0.748,1.725c0.499,0.49,1.146,0.735,1.944,0.735h7.091
			c0.299,0,0.579,0.195,0.838,0.585c0.259,0.39,0.389,0.845,0.389,1.365c0,0.54-0.125,0.995-0.375,1.365
			C38.756,324.626,38.471,324.811,38.151,324.811z"/>
		<path d="M33.501,309.601h-2.4c-1.84,0-3.325-0.54-4.455-1.62s-1.695-2.7-1.695-4.86c0-1.36,0.24-2.5,0.72-3.42
			s1.02-1.38,1.62-1.38c0.42,0,0.84,0.15,1.26,0.45c0.42,0.3,0.63,0.66,0.63,1.08c0,0.12-0.135,0.475-0.405,1.065
			c-0.27,0.59-0.405,1.226-0.405,1.905c0,1.94,0.913,2.91,2.739,2.91h2.382c1.826,0,2.739-0.979,2.739-2.94
			c0-0.68-0.145-1.31-0.435-1.89c-0.29-0.58-0.435-0.95-0.435-1.11c0-0.48,0.2-0.875,0.6-1.185c0.4-0.31,0.81-0.465,1.23-0.465
			c0.62,0,1.185,0.485,1.695,1.455c0.51,0.97,0.765,2.135,0.765,3.495c0,2.18-0.56,3.81-1.68,4.89
			C36.851,309.061,35.361,309.601,33.501,309.601z"/>
		<path d="M20.241,296.311c-0.471,0-0.873-0.212-1.208-0.638c-0.334-0.424-0.502-0.948-0.502-1.57c0-0.559,0.167-1.035,0.502-1.43
			c0.335-0.395,0.737-0.592,1.208-0.592c0.453,0,0.851,0.197,1.194,0.592c0.344,0.395,0.516,0.871,0.516,1.43
			c0,0.622-0.171,1.146-0.516,1.57C21.092,296.099,20.694,296.311,20.241,296.311z M38.151,295.951h-11.82
			c-0.36,0-0.65-0.173-0.87-0.519c-0.22-0.346-0.33-0.789-0.33-1.327s0.11-0.985,0.33-1.341c0.22-0.355,0.51-0.534,0.87-0.534h11.82
			c0.3,0,0.58,0.188,0.84,0.563c0.26,0.375,0.39,0.813,0.39,1.312c0,0.52-0.125,0.957-0.375,1.312
			C38.756,295.773,38.471,295.951,38.151,295.951z"/>
		<path d="M35.538,290.071c-1.575,0-2.683-0.6-3.324-1.8s-0.962-2.93-0.962-5.19v-1.23H30.85c-0.761,0-1.424,0.215-1.99,0.645
			s-0.849,1.095-0.849,1.995c0,0.9,0.17,1.67,0.51,2.31c0.34,0.641,0.51,1.01,0.51,1.11c0,0.4-0.2,0.72-0.6,0.96
			c-0.399,0.24-0.84,0.36-1.32,0.36c-0.58,0-1.084-0.515-1.515-1.545c-0.43-1.03-0.645-2.115-0.645-3.255
			c0-2.18,0.555-3.8,1.665-4.86c1.11-1.06,2.505-1.59,4.185-1.59h7.35c0.34,0,0.63,0.18,0.87,0.54c0.24,0.36,0.36,0.81,0.36,1.35
			c0,0.5-0.128,0.915-0.385,1.245c-0.256,0.33-0.566,0.495-0.93,0.495h-0.93c1.676,1.38,2.515,2.9,2.515,4.56
			c0,1.14-0.35,2.075-1.051,2.805S36.878,290.071,35.538,290.071z M35.054,286.202c0.513,0,0.897-0.145,1.153-0.435
			s0.384-0.675,0.384-1.155c0-0.64-0.285-1.26-0.854-1.86c-0.569-0.6-1.195-0.9-1.879-0.9h-0.598v0.45
			c0,1.22,0.119,2.175,0.356,2.865S34.333,286.202,35.054,286.202z"/>
	</g>
	<g>
		<path d="M518.775,724.645c0-0.258,0.07-0.516,0.211-0.773l7.109-13.864c0.32-0.674,0.87-1.012,1.65-1.012
			c0.399,0,0.824,0.146,1.274,0.435c0.45,0.291,0.675,0.646,0.675,1.065c0,0.14-0.05,0.311-0.149,0.511l-5.761,11.52h3.511v-3.301
			c0-0.42,0.189-0.738,0.569-0.959s0.84-0.33,1.381-0.33c0.539,0,1,0.109,1.379,0.33c0.381,0.221,0.57,0.539,0.57,0.959v3.301h1.41
			c0.38,0,0.68,0.17,0.9,0.509c0.22,0.339,0.33,0.745,0.33,1.216c0,0.434-0.125,0.824-0.375,1.173s-0.535,0.522-0.855,0.522h-1.41
			v3.695c0,0.397-0.189,0.711-0.57,0.939c-0.379,0.23-0.84,0.346-1.379,0.346c-0.521,0-0.976-0.115-1.365-0.346
			c-0.391-0.229-0.585-0.542-0.585-0.939v-3.695h-7.2c-0.381,0-0.695-0.117-0.945-0.354
			C518.9,725.356,518.775,725.041,518.775,724.645z"/>
		<path d="M535.246,724.235v-8.37c0-2.38,0.635-4.119,1.904-5.22s2.975-1.65,5.115-1.65s3.85,0.55,5.13,1.65s1.921,2.84,1.921,5.22
			v8.37c0,2.38-0.641,4.12-1.921,5.22c-1.28,1.101-2.989,1.65-5.13,1.65s-3.846-0.55-5.115-1.65
			C535.881,728.355,535.246,726.615,535.246,724.235z M539.146,724.235c0,2.3,1.04,3.45,3.12,3.45c2.1,0,3.15-1.15,3.15-3.45v-8.37
			c0-2.3-1.051-3.449-3.15-3.449c-2.08,0-3.12,1.149-3.12,3.449V724.235z M541.275,721.318c-0.26-0.285-0.39-0.658-0.39-1.119
			s0.124-0.828,0.375-1.103c0.25-0.274,0.595-0.411,1.035-0.411c0.42,0,0.755,0.137,1.005,0.411s0.375,0.642,0.375,1.103
			s-0.125,0.834-0.375,1.119s-0.585,0.427-1.005,0.427C541.875,721.745,541.535,721.604,541.275,721.318z"/>
	</g>
	<g>
		<path d="M668.591,725.676c0-0.66,0.159-1.12,0.479-1.381c0.32-0.26,0.811-0.39,1.471-0.39c0.76,0,1.275,0.13,1.545,0.39
			c0.27,0.261,0.404,0.631,0.404,1.11c0,0.72,0.29,1.28,0.871,1.681c0.579,0.4,1.319,0.6,2.219,0.6c2.121,0,3.181-1.11,3.181-3.33
			v-0.57c0-1.119-0.274-1.959-0.825-2.52s-1.324-0.84-2.324-0.84h-4.44c-0.581,0-0.985-0.129-1.216-0.389
			c-0.229-0.258-0.344-0.637-0.344-1.133c0-0.08,0.033-0.205,0.102-0.373c0.068-0.17,0.104-0.304,0.104-0.403l0.604-7.903
			c0.06-0.819,0.31-1.229,0.75-1.229h9.239c0.361,0,0.646,0.171,0.855,0.511s0.314,0.74,0.314,1.199c0,0.461-0.104,0.86-0.313,1.2
			c-0.209,0.341-0.493,0.511-0.852,0.511h-6.725l-0.39,4.949h2.311c2.139,0,3.85,0.516,5.129,1.545c1.28,1.03,1.92,2.655,1.92,4.875
			v0.57c0,2.32-0.64,4.025-1.92,5.115c-1.279,1.09-2.969,1.635-5.069,1.635c-2.181,0-3.905-0.535-5.175-1.605
			C669.226,728.431,668.591,727.156,668.591,725.676z"/>
		<path d="M683.92,725.646c0-0.58,0.141-0.979,0.42-1.2c0.28-0.22,0.76-0.33,1.44-0.33c0.78,0,1.31,0.105,1.59,0.314
			c0.28,0.211,0.421,0.566,0.421,1.065c0,0.681,0.279,1.216,0.84,1.604c0.559,0.391,1.319,0.586,2.279,0.586
			c1.12,0,1.936-0.256,2.445-0.766s0.765-1.334,0.765-2.475v-0.57c0-1.899-1.101-2.85-3.3-2.85c-0.76,0-1.141-0.51-1.141-1.53
			s0.387-1.53,1.162-1.53c0.873,0,1.547-0.193,2.023-0.581s0.715-1.169,0.715-2.343c0-1.75-0.88-2.625-2.64-2.625
			c-1.78,0-2.67,0.666-2.67,1.998c0,0.995-0.62,1.492-1.86,1.492c-0.84,0-1.385-0.114-1.635-0.343
			c-0.25-0.229-0.375-0.671-0.375-1.328c0-0.582,0.109-1.159,0.33-1.731c0.22-0.572,0.564-1.129,1.035-1.672
			c0.469-0.541,1.154-0.983,2.055-1.324c0.9-0.342,1.95-0.513,3.15-0.513c4.239,0,6.359,1.797,6.359,5.39
			c0,1.195-0.207,2.236-0.621,3.123s-0.994,1.499-1.74,1.838c2.033,0.8,3.052,2.31,3.052,4.529v0.57c0,2.279-0.665,3.96-1.995,5.04
			s-3.065,1.62-5.205,1.62c-2.26,0-3.975-0.561-5.145-1.68C684.506,728.306,683.92,727.045,683.92,725.646z"/>
	</g>
	<g>
		<path d="M817.41,724.235v-8.37c0-2.38,0.655-4.119,1.966-5.22c1.31-1.101,3.064-1.65,5.265-1.65c2.221,0,3.915,0.556,5.085,1.665
			c1.171,1.11,1.755,2.385,1.755,3.825c0,0.601-0.145,1.021-0.435,1.26c-0.29,0.24-0.755,0.36-1.396,0.36
			c-1.359,0-2.039-0.49-2.039-1.471c0-0.68-0.296-1.219-0.886-1.619s-1.315-0.6-2.175-0.6c-2.18,0-3.27,1.149-3.27,3.449v3.27
			c0.859-1.02,2.189-1.529,3.99-1.529c1.879,0,3.385,0.48,4.514,1.439c1.131,0.961,1.695,2.551,1.695,4.771v0.42
			c0,2.38-0.635,4.12-1.904,5.22c-1.271,1.101-2.976,1.65-5.115,1.65c-2.141,0-3.851-0.55-5.131-1.65
			C818.051,728.355,817.41,726.615,817.41,724.235z M821.281,724.538c0,2.339,1.06,3.507,3.18,3.507c2.08,0,3.119-1.168,3.119-3.507
			v-0.396c0-2.318-1.049-3.477-3.149-3.477s-3.149,1.066-3.149,3.201V724.538z"/>
		<path d="M833.881,724.235v-8.37c0-2.38,0.654-4.119,1.965-5.22c1.31-1.101,3.064-1.65,5.265-1.65c2.22,0,3.915,0.556,5.085,1.665
			c1.17,1.11,1.756,2.385,1.756,3.825c0,0.601-0.146,1.021-0.436,1.26c-0.291,0.24-0.756,0.36-1.395,0.36
			c-1.361,0-2.041-0.49-2.041-1.471c0-0.68-0.295-1.219-0.885-1.619s-1.314-0.6-2.175-0.6c-2.181,0-3.271,1.149-3.271,3.449v3.27
			c0.86-1.02,2.19-1.529,3.99-1.529c1.88,0,3.385,0.48,4.516,1.439c1.129,0.961,1.695,2.551,1.695,4.771v0.42
			c0,2.38-0.636,4.12-1.906,5.22c-1.27,1.101-2.975,1.65-5.114,1.65c-2.141,0-3.851-0.55-5.13-1.65
			C834.521,728.355,833.881,726.615,833.881,724.235z M837.75,724.538c0,2.339,1.061,3.507,3.181,3.507
			c2.079,0,3.12-1.168,3.12-3.507v-0.396c0-2.318-1.051-3.477-3.15-3.477s-3.15,1.066-3.15,3.201V724.538z"/>
	</g>
	<g>
		<path d="M968.791,714.846v-4.621c0-0.299,0.175-0.579,0.525-0.84c0.35-0.26,0.744-0.39,1.185-0.39h10.649
			c0.38,0,0.76,0.13,1.141,0.39c0.379,0.261,0.57,0.541,0.57,0.84v3.421c0,0.521-0.251,1.28-0.75,2.28l-7.59,14.58
			c-0.201,0.379-0.57,0.569-1.111,0.569c-0.64,0-1.209-0.19-1.709-0.569c-0.5-0.381-0.75-0.84-0.75-1.381
			c0-0.26,0.06-0.49,0.18-0.689l7.83-14.04v-1.979h-6.27v2.43c0,0.359-0.201,0.66-0.601,0.899c-0.4,0.24-0.86,0.36-1.38,0.36
			c-0.54,0-0.995-0.12-1.365-0.36C968.976,715.506,968.791,715.205,968.791,714.846z"/>
		<path d="M984.24,725.615c0-0.6,0.145-1.02,0.436-1.26c0.289-0.24,0.754-0.36,1.395-0.36c1.359,0,2.04,0.491,2.04,1.47
			c0,0.681,0.295,1.221,0.885,1.621s1.325,0.6,2.205,0.6c2.16,0,3.24-1.15,3.24-3.45v-3.271c-0.86,1.021-2.19,1.53-3.99,1.53
			c-1.88,0-3.386-0.479-4.515-1.44c-1.131-0.959-1.695-2.549-1.695-4.77v-0.42c0-2.38,0.64-4.119,1.92-5.22
			c1.279-1.101,2.98-1.65,5.1-1.65c2.141,0,3.855,0.556,5.146,1.665c1.29,1.11,1.935,2.846,1.935,5.205v8.37
			c0,2.38-0.66,4.12-1.979,5.22c-1.32,1.101-3.08,1.65-5.28,1.65s-3.891-0.561-5.07-1.68
			C984.83,728.306,984.24,727.035,984.24,725.615z M988.141,715.959c0,2.317,1.05,3.477,3.149,3.477c2.101,0,3.15-1.067,3.15-3.202
			v-0.671c0-2.338-1.061-3.508-3.181-3.508c-2.08,0-3.119,1.17-3.119,3.508V715.959z"/>
	</g>
</g>
</svg>
